<?xml version="1.0" encoding="utf-8"?>
<!-- Generator: Adobe Illustrator 24.1.1, SVG Export Plug-In . SVG Version: 6.00 Build 0)  -->
<svg version="1.1" id="GraphQL_Logo" xmlns="http://www.w3.org/2000/svg" xmlns:xlink="http://www.w3.org/1999/xlink" x="0px"
	 y="0px" viewBox="0 0 400 400" style="enable-background:new 0 0 400 400;" xml:space="preserve">
<style type="text/css">
	.st0{fill:#6CC9F1;}
	.st1{fill:#2D3441;}
	.st2{fill:#77C0D1;}
</style>
<g>
	<path class="st1" d="M268.6,286.4c-1.8,0.8-3.4,0.7-5.1,0.7c-53.2,0-106.5,0-159.7,0c-2,0-3.4-0.5-4.9-2
		c-28.6-28.6-57.2-57.2-86-85.7c-2.2-2.2-2.2-3.3,0-5.4c26.6-26.4,53.2-52.9,79.7-79.4c1.6-1.6,2.3-1.6,3.9,0
		c19.4,19.5,38.9,39,58.4,58.4c36.9,36.7,73.8,73.5,110.7,110.2C266.6,284.2,267.6,285.2,268.6,286.4z"/>
	<path class="st2" d="M305.6,112.9c0.8,0.8,1.6,1.5,2.4,2.3c18,17.9,35.9,35.9,53.9,53.8c8.2,8.2,16.5,16.4,24.9,24.5
		c2.4,2.3,2.8,4,0.2,6.6c-26.6,26.3-53.1,52.7-79.5,79.1c-2,2-2.7,0.9-4-0.4c-23.1-23.1-46.2-46.2-69.3-69.4
		c-3.4-3.4-6.7-6.9-10.3-10.2c-2-1.8-1.7-3,0.1-4.8c10.8-10.6,21.5-21.4,32.2-32.1c15.7-15.7,31.4-31.4,47.1-47.2
		C304,114.4,304.7,113.7,305.6,112.9z"/>
</g>
</svg>
