<?xml version="1.0" encoding="utf-8"?>
<!-- Generator: Adobe Illustrator 24.1.1, SVG Export Plug-In . SVG Version: 6.00 Build 0)  -->
<svg version="1.1" id="GraphQL_Logo" xmlns="http://www.w3.org/2000/svg" xmlns:xlink="http://www.w3.org/1999/xlink" x="0px"
	 y="0px" viewBox="0 0 400 400" style="enable-background:new 0 0 400 400;" xml:space="preserve">
<style type="text/css">
	.st0{fill:#264DE4;}
	.st1{fill:#617EEB;}
	.st2{fill:#CFD8F9;}
	.st3{fill:#5977EA;}
	.st4{fill:#D4DCF9;}
	.st5{fill:#2965F1;}
	.st6{fill:#EBEBEB;}
	.st7{fill:#FFFFFF;}
</style>
<g>
	<path class="st0" d="M53.7,34.5c1-0.3,2-0.1,3-0.1c95.6,0,191.2,0,286.8,0c0.5,0,1,0,1.5,0c1.1-0.1,1.4,0.3,1.3,1.5
		c-1.1,11.3-2.1,22.6-3.1,33.9c-0.7,8.3-1.4,16.7-2.2,25c-0.9,10.2-1.8,20.3-2.8,30.5c-0.6,6.4-1.1,12.7-1.7,19.1
		c-0.8,8.5-1.5,17-2.3,25.5c-0.6,6.3-1.1,12.6-1.7,18.8c-0.8,8.7-1.6,17.3-2.3,26c-0.7,8-1.4,16-2.1,24c-0.8,8.7-1.6,17.3-2.3,26
		c-0.7,8-1.4,16-2.1,24c-0.8,8.7-1.6,17.5-2.4,26.3c-0.4,4.5-0.8,9.1-1.2,13.6c0,0.7-0.1,1.3-0.1,2c0,1.5-0.7,2.1-2.1,2.5
		c-6.1,1.6-12.1,3.3-18.2,5c-31.9,8.8-63.9,17.7-95.8,26.5c-0.4,0.1-0.8,0.3-1.2,0.4c-0.2,0.3-0.5,0.2-0.8,0.2
		c-0.4,0-0.8-0.1-1.1,0.2c-0.3,0-0.7,0-1,0c-0.4-0.4-0.9-0.2-1.4-0.2c-0.4,0-0.8,0-1.2-0.1c-4.2-0.3-8.1-1.8-12.1-2.9
		c-33.6-9.4-67.3-18.7-101-28c-2.8-0.8-4.1-2-4.3-5c-0.7-8.5-1.5-17-2.2-25.5c-0.9-10.3-1.8-20.6-2.8-30.9
		c-0.7-8.2-1.4-16.3-2.2-24.5c-1-10.5-1.9-21-2.8-31.4c-0.9-10-1.8-20-2.7-30c-0.9-10.4-1.9-20.8-2.8-31.2
		c-0.7-8.6-1.6-17.2-2.2-25.8c-0.6-7.9-1.4-15.8-2.1-23.8c-0.7-8.5-1.5-17-2.3-25.5c-0.8-8.5-1.5-17-2.3-25.5
		c-0.4-5.1-1-10.2-1-15.4c-0.1-1.6,0.3-3.3-0.5-4.8C53.7,34.8,53.7,34.7,53.7,34.5z"/>
	<path class="st1" d="M54.7,39.6c-0.6-0.7-0.2-1.9-0.9-2.6c0-0.7,0-1.3,0-2C55.2,36.3,54.7,38,54.7,39.6z"/>
	<path class="st2" d="M197.6,365.7c0-0.1,0-0.3,0-0.5c0.3,0,0.6,0,0.9,0c0.2,0.1,0.2,0.2,0.2,0.3c0,0.1-0.1,0.2-0.2,0.2
		C198.3,365.7,198,365.7,197.6,365.7z"/>
	<path class="st3" d="M198.6,365.7c0-0.1,0-0.3,0-0.4c0.4-0.1,0.8,0,1,0.4C199.3,365.7,199,365.7,198.6,365.7z"/>
	<path class="st3" d="M200.6,365.7c0.2-0.4,0.6-0.5,1-0.5c0.1,0.1,0.2,0.2,0.1,0.3s-0.1,0.1-0.1,0.1
		C201.3,365.7,201,365.7,200.6,365.7z"/>
	<path class="st4" d="M201.6,365.7c0-0.1,0-0.3,0-0.5c0.3,0,0.6,0,1,0c0,0.1,0,0.3,0,0.5C202.3,365.7,202,365.7,201.6,365.7z"/>
	<path class="st5" d="M108.5,95.3c0.3-0.6,0.9-0.6,1.5-0.6c1.3,0,2.7,0,4,0c27.4,0,54.8,0,82.1,0c0.6,0,1.2,0,1.7,0
		c2.1,0,2.2,0,2.2-2.3c0-10,0-19.9,0-29.9c0-0.4,0-0.8,0-1.2c0-2.4,0-2.5,2.5-2.5c38.2,0,76.3,0,114.5,0c0.4,0,0.8,0,1.2,0
		c0.8,0,1.2,0.3,1.2,1.2c0,0.5,0,1,0,1.5c-0.6,3.4-0.6,6.9-1,10.3c-0.6,4.6-0.6,9.2-1.4,13.8c-0.3,1.9-0.3,3.8-0.4,5.7
		c-0.1,2.7-0.5,5.4-0.7,8.1c-0.3,2.6-0.2,5.3-0.8,7.9c-0.5,2.1-0.3,4.3-0.5,6.4c-0.2,2.7-0.4,5.4-0.7,8.1c-0.3,2.6-0.2,5.3-0.7,7.9
		c-0.4,2-0.4,4.1-0.5,6.2c-0.2,5-0.8,9.9-1.2,14.8c-0.4,4.4-0.8,8.8-1.2,13.3c-0.3,2.6-0.4,5.3-0.7,7.9c-0.3,2.9-0.1,5.8-0.8,8.6
		c-0.4,1.8-0.5,3.8-0.5,5.7c-0.2,4.8-0.8,9.5-1.2,14.3c-0.4,4.4-0.8,8.8-1.3,13.3c-0.3,2.7-0.5,5.4-0.7,8.1
		c-0.2,2.8-0.3,5.6-0.8,8.3c-0.4,1.9-0.3,4-0.5,5.9c-0.2,2.7-0.6,5.4-0.7,8.1c-0.1,2.8-0.3,5.6-0.8,8.3c-0.4,1.9-0.3,3.9-0.5,5.9
		c-0.2,2.6-0.4,5.3-0.7,7.9c-0.3,2.9-0.2,5.9-0.8,8.8c-0.4,1.8-0.3,3.8-0.4,5.7c-0.2,2.6-0.5,5.3-0.7,7.9c-0.3,2.7-0.2,5.4-0.8,8.1
		c-0.4,2.2-0.3,4.4-0.5,6.7c-0.2,2.6-0.7,5.2-0.7,7.9c0.1,2-0.1,2.2-2.1,2.7c-6.6,1.8-13.2,3.6-19.8,5.5c-7.8,2.1-15.6,4.3-23.4,6.5
		c-11.3,3.1-22.6,6.3-33.9,9.5c-5.4,1.5-10.8,3-16.2,4.4c-1.4,0.4-1.6,0.2-1.6-1.2c0-3.5,0-7,0-10.5c0-7.6,0-15.3,0-22.9
		c0-1,0.1-2-0.5-2.9c0.4-0.7,1.1-0.9,1.8-1.1c23.5-6.5,47-13.1,70.5-19.5c1.8-0.5,2.6-1.4,2.7-3.3c0.9-11.1,2-22.3,3-33.4
		c0.7-8.2,1.5-16.3,2.2-24.5c0.9-10.4,1.9-20.8,2.7-31.2c0.8-9.8,1.8-19.6,2.6-29.4c0.9-10.6,1.9-21.1,2.8-31.7
		c0.7-8.1,1.4-16.2,2.2-24.2c0.2-1.9,0-3.8,0.4-5.7c0.3-1.6-0.4-2.4-1.9-2.4c-0.5,0-1,0-1.5,0c-28.6,0-57.2-0.1-85.9,0
		c-29.6,0.1-59.2,0-88.8,0.1C111.3,96,109.8,96.3,108.5,95.3z"/>
	<path class="st6" d="M201.3,302c-0.4,0.5-1.1,0.3-1.6,0.4c-5.9-1.7-11.8-3.4-17.7-5c-18-5-35.9-10-53.9-15
		c-0.5-0.1-1.1-0.4-1.7-0.4c-1-0.1-1.3-0.7-1.4-1.7c-0.5-5.9-1-11.7-1.5-17.6c-0.8-8.5-1.5-17-2.3-25.5c-0.3-3.9-0.7-7.8-1-11.6
		c-0.1-0.9,0.2-1.4,1.2-1.4c0.4,0,0.8,0,1.2,0c10.6,0,21.2,0,31.9,0c0.3,0,0.7,0,1,0c1.1-0.1,1.4,0.4,1.5,1.4
		c0.2,3.2,0.6,6.4,0.9,9.7c0.5,5.4,1,10.7,1.5,16.1c0.2,2,0.2,2,2.2,2.6c7.5,2,15,4,22.5,6.1c5.4,1.4,10.7,2.9,16,4.4
		c0.1,0.1,0.2,0.2,0.3,0.3c0.7,1.2,0.5,2.6,0.5,3.9c0,9.3,0,18.6,0,27.9C200.9,298.4,201,300.2,201.3,302z"/>
	<path class="st6" d="M108.5,95.3c0.9,0,1.8,0,2.7,0c58.8,0,117.7,0,176.5,0c0.7,0,1.5,0,2.2,0c1.7,0,1.7,0.1,1.6,1.7
		c0,0.6,0,1.3-0.4,1.9c-1-2-2.6-2.3-4.7-2.3c-27.3,0-54.6,0-81.9,0c-3.7,0-3.8,0.1-3.8,3.7c0,9,0,17.9,0,26.9c0,3.4,0.2,3.6,3.7,3.6
		c14.1,0,28.2,0,42.3,0c1.1,0,2.2,0,3.2,0.1c1,0.1,2,0.4,2.2,1.6c0.2,1.2,0.5,2.5-1,3.2c-0.8-2.5-2.7-2.8-5-2.8
		c-14.1,0.1-28.2,0-42.2,0c-1.4,0-2.8,0.2-4-0.8c-1,0-2-0.1-3-0.1c-27.5,0-54.9,0-82.4,0c-3.1,0-3,0-3.3-3.1
		c-0.7-8.6-1.6-17.2-2.3-25.8C108.9,100.5,108.7,97.9,108.5,95.3z"/>
	<path class="st6" d="M118.5,205.9c-0.5-5.2-1-10.4-1.5-15.5c-0.6-6.9-1.3-13.8-1.9-20.7c0.5-0.6,1.2-0.4,1.9-0.4
		c27.3,0,54.5,0,81.8,0c0.5,0,1,0,1.5,0.1c0.7,0.8,0.7,1.8,0.7,2.8c0,10.3,0,20.6,0,30.8c0,1,0,2-0.7,2.8c-0.7,0.3-1.5,0.2-2.2,0.2
		c-25.8,0-51.6,0-77.4,0C119.9,206,119.2,206.2,118.5,205.9z"/>
	<path class="st5" d="M118.5,205.9c26.7,0,53.4,0,80.2,0c0.5,0,1,0,1.5-0.1c1-0.8,2.2-0.7,3.3-0.7c12.7,0,25.4,0,38,0
		c3.8,0,4.5,0.6,4.1,4.4c-0.9,10-1.7,20-2.7,29.9c-0.4,3.8-0.7,7.6-1,11.4c-0.2,2.5-1.4,3.6-3.7,4.2c-9,2.4-18.1,4.9-27.1,7.3
		c-3,0.8-6,1.8-9.1,2.4c-0.6,0.1-1.2,0-1.7-0.4c0-18.2,0-36.4,0-54.5c0-3.6,0.3-3.3-3.4-3.3c-25.1,0-50.3,0-75.4,0
		C120.4,206.3,119.3,206.7,118.5,205.9z"/>
	<path class="st5" d="M200.1,169.5c-0.8,0-1.6-0.1-2.5-0.1c-26.6,0-53.1,0-79.7,0c-1,0-2-0.1-3,0.2c0.2-0.4,0.5-0.6,1-0.6
		c0.7,0,1.5,0,2.2,0c26.3,0,52.5,0,78.8,0c3.3,0,3.1,0.2,3.1-3.1c0-11.3,0-22.5,0-33.8c0.8,0,1.6-0.1,2.5-0.1c15.3,0,30.6,0,45.9,0
		c2.9,0,2.9,0,2.9,2.9c0,0.2,0,0.5,0,0.7c1,1.5,0.3,3.1,0.2,4.6c-0.7,8.8-1.4,17.7-2.4,26.5c-0.4,3.3-0.7,3.6-4.1,3.6
		c-14,0-28,0-42,0C202.1,170.2,201,170.3,200.1,169.5z"/>
	<path class="st6" d="M200.2,264.2c0.5,0,1,0,1.4,0c-0.1,1-0.7,0.8-1.4,0.5c0,0-0.1-0.1-0.2-0.2
		C200.1,264.4,200.1,264.3,200.2,264.2z"/>
	<path class="st7" d="M200.2,264.7c0.5-0.1,1,0,1.4-0.5c6.1-1.7,12.1-3.4,18.2-5c6.4-1.7,12.8-3.5,19.2-5.2c1.4-0.4,2-0.9,2.1-2.5
		c0.7-9.2,1.6-18.3,2.4-27.5c0.5-5.1,1-10.2,1.4-15.3c0.2-2.9,0.4-2.7-2.5-2.7c-13.2,0-26.4,0-39.6,0c-0.9,0-1.8-0.1-2.7-0.1
		c0-12.1,0-24.2,0-36.3c0.9,0,1.8-0.1,2.7-0.1c14.1,0,28.2,0,42.3,0c0.5,0,1,0,1.5,0c1.2,0.1,1.7-0.3,1.8-1.6
		c0.2-3.7,0.6-7.4,1-11.1c0.6-7,1.3-14,2-21c0.1-0.3,0.4-0.6,0.4-0.9c0.3-2.9,0.1-3.1-2.8-3.1c-15.1,0-30.2,0-45.3,0
		c-0.4,0-0.8,0-1.2,0c-2.4,0-2.5,0-2.5-2.5c0-10.3,0-20.6,0-30.8c0-0.4,0-0.8,0-1.2c0-0.8,0.3-1.2,1.2-1.2c0.6,0,1.2,0,1.7,0
		c28.4,0,56.9,0,85.3,0c0.3,0,0.7,0,1,0c1.7,0.1,1.7,0.1,1.8,1.8c0,0.4,0,0.8,0.1,1.2c-0.1,5.3-0.8,10.6-1.3,15.8
		c-0.5,6.5-1.2,13-1.8,19.6c-0.8,8.7-1.6,17.5-2.4,26.2c-0.7,8.2-1.4,16.3-2.2,24.5c-0.7,8.4-1.5,16.8-2.3,25.3
		c-0.6,6.3-1.1,12.6-1.7,18.8c-0.8,8.7-1.6,17.3-2.3,26c-0.5,6.2-1.1,12.4-1.6,18.6c-0.2,2.1-0.5,4.1-0.5,6.2c0,1.4-0.6,2-2,2.3
		c-7.3,2-14.7,4.1-22,6.1c-16,4.4-32.1,8.9-48.1,13.3c-0.6,0.2-1.3,0.3-1.9,0.4c-0.6-0.1-1.1-0.4-1.1-1.1c0-0.6,0-1.2,0-1.7
		c0-10.8,0-21.5,0-32.3C200.1,266.2,200.2,265.4,200.2,264.7z"/>
</g>
</svg>
