<?xml version="1.0" encoding="utf-8"?>
<!-- Generator: Adobe Illustrator 24.1.1, SVG Export Plug-In . SVG Version: 6.00 Build 0)  -->
<svg version="1.1" id="GraphQL_Logo" xmlns="http://www.w3.org/2000/svg" xmlns:xlink="http://www.w3.org/1999/xlink" x="0px"
	 y="0px" viewBox="0 0 400 400" style="enable-background:new 0 0 400 400;" xml:space="preserve">
<style type="text/css">
	.st0{fill-rule:evenodd;clip-rule:evenodd;fill:#2B2E3A;}
	.st1{fill:#9FEAF9;}
</style>
<g>
	<circle class="st0" cx="200" cy="200" r="156"/>
	<g>
		<path class="st1" d="M166.5,131.4c-31.7-5.8-56.7,0.3-66.7,17.6c-7.5,12.9-5.3,30,5.2,48.3c0.9,1.6,2.8,2.2,4.4,1.3
			c1.6-0.9,2.2-2.8,1.3-4.4c0,0,0-0.1-0.1-0.1c-9.4-16.5-11.3-31.2-5.2-41.8c8.3-14.4,30.6-19.8,59.9-14.4c1.8,0.3,3.4-0.9,3.7-2.7
			C169.4,133.4,168.2,131.7,166.5,131.4z M121.4,219.5c12.8,14.1,29.5,27.3,48.4,38.3c46,26.5,94.9,33.6,119,17.2
			c1.5-1,1.9-3,0.9-4.5c-1-1.5-3-1.9-4.5-0.9c0,0-0.1,0-0.1,0.1c-21.6,14.7-68.1,8-112.1-17.4c-18.4-10.6-34.5-23.4-46.9-37
			c-1.2-1.3-3.3-1.4-4.6-0.2C120.3,216.1,120.2,218.1,121.4,219.5C121.4,219.5,121.4,219.5,121.4,219.5z"/>
		<path class="st1" d="M281.2,215.5c20.8-24.5,28-49.2,18-66.4c-7.3-12.7-22.8-19.4-43.4-19.7c-1.8,0-3.2,1.5-3.2,3.3
			c0,1.8,1.4,3.2,3.2,3.2c18.5,0.2,31.9,6,37.9,16.4c8.3,14.3,1.8,36.3-17.4,59c-1.2,1.4-1,3.4,0.3,4.6
			C277.9,217.1,280,217,281.2,215.5C281.2,215.6,281.2,215.6,281.2,215.5z M227.9,132.5c-18.8,4-38.7,11.9-57.9,23
			c-47.5,27.4-78.4,67.8-74.1,97.1c0.2,1.8,1.9,3,3.7,2.8c1.8-0.2,3-1.9,2.8-3.7c0,0,0-0.1,0-0.1c-3.8-26,25.5-64.3,70.9-90.5
			c18.6-10.7,37.9-18.4,56-22.2c1.8-0.3,2.9-2.1,2.6-3.8c-0.3-1.8-2.1-2.9-3.8-2.6C227.9,132.4,227.9,132.5,227.9,132.5L227.9,132.5
			z"/>
		<path class="st1" d="M151,272.8c10.9,30.3,28.6,48.9,48.6,48.9c14.6,0,28-9.9,38.5-27.4c0.9-1.5,0.5-3.5-1-4.5
			c-1.5-0.9-3.5-0.5-4.5,1c0,0,0,0.1,0,0.1c-9.4,15.7-21,24.2-33,24.2c-16.6,0-32.4-16.6-42.4-44.6c-0.6-1.7-2.4-2.6-4.1-2
			c-1.7,0.6-2.6,2.4-2,4.1C150.9,272.7,151,272.8,151,272.8L151,272.8z M250.1,266.9c5.6-17.9,8.6-38.7,8.6-60.2
			c0-53.8-18.8-100.2-45.7-112.2c-1.7-0.7-3.6,0.1-4.3,1.7c-0.7,1.6,0,3.5,1.6,4.2c23.9,10.6,41.8,54.7,41.8,106.2
			c0,20.9-2.9,41-8.3,58.3c-0.6,1.7,0.4,3.5,2.1,4.1C247.7,269.6,249.5,268.7,250.1,266.9C250.1,267,250.1,266.9,250.1,266.9
			L250.1,266.9z M311.3,263.7c0-8.6-7-15.6-15.6-15.6c-8.6,0-15.6,7-15.6,15.6c0,8.6,7,15.6,15.6,15.6
			C304.3,279.3,311.3,272.3,311.3,263.7z M304.8,263.7c0,5-4.1,9.1-9.1,9.1c-5,0-9.1-4.1-9.1-9.1s4.1-9.1,9.1-9.1
			C300.7,254.7,304.8,258.7,304.8,263.7z M103.1,279.3c8.6,0,15.6-7,15.6-15.6c0-8.6-7-15.6-15.6-15.6c-8.6,0-15.6,7-15.6,15.6
			C87.6,272.3,94.5,279.3,103.1,279.3z M103.1,272.8c-5,0-9.1-4.1-9.1-9.1c0-5,4.1-9.1,9.1-9.1s9.1,4.1,9.1,9.1
			C112.2,268.7,108.1,272.8,103.1,272.8z"/>
		<path class="st1" d="M199.5,110.4c8.6,0,15.6-7,15.6-15.6s-7-15.6-15.6-15.6s-15.6,7-15.6,15.6S190.9,110.4,199.5,110.4z
			 M199.5,103.9c-5,0-9.1-4.1-9.1-9.1s4.1-9.1,9.1-9.1c5,0,9.1,4.1,9.1,9.1S204.5,103.9,199.5,103.9z M201.9,217.7
			c-6.1,1.3-12.1-2.5-13.4-8.6c-1.3-6.1,2.5-12.1,8.6-13.4c6.1-1.3,12.1,2.5,13.4,8.6C211.8,210.4,208,216.3,201.9,217.7z"/>
	</g>
</g>
</svg>
