<?xml version="1.0" encoding="utf-8"?>
<!-- Generator: Adobe Illustrator 24.1.1, SVG Export Plug-In . SVG Version: 6.00 Build 0)  -->
<svg version="1.1" id="GraphQL_Logo" xmlns="http://www.w3.org/2000/svg" xmlns:xlink="http://www.w3.org/1999/xlink" x="0px"
	 y="0px" viewBox="0 0 400 400" style="enable-background:new 0 0 400 400;" xml:space="preserve">
<style type="text/css">
	.st0{fill:#000020;}
	.st1{fill:#00001F;}
	.st2{fill:#FEFEFE;}
</style>
<g>
	<path class="st0" d="M166.8,216.9c-1.1-2.8-2.7-1.9-4.6-0.8c-10,5.9-20.1,11.7-30.1,17.6c-19.9,11.7-39.8,23.3-59.6,35.1
		c-3.9,2.3-6.1-0.1-8.8-2c1.3-2.3,2.2-4.8,2.3-7.5c2.3-1.4,4.1-3.3,5.7-5.5c23.1-31.1,46.3-62.1,69.2-93.3c1.7-2.3,3.3-4.8,6.7-4.4
		c3.3,0.4,4.5,2.9,5.7,5.6c6,14.1,11.7,28.2,17.9,42.2c0.8,1.8,1.7,3.6,1.2,5.7C170.8,212.3,168.4,214.3,166.8,216.9z"/>
	<path class="st0" d="M352.8,176.1c0,20.3-16.6,36.6-37,36.7c-21.8,0.1-36.4-18.5-36.4-37.7c0-20.1,16.6-36.3,36.7-36.2
		C336.2,139.1,352.8,156,352.8,176.1z"/>
	<path class="st1" d="M166.8,216.9c-0.6-4,2.7-5.2,5-7.1c2.7,0.1,2.7,2.6,3.4,4.2c18,42.9,36.2,85.6,53.8,128.6
		c3.6,8.9,8.4,16,17.4,19.8c2.4,1,4.7,2.5,6.3,4.8c0.5,4.3,3.8,7.7,4.1,12.1c-9.2-5.6-18.5-11.1-27.8-16.7c-1.7-1-2.5-2.5-3.3-4.3
		c-19.6-46.7-39.2-93.4-58.8-140.1C166.9,217.9,166.9,217.4,166.8,216.9z"/>
	<g>
		<path class="st0" d="M142.8,68.1c4.8-2.9,9.6-5.9,14.5-8.7c22.7-13.2,45.6-26.2,68.2-39.5c3.6-2.1,6.5-2.2,10.1,0
			c6.8,4.2,13.8,8,20.9,11.7c2.7,1.4,4.3,3.3,5.2,6.2c8.8,27.2,17.6,54.3,26.7,81.4c1.4,4.3,0.4,6.6-3.3,9
			c-21.6,14.3-30.7,40.3-23.1,64.7c7.6,24.1,30,40.1,55.6,39.8c7.9-0.1,7.9-0.1,10.5,7.8c8.8,26.8,17.6,53.6,26.6,80.4
			c1.6,4.7,0.7,7.2-3.6,9.7c-28.6,16.3-57.1,32.8-85.6,49.3c-3.1,1.8-5.9,3.4-8.6-0.5c-2.5-3.6-4.3-7.6-5.4-11.8
			c-1.8-5.9-3.5-11.8-5.5-17.6c-10.9-32.4-21.4-65-32.2-97.5c-14.2-43.1-28.4-86.2-42.5-129.3c-3.5-10.7-7-21.5-10.8-32.1
			c-0.6-3.7,3.8-4.3,4.4-7.3c18-10.7,36.2-21,54.3-31.6c7.5-4.4,15.1-8.5,22.5-13c4.4-2.7,4.4-2.8,0.1-5.1
			c-13.8-7.7-9.1-7.3-22.1,0.1c-22.2,12.5-44.1,25.4-66.2,38c-1.6,0.9-3,2.1-4.4,3.3C144.2,74.8,142.3,72.6,142.8,68.1z"/>
		<path class="st1" d="M66,259.5c2.2,3.3,0.8,5.5-2.2,7.2c-5.5-3.1-11-6.2-16.5-9.3c-3.8-2.1-2.9-5-1.3-8.1
			c12.9-25.3,25.7-50.7,38.6-76c16.3-32.2,32.7-64.3,48.8-96.5c2.1-4.3,4.8-7.4,9.4-8.8c0.4,3.7,3,5.6,6,7c6.5,1,11.9,3.9,16,9
			c0.1,3.1-3,4-4.3,6.1c-2.2,1-3.9-0.4-5.5-1.3c-2.5-1.4-4.9-2.8-7.4-4.1c-6.1-3.2-6.1-3.2-9.3,3.2c-17.5,34.2-34.5,68.6-52.1,102.7
			c-9.6,18.6-18.7,37.5-28.5,56c-1.9,3.6-1.5,5.6,2.1,7.5C62.2,255.4,65.2,256.2,66,259.5z"/>
		<path class="st2" d="M252.8,367.2c-6.4-2.7-12-7.1-18-10.5c-1.9-1.1-2.2-3.2-3-5c-19.3-45.8-38.5-91.7-57.8-137.5
			c-0.6-1.5-1.4-3-2.1-4.4c-6.2-17-13.8-33.4-20.8-50c-1.6-3.8-4.6-4-7.4-0.8c-1,1.1-1.8,2.4-2.7,3.6
			c-23.2,31.3-46.5,62.6-69.8,93.9c-1.3,1.7-2.1,4.5-5.3,3c-0.5-0.4-1-0.8-1.5-1.2c-3.3-2.4-9.2-3.3-9.8-6.8
			c-0.6-3.3,3-7.4,4.9-11.1c26.4-52,52.8-104,79-156.1c2-3.9,3.4-4.7,7.2-2.2c4.7,3.1,9.9,5.4,14.8,8.1c1.7,1.2,2.4,3.1,3,5
			c29.4,89.6,58.9,179.1,88.3,268.7C252.3,365,252.5,366.1,252.8,367.2z"/>
		<path class="st2" d="M164.9,84.1c-5.1-3.4-10.5-6.4-16-9c-0.7-2.3,1.4-2.4,2.5-3c25.5-14.8,51-29.5,76.5-44.1
			c1.2-0.7,2.3-1.9,4.1-0.9c5.4,3.1,10.9,6.1,16.9,9.5c-23.2,13.4-45.6,26.4-68.1,39.3C175.5,78.7,170.7,82.5,164.9,84.1z"/>
	</g>
	<path class="st2" d="M287.4,175.4c0-11.8,7.3-22.4,18.4-26.6c11.1-4.2,23.5-1.1,31.4,7.7c2.2,2.5,2.9,4.7,1.8,8
		c-5.6,17.4-21.2,29.6-39.6,30.9c-2.9,0.2-4.7-0.7-6.3-3C289.4,187.4,287.4,181.7,287.4,175.4z"/>
</g>
</svg>
