<?xml version="1.0" encoding="utf-8"?>
<!-- Generator: Adobe Illustrator 24.1.1, SVG Export Plug-In . SVG Version: 6.00 Build 0)  -->
<svg version="1.1" id="GraphQL_Logo" xmlns="http://www.w3.org/2000/svg" xmlns:xlink="http://www.w3.org/1999/xlink" x="0px"
	 y="0px" viewBox="0 0 400 400" style="enable-background:new 0 0 400 400;" xml:space="preserve">
<style type="text/css">
	.st0{fill:#EF5033;}
</style>
<path class="st0" d="M356.8,196.2c0,3,0,6,0,9c-0.6,7-5.1,11.6-9.7,16.3c-42.1,42-84.4,83.9-126.1,126.4
	c-8.9,9.1-18.6,10.2-29.8,7.9c-2.9-0.6-4.8-2.4-6.7-4.3C149.7,316.7,115,282,80.2,247.2C70,237,59.9,226.6,49.5,216.7
	c-3.9-3.7-5.5-8-6-13c-0.2-2.8-0.2-5.7,0-8.6c0.4-5,2.4-9.1,6.1-12.9c29.1-28.9,58-57.9,87-86.9c0.9-0.9,1.7-1.7,2.6-2.6
	c3.6-3.3,5-3.4,8.6,0.1c10.1,9.9,20.1,20,30.1,30c2.2,2.2,2.8,4.5,2.1,7.4c-2.5,11,1,19.5,10.8,25.3c1.7,1,2.6,2.3,2.7,4.3
	c0.1,1.1,0.1,2.2,0.1,3.3c0,25.6,0,51.2,0,76.8c0,3.8-1,6.5-4.6,8.6c-8.2,4.9-11.5,14.6-9,24.2c2.2,8.5,10.6,15,19.6,15.4
	c9.9,0.4,18.5-5.2,21.7-14.1c3.2-8.7,0.1-19.6-7.5-24.8c-3.3-2.3-4.6-4.9-4.6-8.8c0.1-24.8,0-49.6,0-74.4c0-1,0-1.9,0.1-2.9
	c0.5-3.8,2.8-4.8,5.5-2.2c9.9,9.4,19.4,19.1,29,28.8c2,2,1.5,4.1,0.9,6.4c-2.9,13,5.6,25,18.6,26.6c11.3,1.4,21.8-6.2,24-17.5
	c2.1-11.1-5-22.2-16.1-25c-3.2-0.8-6.5-1.2-9.7-0.3c-3,0.9-5.2-0.2-7.3-2.3c-10-10-20-20-30-30.1c-2-2-2.7-4.1-2.3-6.9
	c1.5-9.9-1.5-17.9-10.3-23.4c-4.8-3-10.1-3.1-15.4-2.4c-3.1,0.4-5.2-0.4-7.3-2.5c-10.1-10.1-20.3-20.2-30.3-30.4
	c-3.8-3.9-3.8-5.2,0.1-9.2c8.5-8.7,17.2-17.1,25.6-25.8c3-3,6.9-2.6,10.4-3.9c3.3,0,6.5,0,9.8,0c6.2,0.5,10.5,3.9,14.7,8.2
	c42.9,43.1,85.9,86.2,129.1,129.1C353.1,185.1,356.3,189.7,356.8,196.2z"/>
</svg>
