<?xml version="1.0" encoding="utf-8"?>
<!-- Generator: Adobe Illustrator 24.1.1, SVG Export Plug-In . SVG Version: 6.00 Build 0)  -->
<svg version="1.1" id="GraphQL_Logo" xmlns="http://www.w3.org/2000/svg" xmlns:xlink="http://www.w3.org/1999/xlink" x="0px"
	 y="0px" viewBox="0 0 400 400" style="enable-background:new 0 0 400 400;" xml:space="preserve">
<style type="text/css">
	.st0{fill:#FFFFFF;}
</style>
<g>
	<path class="st0" d="M339.5,210.6c0,43,0,86,0,128.9c-93,0-186.1,0-279.1,0c0-93,0-186.1,0-279.1c93,0,186.1,0,279.1,0
		c0,44.6,0,89.2,0,133.8c-0.2-1-0.4-1.9-0.5-2.9c-0.7-4.9-1-9.9-2-14.8c-6.6-33.1-22.8-60.5-49.1-81.6
		C253.3,67.1,213.7,58.2,170.4,67c-29.8,6.1-54.8,21.2-74.8,44c-19.2,21.8-30.7,47.2-33.7,76.3c-2.9,27.7,1.2,54.3,14.2,79
		c17.3,32.9,43.3,56.1,78.6,68.4c6.8,2.4,11.1-0.6,11.1-7.8c-0.1-7.3-0.2-14.7-0.2-22c0-0.7-0.1-1.4-0.1-1.3
		c-6.8,0-13.3,0.2-19.8-0.1c-7.7-0.3-14.8-2.4-20.7-7.7c-3.7-3.4-5.4-7.8-7.4-12.2c-3.3-7.3-7.5-14.1-14.8-18.3
		c-1.6-0.9-2.9-2.7-4.1-4.2c-1.3-1.7-0.7-3.2,1.3-3.3c2.9-0.2,6-0.4,8.8,0.4c7.6,2.3,13.3,7.2,17.3,14c2.6,4.4,5.7,8.2,10.1,10.8
		c9.6,5.8,19.3,3.9,29,0.3c0.6-0.2,1.2-1.3,1.3-2.1c1-6.2,3.5-11.6,7.8-16.1c0.1-0.1,0.1-0.5,0-0.1c-8.4-2.1-17-3.6-25-6.4
		c-12.8-4.5-23.4-12.2-29.7-24.9c-4.5-9.1-6.9-18.8-7.7-28.9c-1.4-16.7,1.3-32.1,12.8-45.2c0.6-0.6,0.9-2,0.6-2.8
		c-3.5-10-3-19.9,0-29.9c1.8-6.2,3-6.9,9.4-5.6c0.2,0,0.3,0.1,0.5,0.1c10.2,2.7,19.5,7.1,28.3,12.8c1.1,0.7,2.9,1.2,4.2,0.8
		c21.8-5.5,43.6-5.5,65.3,0c1.2,0.3,2.8-0.1,4-0.7c7-3.5,13.7-7.3,20.8-10.6c4.3-2,9-3.4,13.9-2.7c0.7,0.1,1.8,0.7,2,1.3
		c4.2,10.8,5.8,21.9,2,33.2c-0.7,2.1-0.4,3.4,1,5c5.7,6.6,9.4,14.2,11.2,22.7c1.8,8.4,1.5,17,0.5,25.4c-1.3,10.9-4.2,21.4-10.6,30.5
		c-8.7,12.4-21.4,18.7-35.6,22.3c-5.3,1.3-10.7,2.1-16.2,3.1c1.4,1.9,2.9,3.5,4.1,5.4c4,6.5,4.8,13.8,4.8,21.2
		c0.1,12.1,0,24.3,0,36.4c0,6.2,4.1,9.2,10,7.3c10.6-3.6,20.7-8.3,30.1-14.3c18.1-11.5,32.5-26.6,43.8-44.6
		c10.1-16.2,16.6-33.7,19.2-52.7C338.6,219.2,339,214.9,339.5,210.6z"/>
	<path d="M339.3,210.9c-0.5,4.3-0.9,8.6-1.5,12.9c-2.5,18.9-9,36.5-19.2,52.7c-11.3,18.1-25.8,33.1-43.8,44.6
		c-9.4,6-19.5,10.7-30.1,14.3c-5.9,2-9.9-1.1-10-7.3c-0.1-12.1,0-24.3,0-36.4c0-7.4-0.8-14.7-4.8-21.2c-1.2-1.9-2.7-3.6-4.1-5.4
		c5.4-1,10.9-1.7,16.2-3.1c14.2-3.6,26.9-9.9,35.6-22.3c6.4-9.1,9.3-19.6,10.6-30.5c1-8.5,1.3-17-0.5-25.4
		c-1.8-8.5-5.5-16.1-11.2-22.7c-1.4-1.6-1.7-2.9-1-5c3.7-11.3,2.2-22.3-2-33.2c-0.2-0.6-1.3-1.2-2-1.3c-4.9-0.7-9.6,0.7-13.9,2.7
		c-7,3.3-13.8,7.1-20.8,10.6c-1.2,0.6-2.8,1-4,0.7c-21.8-5.5-43.6-5.5-65.3,0c-1.3,0.3-3.1-0.1-4.2-0.8
		c-8.8-5.6-18.2-10.1-28.3-12.8c-0.2,0-0.3-0.1-0.5-0.1c-6.4-1.3-7.6-0.6-9.4,5.6c-2.9,10-3.5,19.9,0,29.9c0.3,0.8-0.1,2.2-0.6,2.8
		c-11.5,13-14.2,28.5-12.8,45.2c0.9,10.1,3.2,19.8,7.7,28.9c6.2,12.6,16.8,20.3,29.7,24.9c8,2.8,16.6,4.3,25,6.4
		c0.1-0.4,0.1-0.1,0,0.1c-4.3,4.5-6.8,10-7.8,16.1c-0.1,0.8-0.7,1.9-1.3,2.1c-9.7,3.6-19.4,5.6-29-0.3c-4.3-2.7-7.5-6.5-10.1-10.8
		c-4-6.8-9.7-11.8-17.3-14c-2.7-0.8-5.9-0.6-8.8-0.4c-2,0.1-2.6,1.6-1.3,3.3c1.2,1.5,2.5,3.3,4.1,4.2c7.3,4.2,11.4,10.9,14.8,18.3
		c2,4.4,3.7,8.8,7.4,12.2c5.9,5.3,13,7.4,20.7,7.7c6.5,0.3,13,0.1,19.8,0.1c0-0.1,0.1,0.6,0.1,1.3c0.1,7.3,0.2,14.7,0.2,22
		c0.1,7.2-4.3,10.2-11.1,7.8c-35.4-12.3-61.3-35.5-78.6-68.4c-13-24.7-17.2-51.3-14.2-79c3.1-29,14.6-54.5,33.7-76.3
		c20-22.8,45-37.9,74.8-44c43.3-8.8,82.9,0,117.5,27.9c26.3,21.1,42.5,48.6,49.1,81.6c1,4.9,1.3,9.9,2,14.8c0.1,1,0.3,1.9,0.5,2.9
		C339.3,200,339.3,205.4,339.3,210.9z"/>
</g>
</svg>
