<?xml version="1.0" encoding="utf-8"?>
<!-- Generator: Adobe Illustrator 24.1.1, SVG Export Plug-In . SVG Version: 6.00 Build 0)  -->
<svg version="1.1" id="GraphQL_Logo" xmlns="http://www.w3.org/2000/svg" xmlns:xlink="http://www.w3.org/1999/xlink" x="0px"
	 y="0px" viewBox="0 0 400 400" style="enable-background:new 0 0 400 400;" xml:space="preserve">
<style type="text/css">
	.st0{fill:#264DE4;}
	.st1{fill:#AAAAAA;}
	.st2{fill:#617EEB;}
	.st3{fill:#CFD8F9;}
	.st4{fill:#5977EA;}
	.st5{fill:#D4DCF9;}
	.st6{fill:#2965F1;}
	.st7{fill:#EBEBEB;}
	.st8{fill:#FFFFFF;}
	.st9{fill:#E44D26;}
	.st10{fill:#F6C5B8;}
	.st11{fill:#FBE2DC;}
	.st12{fill:#F6C7BB;}
	.st13{fill:#F7CABE;}
	.st14{fill:#F16529;}
</style>
<g>
	<path class="st0" d="M-1578.5,9.4c3.9-1.1,7.9-0.6,11.9-0.6c383.7,0,767.3,0,1151,0c2,0,4,0.1,6,0c4.4-0.3,5.6,1.4,5.1,5.9
		c-4.3,45.4-8.3,90.8-12.3,136.2c-3,33.5-5.8,67-8.7,100.5c-3.6,40.8-7.4,81.5-11.1,122.3c-2.3,25.5-4.4,51.1-6.7,76.6
		c-3.1,34.1-6.2,68.3-9.2,102.4c-2.3,25.2-4.4,50.4-6.7,75.6c-3.1,34.8-6.3,69.6-9.4,104.4c-2.9,32.2-5.7,64.3-8.5,96.5
		c-3.1,34.8-6.3,69.6-9.4,104.4c-2.9,32.2-5.7,64.3-8.5,96.5c-3.1,35.1-6.3,70.3-9.5,105.4c-1.6,18.2-3.1,36.5-4.7,54.7
		c-0.2,2.7-0.6,5.3-0.6,8c0,5.9-3,8.5-8.6,10c-24.4,6.5-48.7,13.4-73.1,20.1c-128.2,35.5-256.4,71-384.6,106.5
		c-1.6,0.4-3.1,1.2-4.7,1.7c-0.9,1.1-2.2,0.9-3.4,0.9c-1.6,0.1-3.3-0.4-4.6,1c-1.3,0-2.7,0-4,0c-1.7-1.6-3.8-0.8-5.7-1
		c-1.6,0-3.2-0.1-4.8-0.6c-16.8-1.2-32.5-7.3-48.4-11.8c-135-37.6-270.1-75-405.2-112.3c-11.3-3.1-16.5-8.2-17.4-20.2
		c-2.7-34.1-5.9-68.3-9-102.4c-3.8-41.4-7.3-82.8-11.2-124.2c-3-32.8-5.7-65.6-8.8-98.4c-4-42.1-7.5-84.2-11.3-126.2
		c-3.6-40.1-7.2-80.2-10.7-120.3c-3.7-41.7-7.7-83.5-11.2-125.2c-2.9-34.5-6.3-68.9-9-103.4c-2.5-31.8-5.8-63.6-8.6-95.4
		c-3-34.1-6.1-68.2-9.2-102.4c-3.1-34.1-6.1-68.2-9.1-102.4c-1.8-20.5-4.1-41-3.9-61.7c-0.4-6.5,1.2-13.2-2-19.4
		C-1578.5,10.7-1578.5,10.1-1578.5,9.4z"/>
	<path class="st1" d="M-771.4-170.3c-31.9,0.1-63.8,0.2-95.7,0.2c-7.8,0-8.2-0.3-8.2-7.7c0-46.9,0.1-93.7,0.2-140.6
		c60,0,119.9,0,179.9,0c0.1,20,0.2,40.1,0.2,60.1c0,2.1,0.8,4.8-2.3,5.8c-3.4-3.9-3-8.7-3.1-13.3c-0.1-12.3-0.1-24.6,0-37
		c0.1-6.9-2.2-10.5-9.7-10.5c-50.3,0-100.5,0-150.8,0c-6.3,0-9,2.7-9,9c0,39.6,0.1,79.3-0.1,118.9c0,8.5,4.7,9.7,11.5,9.7
		c25,0,49.9-0.2,74.9,0.1C-779.1-175.4-773.3-177.1-771.4-170.3z"/>
	<path class="st1" d="M-1086.9-316.4c0-0.7,0-1.3,0-2c59.3,0,118.6,0,177.9,0c-0.2,0.9-0.3,1.7-0.5,2.6c-4,3.2-8.8,2.6-13.4,2.6
		c-49.9,0.1-99.8,0.1-149.7,0C-1077.6-313.2-1082.7-312.7-1086.9-316.4z"/>
	<path class="st1" d="M-1122.9-318.4c-0.1,0.8-0.2,1.6-0.3,2.4c-3.9,3.3-8.8,2.8-13.4,2.8c-50.3,0.1-100.5,0.1-150.8,0
		c-4.6,0-9.4,0.4-13.3-3c0-0.7-0.1-1.5-0.1-2.2C-1241.4-318.4-1182.2-318.4-1122.9-318.4z"/>
	<path class="st2" d="M-1574.7,29.7c-2.6-2.9-0.7-7.5-3.8-10.3c0-2.7,0-5.3,0-8C-1572.8,16.6-1574.5,23.3-1574.7,29.7z"/>
	<path class="st3" d="M-1001,1338.6c0-0.6,0-1.3,0-1.9c1.3,0,2.5,0,3.8,0.1c0.8,0.3,1,0.7,0.9,1.2c-0.2,0.5-0.4,0.7-0.7,0.7
		C-998.3,1338.6-999.6,1338.6-1001,1338.6z"/>
	<path class="st4" d="M-997,1338.6c0.1-0.6,0-1.3-0.2-1.8c1.8-0.3,3.3,0.1,4.2,1.8C-994.3,1338.6-995.6,1338.6-997,1338.6z"/>
	<path class="st4" d="M-989,1338.6c0.9-1.7,2.4-2.1,4.1-1.9c0.6,0.5,0.7,0.9,0.5,1.3c-0.2,0.4-0.4,0.6-0.6,0.6
		C-986.3,1338.6-987.6,1338.6-989,1338.6z"/>
	<path class="st5" d="M-985,1338.6c-0.1-0.6-0.1-1.3,0.1-1.9c1.3,0,2.6,0,3.9,0c0,0.6,0,1.3,0,1.9
		C-982.3,1338.6-983.6,1338.6-985,1338.6z"/>
	<path d="M-1086.9-316.4c55.8,0,111.6,0,167.4,0c3.3,0,6.6,0.3,9.9,0.5c0,19-0.1,37.9,0.2,56.9c0.1,5.3-1.7,6.8-6.8,6.7
		c-23.6-0.2-47.3-0.1-70.9-0.1c-6.3,0-12.6-0.1-19,0c-6.3,0.1-9.4,5.4-6.7,11.2c0.7,1.5,1.8,1.8,3.1,1.9c2.3,0.1,4.7,0.1,7,0.1
		c28.6,0,57.2,0,85.9,0c7.1,0,7.3,0.2,7.3,7.1c0,44.9-0.1,89.9,0.1,134.8c0,5.2-1.5,6.8-6.7,6.8c-54.9-0.2-109.8-0.2-164.7,0
		c-5.5,0-6.6-1.9-6.6-6.9c0.2-18,0.1-35.9,0.1-53.9c0-8.1,0.5-7.3,8-7.3c28,0,55.9,0,83.9,0c2,0,4-0.2,6,0c4.7,0.6,5.6-1.9,5.5-5.9
		c-0.1-3.8,0.2-7.1-5.5-7c-28.3,0.2-56.6,0.2-84.9,0.1c-15-0.1-12.9,2.3-13-13.3c-0.1-40.3,0-80.6,0-120.8
		C-1087.3-309.1-1087-312.7-1086.9-316.4z"/>
	<path d="M-771.4-170.3c-2.7-3.1-6.2-1.5-9.3-1.5c-28-0.1-55.9-0.1-83.9-0.1c-8.7,0-8.7-0.1-8.8-8.6c0-42.3,0-84.6,0-126.9
		c0-8.8,0.1-8.9,8.4-8.9c53.3,0,106.6,0,159.8,0c8.2,0,8.3,0.1,8.3,8c-0.1,18.6-0.2,37.3-0.4,55.9c-27.6,0.1-55.3,0.1-82.9,0.2
		c-4,0-8,0-12,0c-6.7,0.1-9.6,4.5-7.1,10.8c0.5,1.4,1.5,2.2,2.9,2.2c2.3,0.1,4.7,0.1,7,0.1c28.3,0,56.6,0,84.9,0
		c8.2,0,8.3,0.1,8.3,8c0,44.3,0,88.6,0,132.9c0,7.6-0.1,7.7-7.6,7.7c-54.3,0-108.5,0-162.8,0c-7.2,0-7.4-0.1-7.4-6.9
		c-0.1-18-0.1-36,0-54c0-6.9,0.2-7,7.3-7.1c28.3-0.1,56.6,0,84.9,0c3.3,0,6.6,0,10.6,0C-770.6-162.7-770.4-166.5-771.4-170.3z"/>
	<path d="M-1300.6-316.2c59.1,0.1,118.3,0.1,177.4,0.2c0.1,22.3,0,44.6,0.3,66.9c0.1,5.3-1.6,6.8-6.8,6.7
		c-28.3-0.2-56.6-0.1-84.9-0.1c-2.3,0-4.7,0.1-7,0c-3.9-0.3-5.2,1.4-5.2,5.2c0.2,12,0.1,24,0.1,35.9c0,8.7-0.1,17.3,0,26
		c0.1,6.9,0.1,7.1,7.1,7.1c26.6,0.1,53.2-0.1,79.9,0.1c5.2,0,11.7-2.4,15.3,1.3c3.6,3.6,1.1,10.2,1.2,15.4c0.2,17-0.1,34,0.2,50.9
		c0.1,5.2-1.5,6.8-6.7,6.8c-54.9-0.2-109.8-0.1-164.7,0c-4.2,0-6.7-0.3-6.7-5.7C-1300.7-171.8-1300.7-244-1300.6-316.2z"/>
	<path class="st6" d="M-1358.5,253.6c1.3-2.6,3.8-2.4,6.1-2.4c5.3,0,10.7,0,16,0c109.9,0,219.8,0,329.7,0c2.3,0,4.7,0,7,0
		c8.6-0.2,8.7-0.2,8.8-9.1c0.1-40,0-79.9,0-119.9c0-1.7,0-3.3,0-5c0.1-9.8,0.1-9.9,10-9.9c153.2,0,306.4,0,459.5,0
		c1.7,0,3.3,0.1,5,0c3.2,0,5,1.4,5,4.7c0,2,0.2,4-0.1,6c-2.3,13.7-2.3,27.7-4.1,41.4c-2.4,18.4-2.4,36.9-5.5,55.3
		c-1.2,7.5-1.3,15.2-1.7,22.7c-0.6,10.9-1.9,21.8-3,32.7c-1.1,10.5-0.7,21.1-3.1,31.6c-1.9,8.3-1.3,17.1-1.9,25.7
		c-0.8,10.9-1.8,21.8-3,32.6c-1.1,10.5-0.7,21.1-3,31.6c-1.8,8-1.7,16.5-2.1,24.7c-0.9,19.9-3.3,39.6-4.9,59.4
		c-1.5,17.7-3.1,35.5-5,53.3c-1.1,10.5-1.6,21.2-2.9,31.6c-1.4,11.5-0.6,23.1-3.1,34.6c-1.6,7.4-1.9,15.2-2.1,22.7
		c-0.7,19.2-3.1,38.3-4.8,57.4c-1.6,17.7-3.1,35.5-5.1,53.3c-1.2,10.8-1.9,21.8-2.7,32.7c-0.9,11.2-1.2,22.4-3.3,33.5
		c-1.5,7.8-1.3,15.9-1.9,23.7c-0.8,10.9-2.3,21.7-2.9,32.7c-0.6,11.2-1.1,22.4-3.3,33.5c-1.5,7.8-1.2,15.8-1.9,23.7
		c-0.9,10.5-1.8,21.2-2.9,31.6c-1.3,11.8-0.7,23.8-3.3,35.5c-1.6,7.4-1.2,15.2-1.8,22.7c-0.8,10.6-1.9,21.1-2.9,31.7
		c-1.1,10.8-1,21.8-3.1,32.6c-1.8,8.7-1.2,17.8-2,26.7c-0.9,10.5-3,21-2.7,31.7c0.3,8.2-0.3,8.7-8.4,11c-26.5,7.4-53,14.6-79.5,21.9
		c-31.3,8.6-62.6,17.3-93.9,26c-45.3,12.6-90.6,25.4-136,38c-21.7,6-43.5,11.9-65.2,17.7c-5.6,1.5-6.4,0.9-6.5-4.9
		c-0.2-14-0.1-28-0.1-42c0-30.6,0-61.3,0-91.9c0-4,0.5-8-2-11.6c1.7-2.7,4.6-3.5,7.3-4.5c94.3-26.1,188.5-52.4,282.8-78.3
		c7.1-2,10.3-5.5,11-13.1c3.8-44.7,8.1-89.4,11.9-134.1c2.8-32.8,6.2-65.5,8.9-98.3c3.5-41.8,7.6-83.4,11-125.2
		c3.3-39.4,7.3-78.8,10.6-118.2c3.6-42.4,7.7-84.8,11.3-127.2c2.7-32.5,5.6-64.9,9-97.3c0.8-7.6,0.2-15.3,1.8-22.9
		c1.4-6.5-1.5-9.5-7.8-9.8c-2-0.1-4-0.1-6-0.1c-114.9,0-229.7-0.4-344.6,0.1c-118.8,0.5-237.7,0.1-356.5,0.3
		C-1347.6,256.4-1353.5,257.5-1358.5,253.6z"/>
	<path class="st7" d="M-986.3,1083.2c-1.8,2-4.4,1.4-6.6,1.8c-23.7-6.7-47.3-13.6-71-20.2c-72.1-20.1-144.2-40-216.2-60.1
		c-2.2-0.6-4.4-1.5-6.7-1.8c-4-0.6-5.4-2.9-5.7-6.8c-1.9-23.5-4-47.1-6.1-70.6c-3.1-34.1-6.2-68.3-9.3-102.4
		c-1.4-15.6-2.8-31.2-4.2-46.7c-0.3-3.7,0.7-5.8,4.8-5.5c1.7,0.1,3.3,0,5,0c42.6,0,85.2,0,127.9,0c1.3,0,2.7,0.1,4,0
		c4.3-0.4,5.7,1.7,6,5.8c1,12.9,2.4,25.8,3.6,38.8c2,21.5,3.9,43.1,5.9,64.6c0.7,8.1,0.8,8.2,9,10.3c30.2,8.1,60.4,16.2,90.5,24.4
		c21.5,5.8,42.9,11.8,64.4,17.7c0.5,0.4,1,0.9,1.4,1.3c2.7,4.9,2,10.4,2,15.6c0.1,37.3,0.1,74.6,0,111.8
		C-987.9,1068.7-987.5,1075.9-986.3,1083.2z"/>
	<path class="st7" d="M-1358.5,253.6c3.7-0.1,7.3-0.2,11-0.2c236.2-0.1,472.4-0.1,708.6-0.2c3,0,6-0.1,9,0c6.7,0.2,6.8,0.3,6.5,6.7
		c-0.1,2.6,0,5.4-1.5,7.7c-3.9-8-10.6-9.4-18.9-9.3c-109.6,0.2-219.1,0.1-328.7,0.1c-14.8,0-15.1,0.3-15.2,15c0,36-0.1,71.9,0,107.9
		c0,13.8,0.8,14.5,14.9,14.5c56.6,0.1,113.2,0,169.8,0c4.3,0,8.7-0.2,13,0.4c4.2,0.5,8.1,1.7,9,6.4c0.9,4.8,2.1,10-4,12.7
		c-3.2-10-10.7-11.3-20.2-11.3c-56.5,0.4-113,0.2-169.5,0.1c-5.6,0-11.4,1-16.1-3.3c-4-0.2-8-0.6-11.9-0.6c-110.2,0-220.4,0-330.6,0
		c-12.3,0-12,0-13.1-12.5c-3-34.5-6.3-68.9-9.4-103.4C-1357,274.2-1357.7,263.9-1358.5,253.6z"/>
	<path class="st7" d="M-1318.7,697.2c-2-20.8-4-41.6-6-62.4c-2.6-27.7-5.2-55.4-7.8-83.2c2.1-2.6,4.9-1.5,7.5-1.5
		c109.4-0.1,218.9-0.1,328.3,0c2,0,4-0.2,5.9,0.6c3,3.2,3,7.3,3,11.3c0.1,41.3,0.1,82.5,0,123.8c0,4,0,8-2.7,11.4
		c-2.9,1.3-5.9,0.8-8.9,0.8c-103.5,0-207,0-310.5,0C-1312.8,697.9-1315.9,698.5-1318.7,697.2z"/>
	<path class="st6" d="M-1318.7,697.2c107.3,0,214.5,0,321.8,0c2,0,4-0.2,6-0.4c3.9-3.3,8.7-2.8,13.3-2.8c50.9-0.1,101.8-0.1,152.6,0
		c15.1,0,18,2.6,16.6,17.5c-3.8,40-6.8,80.1-10.8,120.1c-1.5,15.2-2.9,30.4-4.1,45.7c-0.8,9.9-5.7,14.4-14.9,16.9
		c-36.3,9.6-72.5,19.6-108.9,29.2c-12.2,3.2-24.2,7.2-36.7,9.5c-2.6,0.3-5,0-7-1.7c0-73-0.1-145.9-0.1-218.9
		c0-14.6,1.1-13.3-13.5-13.3c-100.9,0-201.8,0-302.8-0.1C-1311.1,698.9-1315.3,700.4-1318.7,697.2z"/>
	<path class="st6" d="M-990.9,551.3c-3.3-0.1-6.6-0.4-10-0.4c-106.6,0-213.1,0-319.7,0c-4,0-8-0.4-11.9,0.7c0.8-1.7,2.1-2.5,3.9-2.5
		c3-0.1,6-0.1,9-0.1c105.4,0,210.8,0,316.2,0c13.2,0,12.4,0.8,12.4-12.4c0-45.2,0-90.5,0-135.7c3.3-0.1,6.6-0.4,9.9-0.4
		c61.4,0,122.9,0,184.3,0c11.7,0,11.7,0,11.5,11.6c0,1,0.2,2,0.2,3c4.2,5.9,1.4,12.4,0.9,18.4c-2.8,35.4-5.6,70.9-9.6,106.2
		c-1.5,13.2-3,14.4-16.4,14.5c-56.2,0.1-112.4,0.1-168.6,0C-982.9,554.2-987.3,554.4-990.9,551.3z"/>
	<path class="st7" d="M-990.8,931.2c1.9-0.1,3.9-0.1,5.8-0.2c-0.6,3.9-2.9,3.4-5.6,2.2c-0.2-0.2-0.5-0.5-0.7-0.7
		C-991.1,932.1-991,931.7-990.8,931.2z"/>
	<path class="st8" d="M-990.6,933.2c2-0.4,4.2-0.1,5.6-2.2c24.3-6.7,48.7-13.5,73-20.2c25.7-7,51.3-14,77.1-20.7
		c5.7-1.5,7.9-3.8,8.4-9.9c2.9-36.8,6.4-73.6,9.7-110.4c1.9-20.5,3.9-41.1,5.6-61.6c0.9-11.6,1.7-11-10-11c-52.9,0-105.9,0-158.8,0
		c-3.6,0-7.3-0.3-10.9-0.4c0-48.5,0-97,0-145.6c3.6-0.2,7.3-0.4,10.9-0.4c56.6,0,113.2,0,169.8,0c2,0,4-0.2,6,0
		c4.9,0.5,7-1.3,7.4-6.5c1-14.9,2.5-29.8,3.9-44.7c2.6-28.2,5.3-56.3,8-84.4c0.6-1.2,1.5-2.3,1.7-3.5c1.3-11.7,0.5-12.6-11.1-12.6
		c-60.6,0-121.1,0-181.7,0c-1.7,0-3.3,0-5,0c-9.8-0.1-9.9-0.1-9.9-9.9c0-41.3,0-82.5,0-123.8c0-1.7,0.1-3.3,0.1-5c0-3.2,1.4-5,4.8-5
		c2.3,0,4.7-0.1,7-0.1c114.1,0,228.3,0,342.4,0c1.3,0,2.7,0,4,0c6.9,0.3,6.9,0.3,7.4,7.4c0.1,1.7,0.2,3.3,0.3,5
		c-0.4,21.3-3.4,42.4-5.1,63.6c-2,26.2-4.7,52.3-7.1,78.5c-3.2,35.1-6.4,70.2-9.5,105.3c-2.9,32.8-5.7,65.6-8.7,98.4
		c-3,33.8-6.2,67.6-9.2,101.4c-2.3,25.2-4.4,50.4-6.7,75.5c-3.1,34.8-6.3,69.6-9.4,104.3c-2.2,24.8-4.4,49.7-6.6,74.6
		c-0.7,8.3-1.9,16.6-2,24.9c-0.1,5.8-2.6,7.9-7.9,9.4c-29.5,7.9-58.9,16.3-88.4,24.5c-64.4,17.8-128.8,35.6-193.1,53.4
		c-2.5,0.7-5.2,1.1-7.8,1.7c-2.4-0.6-4.4-1.6-4.5-4.4c-0.1-2.3-0.1-4.7-0.1-7c0-43.2,0-86.4,0-129.6
		C-991,939.2-990.7,936.2-990.6,933.2z"/>
</g>
<g>
	<path class="st9" d="M197.6,367.5c-13.9-3.9-27.8-7.8-41.8-11.6c-24.9-6.9-49.9-13.8-74.8-20.8c-2.3-0.6-2.3-0.6-2.5-3.1
		c-1.2-14.2-2.5-28.5-3.7-42.7c-1.2-13.2-2.3-26.3-3.5-39.5c-1.3-14.1-2.6-28.1-3.8-42.2c-1.1-12.3-2.1-24.6-3.2-37
		c-1.3-14.1-2.6-28.1-3.8-42.2c-0.9-10.4-1.8-20.8-2.7-31.2c-1.1-12.2-2.2-24.5-3.3-36.7c-0.8-9-1.6-18.1-2.4-27.1
		c-0.1-1.1,0.2-1.6,1.3-1.5c0.6,0,1.2,0,1.8,0c96.5,0,193,0,289.6,0c1,0,2-0.1,3,0.1c0.5,1.1,0.1,2.3,0.2,3.5c0,0.4,0,0.9,0,1.3
		c-0.1,9.4-0.9,18.8-1.8,28.2c-0.8,8.3-1.4,16.6-2.2,24.9c-1,10.5-1.8,21.1-2.8,31.6c-0.8,8.3-1.4,16.6-2.2,24.9
		c-1,10.5-1.8,21.1-2.8,31.6c-0.8,8.4-1.4,16.8-2.2,25.1c-1,10.5-1.8,20.9-2.8,31.4c-0.8,8.4-1.4,16.8-2.2,25.1
		c-1,10.5-1.8,20.9-2.8,31.4c-0.8,8.3-1.4,16.6-2.2,24.9c-0.5,5.4-1,10.9-1.5,16.3c-0.2,2-1.1,3-3,3.5c-9.3,2.5-18.5,5.1-27.7,7.7
		c-24.3,6.7-48.5,13.5-72.7,20.1c-5.3,1.4-10.4,3.3-15.9,4c-0.5,0.1-1.2-0.1-1.6,0.3c-0.8,0-1.7,0-2.5,0
		C198.4,367.7,197.9,367.8,197.6,367.5z"/>
	<path class="st10" d="M347.6,35.7c0-1.2,0-2.4,0-3.6c0.2,0,0.3,0,0.5,0c0,1.2,0,2.4,0,3.5C347.9,35.9,347.8,35.9,347.6,35.7z"/>
	<path class="st11" d="M347.6,35.7c0.1,0,0.3,0,0.4,0c0,0.3,0,0.7,0,1c-0.1,0-0.3,0-0.4,0C347.6,36.4,347.6,36.1,347.6,35.7z"/>
	<path class="st12" d="M197.6,367.5c0.4-0.1,0.9-0.1,1,0.5c-0.3,0-0.7,0-1,0C197.6,367.9,197.6,367.7,197.6,367.5z"/>
	<path class="st13" d="M202.2,367.5c0,0.2,0,0.3,0,0.5c-0.3,0-0.7,0-1,0C201.3,367.4,201.7,367.5,202.2,367.5z"/>
	<path class="st14" d="M107.2,93.8c0.8-0.9,1.9-0.5,2.9-0.5c28.6,0,57.2,0,85.8,0c4.8,0,4.2,0.6,4.2-4.1c0-9.7,0-19.4,0-29
		c0-0.6,0-1.2,0-1.8c0-1.1,0.5-1.5,1.5-1.5c0.4,0,0.8,0,1.3,0c38.5,0,77.1,0,115.6,0c0.7,0,1.5-0.2,2.3,0.2c0,4.2-0.5,8.4-0.9,12.6
		c-0.2,2.4-0.5,4.8-0.6,7.2c-0.2,3.1-0.5,6.2-0.9,9.2c-0.3,2.3-0.4,4.7-0.5,7c-0.2,2.8-0.4,5.5-0.7,8.2c-0.3,2.6-0.2,5.2-0.8,7.7
		c-0.4,1.9-0.4,4-0.5,6c-0.1,2.9-0.4,5.9-0.7,8.8c-0.4,4.5-0.6,9-1.3,13.5c-0.3,2.1-0.4,4.2-0.5,6.2c-0.2,4.9-0.8,9.7-1.2,14.5
		c-0.4,4.5-0.8,9-1.3,13.5c-0.3,2.8-0.4,5.7-0.7,8.5c-0.4,4.6-0.5,9.2-1.3,13.7c-0.4,2.1-0.3,4.3-0.5,6.5c-0.2,2.7-0.5,5.3-0.7,8
		c-0.4,4.6-0.6,9.2-1.3,13.7c-0.4,2.3-0.3,4.7-0.5,7c-0.2,2.7-0.5,5.5-0.8,8.2c-0.3,2.6-0.2,5.2-0.8,7.7c-0.5,1.9-0.4,4-0.5,6
		c-0.1,2.9-0.4,5.9-0.7,8.8c-0.4,4.5-0.6,9-1.3,13.5c-0.3,2.1-0.4,4.2-0.5,6.2c-0.2,4.9-0.8,9.7-1.2,14.5c-0.4,4.5-0.6,9-1.3,13.5
		c-0.3,2.1,0,4.3-0.5,6.5c-0.2,1-0.5,1.4-1.5,1.6c-4.7,1.2-9.4,2.6-14,3.9c-6.8,1.9-13.6,3.8-20.3,5.6c-6.9,1.9-13.7,3.8-20.6,5.7
		c-8,2.2-16,4.4-24,6.7c-5.1,1.4-10.2,2.8-15.2,4.3c-2.4,0.7-2.4,0.7-2.4-1.7c0-10.9,0-21.9,0-32.8c0-1.1,0.2-2.2-0.5-3.2
		c0.4-0.7,1.1-0.9,1.8-1.2c19.4-5.5,38.9-10.8,58.4-16.2c4.1-1.2,8.3-2.3,12.4-3.4c2.1-0.5,3.2-1.6,3.3-3.8
		c0.7-10.1,1.8-20.3,2.6-30.4c0.9-10.4,1.9-20.8,2.8-31.1c0.9-10.3,1.8-20.6,2.7-30.9c0.4-4.4,0.8-8.9,1.2-13.3
		c0.4-3.5,0.2-3.8-3.3-3.8c-26.7,0-53.3,0-80,0c-0.6,0-1.2,0-1.8,0c-15.3,0.2-30.5,0.1-45.8,0c-1.1,0-2.5,0.3-2.9-1.3
		c1.2-1.1,2.7-0.8,4.1-0.8c13.4,0,26.9,0,40.3,0c3.8,0,3.8,0,3.8-3.8c0-9.7,0-19.3,0-29c0-1.3-0.2-2.7,0.7-3.9
		c1.3-0.9,2.8-0.6,4.2-0.6c26.9,0,53.8,0,80.7,0c1.2,0,2.6,0.3,3.5-0.8c0.8-1.3,0.8-2.7,0.9-4.1c0.8-8.7,1.5-17.4,2.3-26.1
		c0.1-1.5,0.6-3-0.4-4.4c-0.9-0.7-1.9-0.6-2.9-0.6c-29.1,0-58.2-0.1-87.3,0c-29.9,0.1-59.7,0-89.6,0.1
		C109.9,94.6,108.5,94.8,107.2,93.8z"/>
	<path class="st7" d="M151.1,168.6c0.8,0.8,1.7,0.4,2.6,0.4c14.5,0,29.1,0,43.6,0c0.9,0,1.8,0,2.8,0.1c0.4,0.7,0.3,1.5,0.3,2.2
		c0,10.4,0,20.7,0,31.1c0,1.2,0.2,2.5-0.7,3.6c-0.7,0.3-1.5,0.2-2.2,0.2c-26.1,0-52.1,0-78.2,0c-0.8,0-1.7,0.3-2.4-0.4
		c-0.4-5-0.8-10.1-1.2-15.1c-0.6-6.8-1.2-13.6-1.8-20.3c-0.8-8.7-1.6-17.4-2.4-26.1c-0.6-6.3-1.1-12.6-1.7-18.8
		c-0.8-8.9-1.6-17.7-2.4-26.6c-0.1-1.7-0.4-3.3-0.1-5c16.9,0,33.8,0,50.7,0c44,0,87.9,0,131.9,0c0.9,0,2-0.4,2.8,0.5
		c-1.3,1.1-2.9,0.8-4.4,0.8c-27.6,0-55.2,0-82.7,0c-5,0-5,0-5,5.2c0,8.6,0,17.2,0,25.7c0,3.7,0.1,3.8,3.8,3.8c27.3,0,54.7,0,82,0
		c1.1,0,2.2-0.2,3.2,0.3c0,0.5-0.2,0.8-0.7,0.8c-0.8,0-1.5,0-2.3,0c-27.8,0-55.5,0-83.3,0c-1,0-2,0.1-3,0.1
		c-1.2,1.1-2.7,0.8-4.1,0.8c-14.3,0-28.6,0-42.9,0c-0.8,0-1.7,0-2.5,0c-1.5,0-2.1,0.6-2,2.2c0.8,9.6,1.7,19.3,2.6,28.9
		C151.4,164.9,151.7,166.7,151.1,168.6z"/>
	<path class="st8" d="M199.6,205.9c0-11.4,0-22.7,0-34.1c0-0.9,0-1.8,0.5-2.7c0.8,0,1.7-0.1,2.5-0.1c26.8,0,53.7,0,80.5,0
		c3.2,0,3-0.5,2.7,3c-1.2,14-2.6,28-3.8,41.9c-0.9,10.4-1.8,20.8-2.7,31.2c-0.9,10.3-1.9,20.6-2.8,30.9c-0.1,1.5-0.3,3-0.3,4.5
		c0,1.8-0.8,2.6-2.5,3c-8.5,2.2-17,4.7-25.5,7c-15.1,4.2-30.1,8.3-45.2,12.5c-0.6,0.2-1.1,0.2-1.7,0.4c-1.4,0.5-2-0.2-2.3-1.5
		c-0.2-0.8-0.1-1.7-0.1-2.5c0-10.1,0-20.1,0-30.2c0-1.3-0.2-2.7,0.8-3.8c0.2-0.1,0.3-0.2,0.5-0.4c0.8-0.9,1.9-1.1,2.9-1.3
		c11.3-3.1,22.7-6.1,34-9.2c3.4-0.9,3.4-1,3.7-4.6c1.3-13.4,2.4-26.9,3.6-40.4c0.2-2.6,0.1-2.8-2.7-2.9c-12.7,0-25.4,0-38,0
		C202.3,206.6,200.9,206.9,199.6,205.9z"/>
	<path class="st7" d="M199.6,265.4c0,11.8,0,23.7,0,35.5c0,1.2-0.3,2.5,1.6,2.4c-0.4,0.5-1.1,0.4-1.6,0.6
		c-7.9-2.2-15.8-4.5-23.8-6.7c-16.7-4.6-33.3-9.3-50-13.9c-1.4-0.4-2.1-0.9-2.2-2.5c-0.3-4.6-0.8-9.2-1.2-13.8
		c-0.8-8.9-1.6-17.7-2.4-26.6c-0.4-4.7-0.8-9.4-1.2-14.1c-0.1-1.8-0.1-1.9,1.7-1.9c11.2,0,22.4,0,33.6,0c1.8,0,1.8,0.1,2,1.8
		c0.6,6.1,1.1,12.2,1.6,18.3c0.2,2.3,0.4,4.7,0.6,7c0.2,2.4,0.2,2.4,2.5,3c9.5,2.6,19,5.1,28.5,7.7
		C192.7,263.4,196.3,264.2,199.6,265.4z"/>
	<path class="st14" d="M199.6,205.9c1,0,2,0.1,3,0.1c13.4,0,26.8,0,40.1,0c2.9,0,2.8,0,2.5,2.9c-0.6,6.2-1.2,12.4-1.7,18.6
		c-0.7,8.3-1.5,16.6-2.1,24.9c-0.1,1.7-1.1,2-2.4,2.4c-8.3,2.2-16.6,4.5-24.8,6.7c-4,1.1-8,2.1-11.9,3.2c-0.7,0.2-1.4,0.5-2.2,0.4
		c0-18.4,0-36.8,0-55.2c0-3.7,0.3-3.4-3.4-3.4c-25.7,0-51.4,0-77.1,0c-0.9,0-2,0.5-2.8-0.6c0.7,0.1,1.5,0.2,2.2,0.2
		c26.3,0,52.5,0,78.8,0C198.5,206,199.1,205.9,199.6,205.9z"/>
	<path class="st8" d="M289.5,130.2c-0.8,0.5-1.8,0.5-2.7,0.5c-28.2,0-56.3,0-84.5,0c-0.5,0-1,0-1.5,0c-0.7,0-1.1-0.4-1.1-1.1
		c0-0.5,0-1,0-1.5c0-10.3,0-20.7,0-31c0-0.5,0-1,0-1.5c0-0.7,0.4-1.1,1.1-1.1c0.8,0,1.5,0,2.3,0c29.9,0,59.7,0,89.6,0
		c0.1,3.6-0.5,7.2-0.8,10.8c-0.5,6.6-1.2,13.2-1.8,19.8C289.9,126.7,289.6,128.4,289.5,130.2z"/>
	<path class="st9" d="M151.1,168.6c-0.8-2-0.6-4.1-0.8-6.2c-0.9-8.4-1.5-16.9-2.3-25.3c-0.1-1.4-0.3-2.8-0.4-4.3
		c-0.1-1.7-0.1-1.7,1.6-1.8c0.3,0,0.7,0,1,0c15.9,0,31.8,0,47.6,0c0.8,0,1.5,0.1,2.3,0.2c0,11.4,0,22.9,0,34.3c0,0.6,0,1.2,0,1.8
		c0,1-0.5,1.4-1.4,1.4c-0.7,0-1.3,0-2,0C181.5,168.5,166.3,168.5,151.1,168.6z"/>
</g>
</svg>
