<?xml version="1.0" encoding="utf-8"?>
<!-- Generator: Adobe Illustrator 24.1.1, SVG Export Plug-In . SVG Version: 6.00 Build 0)  -->
<svg version="1.1" id="GraphQL_Logo" xmlns="http://www.w3.org/2000/svg" xmlns:xlink="http://www.w3.org/1999/xlink" x="0px"
	 y="0px" viewBox="0 0 400 400" style="enable-background:new 0 0 400 400;" xml:space="preserve">
<style type="text/css">
	.st0{fill:#1482CB;}
	.st1{fill:#FEFEFE;}
	.st2{fill:#FDFDFD;}
</style>
<g>
	<path class="st0" d="M372.8,107c4.4,1.1,7.1,4.4,7.4,9c-0.6,0.7-0.3,1.6-0.3,2.4c0,54.3,0,108.6,0,163c0,0.8-0.3,1.7,0.3,2.4
		c-0.5,5.3-4.5,9.3-9.8,9.4c-1.7,0.1-3.3,0-5,0c-111.2,0-222.3,0-333.5,0c-8.1,0-12.2-4.1-12.2-12c0-54.2,0-108.5,0-162.7
		c0-6.3,2.6-10.1,7.8-11.5c0.2,0,0.3,0,0.5,0c2.8-0.2,5.7-0.2,8.5-0.2c109.4,0,218.9,0,328.3,0c2,0,4,0,6,0
		C371.5,106.8,372.2,106.6,372.8,107z"/>
	<path class="st1" d="M206.7,183.9c9.8-11.7,25.2-7.1,31.6,2.4c6.6,9.7,6.3,26-1,35.3c-6.7,8.6-19.7,10.2-27.2,3.2
		c-1.1-1-2-2.2-3-3.4c-0.8,0.2-0.4,0.9-0.4,1.4c0,7.1-0.1,14.1,0,21.2c0,1.8-0.3,2.5-2.3,2.4c-3.4-0.2-6.8-0.2-10.2,0
		c-2,0.1-2.3-0.6-2.3-2.4c0.1-17.8,0-35.6,0-53.4c0-3.5,0.1-7-0.4-10.5c-0.2-1.4,0.3-1.9,1.7-1.9c3.6,0.1,7.2,0.1,10.7,0
		c1.9-0.1,2.7,0.5,2.5,2.5C206.4,181.7,206.6,182.6,206.7,183.9z"/>
	<path class="st1" d="M58.1,227.8c-1.2-0.3-0.9-1.2-0.9-2c0-22.4,0-44.7,0-67.1c0-1.6,0.5-2,2-2c3.5,0.1,7,0.1,10.5,0
		c1.8-0.1,2.2,0.7,2.2,2.3c-0.1,7.4,0,14.8,0,22.2c0,0.8,0,1.6,0,3.2c3.2-4.1,6.7-6.4,11.1-7.2c6.7-1.2,12.5,0.8,17.4,5.3
		c3.1,2.9,3.8,7,3.9,11c0.1,10.8,0,21.6,0,32.4c0,0.7,0.1,1.4-0.6,1.8c-4.6,0.6-9.2,0.2-13.7,0.2c-0.1,0-0.2-0.3-0.2-0.4
		c0-9.4,0-18.8,0-28.2c0-2.6-0.2-5.2-1.1-7.6c-2.3-5.7-9.7-6.9-13.7-2.2c-2.1,2.5-2.8,5.4-2.8,8.6c0,8.9,0,17.8,0,26.7
		c0,1,0.2,2-0.4,2.9C67.1,228.4,62.6,228.2,58.1,227.8z"/>
	<path class="st1" d="M120.5,191.9c0-1,0-2,0-3c-2.3-0.6-4.5-0.1-6.8-0.3c-0.9-0.1-1.8,0.4-2.6-0.3c-1-2.9-0.2-5.9-0.4-8.9
		c-0.1-1.1,0.8-1,1.6-1c2.2,0,4.3-0.1,6.5,0c1.3,0.1,2.1-0.3,1.9-1.8c0-0.3,0-0.7,0-1c0-7,0-7,6.5-9.3c2.2-0.8,4.4-1.5,6.6-2.4
		c1.3-0.5,1.7-0.3,1.7,1.2c-0.1,3.7,0.1,7.5-0.1,11.2c-0.1,1.7,0.5,2.2,2.1,2.1c2.3-0.1,4.7,0,7-0.1c1.5-0.1,2.2,0.3,2,1.9
		c-0.3,2.7,0.6,5.4-0.6,8c-2.4,0.7-4.8,0.1-7.3,0.3c-1,0.1-2.1-0.3-3.1,0.3c0,8.3-0.1,16.6,0,24.9c0.1,4.2,1.7,5.5,6,5.5
		c4.6,0,4.6,0,4.6,4.6c0,4,0,4.1-4.1,4.6c-3.3,0.4-6.6,0.8-9.9,0.5c-6.7-0.6-10.3-4-11.1-10.6c-0.1-0.8-0.3-1.6-0.4-2.4
		c-0.5-0.5-0.3-1.1-0.3-1.7c0-7,0-13.9,0-20.9C120.3,192.8,120.2,192.3,120.5,191.9z"/>
	<path class="st1" d="M174,188.4c-0.7,0.5-0.4,1.2-0.4,1.8c0,7.1,0,14.1,0,21.2c0,0.6,0,1.2,0.1,1.7c0.5,5.2,1.7,6.3,7,6.1
		c3.8-0.1,3.8-0.1,3.8,3.6c0,5.1,0,5.1-5.1,5.7c-3.2,0.3-6.4,0.7-9.7,0.3c-5.7-0.6-9-3.6-10.2-9.3c-0.5-2.4-0.6-4.8-0.6-7.2
		c0-7.2,0-14.5,0-21.7c0-0.8,0.4-1.7-0.4-2.3c-3,0.3-6,0.5-8.9-0.1c-1.4-3-0.4-6.2-0.5-9.3c0-0.9,1-0.7,1.6-0.7c2,0,4-0.1,6,0
		c1.7,0.1,2.4-0.3,2.3-2.2c-0.2-2,0-4-0.1-6c-0.1-1.2,0.4-1.8,1.5-2.2c3.8-1.3,7.7-2.7,11.5-4.2c1.4-0.6,1.7-0.1,1.7,1.3
		c-0.1,3.7,0,7.5,0,11.2c0,1.5,0.4,2.1,2,2c2.4-0.1,4.8,0,7.2,0c1.3,0,2,0.2,2,1.8c-0.1,2.2,0,4.3,0,6.5c0,0.7-0.1,1.3-0.8,1.7
		C180.6,188.9,177.3,188.7,174,188.4z"/>
	<path class="st1" d="M284.3,237c-5.8,0-5.8,0-4.1-5.6c7.1-23.9,14.3-47.8,21.3-71.7c0.7-2.3,1.7-3.2,4.1-3c2,0.2,4,0.2,6,0
		c2-0.2,2.1,0.6,1.6,2.3c-4.7,15.6-9.3,31.2-14,46.8c-2.8,9.4-5.7,18.8-8.3,28.2c-0.7,2.4-1.7,3.3-4.1,2.9
		C286,236.9,285.1,237,284.3,237z"/>
	<path class="st1" d="M319.3,237c-5.6,0-5.6,0-4-5.2c7.2-24.3,14.5-48.6,21.7-72.9c0.4-1.5,1-2.2,2.7-2.1c2.3,0.2,4.7,0.2,7,0
		c2.2-0.2,2.2,0.7,1.7,2.4c-4.1,13.5-8,26.9-12,40.4c-3.4,11.4-6.9,22.8-10.1,34.2c-0.7,2.5-1.7,3.7-4.4,3.2
		C320.9,236.8,320.1,237,319.3,237z"/>
	<path class="st2" d="M255.3,227.8l-0.2-0.1l-0.2,0.1c-0.7-0.2-0.9-0.7-0.9-1.3c0-3.6,0-7.2,0-10.8c0-0.6,0.3-1.1,0.8-1.5
		c4,0,7.9-0.5,11.9,0.3l-0.1-0.1c0.7,4.2,0.2,8.5,0.3,12.8c0,0.8-0.5,1-1.2,0.9C262.4,227.9,258.8,228.4,255.3,227.8z"/>
	<path class="st2" d="M254.5,178.4c3.6,0,7.3-0.1,10.9-0.2c1,0,1.5,0.3,1.5,1.4c0,3.4-0.1,6.8,0,10.2c0,1.3-0.5,1.5-1.6,1.5
		c-3.5,0-7,0-10.4,0c-0.5-0.4-0.7-0.9-0.7-1.5c0-3.6,0-7.3,0-10.9C254.1,178.7,254.4,178.6,254.5,178.4z"/>
</g>
<circle class="st0" cx="220.5" cy="203.6" r="14.1"/>
</svg>
