<?xml version="1.0" encoding="utf-8"?>
<!-- Generator: Adobe Illustrator 24.1.1, SVG Export Plug-In . SVG Version: 6.00 Build 0)  -->
<svg version="1.1" id="GraphQL_Logo" xmlns="http://www.w3.org/2000/svg" xmlns:xlink="http://www.w3.org/1999/xlink" x="0px"
	 y="0px" viewBox="0 0 400 400" style="enable-background:new 0 0 400 400;" xml:space="preserve">
<style type="text/css">
	.st0{fill:#49021F;}
	.st1{fill:#FE3366;}
	.st2{fill:#FD3365;}
	.st3{fill:#3B001A;}
	.st4{fill:#3F001B;}
	.st5{fill:#42021D;}
	.st6{fill:#42001C;}
	.st7{fill:#FE3569;}
	.st8{fill:#340017;}
	.st9{fill:#390019;}
	.st10{fill:#330017;}
	.st11{fill:#380019;}
</style>
<g>
	<path class="st0" d="M95.3,51.1c70.5,0,141,0,211.5,0c16.3,0,26.3,10.5,36.4,21.3c6.8,7.4,8.1,16.3,9.2,25.6
		c0,67.8,0,135.6,0,203.4c-0.3,0.6-0.7,1.1-0.7,1.8c0,21.2-13.5,32.9-30,42.3c-6.4,3.6-13.9,3.3-20.9,3.3
		c-66.9,0.2-133.8,0-200.8,0.2c-21.1,0.1-35.9-9.7-46.6-27.2c-4.8-7.8-5.4-16.5-5.4-25.2c-0.1-64.7,0-129.4-0.1-194
		c0-18.9,7.5-33.5,23.1-44.1c5.5-3.7,11.3-6.1,18-6.2C91,52.2,93.3,52.5,95.3,51.1z"/>
	<path class="st1" d="M242.6,262.8c-13.7,0.9-26.9-0.1-39.7-6.1c-14-6.6-20.4-18.4-22.9-32.4c-6.4-35.7,13-61.5,49-66.4
		c1.1-0.1,2.1-0.6,3.2-0.9c0.5-0.4,1-0.8,1.7-0.8c9.3-0.6,9.3-0.7,9.3-10.2c0-8.2-0.1-16.3,0.1-24.5c0-1.6-1-3.6,1.1-4.7
		c9.4-0.7,18.9-0.7,28.3,0c2.6,1.8,1.2,4.5,1.2,6.7c0.1,40.2,0.1,80.4,0.1,120.7c-0.2,2.5,0.4,5.1-0.5,7.6c-0.2,1.8-0.7,3.4-2.7,4
		c-7.2,2.2-13.6,7.1-21.6,6.4C247.1,264.1,244.8,263.1,242.6,262.8z"/>
	<path class="st2" d="M130.8,127.4c0.2,0.2,0.5,0.3,0.8,0.4c8.9,1,17.9-0.7,26.7,0.9c0.3,0.1,0.7,0.3,1,0.4c1.4,1.2,0.9,2.9,0.9,4.4
		c0,40.6,0,81.1,0,121.7c0,1.5,0.5,3.2-0.9,4.4c-2.1,2.8-5.2,1.9-8,1.9c-6.8,0-13.7-0.2-20.5-0.3c-2.3-1-1.3-3.1-1.3-4.7
		c-0.1-41.5-0.1-82.9,0-124.4C129.5,130.5,128.5,128.4,130.8,127.4z"/>
	<path class="st3" d="M130.8,127.4c-0.1,6.7-0.4,13.4-0.4,20c0,35.2,0,70.5,0,105.7c0,2.7,0.3,5.3,0.4,8c-2.8-1.5-2-4.2-2-6.5
		c0-40.2,0-80.4,0-120.6C128.8,131.6,128,128.9,130.8,127.4z"/>
	<path class="st4" d="M159.3,259.5c0-43.5,0-87,0-130.5c2.6-0.5,1.5,1.6,1.5,2.5c0.1,41.8,0.1,83.6,0,125.4c0,0.8-0.2,1.7-0.4,2.5
		c0,0.1-0.4,0.2-0.5,0.2C159.7,259.8,159.5,259.6,159.3,259.5z"/>
	<path class="st4" d="M273.4,245.1c-0.2-9.4-0.4-18.7-0.5-28.1c-0.1-33.4-0.2-66.9-0.2-100.3c3.1,2,1.9,5.2,1.9,7.9
		c0.1,40.2,0,80.3,0,120.5C274.2,245.9,273.8,245.8,273.4,245.1z"/>
	<path class="st5" d="M244.4,116.7c-0.1,11.3-0.5,22.6-0.1,33.9c0.2,5.4-1,7.9-6.8,6.6c-1.7-0.4-3.5-0.1-5.3-0.2
		c-0.2-0.1-0.5-0.1-0.6-0.2c-0.3-0.3-0.4-0.6-0.7-0.9c0.4-0.1,0.7-0.4,1.1-0.4c10.5-1.4,10.5-1.4,10.5-12.2c0-6.9,0-13.7,0-20.6
		C242.5,120.6,241.9,118.2,244.4,116.7z"/>
	<path class="st6" d="M247,114.3c7.6,0,15.3,0,22.9,0c0,0.2,0,0.3,0,0.5c-7.6,0-15.3,0-22.9,0C247,114.7,247,114.5,247,114.3z"/>
	<path class="st7" d="M158.3,128.7c-8.9-0.5-17.9,1.2-26.7-0.9C140.5,127.5,149.5,125.9,158.3,128.7z"/>
	<path class="st6" d="M133.2,262.9c7.2,0,14.5,0,21.7,0c0,0.2,0,0.4,0,0.6c-7.2,0-14.5,0-21.7,0
		C133.2,263.3,133.2,263.1,133.2,262.9z"/>
	<path class="st8" d="M273.4,245.1c0.4,0,0.8,0,1.2,0c-0.2,2.2,0.7,4.6-1.1,6.6C273.5,249.5,273.4,247.3,273.4,245.1z"/>
	<path class="st9" d="M242.6,262.8c2.2-0.2,4.4-0.4,6.6-0.5C247.1,264.6,244.9,264.3,242.6,262.8z"/>
	<path class="st0" d="M243.6,237c-0.9,1.8-2.4,1.4-3.9,1.2c-2.6-0.7-5.2-0.8-7.9,0c-15.1-1.4-23.1-9.8-24-25.3
		c0.8-2.2,0.7-4.4,0-6.5c-0.6-16.8,19.6-28.6,34.9-24.4c0.8,15.9,0.1,31.8,0.4,47.8C243.2,232.2,242.8,234.7,243.6,237z"/>
	<path class="st3" d="M243.6,237c-1.3-1.5-1.1-3.3-1.1-5.1c0.1-16.6,0.2-33.3,0.3-49.9c0.4,0.7,1.2,1.5,1.2,2.2
		C243.9,201.8,243.8,219.4,243.6,237z"/>
	<path class="st10" d="M231.9,238.2c2.6-1.7,5.2-1.7,7.9,0C237.1,238.2,234.5,238.2,231.9,238.2z"/>
	<path class="st11" d="M207.9,206.4c1.6,2.2,1.6,4.4,0,6.5C207.9,210.8,207.9,208.6,207.9,206.4z"/>
</g>
</svg>
