<?xml version="1.0" encoding="utf-8"?>
<!-- Generator: Adobe Illustrator 24.1.1, SVG Export Plug-In . SVG Version: 6.00 Build 0)  -->
<svg version="1.1" id="GraphQL_Logo" xmlns="http://www.w3.org/2000/svg" xmlns:xlink="http://www.w3.org/1999/xlink" x="0px"
	 y="0px" viewBox="0 0 400 400" style="enable-background:new 0 0 400 400;" xml:space="preserve">
<style type="text/css">
	.st0{fill:#FEFEFE;}
	.st1{fill:#FE2D20;}
</style>
<g>
	<path class="st0" d="M114.7,46.5c77.4,0,154.8,0,232.2,0c0.6,0,0.7,0.1,0.7,0.7c0,101.9,0,203.8,0,305.7c0,0.6-0.1,0.7-0.7,0.7
		c-98,0-195.9,0-293.9,0c-0.6,0-0.7-0.1-0.7-0.7c0-24.7,0-49.3,0-74c0.4,0,0.3,0.3,0.4,0.5c0.4,1.2,1.2,2.1,2.3,2.8
		c8.8,5,17.5,10.1,26.2,15.1c8,4.6,16.1,9.3,24.1,13.9c8.1,4.7,16.2,9.3,24.3,14c8,4.6,16.1,9.2,24.1,13.9c4.7,2.7,9.4,5.4,14,8.1
		c2,1.1,3.8,1,5.7-0.1c8.1-4.7,16.2-9.4,24.3-14c9.2-5.3,18.4-10.6,27.7-15.9c6.3-3.6,12.6-7.3,19-10.9c7-4,14-8.1,21-12.1
		c6.1-3.5,12.3-7.1,18.4-10.6c0.6-0.3,1.2-0.7,1.8-1.1c1.9-1,2.8-2.5,2.8-4.7c0-19.9,0-39.8,0-59.7c0-2.1-0.3-1.8,1.7-3
		c9.3-5.3,18.6-10.7,27.9-16c8-4.6,16-9.2,24-13.8c1.3-0.7,2.5-1.5,2.9-3.1c0.1-0.5,0.2-0.9,0.2-1.4c0-21.5,0-43.1,0-64.6
		c0-1.8-0.8-3.2-2.4-4.1c-3.2-1.9-6.5-3.8-9.7-5.6c-7.7-4.5-15.5-8.9-23.2-13.4c-7.6-4.4-15.3-8.8-22.9-13.2c-2-1.2-3.8-1.2-5.8,0
		c-8,4.7-16,9.2-24,13.8c-7.8,4.5-15.7,9-23.5,13.5c-2.7,1.5-5.4,3.1-8.1,4.6c-2.1,1.2-2.8,2.9-2.8,5.2c0,19.8,0,39.6,0,59.3
		c0,0.2,0,0.5,0,0.7c0.1,0.8-0.3,1.3-1,1.7c-5.8,3.3-11.6,6.7-17.4,10c-6.9,3.9-13.7,7.9-20.6,11.9c-2.5,1.5-5.1,2.9-7.6,4.4
		c-0.8,0.5-1,0.4-1.1-0.6c0-0.3,0-0.6,0-1c0-39.6,0-79.1,0-118.7c0-2.4-0.9-4-2.9-5.1c-6-3.4-12-6.9-18.1-10.4
		c-6.1-3.5-12.2-7-18.2-10.5c-6.4-3.7-12.7-7.3-19.1-11c-0.5-0.3-1-0.5-1.5-0.7C115.1,46.8,114.7,46.8,114.7,46.5z"/>
	<path class="st1" d="M114.7,46.5c4.6,2.2,8.9,4.9,13.3,7.4c14.7,8.4,29.4,16.9,44.2,25.4c2.1,1.2,3.1,2.9,3.1,5.4
		c0,39.8,0,79.7,0,119.5c0,0.3,0,0.6,0,1c1.9-1.1,3.8-2.2,5.6-3.2c13.7-7.9,27.3-15.7,41-23.6c0.5-0.3,0.7-0.6,0.7-1.2
		c0-20.2,0-40.3,0-60.5c0-2.4,1-4,3-5.2c18.5-10.6,37-21.3,55.5-32c2-1.2,3.8-1.2,5.8,0c18.6,10.7,37.1,21.4,55.7,32.1
		c1.9,1.1,2.9,2.7,2.9,4.9c0,21.1,0,42.3,0,63.4c0,2.5-0.9,4.1-3.1,5.3c-17.6,10.1-35.2,20.3-52.9,30.4c-0.6,0.3-0.8,0.7-0.8,1.4
		c0,20.2,0,40.3,0,60.5c0,2.3-0.9,3.9-2.9,5.1c-37.5,21.5-74.9,43.1-112.4,64.7c-2,1.1-3.8,1.2-5.8,0C131,326.2,94.4,305.1,57.8,284
		c-0.7-0.4-1.3-0.8-2-1.2c-1.7-0.8-2.9-2-3.4-3.9c0-65.4,0-130.8,0-196.2c0.3-1.6,1.4-2.6,2.7-3.4c5.5-3.1,11-6.3,16.4-9.5
		c5.4-3.1,10.8-6.2,16.2-9.3c5.8-3.4,11.6-6.7,17.5-10.1c1.8-1,3.6-2,5.3-3.1c0.8-0.4,1.6-0.9,2.5-1
		C113.5,46.5,114.1,46.5,114.7,46.5z"/>
	<path class="st0" d="M112.9,46.5c-4.3,2-8.2,4.6-12.3,6.9c-15.1,8.7-30.2,17.4-45.3,26c-1.3,0.7-2.3,1.6-2.8,3.1
		c0,0.1-0.1,0.2-0.2,0.3c0-11.9,0-23.8,0-35.6c0-0.6,0.1-0.6,0.7-0.6C73,46.5,93,46.5,112.9,46.5z"/>
	<path class="st0" d="M165.8,335.3c-2.1-1.2-4.2-2.4-6.2-3.6c-29.3-16.9-58.6-33.7-87.9-50.6c-3.1-1.8-6.2-3.6-9.3-5.3
		c-0.5-0.3-0.7-0.6-0.7-1.2c0-18.4,0-36.8,0-55.2c0-42.1,0-84.2,0-126.3c0-0.3,0-0.6,0-0.9c0.3-0.1,0.4,0.1,0.6,0.2
		c15.4,8.9,30.8,17.7,46.2,26.6c0.5,0.3,0.5,0.6,0.5,1.1c0,15,0,30,0,45c0,26.7,0,53.5,0,80.2c0,2.5,1,4.2,3.2,5.5
		c17.7,10,35.3,20,53,30c0.4,0.2,0.6,0.4,0.6,0.9c0,17.8,0,35.6,0,53.4C165.8,334.9,165.8,335,165.8,335.3z"/>
	<path class="st0" d="M279.3,221.5c0,0.4,0,0.6,0,0.9c0,17.4,0,34.8,0,52.2c0,0.6-0.2,1-0.7,1.3c-34.2,19.7-68.3,39.3-102.5,59
		c-0.2,0.1-0.4,0.3-0.8,0.3c0-0.3,0-0.5,0-0.7c0-17.6,0-35.2,0-52.8c0-0.6,0.2-0.9,0.7-1.2c34.2-19.5,68.4-39,102.5-58.5
		C278.7,221.8,278.9,221.7,279.3,221.5z"/>
	<path class="st0" d="M274.5,213.4c-2.2,1.3-4.4,2.5-6.6,3.8c-32.2,18.4-64.4,36.7-96.5,55.1c-0.6,0.4-1.1,0.4-1.7,0
		c-15.2-8.6-30.4-17.2-45.6-25.8c-0.2-0.1-0.5-0.3-0.8-0.5c2.2-1.3,4.4-2.5,6.6-3.8c25.5-14.7,51.1-29.4,76.6-44.1
		c6.7-3.9,13.4-7.7,20.1-11.6c0.4-0.2,0.7-0.3,1.1,0c15.4,8.9,30.7,17.7,46.1,26.6C274.1,213.1,274.2,213.2,274.5,213.4z"/>
	<path class="st0" d="M118.6,237.8c0-0.4,0-0.7,0-0.9c0-38.9,0-77.8,0-116.7c0-0.7,0.2-1.1,0.8-1.4c15.3-8.8,30.6-17.6,45.8-26.4
		c0.2-0.1,0.3-0.2,0.6-0.3c0,0.3,0,0.5,0,0.8c0,39,0,78.1,0,117.1c0,0.4-0.1,0.8-0.5,1c-15.4,8.9-30.9,17.8-46.3,26.6
		C118.9,237.6,118.8,237.7,118.6,237.8z"/>
	<path class="st0" d="M66.6,83.8c2.7-1.6,5.4-3.1,8.1-4.7c12.8-7.4,25.6-14.7,38.4-22.1c0.5-0.3,0.9-0.3,1.4,0
		c15.3,8.8,30.6,17.6,45.9,26.4c0.2,0.1,0.4,0.2,0.6,0.4c-2.1,1.2-4.2,2.4-6.2,3.6c-13.4,7.7-26.8,15.4-40.2,23.2
		c-0.5,0.3-0.9,0.3-1.5,0c-15.2-8.8-30.5-17.6-45.8-26.4C67.1,84.1,66.9,84,66.6,83.8z"/>
	<path class="st0" d="M331.2,116c-3,1.7-5.8,3.4-8.7,5c-12.6,7.3-25.2,14.5-37.8,21.8c-0.5,0.3-0.9,0.3-1.3,0
		c-15.3-8.8-30.6-17.6-45.9-26.4c-0.2-0.1-0.4-0.2-0.7-0.4c0.8-0.4,1.4-0.9,2.1-1.3c14.8-8.5,29.7-17.1,44.5-25.6
		c0.4-0.2,0.7-0.2,1.1,0c15.4,8.9,30.8,17.7,46.1,26.6C330.8,115.7,331,115.8,331.2,116z"/>
	<path class="st0" d="M279.3,205.2c-2.2-1.3-4.3-2.5-6.4-3.7c-13.4-7.7-26.8-15.4-40.2-23.1c-0.5-0.3-0.7-0.6-0.7-1.2
		c0-17.4,0-34.8,0-52.2c0-0.9,0-0.9,0.7-0.5c15.3,8.8,30.6,17.6,45.9,26.4c0.4,0.2,0.7,0.5,0.7,1c0,17.6,0,35.1,0,52.7
		C279.3,204.8,279.3,204.9,279.3,205.2z"/>
	<path class="st0" d="M335.9,124.2c0.2,0.3,0.1,0.6,0.1,0.8c0,17.4,0,34.8,0,52.1c0,0.5,0,0.8-0.5,1.1
		c-15.4,8.9-30.8,17.7-46.2,26.6c-0.1,0.1-0.3,0.1-0.5,0.3c0-0.3,0-0.5,0-0.7c0-17.5,0-35,0-52.4c0-0.5,0.2-0.8,0.6-1
		c15.3-8.8,30.6-17.6,46-26.5C335.5,124.4,335.7,124.3,335.9,124.2z"/>
</g>
</svg>
