<?xml version="1.0" encoding="utf-8"?>
<!-- Generator: Adobe Illustrator 24.1.1, SVG Export Plug-In . SVG Version: 6.00 Build 0)  -->
<svg version="1.1" id="GraphQL_Logo" xmlns="http://www.w3.org/2000/svg" xmlns:xlink="http://www.w3.org/1999/xlink" x="0px"
	 y="0px" viewBox="0 0 400 400" style="enable-background:new 0 0 400 400;" xml:space="preserve">
<style type="text/css">
	.st0{fill:#320000;}
	.st1{fill:#FEFEFE;}
	.st2{fill:#4B1F1F;}
	.st3{fill:#552B2B;}
	.st4{fill:#9C8383;}
	.st5{fill:#9D8585;}
	.st6{fill:#FE9900;}
	.st7{fill:#330000;}
</style>
<g>
	<path class="st0" d="M352.7,297.3c0,0.4,0,0.8,0,1.2c-0.2,0.2-0.2,0.4,0,0.6c0,0.4,0,0.8,0,1.2c-0.3,3.6-0.8,7.1-1.9,10.5
		c-2.5,8-6.5,15.1-12.3,21.3c-6,6.5-13.2,11.3-21.5,14.3c-4.2,1.5-8.5,2.6-13,2.6c-0.2,0-0.5,0-0.7,0.1c-0.7,0-1.4,0-2,0
		c-0.5-0.2-1-0.2-1.5,0c-66.5,0-133,0-199.5,0c-0.6-0.2-1.2-0.2-1.7,0c-0.8,0-1.5,0-2.3,0c-3.1-0.4-6.2-0.6-9.3-1.4
		c-9.9-2.8-18.3-7.9-25.3-15.4c-7.4-7.9-12-17.2-13.9-27.9c-0.4-2.3-0.4-4.6-0.4-6.9c0-64.7,0-129.4,0-194.1
		c0-13.4,5.1-24.7,14-34.5c5.5-6.1,12-10.6,19.6-13.7c5.1-2.1,10.3-3.4,15.9-3.6c2.9-0.1,5.8-0.1,8.7-0.1c65,0,130,0,195,0
		c13.6,0,25.1,5.1,35.1,14.1c8.2,7.5,13.4,16.6,16.1,27.3c0.6,2.6,0.5,5.2,1,7.7c0,0.3,0,0.6,0,0.9c-0.2,0.2-0.2,0.4,0,0.6
		c0,0.4,0,0.8,0,1.2c-0.2,0.6-0.2,1.2,0,1.7c0,63.6,0,127.2,0,190.8C352.5,296.1,352.5,296.7,352.7,297.3z"/>
	<path class="st1" d="M352.7,100.4c-0.7-1.4-0.6-3-0.8-4.4c-3.6-22-21.8-40.2-43.7-43.8c-3.3-0.5-6.6-0.8-10-0.8
		c-65.4,0-130.7-0.2-196.1,0.1c-23.3,0.1-40,11.3-50,32.4c-3,6.4-4.4,13.2-4.5,20.2c-0.1,7.4,0,14.9,0,22.4c0,55.9,0,111.9,0,167.8
		c0,16.6,6.2,30.6,18.7,41.6c8.1,7.1,17.5,11.3,28.2,12.7c0.6,0.1,1.4-0.1,1.9,0.5c-16,0-31.9,0-47.9,0c-1,0-1.2-0.2-1.2-1.2
		c0-98.5,0-197,0-295.5c0-1,0.2-1.3,1.3-1.3c101,0,202,0,302.9,0c1.1,0,1.3,0.3,1.3,1.3C352.7,68.4,352.7,84.4,352.7,100.4z"/>
	<path class="st1" d="M303.4,349c1.5-0.6,3.1-0.5,4.6-0.8c22.5-3.9,40.1-21.5,44-44c0.2-1.3,0.1-2.8,0.8-4c0,15.9,0,31.7,0,47.6
		c0,1-0.2,1.2-1.2,1.2C335.5,348.9,319.4,349,303.4,349z"/>
	<path class="st2" d="M352.7,104.8c-0.4-0.6-0.5-1.2,0-1.7C352.7,103.6,352.7,104.2,352.7,104.8z"/>
	<path class="st2" d="M352.7,297.3c-0.5-0.6-0.4-1.2,0-1.7C352.7,296.1,352.7,296.7,352.7,297.3z"/>
	<path class="st3" d="M98.7,349c0.6-0.5,1.2-0.4,1.7,0C99.8,349,99.2,349,98.7,349z"/>
	<path class="st3" d="M299.9,349c0.5-0.4,1-0.5,1.5,0C300.9,349,300.4,349,299.9,349z"/>
	<path class="st4" d="M352.7,101.9c-0.4-0.2-0.4-0.4,0-0.6C352.7,101.5,352.7,101.7,352.7,101.9z"/>
	<path class="st5" d="M352.7,299c-0.4-0.2-0.4-0.4,0-0.6C352.7,298.6,352.7,298.8,352.7,299z"/>
	<path class="st6" d="M171.1,127c5.1,0,10.3,0,15.4,0c1.5,0,2.3,0.4,2.8,1.9c15.2,43.1,30.5,86.1,45.7,129.2c0.1,0.3,0.2,0.6,0.3,1
		c0.3,1.4-0.1,1.9-1.5,1.9c-3,0-6.1,0-9.1,0c-5.5,0-11,0-16.5,0c-2.1,0-2.3-0.2-3-2.2c-3.2-9.2-6.4-18.4-9.5-27.7
		c-0.5-1.5-1.2-1.8-2.6-1.8c-14.5,0.1-28.9,0.1-43.4,0c-1.4,0-2.1,0.4-2.5,1.8c-2.9,9.1-5.8,18.2-8.8,27.3c-0.8,2.4-1.1,2.6-3.6,2.6
		c-7.3,0-14.5,0-21.8,0c-2.9,0-3.2-0.5-2.3-3.2c9.7-27.9,19.4-55.7,29-83.6c3.8-10.9,7.5-21.7,11.3-32.6c1.4-4,2.3-8.2,2.3-12.5
		c0-1.9,0.3-2.1,2.1-2.1C160.6,127,165.9,127,171.1,127z"/>
	<path class="st6" d="M278,210.9c0,15.6,0,31.3,0,46.9c0,0.4,0,0.8,0,1.2c0,2.5-0.3,2.8-2.9,2.8c-7.5,0-15,0-22.5,0
		c-2.8,0-3.2-0.4-3.2-3.2c0-31.9,0-63.8,0-95.6c0-2.7,0.2-3,3-3c7.4,0,14.8,0,22.2,0c3.2,0,3.4,0.1,3.4,3.3
		C278,179.1,278,195,278,210.9z"/>
	<path class="st6" d="M264,149.3c-9.3,0.3-16.2-6.8-15.9-16.7c0.3-8.7,7.2-15.3,16.1-15.2c9.5,0.1,15.8,6.6,15.6,16.2
		C279.6,142.8,273,149.4,264,149.3z"/>
	<path class="st7" d="M171.2,150.7c1.3,4.6,2.6,9.3,4,13.9c3.8,12.3,7.7,24.6,11.6,36.9c0.1,0.3,0.2,0.7,0.3,1
		c0.3,0.8,0,1.1-0.8,1.1c-10,0-20,0-30,0c-1.4,0-0.8-0.8-0.6-1.4c4.6-14.2,8.9-28.5,13.2-42.8c0.8-2.9,1.4-5.8,2.1-8.7
		C171,150.7,171.1,150.7,171.2,150.7z"/>
</g>
</svg>
