<?xml version="1.0" encoding="utf-8"?>
<!-- Generator: Adobe Illustrator 24.1.1, SVG Export Plug-In . SVG Version: 6.00 Build 0)  -->
<svg version="1.1" id="GraphQL_Logo" xmlns="http://www.w3.org/2000/svg" xmlns:xlink="http://www.w3.org/1999/xlink" x="0px"
	 y="0px" viewBox="0 0 400 400" style="enable-background:new 0 0 400 400;" xml:space="preserve">
<style type="text/css">
	.st0{fill:#FA70A8;}
	.st1{fill:#4E56A5;}
	.st2{fill:#E14CA5;}
	.st3{fill:#363C74;}
	.st4{fill:#FEFEFE;}
	.st5{fill:#030776;}
</style>
<g>
	<path class="st0" d="M261,251.4c-3.5,2.8-5.3,6.8-7.7,10.4c-1.5,2.2-2.8,4.4-4.5,6.4c-4.9,5.9-11.3,8.6-20.1,4.7
		c-3.5-1-5.5-3.8-7.7-6.3c-3.3-3.9-5.7-8.4-9-12.2c-1.1-1.3-2.3-2.6-3.8-3.6c-5.9-5.3-16.1-5-22.3,3.2c-1.3,1.7-2.2,3.8-4.1,5.2
		c-2.1,2.9-3.9,6.1-6.2,9c-6.9,8.3-16.9,8.9-24.6,1.4c-0.5-0.5-1.1-0.9-1.6-1.4c-1.2-0.3-1.6-1.4-2.3-2.3
		c-3.6-4.6-6.3-9.9-10.7-13.8c-0.8-0.7-1.5-1.4-2.3-2c-5.5-4.1-15.2-4.1-20.8,3.3c-1.4,1.9-2.8,3.9-4.1,5.8c-0.5,0.8-0.9,1.7-1.9,2
		c-2.1,3.1-4,6.3-6.7,8.9c-7.5,7.4-19.9,5.6-25.1-3.5C66.7,251,61,234.3,57.8,216.8c-2.1-11.9-2.7-23.9-1.9-35.8
		c2.2-33.8,13.8-64,35.6-90c21-25,47.4-41.2,79.2-48.3c12.1-2.7,24.3-3.7,36.7-2.9c30.7,1.9,58,12.6,81.8,32.2
		c21.8,17.9,37.1,40.4,46.4,66.9c4.3,12.2,7.3,24.8,7.9,37.8c-1.4-0.1-1.1-1.3-1.2-2.2c-1.6-12.3-4.7-24.2-9.1-35.7
		c-6-15.6-14.5-29.7-25.4-42.3c-0.6-0.7-1.3-1.4-1.7-2.3c7.1,14.6,13.1,29.5,17.3,45.2c3,11.2,5,22.5,6,34
		c1.9,22.8-1.2,44.9-8.9,66.3c-3.8,10.4-8.5,20.4-14.3,29.9c-1.4,2.3-1,2.8,1.4,3.8c1.6,0.6,3.6-0.1,5,1.2c-3.3,0.9-6.4,0-9.5-1
		c-3.3-0.5-5.4-2.7-7.5-5.1c-2.7-3.1-4.9-6.6-7.3-9.9c-1.6-2.3-3.3-4.4-5.4-6.3c-5.3-6.3-15.7-6.3-20.8-1.4
		C261.8,251.1,261.4,251.3,261,251.4z"/>
	<path class="st1" d="M208.7,250.5c3.4,2.2,5.5,5.7,7.8,8.9c3.5,5,6.9,10.1,12.2,13.6c0,21.1,0,42.3-0.1,63.4
		c0,8.5-3.3,15.5-10.6,20.2c-7.4,4.9-15.4,5.3-23.3,1.3c-7.9-4-12.5-10.8-12.7-19.6c-0.3-20-0.1-40-0.1-60.1
		c1.2-1.8,3.3-2.7,4.7-4.3c2.8-3.3,5.1-6.8,7.4-10.5c2.8-4.6,5.7-9.2,10.6-12C205.9,250.7,207.1,249.8,208.7,250.5z"/>
	<path class="st1" d="M283.5,251.9c3.4,2.8,5.6,6.6,8.1,10.2c3.2,4.5,6.5,8.8,11.5,11.4c0,11.9,0,23.9-0.1,35.8
		c-0.1,8.7-5.4,16.3-13.4,19.4c-8.1,3.1-17.3,0.9-23.1-5.6c-3.8-4.3-5.4-9.4-5.4-15.1c0-18.3,0-36.6-0.1-54.9c0-0.6,0-1.1-0.1-1.7
		c0.2-0.3,0.3-0.5,0.5-0.8c0.9,0.9,0.7,2.1,0.7,3.1c0,6.4,0,12.9,0,19.3c0,0.8-0.2,1.6,0.3,2.5c1.8-1,3-2.6,4.2-4.1
		c2.3-2.9,4.2-6.2,6.1-9.4c2.1-3.3,4.3-6.5,7.4-9C281.1,252.3,282,251.3,283.5,251.9z"/>
	<path class="st2" d="M312.6,274.5c-2.1-0.1-4.3,0-6.3-0.9c-2.3-1-2.6-1.5-1.3-3.6c7.1-11.5,12.7-23.6,16.8-36.5
		c2.9-9.2,5-18.6,6.1-28.3c0.9-7.6,1.6-15.1,1.3-22.7c-0.4-9.3-1.2-18.6-3-27.8c-2.9-15.1-7.3-29.7-13.2-43.8
		c-2.6-6.3-5.5-12.5-8.5-19.1c2.2,1.4,3.3,3.3,4.6,4.9c6.4,7.5,11.9,15.6,16.7,24.2c6.4,11.5,10.9,23.8,14.1,36.5
		c1.5,6,2.8,12,3.2,18.2c0,0.4,0.3,0.7,0.5,1c0,0,0,0,0,0c0.6,1.7-0.1,3.5,0.4,5.3c1.8,25.9-2.3,50.9-13,74.6
		c-2.5,5.6-5.7,11-10.6,15.1C318.2,273.4,315.6,274.6,312.6,274.5z"/>
	<path class="st1" d="M134.5,249.7c2.3,1.4,4,3.4,5.6,5.5c3.2,4.3,6.2,8.6,9.3,13c0,10,0,20-0.1,30c-0.1,10.2-6.4,18.3-16,20.8
		c-12.8,3.2-25.6-6.4-25.9-19.5c-0.2-7.9,0-15.7,0-23.6c2.5-3.8,5.6-7.3,7.8-11.3c1.7-3.1,3.7-6.1,6-8.8c2.5-3,5.8-4.9,9.5-6
		C132,249.4,133.3,249.5,134.5,249.7z"/>
	<path class="st3" d="M208.7,250.5c-5.1,1.2-8.4,4.9-11.3,8.9c-2.8,3.9-4.9,8.3-7.9,12.1c-2.1,2.7-4.2,5.3-7.5,6.7
		c-0.1-6.3-0.1-12.7-0.2-19c1.9-3.9,4.5-7.2,8-9.8C195.4,245.1,203.7,245.7,208.7,250.5z"/>
	<path class="st3" d="M134.5,249.7c-3.8,0.6-7.3,1.6-10.4,4.1c-1.8,1.5-3.1,3.3-4.5,5.2c-3.4,4.5-5.7,9.7-9.4,14
		c-0.9,1-1.7,2.1-2.8,2.8c-0.1-4.9-0.1-9.8-0.2-14.7c2.3-4.3,4.9-8.3,8.8-11.4C121.3,245.5,129.1,245.5,134.5,249.7z"/>
	<path class="st0" d="M344,181.8c-0.8-1.7-0.3-3.5-0.4-5.3C344.4,178.2,343.9,180,344,181.8z"/>
	<path class="st4" d="M267.3,158.7c0.1,12.1-1.7,23.3-6.5,33.9c-7.6,16.7-20.8,26.9-38.2,31.5c-18.7,4.9-37.5,4.9-56-0.6
		c-21.3-6.3-34.8-20.6-40.2-42.2c-5.2-21-3.4-41.3,6.8-60.6c9.2-17.3,22.6-30.2,41.3-36.6c22.5-7.7,43.3-3.5,62,11
		c17,13.2,26.7,31,30.1,52.2C267.3,151.2,267.4,155.2,267.3,158.7z"/>
	<path class="st3" d="M283.5,251.9c-3.8,1.6-6,4.8-8.3,7.9c-2.8,3.9-5,8.3-8,12.1c-1.5,1.9-3.2,3.7-5.8,5.5c0-9.2,0-18,0-26.8
		C268,244.7,277.8,245.3,283.5,251.9z"/>
	<path class="st5" d="M149.3,132.1c0-13.1,7.8-24.4,18.9-28.1c13.8-4.5,28.4,3.3,33.3,17.9c5.5,16.4-3.7,34.2-19.7,38
		c-12.7,3-25.9-4.5-30.6-17.4C149.9,139,149.2,135.4,149.3,132.1z"/>
	<path class="st4" d="M158.3,125.1c0-7.3,5.9-13.3,13.2-13.4c7.4-0.1,13.6,5.9,13.6,13.3c0,7.4-6.1,13.4-13.5,13.4
		C164.3,138.4,158.3,132.4,158.3,125.1z"/>
</g>
</svg>
