<?xml version="1.0" encoding="utf-8"?>
<!-- Generator: Adobe Illustrator 24.1.1, SVG Export Plug-In . SVG Version: 6.00 Build 0)  -->
<svg version="1.1" id="GraphQL_Logo" xmlns="http://www.w3.org/2000/svg" xmlns:xlink="http://www.w3.org/1999/xlink" x="0px"
	 y="0px" viewBox="0 0 400 400" style="enable-background:new 0 0 400 400;" xml:space="preserve">
<style type="text/css">
	.st0{fill:#6CC9F1;}
	.st1{fill:#9B4CCA;}
	.st2{fill:#FFFFFF;}
	.st3{fill:#9C4FCA;}
	.st4{fill:#943FC5;}
</style>
<path class="st0" d="M-22.5,541.3c2.4,0.2,3.6,1.6,4.1,3.9C-20.3,544.4-21.6,543-22.5,541.3z"/>
<g>
	<path class="st1" d="M309.4,244.4c-0.1,51.6-28,91.9-72.9,108.2c-40.6,14.8-89,2.4-116.7-29.8c-32.7-38-39.1-89-14.4-131
		c28.1-47.9,58.1-94.8,86.7-142.4c7.1-11.8,10.9-9.9,17.1,0.4c28.4,47.1,57.3,93.8,85.7,140.8C305.4,207.9,310.7,226.7,309.4,244.4z
		"/>
	<path class="st2" d="M200.7,340.5c-69.7-0.1-114.6-76.5-80-138.3c22.9-40.9,48.7-80.2,73-120.3c4.8-8,7.9-9.8,13.5-0.4
		c24.1,40.2,49.9,79.5,72.7,120.4C314.7,264.3,270.4,340.6,200.7,340.5z"/>
	<path class="st3" d="M185.7,319.1c-47.2-8.3-74.5-64.4-51.8-106.3c3.1-5.7,6.4-11.4,14-8.1c6.3,2.7,5.9,8.2,4.4,14.2
		c-12.5,49-5.5,63.3,41.3,84.5c1.5,0.7,2.5,2.5,3.7,3.8C196.9,314.5,192.3,317.8,185.7,319.1z"/>
	<path class="st4" d="M185.7,319.1c3.9-4,7.8-8,11.6-11.9C199.7,318.7,198.2,320.3,185.7,319.1z"/>
</g>
</svg>
