<?xml version="1.0" encoding="utf-8"?>
<!-- Generator: Adobe Illustrator 24.1.1, SVG Export Plug-In . SVG Version: 6.00 Build 0)  -->
<svg version="1.1" id="GraphQL_Logo" xmlns="http://www.w3.org/2000/svg" xmlns:xlink="http://www.w3.org/1999/xlink" x="0px"
	 y="0px" viewBox="0 0 400 400" style="enable-background:new 0 0 400 400;" xml:space="preserve">
<style type="text/css">
	.st0{fill:#6CC9F1;}
	.st1{fill:#B10C33;}
	.st2{fill:#B10B33;}
	.st3{fill:#EE2720;}
	.st4{fill:#B10C34;}
	.st5{fill:#FAF4F3;}
	.st6{fill:#F8F2F1;}
	.st7{fill:#FAFAF9;}
	.st8{fill:#F8ECEB;}
	.st9{fill:#FBF3F2;}
	.st10{fill:#FBF7F6;}
	.st11{fill:#F7F3F4;}
	.st12{fill:#F5E8E8;}
	.st13{fill:#FBFBF8;}
	.st14{fill:#F5E8EA;}
	.st15{fill:#F8F4F4;}
	.st16{fill:#F9EEEB;}
	.st17{fill:#F6E7E9;}
	.st18{fill:#F12C27;}
	.st19{fill:#F9EAE9;}
	.st20{fill:#F9F5F5;}
	.st21{fill:#FAF0EF;}
	.st22{fill:#FAF3F3;}
	.st23{fill:#FAF3F0;}
	.st24{fill:#FAF0EE;}
	.st25{fill:#FBF6F6;}
	.st26{fill:#FAF2F2;}
	.st27{fill:#F4EAEC;}
	.st28{fill:#FAF1F2;}
	.st29{fill:#FAF5F4;}
	.st30{fill:#FAF8F8;}
	.st31{fill:#F7F5F6;}
	.st32{fill:#F9F1F0;}
	.st33{fill:#FAF6F4;}
	.st34{fill:#FAF5F1;}
	.st35{fill:#F4E7EA;}
	.st36{fill:#F3FEFB;}
	.st37{fill:#ED2720;}
	.st38{fill:#B51236;}
	.st39{fill:#E92720;}
	.st40{fill:#F0251F;}
	.st41{fill:#E62B1F;}
	.st42{fill:#E42B1C;}
	.st43{fill:#EA2821;}
	.st44{fill:#EF261F;}
	.st45{fill:#E82A1D;}
	.st46{fill:#E62C1D;}
	.st47{fill:#E42A1D;}
	.st48{fill:#F3242B;}
	.st49{fill:#F02A22;}
</style>
<g>
	<path class="st1" d="M75.5,284.9c-0.3-1.2-1-2-2.2-2.3c-3.2-3.2-7.9-5.4-7.7-11c3-2.3,6.5-2,9.9-2c24.6,0.5,49.2,0.7,73.8-0.1
		c2.2-0.1,4.5-0.4,6.4,1.2c0.4,0.5,0.8,1,1.2,1.4c3.5,3,5.6,7.4,9.3,10.3c2.1,4.7,7.3,6.9,9.3,11.6c10.1,12.5,20.4,24.9,31.8,36.4
		c2.4,3,5.5,5.3,7.5,8.6l-0.1,0c1.8,2.9,0.7,4.2-2.4,4.2c-4.9,0-9.8,0-14.6,0c-22,0-43.9-0.1-65.9,0.1c-4.1,0-7.1-1-9.9-4.5
		c-4.6-5.9-10.1-11.1-14.5-17.1l0.1,0C96.6,309.5,85.7,297.5,75.5,284.9z"/>
	<path class="st2" d="M200,180.3c0.2,1.2,0.8,2.1,2.1,2.4c4.1,3.5,7.9,7.3,11,11.6c1.3,1.8,3.4,3.8,0.7,6.2c-1.9,1-3.9,1-5.9,1
		c-25.5,0.1-51.1,0.1-76.6,0c-1.2,0-2.4-0.1-3.6-0.3c-4.8-1.8-7-6.6-10.8-9.7c-5.5-7.8-12.2-14.5-18.4-21.7
		c-4.9-5.6-9.7-11.4-15-16.8c-0.4-1.5-1.9-2.5-2.3-4c-3.5-4.5-7-8.9-11-13c-1.1-1.2-2.1-2.7-1.2-4.4c0.9-1.6,2.4-0.6,3.8-0.5
		c4,0.3,7.6-1.9,11.7-1.8c19.5,0.3,39,0.2,58.5,0.1c3.7,0,7.2,1,10.9,0.8c0.6-0.1,1.2-0.1,1.8-0.1c4.6,1.4,5.4,6.5,8.9,8.9
		c1.2,1.5,2.9,2.5,3.5,4.5l-0.1-0.1c2.3,2.3,4.4,4.9,6.9,7.1C182.8,160.9,192.1,170,200,180.3z"/>
	<path class="st3" d="M155.9,131c-0.3,0-0.6,0.1-1,0.1c-4.8-1.1-9.6-1.2-14.5-1.2c-24.7,0.1-49.3-0.1-74,0.2c-2.8-2.4-0.3-4.1,0.8-6
		c11.2-13.3,23.1-26.1,34.5-39.4c2.4-2.2,4.1-5.3,6.8-7.2l0,0c2.2-3.9,5.8-6.6,8.5-10c0.4-0.4,0.8-0.9,1.2-1.3
		c2.3-2.3,3.5-5.8,7.1-6.7c0.6,0,1.1,0.2,1.6,0.5c0.2,0.5,0.3,1.1,0.1,1.6c0,0.6-1,0.7-0.6,1.4c0.9-0.4,1.8-0.7,2.7-0.8
		c22.3-0.3,44.6-0.2,66.9,0c4.9,0,9.2-0.7,12.8-4.1c2.2-1.1,4.8-2.1,6.5,0.3c1.6,2.4-0.8,4.1-2.4,5.5c-3.4,2.8-5.1,7.3-8.9,9.7l0,0
		c-7.2,10.1-16.1,18.6-24,28.1c-1.3,1.5-3.1,2.7-3.7,4.7c-2.1,2.5-4.6,4.8-6.8,7.3l0.1-0.1c-0.9,1.6-2.1,3.1-3.4,4.4
		C162.2,122.2,158.7,126.4,155.9,131z"/>
	<path class="st4" d="M260.4,291.4c4.8-5.2,9.8-10.3,14.3-15.8c3.2-4,5.1-3.2,8,0.2c17.5,20.4,35.2,40.6,52.8,60.9
		c0.8,0.9,1.8,1.6,2.7,2.4c1.3,1.8,1.6,3.4-1.1,4c-1,0.2-2,0.1-3,0.1c-37,0-74,0-111,0c-2.4,0-6.6,1.2-4.2-4l-0.1,0.1
		c2.2-4,5.8-6.7,8.7-9.9c1.3-0.3,1.9-1.1,2.2-2.3c5.7-7.8,12.6-14.6,18.8-22.1C252.2,300.2,255.9,295.4,260.4,291.4z"/>
	<path class="st3" d="M331.7,68.6c-0.3,0.3-0.6,0.6-0.8,1c-0.9,2.9-3.3,4.5-5.5,6.3c-4.1,1.8-5.5,6.2-8.7,8.9
		c-1.5,1.2-2.3,3.4-4.8,2.9c-2.9-1.3-3.8,1.5-5.4,2.8c-0.2,0.1-2,0-0.6,1c0.4,0.3,1.2,0,1.7,0.3c1.4,3.1-0.9,4.8-2.5,6.7
		c-1.6,1.8-3.4,3.4-4.7,5.4c-0.3,0.5-0.7,0.9-1.1,1.3c-2.4,2.9-5.7,5-7.5,8.5c-0.3,0.5-0.6,1-1,1.4c-3,3.3-6.4,6.2-9.1,9.8
		c-1.7,2.3-3.9,2.8-6.3,1.1c-8.6-8.3-16.1-17.6-23.7-26.8l0,0.1c-2.5-2.9-5.3-5.6-8-8.3c-1.4-2.1-3-4-4.3-6.1
		c-2.7-8.4-10.8-12.7-15.4-19.6c0.1-0.7,0.4-1.3,0.9-1.8c1.8-1.2,3.9-1.2,5.9-1.2c33.2,0,66.3-0.2,99.5,0.1c0.8,0.1,1.5,0.2,2.2,0.5
		c0.7,0.3,1.2,0.8,1.5,1.5C334.4,66.4,333.6,67.9,331.7,68.6z"/>
	<path class="st5" d="M331.7,68.6c0.6-1.1,1.2-2.2,1.8-3.3c1.9-5.7,1.9-5.8-3.8-5.8c-34,0-68.1,0-102.1,0c-3,0-5.8,0.1-6.3,3.9
		c-0.4,0.8-0.9,0.9-1.7,0.5c-1.9-2.8-3.4-1.8-5.7,0c-3.8,2.9-4.8,8.5-10.1,9.8c2.9-3.6,5.9-7.2,8.8-10.8c0.9-1.2,3.1-2.2,1.8-4
		c-1.1-1.4-3-0.8-4.5-0.1c-2.8,0.6-5.6,0.8-8.5,0.8c-22.6,0-45.1,0-67.7,0c-2.8,0-5.7-0.5-8.5,0.6c-3.1,1.2-3.8,5.2-7.1,6.1
		c2.3-7,6.5-10,14.4-9.9c27,0.5,54.1,0.2,81.1,0.2c37.6,0,75.1,0,112.7,0c3.8,0,7.6-0.1,11.4-0.4c1.8-0.2,2.7,0.6,3.5,1.8
		c1.1,1.6-0.1,2.9-1.2,3.6C336.8,63.4,336.7,68.9,331.7,68.6z"/>
	<path class="st6" d="M218.8,339.1c-0.7,3.1,1.2,3.2,3.5,3.2c37.5,0,75-0.1,112.5,0c2.4,0,4.1-0.3,3.3-3.3c1.8,0,3.5,0.3,3.4,2.5
		c-0.1,1.8-1.6,2.2-3.1,2.3c-1.6,0.1-3.3,0.1-4.9,0.1c-67.3,0-134.5,0-201.8,0.1c-4.9,0-8.3-0.8-11.2-5.3
		c-3.1-4.7-7.4-8.6-11.2-12.8c-1.1-1.2-2.3-2.3-2-4.2c6.1,4.9,10.4,11.3,15.5,17.1c2.4,2.6,4.9,3.7,8.5,3.7
		c26.3-0.1,52.5-0.1,78.8-0.1c2.2,0,5.4,1.1,4.6-3.3C216,339.6,217.4,339.5,218.8,339.1z"/>
	<path class="st7" d="M214.8,198.7c-4.2-5.3-8.4-10.7-12.6-16c0.8,0.1,1.6,0.2,2.4,0.3c1.8,0.2,1.9,6.1,5.1,1.6
		c1.1,1.2,2.6,2.1,3.2,3.5c1.3,2.8,1,6.6,5.5,7.2c0.3,0,0.9,4.4-0.1,5.7c-2.7,3.8-3.2,9.2-8.2,11.2c0.1,1.6,1.3,0.9,2.1,1.2
		c1.8,0.7,2.2,2.7,1.5,3.9c-1,1.7-2.9,2-4.6,0.3c-0.8-0.8-1.6-2.2-3-1.1c-1.1,0.8-0.6,1.8,0.2,2.6c-3.6,3-1.9,9.2-6.3,11.3
		c-2.3,1.1-1.4-3.4-3.5-3.9c-0.9-2.2,1-3.6,1.4-5.5c3.3-6.9,9.7-11.3,13.9-17.4C212.9,202,215.2,201.2,214.8,198.7z"/>
	<path class="st8" d="M117.2,190.6c2.9,3,5.8,6.1,8.7,9.1c1.1,2.1-0.3,3.5-1.5,4.9c-10.3,12.3-21.3,24.1-31.6,36.4
		c-1.3,1.5-2.7,3.1-5.1,2.9c-0.4-0.3-0.5-0.6-0.4-1c0.1-0.4,0.2-0.5,0.3-0.5c11.4-13.4,22.9-26.9,34.3-40.3c0.1-0.7,0.7-0.9,1.2-1.2
		c-0.4-4-4.7-5.2-6.1-8.5C116.4,191.6,116.5,191.1,117.2,190.6z"/>
	<path class="st9" d="M102.4,84.8C91.6,98.4,80.3,111.6,68.1,124c-0.4-0.3-0.5-0.6-0.4-0.9c0.1-0.3,0.2-0.5,0.3-0.5
		c0.8-1.2,1.7-2.4,2.5-3.6c0.7-2.8,3.6-3.8,4.9-6.1c1.2-1.2,2.4-2.4,3.7-3.7c0.4-2.1,2-2.9,3.7-3.7l0,0c0.8-0.6,0.3-1.9,1.2-2.4
		c5.7-6.1,11.4-12.3,17.1-18.4C101.5,84.2,102,84.2,102.4,84.8z"/>
	<path class="st10" d="M323.6,78.4c0.2,3.4-2.8,4.8-4.5,6.8c-7.8,9.4-15.7,18.7-23.6,28c-0.5,0.5-1.5,0.6-2.2,0.9
		c-0.2-0.2-0.4-0.4-0.6-0.6c0.2-4.6,4.8-5.9,6.8-9.1l-0.1,0c6.9-8.6,13.9-17.1,21.6-25C321.7,78.7,322.5,78.1,323.6,78.4z"/>
	<path class="st11" d="M117.2,190.6c-0.1,0.6-0.2,1.1-0.3,1.7c-11-12.6-22-25.2-33-37.9c-0.6-0.6-0.5-1.1,0.2-1.6
		C95.6,164.9,106.7,177.5,117.2,190.6z"/>
	<path class="st12" d="M75.5,284.9c11.3,11.7,22.1,23.8,32,36.7c-1.3-0.8-2.6-1.5-3.9-2.3l0,0c-8.4-9.8-16.8-19.6-25.2-29.4
		C77,288.4,75.1,287.3,75.5,284.9z"/>
	<path class="st13" d="M65.8,272.3c1.5,4.1,6,6.1,7.4,10.3c-3.4-0.5-5.9-3.2-8.4-2.8c1.5-4.6-1.3-6.9-4.2-9.3l0,0c0.3-2-2.6-4,0-5.9
		c0.6-0.4,2.1-0.6,2.1-0.5c1.9,5,4.2,0.2,6.2,0.2c0.2,0.2,0.3,0.4,0.5,0.6C70.1,268.2,66.4,269.5,65.8,272.3z"/>
	<path class="st14" d="M260.4,291.4c-9.5,12.5-19.8,24.3-30.8,35.6c0-4.3,3.9-5.9,6.1-8.6c7-8.6,14.4-16.7,21.8-25
		C258.2,292.4,259.4,292,260.4,291.4z"/>
	<path class="st15" d="M84.1,152.8c-0.1,0.5-0.1,1-0.2,1.6c-5.8-6.5-11.7-12.9-17.5-19.5c-5.4-6.2-5.3-6.7,1.6-12.3
		c0,0.5,0.1,1,0.1,1.4c-0.8,1.6-1.6,3.1-2.4,4.7c4.7,7.8,11.9,13.5,16.9,21C83.1,150.8,83.6,151.8,84.1,152.8z"/>
	<path class="st16" d="M175.5,106.7c5.9-9.2,14.1-16.5,20.9-24.9c2.3-2.8,4.2-6,7.4-7.9c-2.3,7.5-9,11.6-13.4,17.4
		c-4.1,5.5-9,10.4-13.5,15.5C176.4,107.2,175.9,107.2,175.5,106.7z"/>
	<path class="st17" d="M200,180.3c-9.3-9.1-17.7-19-25.7-29.3c-0.5-0.5-0.5-1.1,0.1-1.5c8.4,9.5,16.7,19,25.1,28.6
		C200,178.5,199.9,179.5,200,180.3z"/>
	<path class="st18" d="M323.6,78.4c-7.9,7-13.9,15.7-21.1,23.3c-1,1-1.6,2.4-3.1,2.7c0.7-5.6,7.2-7.2,8.4-12.4
		c0-0.3,0.1-0.5,0.1-0.8c0.7-1.4,1.7-2.6,2.8-3.8c0.2-0.1,0.5-0.2,0.7-0.4c3.6-1.7,5.7-5,8-7.9c1.6-2,3.3-3.5,5.7-4.2
		c0.4,1,0.5,1.8-0.8,2.2C324.1,77.6,323.9,78,323.6,78.4z"/>
	<path class="st19" d="M251.7,99.2c8,7,14,15.9,21.4,23.5c0.8,0.9,1.7,1.6,2.6,2.5c1.1,0.5,1,1.4,0.7,2.3c-0.5,0.5-1,0.6-1.6,0.1
		c-6.6-7.6-13.2-15.2-19.8-22.9C253.5,103,251.3,101.9,251.7,99.2z"/>
	<path class="st20" d="M155.9,131c1.1-6.1,6-9.3,9.9-13.3c0.5-0.5,0.9-0.5,1.4,0.1c-0.5,0.7-1,1.3-1.4,2c-2.2,3.6-7.6,6.1-7.2,9.8
		c0.4,3.6,4.7,6.7,7.4,10c-0.4,0.6-0.8,0.6-1.3,0.1C161.7,136.8,158.8,133.9,155.9,131z"/>
	<path class="st21" d="M157.2,273.1c-0.5-0.1-1-0.3-1.5-0.4c-0.3-1.2-0.8-2.6-0.1-3.5c5.4-7.4,10.8-14.8,18.5-20.2
		c0.6,0,1.2,0.3,1.6,0.7c-6.1,7.3-12.2,14.6-18.3,21.9C157.9,272.2,157.9,272.7,157.2,273.1z"/>
	<path class="st22" d="M87.5,242.3c0,0.5,0.1,0.9,0.1,1.4c-3.7,9-9.6,16.1-18.2,20.8c0,0-0.4-0.3-0.4-0.3
		C73.7,255.7,81.4,249.7,87.5,242.3z"/>
	<path class="st23" d="M240.5,84.6c1.3,1.9,2.5,3.9,3.8,5.8c0.4,0.6,0.4,1.2-0.2,1.7c-5.3-6.1-10.6-12.2-15.9-18.4
		c-0.3-0.3-0.4-0.7-0.3-1c0.1-0.3,0.2-0.5,0.3-0.5C234.5,74.2,236.7,80.2,240.5,84.6z"/>
	<path class="st24" d="M198.8,221.4c0.4,2.3-1.6,3.4-2.4,5.1c-3.6,3.7-7.2,7.4-10.8,11.2c-0.2-0.2-0.4-0.4-0.6-0.6
		C187.6,230.1,191.9,224.5,198.8,221.4z"/>
	<path class="st25" d="M228.4,72.2c-0.1,0.5-0.1,1-0.2,1.5c-0.9-1.1-5.1,2.6-3.6-2.8c0.4-1.6-4-4-4.9-7c0.5,0,1-0.1,1.5-0.1
		c2.1-0.5,2.5,1.5,3.4,2.5l0,0C226.7,67.8,228.8,69.2,228.4,72.2z"/>
	<path class="st26" d="M293.3,114.2c-2.8,4.9-6.3,9.1-11,12.3c-0.2-0.2-0.4-0.4-0.5-0.6c1.2-5.4,6.3-7.6,9.2-11.6l-0.1,0.1
		c0.5-1,1.2-1,2-0.5L293.3,114.2z"/>
	<path class="st24" d="M175.7,249.7c-0.5,0-0.9-0.1-1.4-0.1c0.8-6.6,5.2-10.1,10.9-12.4c0,0,0.4,0.4,0.4,0.4
		C183.1,242.3,179.5,246.1,175.7,249.7z"/>
	<path class="st27" d="M175.5,294.1c-3.9-3.2-7.3-6.9-9.9-11.3c0.4-0.6,0.9-0.7,1.5-0.1C169.4,286.9,174.9,288.6,175.5,294.1z"/>
	<path class="st28" d="M167.1,282.6c-0.5,0-1,0.1-1.5,0.1c-3.4-2.7-6.1-6-8.4-9.7c0-0.5,0.1-1,0.1-1.5
		C160.6,275.3,163.9,279,167.1,282.6z"/>
	<path class="st29" d="M117,67.6c-1.8,4.2-5,7.2-8.5,10C110,73.1,112.5,69.6,117,67.6z"/>
	<path class="st30" d="M75.3,112.8c-0.3,3.1-2.6,4.6-4.9,6.1c-3.3-1.3-2.1-3.2-0.2-4.4C71.7,113.6,73.6,113.4,75.3,112.8z"/>
	<path class="st29" d="M102.4,84.8c-0.5-0.1-0.9-0.1-1.4-0.2c1.6-2.5,3.9-4.5,4.9-7.4c1-2.9,1.7,0.7,2.7,0.4
		C107.2,80.6,105,82.8,102.4,84.8z"/>
	<path class="st31" d="M227.4,329.2c-2.1,4-5.1,7.3-8.7,9.9C219.6,334.1,223.6,331.7,227.4,329.2z"/>
	<path class="st31" d="M214.7,339c-3.2-2.2-5.7-5.1-7.5-8.6C211.1,332.1,213.5,335,214.7,339z"/>
	<path class="st32" d="M244.1,92.1c0.1-0.6,0.1-1.1,0.2-1.7c2.8,2.6,5.8,5.2,7.4,8.9C248.4,97.7,246.3,94.9,244.1,92.1z"/>
	<path class="st33" d="M175.5,106.7c0.5,0,0.9,0,1.4,0.1c-2.1,2.8-4.2,5.7-7.6,7.2C170.5,110.8,172.8,108.5,175.5,106.7z"/>
	<path class="st30" d="M82.7,105.5c-0.8,1.7-2,2.9-3.7,3.7c-1.4-1-1.4-2.3-0.5-3.5C79.8,103.8,81.3,104.9,82.7,105.5z"/>
	<path class="st30" d="M82.7,99.4c-1.3-0.4-3.5,1-3.7-1.3c-0.1-0.9,1.1-3.1,2.5-2.8C83.6,95.7,82.3,98,82.7,99.4L82.7,99.4z"/>
	<path class="st26" d="M274.8,127.5c0.5-0.1,1-0.1,1.5-0.2c2-0.1,3.8-0.8,5.7-1.2c0,0,0.3,0.3,0.3,0.3
		C280.4,131.2,277.9,131.4,274.8,127.5z"/>
	<path class="st34" d="M324.4,77.2c0.3-0.7,0.5-1.5,0.8-2.2c1.9-1.8,3.8-3.6,5.7-5.4C330.7,73.8,327.7,75.7,324.4,77.2z"/>
	<path class="st25" d="M214.5,66.3c0.4,3.9-1.3,4.9-4.1,5.1C211.5,69.9,212.7,68.5,214.5,66.3z"/>
	<path class="st7" d="M223.1,210.7c0.2-2.9,0.4-5.8,0.6-8.7C224.5,205.2,225.2,208.3,223.1,210.7z"/>
	<path class="st35" d="M174.5,149.4c0,0.5-0.1,1-0.1,1.5c-2.8-1.9-4.8-4.4-6.3-7.4C171.1,144.5,172.7,147.1,174.5,149.4z"/>
	<path class="st13" d="M60.7,270.5c-0.2,1.8,0.7,4.1-1.7,5.3C57.5,273.3,58.5,271.7,60.7,270.5C60.7,270.5,60.7,270.5,60.7,270.5z"
		/>
	<path class="st25" d="M216,68.9c2.6,1.9,3.3,3.4,3.2,6.2C216.9,73.3,216.8,71.6,216,68.9z"/>
	<path class="st30" d="M83.9,103.1c0,1-0.2,1.9-1.2,2.4c-2.2-2-2-4.1,0-6.1c0,0,0,0,0,0C84.1,100.3,83.9,101.7,83.9,103.1z"/>
	<path class="st36" d="M103.5,319.4c0.5,1.4,1,2.9,1.9,5.2C101.8,323.2,101.7,321.6,103.5,319.4
		C103.5,319.4,103.5,319.4,103.5,319.4z"/>
	<path class="st7" d="M223.6,192.3c0.1,2.2-0.6,3.2-2.2,4.6C220.7,194.4,221.5,193.4,223.6,192.3z"/>
	<path class="st33" d="M167.1,117.7c-0.5,0-0.9,0-1.4-0.1c0.7-1.8,1.6-3.3,3.6-3.9C169.7,115.7,168.8,116.9,167.1,117.7z"/>
	<path class="st11" d="M123,200.8c-0.4,0.4-0.8,0.8-1.2,1.2c-1.3-0.7-2.4-1.4-2.9-3C121,198.1,121.5,200.6,123,200.8z"/>
	<path class="st30" d="M73.2,107.6c0.9,0.9,1.3,1.3,1.3,1.4c-0.5,0.6-0.9,1.4-1.6,1.7c-0.8,0.4-1-0.3-0.8-0.9
		C72.4,109,72.8,108.3,73.2,107.6z"/>
	<path class="st7" d="M220.7,206.3c-0.5,0.4-1.1,1.1-1.7,1.3c-0.7,0.3-1.1-0.3-0.7-0.9c0.4-0.6,1.2-1,1.8-1.5
		C220.2,205.6,220.4,205.8,220.7,206.3z"/>
	<path class="st35" d="M164.6,139.7c0.4,0,0.9-0.1,1.3-0.1c1.5,0.9,2.6,2,2.2,4C166.3,143,165.4,141.4,164.6,139.7z"/>
	<path class="st37" d="M185.2,237.3c-4.2,3.6-7.8,7.7-10.9,12.4c-5.9,6.5-11.9,13-17.7,19.7c-0.7,0.8-0.6,2.2-0.9,3.4
		c-1.2-2.3-3.3-1.7-5.2-1.6c-24.9,0.9-49.8,0.8-74.6,0.2c-3.3-0.1-6.8-0.3-10.1,1.1c-1.6-3.9,3-4.9,3.6-7.8
		c6.7-6.4,12.6-13.4,18.2-20.8c13.4-14.1,26.3-28.6,38.2-44c27.5,0,55,0,82.5-0.1c2.2,0,4.5,0.7,6.5-0.9c3,2.1,0.2,3.5-0.8,4.7
		c-5,6.1-10.1,12-15.2,18C193.9,226.3,189.1,231.4,185.2,237.3z"/>
	<path class="st38" d="M82.6,149.7c-6.3-5.4-11-12.2-16.5-18.3c-0.7-0.8-1-1.7-0.4-2.7c4.9,1.2,9.9,0,14.8,0c21.7,0.1,43.5,0,65.2,0
		c3.3,0,6.5,0.2,9.2,2.3c-0.8,0.5-1.6,1.5-2.3,1.4c-24-3.1-48.2-0.5-72.2-1.3c-1,0-2.5,0-2.9,0.5c-2.5,4.1-5,2.1-7.8,0.1
		C73.4,138.5,80.2,142.5,82.6,149.7z"/>
	<path class="st39" d="M125.3,60.2c1-2.1,2.9-1.9,4.7-1.9c26.1,0,52.1,0,78.2,0.1c0.6,0,1.2,0.3,1.7,0.5c-3,4.6-7.3,5.3-12.5,5.2
		c-23.6-0.2-47.1-0.1-70.7-0.1c-0.4-0.8-0.2-1.4,0.6-1.8c2.3-1,4.8-0.6,7.2-0.6c19.8,0,39.5,0,59.3,0c2.2,0,4.5,0.4,6.6-0.5
		c-5,1.1-10.1,0.5-15.1,0.5c-17.2,0.1-34.4,0.1-51.6,0c-2.4,0-4.9,0.6-7-1.1C126.2,60.3,125.8,60.2,125.3,60.2z"/>
	<path class="st40" d="M126.7,60.3c24.4,0,48.8,0,73.2,0c1.8,0,3.7-0.5,5.1,1.2c-1.3,0.9-2.7,0.6-4.1,0.6c-24.4,0-48.7,0.1-73.1-0.1
		c-0.4-0.2-0.7-0.4-1.1-0.5C126.7,61.1,126.7,60.7,126.7,60.3z"/>
	<path class="st41" d="M189.1,84.6c-0.6-0.8-0.8-1-0.8-1.1c0.5-2.9,2-6.1,4.5-6.6c2.5-0.5,1.6,1.5,0.2,2.9
		C191.7,81.1,190.6,82.8,189.1,84.6z"/>
	<path class="st40" d="M126.7,62.7c0,0.4,0,0.8,0,1.2c-1.5,0.8-1.6,3.4-4.4,3.2c0.2-3,2.4-4.2,4.4-5.6c0,0,0,0,0,0
		c0.4,0.3,0.6,0.5,0.4,0.8C127,62.6,126.9,62.7,126.7,62.7z"/>
	<path class="st42" d="M108.9,84.1c0.1-2.4,1.4-3.3,3.1-3.9c1.8,1.1,0.5,2-0.2,2.8C111.2,83.8,110.5,84.4,108.9,84.1z"/>
	<path class="st43" d="M224.6,66.4c-1.1-0.8-2.3-1.7-3.4-2.5c-0.3-1.8-2.6-2.6-2.3-4.9c1.9-1.5,4.2-0.7,6.4-0.7
		c35.2-0.1,70.4-0.1,105.6,0c2.5,0,6.2-1.5,7.1,1.2c0.8,2.3-2.3,4.3-4.4,5.9c0-0.5-0.1-0.9-0.1-1.4c-1.3-3.5-4.3-2.4-6.8-2.4
		c-30.7-0.1-61.5,0-92.2,0c30.5,0,60.9,0,91.4,0.1c2.2,0,5.5-1.6,6.5,2.4c-33.7,0-67.4,0-101.1,0.1C228.8,64,225.6,62.4,224.6,66.4z
		"/>
	<path class="st44" d="M332.3,63.9c-2-2.1-4.6-1.2-7-1.2c-31.2-0.1-62.3,0-93.5-0.1c-2.1,0-4.4,0.8-6.4-0.9c0.8-2.3,2.7-1.5,4.1-1.5
		c33.4-0.1,66.8,0,100.2-0.1c2.6,0,5.2-0.3,3.8,3.7C333,63.9,332.6,63.9,332.3,63.9z"/>
	<path class="st43" d="M228.4,72.2c-1.3-1.9-2.5-3.9-3.8-5.8c0.8-0.1,1.8-0.5,2.2-0.1c3.8,2.8,4.7,9.3,11.1,8.8
		c-1.8,3.9,2.8,6.1,2.6,9.5C236.5,80.5,232.4,76.4,228.4,72.2z"/>
	<path class="st18" d="M281.9,126.1c-1.7,1.2-3.3,2.8-5.7,1.2c-0.2-0.7-0.4-1.5-0.6-2.2c2.2,1,3.8,0.9,5.5-1.5
		c2.6-3.7,5.6-7.2,9.8-9.4C289,119,284,121.4,281.9,126.1z"/>
	<path class="st45" d="M307.8,92.1c-1.7-0.8-2.7,3.3-4.4,0.7c-1.9-2.9,1.6-2.4,2.6-3.2c1.5-1.2,1.3-7.2,5.5-2.4c0,0,0,0,0,0
		C310.3,88.9,308.9,90.3,307.8,92.1L307.8,92.1z"/>
	<path class="st18" d="M292.9,113.8c-0.7,0.2-1.3,0.3-2,0.5c0.4-5.4,4.8-7.4,8.6-9.9C298.4,108.4,293.9,109.9,292.9,113.8z"/>
	<path class="st43" d="M234,69.7c-2.9-0.2-3.3-1.9-3.7-4.3C232.6,66.1,233.9,67.1,234,69.7z"/>
	<path class="st46" d="M250.2,88.8c-2.7-0.2-3.8-1.3-4-3.6C248.4,85.2,249.2,86.6,250.2,88.8z"/>
	<path class="st3" d="M307.8,92.1c0.1-2.5,1.7-3.8,3.7-4.9C311.4,89.6,309.8,91,307.8,92.1z"/>
	<path class="st47" d="M83.9,254.6c-0.3,3.6-2,4.6-4.3,5.8C79.6,257.4,81.5,256.5,83.9,254.6z"/>
	<path class="st48" d="M104.7,236.9c-0.3,0.4-0.6,1.1-1,1.2c-0.7,0.2-1.2-0.4-0.9-1.1c0.2-0.5,0.8-0.8,1.2-1.2
		C104.2,236.2,104.4,236.5,104.7,236.9z"/>
	<path class="st49" d="M126.7,62.7c0-0.4,0-0.8,0-1.2c26.1,0,52.2,0,78.3,0c-1.8,2-4.2,1.2-6.3,1.2
		C174.7,62.7,150.7,62.7,126.7,62.7z"/>
</g>
</svg>
