<?xml version="1.0" encoding="utf-8"?>
<!-- Generator: Adobe Illustrator 24.1.1, SVG Export Plug-In . SVG Version: 6.00 Build 0)  -->
<svg version="1.1" id="GraphQL_Logo" xmlns="http://www.w3.org/2000/svg" xmlns:xlink="http://www.w3.org/1999/xlink" x="0px"
	 y="0px" viewBox="0 0 400 400" style="enable-background:new 0 0 400 400;" xml:space="preserve">
<style type="text/css">
	.st0{fill:#43A13A;}
	.st1{fill:#49AD3D;}
	.st2{fill:#52B341;}
	.st3{fill:#429C3A;}
	.st4{fill:#45AA3C;}
	.st5{fill:#44A73B;}
	.st6{fill:#3E933A;}
	.st7{fill:#43A83C;}
	.st8{fill:#5BB844;}
	.st9{fill:#EFF0E1;}
	.st10{fill:#E3E2CF;}
	.st11{fill:#F3F4E7;}
	.st12{fill:#FCFCFC;}
	.st13{fill:#F8F8EE;}
	.st14{fill:#EBECDC;}
	.st15{fill:#E5E5D3;}
	.st16{fill:#65B552;}
	.st17{fill:#D7EDD5;}
	.st18{fill:#B9DFB6;}
	.st19{fill:#B3E3B0;}
	.st20{fill:#DFDFCB;}
	.st21{fill:#57B643;}
	.st22{fill:#4EB03F;}
	.st23{fill:#DCDCC7;}
	.st24{fill:#D5D8C0;}
	.st25{fill:#6DB267;}
	.st26{fill:#3F9939;}
	.st27{fill:#E9E9D8;}
	.st28{fill:#CBEBC8;}
	.st29{fill:#74AE6F;}
</style>
<g>
	<path class="st0" d="M267.4,156.3c0.3,0.5,0.4,1.1,0.5,1.7c-0.1,0.3-0.1,0.6,0.1,0.8c0.6,1.1,0,2.3,0.1,3.5c0,0.9-0.7,1.1-1.4,1.1
		c-1.4,0-2.9,0-4.3,0c-1.5,0-3.1,0-4.6,0c-0.6,0-1.2,0.1-1.5,0.8c-0.3,0.9-1.1,1.1-1.9,1.1c-2.5,0-5,0-7.5,0c-1,0-2,0-2.4,1.2
		c-0.3,0.7-1,0.7-1.7,0.7c-2.6,0-5.1,0-7.7,0c-0.9,0-1.7,0.1-2.1,1.2c-0.3,0.8-1.1,0.8-1.8,0.8c-2.5,0-5.1,0-7.6,0
		c-1,0-1.8,0.1-2.2,1.2c-0.3,0.8-1.2,0.7-1.9,0.8c-3.1,0-6.3,0-9.4,0c-1,0-1.8,0-2.2,1.2c-0.2,0.5-0.8,0.7-1.3,0.8
		c-0.9,0.1-1.2,0.7-1.2,1.5c0,1.4,0,2.7,0,4.1c0,0.7-0.1,1.3-0.6,1.8c-0.4,0.4-0.4,1-0.4,1.6c0,2.2,0,4.3,0,6.5
		c0,0.6,0.1,1.2-0.5,1.7c-0.6-0.5-0.5-1.3-0.5-1.9c0-5.8,0-11.6,0-17.3c0-0.6,0-1.1-0.1-1.7c0-0.1-0.1-0.3-0.1-0.4
		c0-1.4-0.1-2.8,0-3.7c0.1,2.3-0.2,5.1-0.2,7.9c0,0.6,0.1,1.2-0.3,1.7c-0.2,0-0.3,0-0.4-0.2c-0.4-1.9-0.1-3.8-0.2-5.7
		c0-13.1,0-26.1,0-39.2c0-0.4-0.1-0.8-0.2-1.2c-0.2-4.4-0.1-8.8-0.1-13.2c0-2-0.1-3.9,0.1-5.9c0.2-0.7,0.3-1.5,0.1-2.2
		c-0.3-1.1,0.1-2.2,0.2-3.3c0-0.3,0.2-0.6,0.5-0.5c0.3,0,0.4,0.3,0.4,0.5c0.2,0.7,0,1.3-0.3,1.9c-0.1,0.1,0.2,0,0.1,0
		c-0.1,0,0,0,0-0.1c0.4-0.6,0.7-0.3,0.9,0.2c0.2,0.6,0.1,1.3,0.1,1.9c0,0.5,0.2,0.8,0.7,0.6c0.7-0.2,1.4-0.2,2-0.1
		c0.9,0,1.7,0,2.1-1.1c0.3-0.8,1.1-0.8,1.9-0.8c2.5,0,5.1,0,7.6,0c0.9,0,1.7,0,2.1-1.1c0.2-0.6,0.9-0.8,1.5-0.8c0.9,0,1.8,0,2.8,0
		c0.6,0,1.1-0.1,1.3-0.8c0.3-0.8,1-1.1,1.8-1.1c3.9,0,7.7,0,11.6,0c0.6,0,1.2,0.1,1.8,0.8c-0.7-1-1.8-1.7-1-2.9
		c0.2-0.3-0.1-0.5-0.3-0.7c-0.5-0.9-0.2-2.4,0.6-2.9c0.3-0.2,0.4-0.1,0.6,0.1c1.8,2.2,3.1,4.7,4.6,7.1c5.3,8.9,9.8,18.2,13.6,27.8
		c0.2,0.4,0.4,0.8,0.5,1.2c0.3,0.8,0.9,1.5,0.9,2.5c1.2,3.5,2.4,7,3.6,10.4c0.1,0.2,0.1,0.4,0.1,0.6c-0.1,0.5,0,0.9,0.2,1.3
		c0.1,0.2,0.1,0.2,0.2,0.2c0.4,1,0.8,2,0.9,3.1c-0.9,0.1-1.2-0.7-1.7-1.2c0-0.1-0.1-0.1-0.1-0.2c0-0.1,0-0.2-0.1-0.3
		c0,0.1,0.1,0.1,0.1,0.2c0.1,0.2,0.2,0.3,0.3,0.5c0.1,0.3,0.2,0.6,0.5,0.8c1.7,1,1.5,2.9,1.9,4.5c0,0.1-0.1,0.3-0.3,0.4
		c-0.4-0.1-0.4-0.5-0.4-0.9c-0.1,0.7-0.1,1.4-0.6,2.1c0.6-0.3,0.2-1.1,0.8-1.3c0.2,0.3,0.6,0.5,0.6,0.7
		C267.2,157.4,267.2,155.7,267.4,156.3z"/>
	<path class="st1" d="M136.4,138.2c0-0.1,0-0.3,0.1-0.4c0.2-0.4,0.2-0.9,0.5-1.3c0.1,0,0.1-0.1,0-0.2c0.3-0.5,0-1.1,0.5-1.5l0,0
		c0.3-1.5,0.7-3,1.4-4.4l0,0c0.2-1.4,0.7-2.7,1.4-3.9l0,0c0.2-1.4,0.8-2.6,1.5-3.8l0,0c0.3-0.8,0.4-1.7,1-2.4l0,0
		c0.3-0.6,0-1.6,1.2-1.5c0.5,0.4,0.8,1.1,0.5,1.6c-0.6,1.2,0.1,2.2,0.1,3.3c0,0.4,0.1,0.8,0.5,1c0.8,0.4,0.9,1.2,0.9,2
		c0,1,0.1,1.7,1.2,2.1c0.6,0.2,0.7,0.7,0.7,1.3c0,0.7,0,1.4,0,2c-0.1,1.1,0.1,2,1.3,2.5c0.6,0.3,0.6,0.9,0.7,1.5c0,0.9,0,1.8,0,2.8
		c0,0.7,0.2,1.2,0.9,1.4c0.8,0.3,1,0.9,1,1.6c0,0.6,0,1.1,0,1.7c-0.1,1.1,0,2.2,1.3,2.7c0.5,0.2,0.6,0.8,0.6,1.4c0,0.9,0,1.8,0,2.8
		c0,0.7,0.2,1.2,1,1.5c0.7,0.2,0.9,0.8,1,1.5c0,0.5,0,1,0,1.6c-0.1,1.2,0,2.3,1.3,2.9c0.5,0.2,0.6,0.8,0.6,1.4c0,0.9,0,1.8,0,2.6
		c0,0.8,0.2,1.3,1,1.6c0.6,0.2,0.8,0.6,0.9,1.2c0.2,0.7,0.3,1.4,0.2,2.1c-0.1,1.1,0.1,2,1.1,2.6c0.6,0.4,0.6,1,0.6,1.6
		c0,1.4,0,2.7,0,4.1c0,0.7,0.2,1.2,1,1.3c0.8,0.1,1.1,0.7,1.1,1.5c0,0.9,0,1.8,0.1,2.8c0.1,0.9,0.1,1.8,1.1,2.4
		c0.4,0.2,0.4,0.8,0.4,1.2c0,0.7,0,1.4,0,2c-0.1,0.9,0.1,1.6,1.3,1.8c0.7,0.1,0.9,0.7,0.9,1.4c0,1,0,1.9,0.2,2.9
		c0.1,0.9,0.1,1.7,1.1,2.2c0.4,0.2,0.4,0.7,0.4,1.1c0,0.6,0.1,1.3,0,1.9c-0.1,1,0,1.9,1.4,2.1c0.7,0.1,0.8,0.8,0.8,1.5
		c0,1.2,0,2.3,1.2,3c0.4,0.2,0.4,0.7,0.5,1.2c0,0.8,0,1.5,0,2.3c0,1,0.1,1.8,1.2,2.2c0.7,0.2,0.7,1,0.7,1.7c0,1.6-0.1,3.2,0.5,4.8
		c0.1,0.3,0.1,0.8,0.4,1c1.1,0.6,1.1,1.6,1.1,2.6c0,0.5,0,1,0,1.6c0,0.7,0.2,1.2,1,1.3c0.8,0.1,1.2,0.7,1.2,1.4c0,1.3,0,2.5,1.3,3.3
		c0.5,0.3,0.4,0.9,0.4,1.5c0,1.3,0,2.6,0,4c0,0.8,0.1,1.3,1,1.5c0.8,0.1,1.1,0.7,1.1,1.5c0,1,0,2,0,3c0,0.6,0.2,1.2,0.9,1.4
		c1,0.3,1.1,1,1,1.8c-0.1,0.9-0.2,1.8-0.2,2.6c0,0.6,0.2,1.1,0.9,1.2c0.9,0.1,1.2,0.8,1.2,1.6c0,0.9,0,1.8,0.1,2.6
		c0.1,0.9,0.1,1.8,1.1,2.4c0.4,0.2,0.4,0.7,0.4,1.1c0,0.7,0,1.4,0,2c0,0.9,0,1.7,1.3,1.9c0.8,0.1,0.9,0.9,0.9,1.5
		c0,1.2,0.1,2.3,0.3,3.5c0,0.4,0,0.8,0.4,1c1.2,0.6,1.1,1.7,1.1,2.7c0,0.5,0,1,0,1.6c0,0.6,0.2,1.1,0.9,1.2c0.9,0.1,1.2,0.8,1.2,1.6
		c0,0.9,0,1.8,0.1,2.6c0.1,0.9,0.2,1.8,1.1,2.4c0.6,0.4,0.6,1.3,0.6,2c0.1,0.7,0,1.4,0.1,2.2c0.1,0.8,0.5,1.1,1.3,1.1
		c1.2-0.1,1.5,0.2,1.2,1.4c-0.3,0.9-0.3,1.8,0.2,2.9c-0.1-0.1-0.1-0.2-0.1-0.3c-0.1-0.6-0.3-1.4,0.4-1.6c0.8-0.2,0.7,0.8,0.9,1.3
		c0.5,0.9-0.1,1.9,0.3,2.8c0.1,2.9-0.5,5.7-0.8,8.5c-0.4,3.3-0.9,6.6-1.2,9.9c-0.8,4-1.3,8-2.4,12c-0.3,1.3-0.5,2.6-1.5,3.6
		c-0.6,0.2-0.8-0.4-1.3-0.6c-1-0.7-1.9-1.6-3-2.1c-0.4-0.2-0.6-0.5-0.8-0.8c-0.1-0.1-0.3-0.2-0.4-0.3c-0.9-0.4-1.6-1.2-2.2-1.9l0,0
		c-0.6-0.3-1-0.7-1.4-1.3c-0.2-0.5-0.7-0.8-1.2-1c-0.6-0.4-1.2-0.7-1.5-1.5c0-0.1,0-0.1,0-0.2c0.4-0.4,0.9-0.3,1.3-0.1
		c0.4,0.2,0.9,0.3,1.4,0.4c1,0.1,1.7,0.3,1,1.5c0.7,0,1.2-0.1,1.7,0c0-0.7-0.1-1.3-0.2-1.9c-0.1-0.6-0.3-1.1-1-1.2
		c-0.7-0.2-1-0.7-1-1.4c0-1,0-1.9,0-2.9c0-0.7-0.2-1.3-0.9-1.5c-0.8-0.2-0.9-0.8-1-1.5c0-1,0-1.9,0-2.9c0-0.7-0.2-1.2-1-1.4
		c-0.8-0.2-0.9-0.8-0.9-1.5c0-1,0-1.9,0-2.9c0-0.7-0.2-1.2-0.9-1.4c-0.7-0.2-1-0.8-1-1.5c0-1,0-2,0-3c0-0.6-0.2-1.1-0.8-1.3
		c-0.8-0.2-1-0.8-1.1-1.5c0-1,0-1.9,0-2.9c0-0.7-0.2-1.2-0.9-1.4c-0.7-0.2-1-0.8-1-1.5c0-1,0-1.9,0-2.9c0-0.7-0.2-1.2-1-1.4
		c-0.7-0.2-0.9-0.7-1-1.4c0-1,0-1.9,0-2.9c0-0.8-0.2-1.3-1-1.5c-0.7-0.2-0.9-0.8-0.9-1.4c0-1,0-1.9,0-2.9c0-0.7-0.1-1.3-0.9-1.5
		c-0.8-0.2-1-0.8-1-1.5c0-0.9,0-1.8,0-2.8c0-0.7-0.2-1.3-1-1.6c-0.7-0.2-0.9-0.8-0.9-1.4c0-1,0-2,0-3c0-0.7-0.2-1.2-0.9-1.3
		c-0.8-0.2-1-0.8-1-1.5c0-1,0-2,0-3c0-0.6-0.2-1.1-0.9-1.3c-0.8-0.2-1-0.8-1-1.6c0-1,0-1.9,0-2.9c0-0.7-0.2-1.2-0.9-1.3
		c-0.7-0.2-1-0.8-1-1.5c0-1,0-1.9,0-2.9c0-0.7-0.2-1.2-1-1.5c-0.8-0.2-0.9-0.8-0.9-1.5c0-1,0-1.9,0-2.9c0-0.6-0.1-1.2-0.9-1.4
		c-0.7-0.2-1-0.7-1-1.4c0-1,0-1.9,0-2.9c0-0.7-0.2-1.2-1-1.5c-0.7-0.2-0.9-0.8-1-1.5c0-1,0-1.9,0-2.9c0-0.7-0.1-1.2-0.9-1.4
		c-0.7-0.2-1-0.7-1-1.4c0-1,0-1.9,0-2.9c0-0.7-0.1-1.3-0.9-1.5c-0.7-0.2-1-0.8-1-1.5c0-1,0-1.9,0-2.9c0-0.7-0.2-1.2-1-1.4
		c-0.8-0.2-0.9-0.8-1-1.5c0-1,0-1.9,0-2.9c0-0.7-0.2-1.2-0.9-1.4c-0.7-0.2-1-0.8-1-1.5c0-1,0-1.9,0-2.9c0-0.7-0.2-1.2-1-1.4
		c-0.8-0.2-0.9-0.8-1-1.5c0-1,0-1.9,0-2.9c0-0.7-0.2-1.2-0.9-1.4c-0.7-0.2-1-0.8-1-1.5c0-1,0-2,0-3c0-0.6-0.2-1.1-0.8-1.3
		c-0.6-0.2-0.8-0.7-0.9-1.3c-0.1-1-0.3-2-0.3-3c0-0.7-0.2-1.2-1-1.5c-0.8-0.2-1-0.9-0.9-1.6c0-1,0.1-2-1.2-2.5
		c-0.5-0.2-0.5-0.9-0.5-1.4c0-1,0.1-2-0.2-3c-0.1-0.5-0.3-0.9-0.8-1.1c-0.9-0.2-1.1-0.9-1.1-1.7c0-1.5,0-3,0-4.5
		c0-0.8-0.1-1.4-1-1.6c-0.5-0.1-0.8-0.5-0.8-1.1c-0.1-1.8-0.2-3.6,0.1-5.3c-1.3,0.7-2.1,0.3-2.1-1.1c0-0.5,0-1,0.1-1.4
		c0.1-0.5,0-0.9-0.5-1.1c-0.3-0.4-0.3-0.9-0.2-1.3c0.9-3.1,1.6-6.3,2.5-9.4C136,138.8,136.2,138.5,136.4,138.2z"/>
	<path class="st2" d="M202.5,174.8c0.1,0,0.2,0,0.2,0c0.5,0.6,0.4,1.3,0.4,1.9c0,6.3,0,12.6,0,18.8c0,0.8,0,1.5,0.1,2.3
		c0.1,1.3,0,2.6,0.1,3.9c0,2.2,0,4.5,0,6.7c0,0.5,0,1,0.2,1.5c0.1,7.1,0.3,14.3-0.1,21.4c-0.1,1.9-0.1,3.8,0,5.7
		c0,1.7-0.1,3.4-0.3,5c-0.4,1.5-0.1,2.9-0.2,4.4c-0.1,1.1,0.1,2.1-0.1,3.2c-0.1,0.1-0.2,0.2-0.3,0.3c-0.1-0.1-0.3-0.2-0.3-0.3
		c-0.1-2.4-0.7-4.8-0.2-7.2c0.5-0.5,0.2-1.1,0.2-1.4c0,0.3,0.2,0.8-0.2,1.3c-1.6,0.5-2.1,0.2-2.2-1.4c0-1,0-1.9,0-2.9
		c0-0.6-0.1-1.1-0.8-1.3c-0.8-0.2-1-0.8-1.1-1.5c0-1,0-2,0-3c0-0.6-0.2-1.1-0.9-1.2c-0.8-0.1-1-0.7-1-1.4c0-1,0-2,0-3
		c0-0.7-0.1-1.2-1-1.4c-0.7-0.2-0.9-0.8-1-1.5c0-1,0-2,0-3c0-0.6-0.2-1.1-0.9-1.2c-0.8-0.1-1-0.7-1-1.4c0-1,0-2,0-3
		c0-0.7-0.2-1.2-1-1.4c-0.7-0.2-0.9-0.8-1-1.5c0-1,0-2,0-3c0-0.6-0.2-1.1-0.9-1.2c-0.8-0.1-1-0.7-1-1.4c0-1,0-2,0-3
		c0-0.7-0.2-1.2-1-1.4c-0.7-0.2-0.9-0.7-0.9-1.4c-0.1-0.8-0.1-1.7,0-2.5c0.1-1.6-0.5-3-0.6-4.5c0-0.4-0.3-0.6-0.6-0.9
		c-0.3-0.3-0.7-0.6-0.7-1.1c-0.1-0.6-0.4-1-1-1.2c-0.7-0.2-0.9-0.8-1-1.5c0-1,0-1.9,0-2.9c0-0.7-0.2-1.2-1-1.4
		c-0.7-0.1-0.9-0.6-0.9-1.2c-0.1-1,0-2.1,0-3.1c0-0.7-0.1-1.3-0.9-1.4c-0.8-0.2-0.9-0.8-1-1.5c0-1,0-1.9,0-2.9c0-0.7-0.1-1.3-1-1.4
		c-0.8-0.1-0.9-0.7-0.9-1.3c0-1,0-2.1,0-3.1c0-0.7-0.2-1.2-0.9-1.3c-0.7-0.2-1-0.8-1-1.5c0-1,0-2,0-3c0-0.7-0.2-1.2-0.9-1.3
		c-0.7-0.1-0.9-0.7-1-1.3c0-1,0-2.1,0-3.1c0-0.6-0.1-1.2-0.9-1.4c-0.7-0.2-1-0.7-1-1.4c0-1,0-2,0-3c0-0.7-0.1-1.2-0.9-1.3
		c-0.7-0.1-1-0.6-1-1.3c0-1.1,0-2.2,0-3.2c0-0.6-0.2-1.1-0.9-1.3c-0.8-0.2-1-0.8-1.1-1.6c0-1,0-2,0-3c0-0.6-0.2-1.1-0.9-1.2
		c-0.7-0.1-1-0.6-1-1.3c0-1,0-2.1,0-3.1c0-0.7-0.2-1.3-1-1.4c-0.8-0.1-0.9-0.7-0.9-1.3c0-1,0-2.1,0-3.1c0-0.7-0.2-1.2-0.9-1.3
		c-0.7-0.1-0.9-0.7-1-1.3c0-1.1,0-2.2,0-3.2c0-0.6-0.2-1.1-0.9-1.2c-0.8-0.1-1-0.7-1-1.4c0-1,0-2,0-3c0-0.7-0.1-1.3-1-1.4
		c-0.7-0.1-0.9-0.7-0.9-1.3c0-1,0-2.1,0-3.1c0-0.7-0.2-1.2-0.9-1.3c-0.9-0.2-1.1-0.9-1-1.7c0.2-2.9-0.6-5.7-0.7-8.7
		c0-0.1-0.3,0.1-0.2,0.1c0.1,0,0.1,0,0.1,0.1c-0.2,0.7-0.7,0.4-1.1,0.4c-0.6-0.7-0.1-1.1,0.4-1.5l0,0c0.2-0.9,0.7-1.8,1.4-2.4
		c0.3-0.5,0.7-1,1-1.5c0.4-1.5,1.4-2.5,2.2-3.8c1.4-2.2,2.8-4.4,4.5-6.3c0.2-0.3,0.3-0.5,0.5-0.8c0.2-0.2,0.2-0.5,0.5-0.6l0,0
		c0.7-1.1,1.1-2.4,2.5-3c1.1,0,2.3-0.8,3.4-0.2c0.1,0.1,0.2,0,0.4,0c1.1-0.2,1.2-0.2,1.3,1c0,0.4,0,0.9,0,1.3c0,1,0,1.8,1.1,2.2
		c0.6,0.2,0.7,0.9,0.8,1.5c0,0.9,0,1.8,0,2.8c0,0.6,0.1,1.1,0.8,1.3c0.8,0.2,1,0.8,1.1,1.5c0,1,0,1.9,0,2.9c0,0.7,0.1,1.2,0.8,1.4
		c0.8,0.3,1,0.9,1.1,1.7c0,0.9,0,1.8,0,2.8c0,0.6,0.2,1.1,0.9,1.2c0.7,0.2,1,0.7,1,1.4c0,1,0,2,0,3c0,0.7,0.2,1.2,0.9,1.4
		c0.7,0.2,1,0.9,1,1.6c0,1,0,1.9,0,2.9c0,0.6,0.2,1.1,0.9,1.2c0.7,0.2,1,0.7,1,1.4c0,1,0,2,0,3c0,0.7,0.1,1.2,0.8,1.4
		c0.8,0.3,1,0.9,1.1,1.7c0,0.9,0,1.8,0,2.8c0,0.6,0.2,1.1,0.9,1.2c0.7,0.2,1,0.7,1,1.4c0,1,0,2,0,3c0,0.7,0.2,1.2,0.9,1.4
		c0.7,0.2,1,0.9,1.1,1.6c0,0.7,0,1.4,0,2.2c0,1,0,1.8,1.2,2.1c0.6,0.1,0.7,0.8,0.7,1.4c0,1,0,2,0,3c0,0.6,0.2,1,0.8,1.2
		c0.8,0.3,1.1,1,1.2,1.8c0,0.6,0,1.3,0,1.9c0,1-0.1,1.9,1.2,2.2c0.6,0.1,0.7,0.8,0.7,1.3c0.1,1,0,2,0,3c0,0.6,0.1,1.1,0.8,1.3
		c0.8,0.3,1.1,1,1.1,1.8c0,0.9,0,1.8,0,2.6c0,0.7,0.2,1.2,0.9,1.3c0.7,0.2,1,0.8,1,1.5c0,1,0,1.9,0,2.9c0,0.7,0.2,1.2,0.9,1.5
		c0.7,0.3,1,0.9,1,1.6c0,0.9,0,1.8,0,2.8c0,0.7,0.2,1.2,1,1.3c0.6,0.1,0.9,0.5,0.9,1.1c-0.1,6.5,0.2,13.1,0.1,19.6
		c0,0.2,0.3,0,0.1,0c0,0,0,0,0-0.1c-0.1-1.1-0.1-2.2,0-3.4c0.1-3.9-0.1-7.9-0.1-11.8C202.3,175.8,202.1,175.3,202.5,174.8z"/>
	<path class="st3" d="M203,198c-0.4-0.4-0.2-0.9-0.2-1.4c0-7.2,0-14.5,0-21.7c-0.2-3.5,0.4-7,0.3-10.5c0-0.3-0.2-0.8,0.4-0.7
		c0.4,0.1,0.7,0.5,0.5,0.8c-0.8,1.5-0.2,3.1-0.5,4.6c-0.4,1.4-0.1,2.8-0.2,4.2c0.1-1.4-0.2-2.8,0.2-4.2c0.5,0.4,0.3,0.9,0.3,1.4
		c0,6.1,0,12.2,0,18.3c0,0.4,0,0.8,0,1.3c0.1,0,0.2,0,0.2,0c0-2.9,0-5.8,0-8.6c0-0.5-0.1-1.1,0.7-1.3c0.4-0.1,0.3-0.6,0.3-0.9
		c0-1.6,0.1-3.1,0-4.7c-0.1-1.2,0.4-1.7,1.5-1.7c0.8,0,1.2-0.2,1.2-1.1c0.1-0.8,0.8-0.9,1.5-0.9c3.5,0,7.1,0,10.6,0
		c0.8,0,1.4,0,1.4-1.1c0-0.7,0.7-0.9,1.4-0.8c2.9,0,5.8,0,8.7,0c0.8,0,1.5,0,1.5-1.1c0-0.7,0.7-0.8,1.4-0.8c2.9,0,5.9,0,8.8,0
		c0.8,0,1.3,0,1.4-1c0-0.8,0.7-0.9,1.4-0.9c2.9,0,5.8,0,8.7,0c0.8,0,1.4,0,1.5-1.1c0-0.7,0.7-0.9,1.3-0.9c3.1,0,6.1,0,9.2,0
		c1,0,1.3-0.2,1.4-1.4c0.1-1.2-0.2-2.5,0.1-3.7c1.5,4.9,2.5,9.9,3.1,15c0.2,1.3,0.3,2.5,0.5,3.8c0.2,1.9,0.8,3.8,0.7,5.8
		c-0.1,1.1,0,2.2,0.3,3.3c0.3,1.5,0.2,3,0.2,4.5c0,1.9,0.1,3.8,0.2,5.7c-0.1,0.7-0.1,1.5,0,2.2c-0.4,2.3-0.2,4.6-0.2,6.9
		c0,1.4-0.5,2.7-0.4,4.1c0,0.1-0.2,0.2-0.3,0.2c-0.4,0-0.4-0.3-0.4-0.6c0-0.4,0-0.7,0-1.1c0.2-2.3-0.1-4.6,0.3-6.8
		c0.1,1.1-0.7,1.1-1.4,1.1c-2.8,0-5.5,0-8.3,0c-0.9,0-1.7,0-2,1.2c-0.2,0.8-1.1,0.7-1.7,0.8c-2.6,0-5.1,0-7.7,0
		c-0.9,0-1.8-0.1-2.1,1.2c-0.2,0.8-1.1,0.7-1.8,0.7c-2.6,0-5.2,0-7.8,0c-0.9,0-1.6,0-1.9,1.1c-0.2,0.8-1,0.8-1.7,0.8
		c-2.6,0-5.2,0-7.8,0c-0.9,0-1.7,0-2,1.2c-0.2,0.8-1.1,0.8-1.7,0.8c-3.1,0-6.3,0-9.4,0c-0.4,0-0.7,0-1.1,0c-0.5,0-0.9,0.1-1.1,0.7
		c-0.2,0.9-0.9,1.2-1.7,1.2c-1.3,0-2.6,0-4,0c-1.9,0-1.9,0-2,1.9c0,0.5,0,1.1-0.5,1.6c-0.5-0.3-0.4-0.8-0.4-1.2
		c0-3.2-0.2-6.4-0.1-9.6c0-1.9-0.2-3.8-0.2-5.6C203.2,198.5,203.2,198.2,203,198z"/>
	<path class="st4" d="M133.5,149.7c0.4,0.2,0.5-0.3,0.9-0.3c0,1.3,0,2.6,0,3.9c0.2,0.1,0.2-0.6,0.5-0.3c1.1,1.3,1,0.2,1.1-0.5
		c0-0.1,0.1-0.1,0.1-0.2c0,0,0.1,0,0.1,0c0.3,0.2,0.2,0.6,0.2,0.8c-0.4,1.7-0.1,3.5-0.2,5.3c0,0.8,0.2,1.3,1,1.2
		c0.8,0,0.9,0.5,0.9,1.1c0,1.8,0,3.5,0,5.3c0,0.8,0.1,1.4,1.1,1.3c0.6,0,0.7,0.5,0.9,1c0.3,1.2,0.2,2.5,0.2,3.7
		c0,0.6,0.1,1.1,0.9,1.1c0.6,0,0.8,0.4,0.8,1c0,0.6,0,1.2,0,1.8c0,0.7,0.2,1.1,0.9,1.1c0.8,0,1,0.5,1,1.2c0,1,0.1,2,0.2,3
		c0.1,0.9,0,1.7,1.3,1.7c0.5,0,0.5,0.6,0.5,1c0,1.2,0,2.3,0,3.5c0,0.7,0.1,1.3,1,1.2c0.8,0,0.9,0.6,0.9,1.1c0,1.2,0,2.3,0,3.5
		c0,0.7,0.2,1.2,1,1.1c0.8,0,0.9,0.4,0.9,1.1c0,1.2,0,2.3,0,3.5c0,0.7,0.1,1.3,1,1.2c0.8,0,0.9,0.6,0.9,1.2c0,1.2,0,2.3,0,3.5
		c0,0.7,0.2,1.2,1,1.1c0.8,0,0.9,0.4,0.9,1.1c0,1.2,0,2.3,0,3.5c0,0.8,0.1,1.3,1,1.2c0.8,0,0.9,0.6,0.9,1.2c0,1.2,0,2.3,0,3.5
		c0,0.7,0.2,1.2,1,1.1c0.8,0,0.9,0.4,0.9,1.1c0,1.2,0,2.4,0,3.6c0,0.7,0.2,1.1,0.9,1.1c0.8,0,1,0.5,1,1.2c0,1.1,0,2.2,0,3.4
		c0,0.7,0.1,1.3,1,1.2c0.8,0,0.9,0.4,0.9,1.1c0,1.2,0,2.4,0,3.6c0,0.7,0.2,1.1,0.9,1.1c0.8,0,1,0.5,1,1.2c0,1.1,0,2.2,0,3.4
		c0,0.7,0.1,1.3,1,1.2c0.7,0,0.9,0.3,0.9,1c0,1.2,0,2.5,0,3.7c0,0.7,0.2,1.1,0.9,1.1c0.9,0,1,0.6,1,1.2c0,1.1,0,2.2,0,3.4
		c0,0.8,0.1,1.3,1,1.2c0.7,0,0.9,0.4,0.9,1c0,1.2,0,2.5,0,3.7c0,0.6,0.1,1.1,0.8,1c0.9,0,1.1,0.5,1.1,1.2c0,1.1,0,2.2,0,3.4
		c0,0.8,0.2,1.3,1.1,1.2c0.7,0,0.9,0.4,0.9,1c0,1.2,0,2.5,0,3.7c0,0.6,0.1,1.1,0.8,1c0.9,0,1.1,0.5,1.1,1.2c0,1.1,0,2.2,0,3.4
		c0,0.8,0.2,1.3,1.1,1.2c0.7,0,0.9,0.4,0.9,1c0,1.2,0,2.5,0,3.7c0,0.6,0.1,1.1,0.9,1c0.9,0,1.1,0.5,1.1,1.2c0,1.1,0,2.2,0,3.4
		c0,0.8,0.2,1.2,1.1,1.2c0.7,0,0.9,0.4,0.9,1c0,1.2,0,2.5,0,3.7c0,0.6,0.2,1.1,0.9,1c0.9,0,1.1,0.5,1.1,1.2c0,1.2,0,2.3,0,3.5
		c0,0.7,0.2,1.1,1,1.1c0.8,0,1,0.4,1,1.2c0,1.2,0,2.4,0,3.6c0,0.6,0.2,1,0.9,1c0.9,0,1.1,0.5,1.1,1.3c0,1.2,0,2.3,0,3.5
		c0,0.7,0.2,1.1,1,1c0.7,0,0.9,0.4,1,1c0.1,1.1,0.3,2.1,0.1,3.2c-0.8-0.7-1.5-0.6-2.4,0c0-0.7,0.4-1.2,0.6-1.9
		c-1.5,0.5-2.5-0.7-3.8-0.7l0,0c-0.8-0.7-1.3-1.8-2.4-2.1c-0.3-0.1-0.5-0.3-0.6-0.5c-0.2-0.5-0.6-0.8-1-0.9l0,0
		c-0.9-1.6-2.2-2.7-3.5-3.8c-0.1-0.1-0.2-0.1-0.3-0.2c-0.5-0.4-0.9-0.9-1.5-1.2c-0.4-0.1-0.6-0.5-0.8-0.8l0,0
		c-1.9-1.8-3.8-3.6-5.3-5.8l0,0.1l0-0.1c-0.9-0.6-1.4-1.4-2-2.3c-0.1-0.2-0.2-0.4-0.3-0.5c0,0,0.1-0.1,0.1-0.1
		c0.7-0.2,0.8,0.5,1.3,0.6c-0.8-0.5-1.1-1.1-1-2.1c0.1-1-0.3-1.5-1.3-1.6c-0.8-0.1-1.7-0.1-2.1-1c0-0.1-0.2,0.2-0.4,0.1
		c-0.3-0.2-0.4-0.5-0.2-0.8c0.2-0.2,0.5-0.2,0.8-0.1c0.1,0,0.1,0.1,0.2,0.2c-0.1-0.1-0.2-0.2-0.3-0.3c-0.9-1.2,0.5-1.6,0.8-2.4
		c-0.1-0.2-0.3,0-0.4,0c-1.1-0.7-2.6-0.7-3.7-1.5c-0.7-0.5-0.8-1.4-0.9-2.1c-0.1-0.3,0.2-0.5,0.5-0.6c0.5-0.1,0.7,0.2,0.9,0.6
		c-0.1-0.4,0-1-0.6-1.1c-1-0.2-1-0.9-1-1.7c0-1,0-2.1,0-3.1c0-0.8-0.2-1.3-1.1-1.5c-1-0.1-1.3-0.7-1-1.6c0.3-1,0.1-2,0.1-3
		c0-0.5-0.2-1-0.7-1.1c-1-0.3-1.2-1-1.2-1.9c0-1.4,0-2.8,0-4.2c0-0.8-0.2-1.5-1.1-1.8c-0.7-0.2-0.8-0.8-0.8-1.5c0-0.9,0-1.8,0-2.8
		c0-0.7-0.2-1.3-0.9-1.5c-0.7-0.2-0.9-0.8-1-1.5c0-0.9,0-1.8,0-2.8c0-0.7-0.2-1.3-0.9-1.5c-0.8-0.2-1-0.9-1-1.6c0-0.9,0-1.8,0-2.8
		c0-0.7-0.2-1.2-0.9-1.4c-0.8-0.2-1-0.9-1-1.6c0-0.9,0-1.8,0-2.6c0-0.7-0.2-1.3-1-1.6c-0.7-0.2-0.9-0.8-0.9-1.4c0-0.7,0-1.4,0-2
		c0-1.1,0-2-1.3-2.5c-0.7-0.2-0.6-1.1-0.6-1.7c0-0.9-0.1-1.7-1.2-2.1c-0.6-0.2-0.7-0.8-0.7-1.4c0-0.9,0-1.8,0-2.8
		c0-0.7-0.2-1.3-0.9-1.5c-0.7-0.2-1-0.8-1-1.5c0-1,0-1.9,0-2.9c0-0.7-0.2-1.2-0.9-1.4c-0.8-0.2-1-0.9-1-1.6c0-0.8,0-1.7,0-2.5
		c0-0.8-0.1-1.4-1-1.7c-0.7-0.2-0.9-0.8-0.9-1.4c0-0.9,0-1.8,0-2.8c0-0.7-0.2-1.3-1-1.6c-0.7-0.2-0.9-0.7-0.9-1.4c0-1,0-1.9,0-2.9
		c0-0.7-0.2-1.2-1-1.5c-0.7-0.2-0.9-0.8-1-1.5c0-0.9,0-1.8,0-2.8c0-0.8-0.3-1.4-1.2-1.5c-0.9-0.1-1.2-0.6-1.2-1.4
		c-0.1-1.8-0.4-3.7-0.1-5.5c0.1-0.4-0.2-0.7-0.2-1c-0.1-3,0-5.9,0.7-8.8c0-0.1,0-0.3,0-0.4c0-2.4,0.4-4.8,0.7-7.2
		c0.2-1.5,0.1-3,0.7-4.4l0,0c0.2-1.3,0.3-2.6,0.6-3.8c0.1-0.1,0.2-0.1,0.3-0.1c0.3,0.2,0.1,0.7,0.4,0.9c1-0.6,0.5-1.7,0.8-2.5
		c-0.6,1.6-0.6,1.6-1.1,1.6c-0.3-1.2,0.3-2.3,0.3-3.4c0-0.1,0.1-0.2,0.1-0.3c0.2-0.4,0.1-0.8,0.1-1.2c0-0.1,0-0.2,0.1-0.3
		c0.3-0.6,0.4-1.3,0.4-2c0-0.2,0-0.3,0.1-0.5c0.7-0.4,0.2-1.1,0.4-1.6c0-0.1,0-0.2,0-0.3c0.2-0.5,0.4-1,0.5-1.5
		C133.4,149.9,133.4,149.8,133.5,149.7z"/>
	<path class="st5" d="M241.1,96.8c-1,0.1-0.9,1.1-1.2,1.7c-0.2,0.5,0,0.9,0.6,1.2c0.8,0.3,0.8,0.6,0,0.9c-0.5,0.1-0.3,0.5-0.2,0.9
		c0.3,0.8,1.2,1.2,1.5,2.1c-0.5,0-1,0.2-1.3-0.4c-0.2-0.5-0.7-0.3-1.1-0.3c-3.9,0-7.7,0-11.6,0c-0.9,0-1.5,0.2-1.5,1.2
		c0,0.7-0.5,0.7-1,0.7c-1.2,0-2.3,0-3.5,0c-0.7,0-1.2,0.3-1.2,1c0,0.9-0.5,0.9-1.2,0.9c-2.9,0-5.8,0-8.7,0c-0.9,0-1.7,0.1-1.7,1.3
		c0,0.6-0.5,0.7-1,0.7c-0.8,0-1.5,0-2.3,0c-0.2,0-0.5,0-0.7,0c-1.3,0.3-1.3,0.3-1.3-1.2c0-0.6,0.1-1.2-0.2-1.9
		c-0.6,0.6-0.1,1.3-0.6,1.8c-0.7-1.2,0.4-2.5-0.3-3.6c-0.1,1.2-0.7,2.4-0.3,3.7c0.2,0.7,0.3,1.3-0.1,2c-0.2,0.1-0.3,0-0.4-0.1
		c-0.2-0.4-0.2-0.8-0.2-1.3c0-0.5,0-1,0-1.6c0.2-7.5-0.2-15.1-0.3-22.6c-0.1-5.2-0.2-10.4-0.4-15.6c-0.4-6.5-0.5-13.1-1-19.6
		c-0.1-1.9-0.3-3.8-0.6-5.7c-0.2-1,0-1.2,0.8-0.9c0.5,0.6,0.6,1.3,0.9,2c0.3,0.7,0.5,1.3,0.9,1.9c1.8,3.7,3.8,7.4,6,10.9
		c3,5,7.4,8.7,11.2,12.9c2.7,3,5.4,5.9,8.1,8.9c0.2,0.2,0.4,0.5,0.5,0.8c-0.1,0.4,0.1,0.6,0.5,0.5c0.5,0.3,0.7,0.7,1,1.1
		c0.6,1.5,1.9,2.4,2.8,3.7c0.2,0.3,0.5,0.5,0.7,0.8c0.2,0.4,0.8,0.8,0.2,1.2c-0.5,0.4-1.1,0.4-1.6-0.1c-0.2-0.2-0.5-0.5-0.5-0.9
		c0-0.6-0.3-0.9-0.9-1.1c-0.2,0.8,0,1.4,0.6,1.9c0.7,0.6,1.5,0.7,2.2,0.3c0.8-0.4,1-0.1,1.4,0.4c1.1,1.3,1.8,2.9,3,4.1
		c0.2,0.2,0.3,0.5-0.1,0.7c-1.1-0.2-1.8-0.8-2.2-1.7c-0.3-0.7-0.9-1-1.6-0.8c0.7-0.2,1,0.4,1.3,0.8c0.6,0.8,1.2,1.7,2.4,1.7
		c0.5,0.5,0.7,1.2,0.8,1.8c0.1,1.4,0.5,1.8,1.9,1.6c0.2,0,0.3-0.1,0.5-0.1C240.6,95.7,240.9,96.2,241.1,96.8z"/>
	<path class="st6" d="M225.4,307.8c-0.1,0-0.2,0.1-0.2,0.2c-1.1,1.5-2.4,2.6-3.9,3.6l0,0c-0.8,1-1.8,1.8-2.9,2.4l0,0
		c-0.2,0.3-0.5,0.6-0.9,0.9c-0.4,0.2-0.6,0.6-0.9,0.8c-1.3,1-2.6,2-4,2.9c-1.3,0.3-1.9-0.9-2.9-1.4c-0.7-0.5-1-1.2-1.6-1.8
		c-0.5-0.7-1-1.4-1.4-2.2c-0.3-0.6-0.6-1.2-0.9-1.9c-0.1-0.1-0.1-0.2-0.1-0.3c-0.2-0.7-0.5-1.4-0.8-2.1c0-0.1-0.1-0.2-0.1-0.3
		c-0.1-0.5-0.2-0.9-0.5-1.4c0-0.1-0.1-0.2-0.1-0.3c-0.5-1.9-1-3.7-1.4-5.6c-0.3-1.8-0.7-3.5-0.8-5.3c0-0.6,0.1-1.2-0.1-1.7
		c-0.1-0.4-0.1-0.8-0.1-1.2c0-0.4,0-0.9-0.1-1.3c0-0.2-0.1-0.4-0.1-0.6c-0.1-0.9,0.1-1.9-0.2-2.8c-0.1-0.3-0.1-0.7-0.1-1.1
		c0.1-0.3,0-0.7,0.4-0.8c0.3-0.1,0.4,0.3,0.5,0.5c0.2,0.6,0.7,0.7,1.3,0.7c5.4,0,10.8,0,16.1,0c0.8,0,1.2-0.4,1.2-1.2
		c0-0.2,0-0.3,0-0.5c0.1-1.7,0.5-2.2,2.3-2.2c1.7,0,3.5,0,5.2,0c3.3,0,6.7,0,10,0c1.5,0,3,0.1,4.4,0.6c0.7,0.3,1.4-0.3,2.1-0.2
		c0.6,0.2,0.3,0.5,0.2,0.8c-0.2,0.4-0.5,0.9-0.9,1.2l0,0c-0.8,1.6-2.1,3-3.1,4.4c-2,2.6-4,5.1-6.3,7.4c-0.6,0.5-1,1.2-1.6,1.6l0,0
		c-1.7,2.4-3.9,4.4-6,6.4C226.4,307,226.1,307.6,225.4,307.8z"/>
	<path class="st7" d="M162.5,288.5c-0.3,0-0.7,0-1,0c-0.1,0.1-0.3,0.1-0.4-0.1l0,0c-0.7-0.5-1-1.2-1.5-1.9l0,0
		c-0.6-0.5-1.1-1.2-1.4-2l0,0c-0.4-0.4-0.8-0.8-1-1.4c-0.2-0.2-0.3-0.4-0.5-0.5c-0.8-0.9-1.5-1.8-1.9-2.9l0,0
		c-0.4-0.4-0.8-0.9-1-1.4l0,0c-0.4-0.4-0.8-0.9-1-1.4l0,0c-1.9-2.4-3.4-5-4.8-7.7l0,0c-1.4-2.3-2.9-4.5-3.9-7l0,0
		c-1.5-2.7-3-5.3-3.9-8.2c0-0.1,0-0.1-0.1-0.2c-1-1.3-1.5-2.8-1.9-4.3l0,0c-0.7-0.7-0.8-1.6-1-2.4l0,0c-0.4-0.8-0.8-1.6-1-2.4l0,0
		c-0.8-1.5-1.2-3.2-1.8-4.9c0-0.5-0.2-0.9-0.4-1.3c-0.6-1.4-0.9-2.9-1.2-4.4l0,0c-0.5-1.3-1-2.7-1.3-4.1c-0.2-1.2-0.6-2.3-0.7-3.5
		l0,0c-0.4-0.9-0.7-1.9-0.8-3c-0.1-1.4-0.6-2.8-0.7-4.3l0,0c-0.3-0.2-0.3-0.5-0.3-0.8c-0.2-2.1-0.7-4.2-0.9-6.2
		c-0.2-1.9-0.7-3.7-0.6-5.6c0.1-2.6-0.4-5.2-0.4-7.9c0-3.5-0.2-7,0.3-10.5c0.1-0.7-0.1-1.4,0.4-2c0.4,0.2,0.5,0.5,0.4,0.9
		c-0.5,2,0.1,4,0.1,6c0,0.7,0.5,0.6,0.9,0.6c1.1-0.1,1.5,0.4,1.5,1.5c0,1.1,0,2.2,0,3.2c0,0.6,0.2,1,0.9,1c0.8,0,1.1,0.5,1.1,1.3
		c0,1.1,0,2.2,0,3.4c0,0.6,0.1,1.1,0.9,1.1c0.8,0,1.1,0.6,1,1.3c0,1.1,0,2.2,0,3.4c0,0.7,0.2,1.1,0.9,1.1c0.7,0,1,0.5,1,1.2
		c0,1.1,0,2.2,0,3.4c0,0.7,0.1,1.2,1,1.2c0.7,0,1,0.6,1,1.3c0,1.1,0,2.2,0,3.4c0,0.6,0.1,1.1,0.9,1.1c0.8,0,1.1,0.6,1.1,1.3
		c0,1.1,0,2.2,0,3.4c0,0.6,0.1,1.1,0.9,1.1c0.7,0,1,0.5,1,1.2c0,0.5,0,1,0,1.4c0,0.7,0.1,1.2,0.9,1.2c0.7,0,1,0.5,1,1.2
		c0,1.2,0,2.3,0,3.5c0,0.6,0.1,1,0.9,1c0.8,0,1.1,0.5,1.1,1.3c0,1.1,0,2.2,0,3.4c0,0.6,0.1,1.1,0.9,1.1c0.8,0,1.1,0.6,1,1.3
		c0,1.1,0,2.2,0,3.4c0,0.7,0.2,1.1,0.9,1.1c0.7,0,1,0.5,1,1.2c0,1.1,0,2.2,0,3.4c0,0.7,0.1,1.2,1,1.2c0.7,0,1,0.6,1,1.3
		c0,1.2,0,2.3,0,3.5c0,0.6,0.2,1,0.9,1c0.8,0,1.1,0.6,1.1,1.3c0,1.8,0,3.5,0,5.3c0,0.6,0.1,1.1,0.9,1.1c0.7,0,1.1,0.5,1,1.2
		c-0.1,1.3,0.3,2.6-0.3,3.9c-0.3,0.6,0.3,0.7,0.7,0.6c1.4-0.1,1.6,0.6,1.6,1.8c-0.1,1.2,0,2.5,0,3.7c0,0.6,0.2,0.9,0.8,0.7
		c0.9-0.3,0.9,0.1,0.7,0.8c-0.1,0.5-0.1,1-0.1,1.5c-0.5-0.2-0.4-0.6-0.5-0.9c-0.1-0.3-0.3-0.3-0.6-0.3c-0.3,0.1-0.4,0.4-0.3,0.5
		c0.4,0.4,0.9,0.8,0.5,1.5c0.8-0.2,0.9,1,1.8,0.9c0.6-0.1,1.3-0.2,1.8,0.7c0.4,0.7,0.7-0.2,0.9-0.7c0.8,0.8,0.1,1.7-0.2,1.9
		C162,287.2,162.6,287.9,162.5,288.5L162.5,288.5z"/>
	<path class="st8" d="M200.1,41.9c-0.5-0.2-0.8-0.1-0.6,0.5c0.6,2.6,0.7,5.3,0.9,7.9c0.4,5.3,0.6,10.6,0.7,15.9
		c0.2,4.5,0.3,9.1,0.5,13.6c0.1,4.4,0,8.7,0.3,13.1c0.3,5.4,0.1,10.9,0.2,16.3c0.3,1.7,0.1,3.5,0.1,5.3c0,0.7-0.4,0.8-1,0.7
		c-0.5-0.1-0.9-0.4-0.8-0.9c0.2-1.8-0.9-3.5-0.8-5.3c0-0.7-0.1-1.3-0.8-1.6c-0.5-0.3-0.6-0.8-0.6-1.3c0-0.7,0-1.4-0.1-2.2
		c-0.1-0.9-0.2-1.8-1.4-2.1c-0.8-0.2-0.9-1-0.8-1.8c0.1-0.9,0.4-1.7,0.4-2.6c0-0.8-0.2-1.4-1.1-1.7c-0.7-0.2-0.8-0.7-0.8-1.3
		c0-0.9,0-1.8-0.2-2.8c-0.1-0.6-0.3-1.1-1-1.3c-1-0.2-1.3-1-1.1-2c0.1-0.8,0.4-1.6,0.4-2.5c0-0.8-0.2-1.4-1.1-1.5
		c-0.8-0.1-1-0.6-1-1.3c0-1,0-1.9,0-2.9c0-0.7-0.1-1.2-0.9-1.4c-1-0.2-1.3-1-1.1-2c0.1-0.8,0.4-1.6,0.4-2.5c0-0.8-0.2-1.4-1.1-1.5
		c-0.8-0.1-1-0.6-1-1.3c0-1,0-1.9,0-2.9c0-0.7-0.1-1.3-1-1.4c-0.6-0.1-1-0.6-1.2-1.2c-0.2-0.8,0-2,0.5-2.7c0.5-0.6,0.7-1.3,0.5-2.1
		c-0.3-1.1,0.2-1.5,1.3-1.3c0,0,0,0,0-0.1c0,0,0-0.1,0-0.1c-0.6,0-0.6,0-1.1,0.2c-0.1,0-0.2,0-0.3-0.2c-0.3-0.9,0.6-1.1,1-1.4
		c1.3-1.3,2.6-2.7,4.4-3.4c0.6-0.3,1.1-0.6,1.5-1.2c1.9-2.2,3.9-4.4,5.2-7.1c0.6-1.4,1.2-2.8,1.2-4.3c0.1-0.9,0.4-1.7,0.3-2.7
		c0-0.4,0-0.7,0.6-0.5l0,0c0.2,0.3,0.3,0.7,0.5,1C199.8,40.8,199.9,41.3,200.1,41.9z"/>
	<path class="st9" d="M207.8,330.9c-0.4,0.8-0.2,1.8-0.5,2.7c-0.2,1.8-0.2,3.7-0.3,5.5c0,0.4,0.1,0.9,0,1.3
		c-0.6,0.5-0.5-0.1-0.8-0.5c0.7,1.6,0.1,2.9-0.3,4.1c-1.2,3.8-2.6,7.6-3.7,11.5c-0.2,0.7-0.6,1.4-0.8,2.1c-0.2,0.9-0.9,1-2.3,0.5
		c-0.6-1.3-0.3-2.7-0.3-4c0.3-1.6,0.8-3.1,1.6-4.5c0.7-1.3,1.4-2.6,1.2-4.2c-0.1-1.2,0.7-2.3,1.2-3.5c0.8-2,1.6-4,2.1-6.1
		c0.4-1.8,1.1-3.5,1.6-5.3c0.3-0.8,0.2-1.6,0.3-2.4c0.1-0.8,0.2-1.6,1.3-1.8c0.2,0.2,0.2,0.5,0,0.7l0,0c-0.2,0.9-0.2,1.8-0.2,2.7
		C208,330.2,208.1,330.6,207.8,330.9z"/>
	<path class="st10" d="M196.2,329.5c0-0.2,0-0.3,0-0.5c-0.1-0.3-0.2-0.6-0.1-1c1.2-1,1.2-2.5,1.4-3.8c0.4-2.5,1.5-4.8,2.3-7.1
		c0.2-0.7,0.5-1.4,0.8-2.1c0.2-0.7,0.3-1.4,1-1.8c0.3-0.2,0.3-0.6,0.3-1c0-0.3-0.1-0.6-0.1-1c0-0.3,0.1-0.6,0.3-0.7
		c0.3-0.2,0.5,0.1,0.7,0.3c0.1,0.2,0.2,0.3,0.6,0.4c-0.4-1.1-0.1-2.3-0.5-3.4c-0.3-0.8-0.6-1.6,0.3-2.3c0.1,0,0.2,0,0.3,0.1
		c0.2,0.2,0.3,0.5,0.5,0.7c0.2,0.2,0.3,0.5,0.2,0.8c0,0.1-0.1,0.1-0.1,0.2c-0.1,0.1-0.1,0.3-0.1,0.4c0-0.1,0-0.3,0.1-0.4
		c0.1-0.1,0.2-0.1,0.3,0l0,0c0.2,0.5,0.3,1,0.5,1.5l0,0c0.2,0.6,0.4,1.1,0.5,1.7c-0.3,1.6-0.2,3.4-1.1,4.6c-1.2,1.5-1.3,3.2-1.8,4.8
		c-0.4,1.2-0.8,2.4-1,3.7c-0.2,1.4-1.3,2.1-1.8,3.3c-0.6,1.2-1,2.4-1.1,3.7c-0.1,0.9-0.2,1.8-0.5,2.7c-0.1,0.5-0.4,0.9-0.9,0.2
		c-0.1-0.2-0.1-0.3-0.1-0.5c0.5-1.2,0-2.3-0.5-3.3C196.4,329.6,196.3,329.5,196.2,329.5z"/>
	<path class="st11" d="M199.4,357.9c1.6,0.2,1.5,0.2,2-1.3c0.3-0.8,0.5-1.6,0.9-2.4c0.5-1.1,0.6-2.3,1-3.4c0.3-0.9,0.3-2,1.1-2.7
		c0.6-0.6,0.4-1.4,0.6-2c0.3-1.2,0.8-2.4,1.1-3.6c0.3-1.3-0.1-2.5,0.2-3.9c0.7,0.6,0,1.5,0.6,1.9c0.3,0.4,0.2,0.8,0.2,1.3
		c0,2.3,0,4.6,0,6.9c0,0.2,0,0.4,0,0.6c0,0.6,0,1.3,0,1.9c0,1.3,0.3,2.6-1,3.6c-0.4,0.4-0.7,1.2-0.7,1.7c0,1.2-1.3,1.5-1.5,2.5
		c0,0.2-0.4,0.2-0.7,0.1c-0.4-0.1-0.8-0.1-1.2-0.1c-0.3,0-0.5,0-0.7-0.2c-0.4-0.1-0.9,0.2-1.2-0.2
		C199.9,358.4,199.2,358.5,199.4,357.9z"/>
	<path class="st12" d="M128.3,186.2c-0.4,3.8-0.6,7.6-0.4,11.4c0.1,3.6,0.2,7.1,0.6,10.6c0.4,3.6,0.9,7.3,1.3,10.9
		c-0.3,0.2-0.8,0.6-0.6-0.1c0.5-1.9-0.7-3.7-0.4-5.5c0-0.2-0.1-0.5-0.2-0.7c-0.5-0.5-0.6-1.1-0.3-1.8c0.4-1-0.5-1.8-0.6-2.7
		c-0.1-0.5-0.3,0.3-0.5,0.2c-0.2-0.6,0.1-1.1,0.3-1.6c0.6-1,0.5-2.1,0.2-3c-0.2-0.6-0.3-1.2-0.3-1.8c0-3.8,0-7.5,0-11.3
		c0-2.8,0.9-5.5,0.5-8.3c-0.1-0.5,0.1-1.1-0.7-1.3c-0.5-0.2-0.3-0.7,0.2-0.8c0.5,0,0.4-0.3,0.5-0.6c0-0.5,0.6-2,1-2.6
		c-0.2,2.5-0.4,5.1-0.5,7.6C128.2,185.3,128.3,185.7,128.3,186.2z"/>
	<path class="st12" d="M153.9,98.3c-0.2,0.5-0.4,0.9-0.6,1.4c0.1,0.4-0.1,0.6-0.3,0.9c-0.5,0.6-0.8,1.4-1.2,2.2
		c-2.4,4.2-4.6,8.6-6.6,13.1c-0.2,0.5-0.4,1-0.9,1.2c-0.1,0-0.1,0-0.2-0.1c-0.1-1.4,0.8-2.4,1.3-3.6c0.4-0.8,0.6-1.8,1-2.5
		c0.8-1.1,0.5-2.7,1.7-3.5c0.1,0,0.1-0.2,0.1-0.3c-0.7-1.2,0.3-2.4-0.3-3.6c-0.1-0.2,0-0.5,0.2-0.7c0.7,1,2,1,2.7,0.1
		c0.1-0.1,0.1-0.2,0-0.3c-1.1-2.4,1.6-2.9,2.3-4.4C153.4,97.6,153.6,98.3,153.9,98.3z"/>
	<path class="st0" d="M237,92c0-0.1,0.2-0.3,0.1-0.3c-1.5-1-1.9-2.8-3-4.1c-0.7-0.9-1.2-0.6-1.8-0.4c-1.5,0.4-2.8-0.5-2.9-2.1
		c0-0.3,0-0.6-0.1-1.1c0.7,0.6,2,0.4,1.6,1.9c-0.1,0.5,1.2,1.1,1.7,0.7c0.4-0.4,0-0.7-0.2-0.9c-0.9-1.1-1.8-2.1-2.6-3.2
		c-0.3-0.4-1-0.8-0.6-1.6c0.9,0.7,1.4,1.7,2.1,2.4c0.3,0.3,0.5,0.6,0.8,0.9c2.7,3.5,5.4,7,7.8,10.6c0.1,0.1,0.1,0.3,0.2,0.4
		c-0.6,0.4-1.2,0.8-1.8,0.3c-0.5-0.4-1.4-0.7-0.9-1.8C237.7,93.3,236.9,92.7,237,92L237,92z"/>
	<path class="st13" d="M202,358.8c0.6-0.2,1.1,0.4,1.7,0.2c0.2-0.5-0.5-0.5-0.4-0.8c0.1-0.3,0.2-0.3,0.4-0.3c0.8,0.3,1-0.1,1.3-0.9
		c0.4-1.1,0.2-2.6,1.7-3.2c0.3-0.1,0.2-0.6,0.2-0.9c0-1.2,0-2.4,0-3.6c0.7,0.1,0.3,0.6,0.3,0.9c0.1,1.8-0.1,3.6,0.1,5.3
		c0,0.7,0,1.4,0,2.2c0.1,0.2,0.2,0.4,0.2,0.7c0.3,1.6,0,2-1.7,2c-0.5-0.6-1.3-0.3-1.9-0.7c-0.5,0-0.9-0.6-1.4-0.5
		C202.4,359.1,201.9,359.3,202,358.8z"/>
	<path class="st12" d="M271,220.1c-0.2,1,0.4,2.1,0,3.1c-0.6,1.4-0.8,2.6,0.3,3.8c0.1,0.1,0.1,0.4,0.1,0.6c-0.6,2.1-0.5,4.3-0.4,6.5
		c0,0.9-0.5,1.5-0.8,2.3c-0.3-0.6-0.4-1.2,0-1.8c0.4-0.7,0.4-1.4,0-2c-0.2-0.3-0.2-0.7-0.2-1c0.1-0.7-0.3-0.9-0.9-0.8
		c0,0-0.1-0.1-0.2-0.1c-0.2-0.4-0.2-0.8-0.1-1.2c0.6-2.8,1.1-5.6,1.5-8.4c0.1-0.4,0.1-0.7,0.4-0.9
		C270.9,220.1,270.9,220.1,271,220.1z"/>
	<path class="st12" d="M234.3,298.4c3.2-3.7,6.4-7.5,9.2-11.6c0.1-0.1,0.2-0.2,0.4-0.3c0.1,0.4,0.2,0.8,0.3,1.2
		c-0.8-0.3-0.9,0.4-1.2,0.9c-1.1,1.5-2,3.1-3.2,4.5c-0.5,0.6-1.3,0.9-1.2,2.1c-0.2-0.4-0.3-0.6-0.4-0.8c-0.3,0.6,0,1.1,0.3,1.5
		c-0.3,0.3-0.6,0.2-0.9,0.2c-0.2,0-0.4,0-0.6,0.1c0.2,1.3-1.6,0.9-1.7,2c-0.1,0.5-0.5,0.3-0.9,0.4
		C234.2,298.6,234.2,298.5,234.3,298.4z"/>
	<path class="st12" d="M162.9,84.3c-1,1.9-2.4,3.5-3.5,5.3c-1,1.6-2.1,3.2-3.2,4.7c-0.7-0.6-0.5-1.4-0.4-2.2
		c0.6,0.1-0.1,0.6,0.4,0.7c0.2,0,1.5-1.9,1.3-2c-0.6-0.5,0.1-0.8,0.1-1.3c1.3,0.1,1.5-1.2,2.2-1.8c0.5-0.4,0.8-1.2,0.7-2
		c0-0.1,0.1-0.3,0.1-0.3c2.1,0.4,0.6-1.1,0.9-1.7c0,0,0-0.1,0.1-0.1C162.2,83.8,162.4,84.3,162.9,84.3z"/>
	<path class="st12" d="M272,209.5c0.5-2.9,0.5-5.9,0.5-8.8c0-0.8-0.1-1.6,0.4-2.3c0,3.1,0,6.2,0,9.2c-0.5,0.1-0.5,0.5-0.5,0.8
		c0.2,1.1-0.6,2.4,0.6,3.3c0.2,0.2-0.1,0.5-0.3,0.7c-0.4,0.3-0.4,0.6-0.1,1v0c-0.8,0.1-0.7,0.8-0.7,1.4c0,1.7-0.7,3.2-0.5,4.9
		c0,0.3-0.2,0.4-0.4,0.5c0,0,0,0,0,0c-0.4-0.4-0.3-0.9-0.2-1.4c0.4-2.7,0.7-5.5,0.9-8.2C271.6,210.2,271.7,209.8,272,209.5z"/>
	<path class="st12" d="M267.1,238.4c0,0.5-0.1,1,0.1,1.5c0.2,0.5,0,0.9-0.6,0.9c1.2,0.7,1.2,0.8,0.5,2.1c-0.1,0.3,0,0.6,0,1
		c0,0.3,0,0.6-0.4,0.6c-0.1,0-0.3,0-0.3-0.1c-0.3-0.3,0.1-0.5,0.1-0.7c0.1-0.2,0.1-0.3,0-0.5c-1.1,0.4-1.1,1.6-1.2,2.4
		c-0.3,1.3-0.7,2.4-1,3.7c-0.1,0.5-0.5,0.8-1,1c0,0-0.1-0.1-0.1-0.1c-0.2-0.7,0.2-1.3,0.4-1.9c1.1-3,2-6.1,2.9-9.1
		c0.1-0.3,0.1-0.7,0.5-0.9C267,238.4,267.1,238.4,267.1,238.4z"/>
	<path class="st12" d="M133.1,151.5L133.1,151.5l0,0.1c-0.2,0.3,0.1,0.8-0.4,0.9c0-0.9-0.3-1.7,0.4-2.5c0.1-0.2,0.1-0.5,0.1-0.8
		c0-0.2-0.1-0.3-0.1-0.5c-0.4-0.7,0.5-0.8,0.6-1.2c0.2-0.8-1,0-1-0.8c0-0.7,0.7-1.1,0.9-1c0.7,0.2,0.6-0.3,0.5-0.6
		c0-0.7,0.2-1.3,0.4-1.9c0.5-1.3,0.5-2.8,1-4.2c0.2-0.6,0.5-0.7,1-0.7c-0.9,3.2-1.7,6.5-2.6,9.7c-0.2,0.6-0.2,1.2-0.3,1.8
		c0,0,0,0,0,0C133.4,150.3,133.3,150.9,133.1,151.5z"/>
	<path class="st12" d="M272.9,196.1c-0.4-1-0.3-2.1-0.3-3.2c-0.2-5.2-0.5-10.4-1.1-15.6c0-0.2,0-0.4,0-0.6c0.2,0,0.4,0.1,0.4,0.4
		c0,1.4,0.5,2.6,0.9,3.9c0.1,0.5-0.1,0.9-0.3,1.4c-0.3,0.7-0.3,1.9,0,2.6c0.8,1.6,0.4,3.3,0.4,4.9C273,192,273,194.1,272.9,196.1z"
		/>
	<path class="st12" d="M172.7,302c0.3,0.2,0.6,0.4,0.8,0.6c0.5,0.5,1,1,1.5,1.5l0,0c1.1,1,2.2,2.1,3.2,3.2c0.1,0.2,0.4,0.3,0.2,0.6
		c-0.7,0.6-1.1,0.4-1.4-0.4c-0.4-0.9-1-1.6-2.2-1.6c-0.8,0-1.3-0.5-1.4-1.3c-0.1-0.5-0.1-1.1-0.6-1.3
		C171.6,302.8,172.2,302.4,172.7,302z"/>
	<path class="st12" d="M225.4,307.8c2.5-2.6,5-5.1,7.5-7.7c-0.1,0.9-0.2,1.7-1.3,2c-0.3,0.1-0.6,0.4-0.6,0.7c-0.1,1.5-1.2,2.2-2.2,3
		c-0.8,0.6-1.7,0.9-2.2,1.8C226.4,308,225.8,307.7,225.4,307.8z"/>
	<path class="st12" d="M252.7,273.1c-0.2,0.9-0.1,1.9-0.7,2.5c-0.7,0.7-1.5,1.6-1.6,2.5c-0.2,1.3-1.2,1.9-2,2.6
		c-0.3,0.3,0.1,0.6-0.1,0.9c-0.3,0.6-0.5,1.2-1.3,0.6c0,0-0.1-0.1-0.1-0.1c0.2-1.2,1-2,1.6-2.9c1.2-1.9,2.4-3.8,3.5-5.7
		c0.1-0.2,0.3-0.5,0.6-0.5C252.6,273.1,252.6,273.1,252.7,273.1z"/>
	<path class="st12" d="M131.2,226.4c0.8,2.5,1.3,5.1,2,7.7c-0.2-0.1-0.6,0.9-0.5-0.1c0.1-0.9-0.5-1.4-0.9-2.1
		c-0.4-0.5-1.6-1.2-0.1-1.9c0.2-0.1,0.1-0.5-0.1-0.6c-0.3-0.2-0.5-0.4-0.4-0.8c0.1-0.3,0.2-0.7-0.2-0.9c-0.5-0.2-0.6,0.4-1,0.6
		c-0.2-0.8-0.3-1.3,0.7-1.4C130.8,226.8,131.2,226.9,131.2,226.4z"/>
	<path class="st12" d="M261.6,257.2c-0.4,0.1-0.3,1.5-1.2,0.5c0,0-0.1-0.1-0.1-0.1c-0.2-0.4,0-0.8,0.1-1.1c0.7-1.8,1.6-3.6,2.2-5.4
		c0.1-0.3,0.2-0.6,0.6-0.6c0,0,0.1,0.1,0.1,0.1c-0.1,0.6,0.7,0.9,0.5,1.6c-0.1,0.3,0,0.7-0.6,0.5c-0.7-0.2-0.4,0.5-0.6,0.8
		c-0.4,0.4,0.2,0.3,0.4,0.4c0.4,0.3,0.5,0.9,0.1,0.9C261.2,254.9,261.8,256.2,261.6,257.2z"/>
	<path class="st12" d="M256,266.9c0,1-0.4,2.1,1.4,2.1c-0.8-0.2-1.1,1.1-2,0.4c-0.3-0.2-0.5,0.3-0.7,0.5c-0.2,0.3,0.1,0.5,0.3,0.6
		c0.3,0.2,0.9-0.1,0.9,0.5c0,0.4-0.4,0.5-0.7,0.5c-0.7,0.2-0.6-0.5-0.8-0.8c-0.7,0.7-0.5,2-1.8,2.3c0,0,0-0.1,0-0.1
		c-0.2-0.3-0.1-0.6,0.1-0.9c1-1.6,1.7-3.3,2.7-4.9c0.1-0.2,0.3-0.4,0.5-0.5C255.9,266.8,256,266.9,256,266.9z"/>
	<path class="st12" d="M140.4,254c1.3,2.8,2.8,5.4,3.9,8.2c-0.5-0.4-1-1-1.8-0.6c-0.2,0.1-0.5-0.1-0.7-0.1c-0.4-0.1-0.6-0.3-0.4-0.7
		c0.2-0.4,0.5-0.3,0.8-0.1c0.2,0.2,0.4,0.6,0.8,0.3c0.5-0.4-0.1-0.8-0.2-0.8c-0.6-0.5,0-1.9-1.4-1.7c0,0-0.2-0.2-0.2-0.3
		c0.4-1.3-0.3-2.2-0.7-3.3C140.3,254.7,140.4,254.3,140.4,254z"/>
	<path class="st12" d="M135,239.7c0.4,1.7,1.2,3.3,1.5,5c-0.8-0.1-0.8-0.9-0.9-1.3c-0.4-1.2-1-2.4-1.3-3.6c-0.5-1.8-1.5-3.6-1.1-5.7
		c0.7,1.4,0.8,2.9,1.4,4.4C134.7,238.8,134.9,239.3,135,239.7z"/>
	<path class="st12" d="M166.3,80.2c-1,0.7-1.2,2.1-2.3,2.7c-0.5-0.7-0.6-1.4-0.5-2.2c0-0.6,0.4-0.9,0.8-0.5c1,0.9,1.5-0.4,1.5-0.6
		c0.2-1,0.8-0.9,1.5-1c0,0,0.1,0.1,0.1,0.1C167.5,79.5,166.7,79.7,166.3,80.2z"/>
	<path class="st12" d="M130.2,165.2c-0.3,3.9-0.9,7.8-1.4,11.6c0-1.7-0.2-3.3,0.4-5c0.2-0.7,0.3-1.6-0.2-2.3c-0.4-0.5,0.1-1,0.1-1.5
		c0.3,0,0.1,0.5,0.4,0.5c0.3,0,0.3-0.2,0.3-0.4c-0.1-0.8,0.2-1.6-0.2-2.3c-0.4-0.7,0.8-1.3,0.3-2.1
		C130.2,164.2,129.7,164.9,130.2,165.2z"/>
	<path class="st12" d="M175.5,68.9c0.1-0.4-0.2-0.7-0.3-1c-0.5-1.1,0.3-2.5,1.5-2.8c0.4,1.1-1.5,1.3-1,2.5c1.5-0.4,1.8-2.5,3.5-2.6
		c0,0.1,0.1,0.1,0.1,0.2c0,0.5-0.3,0.9-0.7,1.2c-1,0.8-1.6,2.1-2.9,2.6C175.6,68.9,175.5,68.9,175.5,68.9z"/>
	<path class="st9" d="M211.7,319.3c-0.2,0.4-0.3,0.8-0.5,1.2c-0.3,1-1.2,1.7-1.4,2.7v0c-0.3,0.2-0.2,0.7-0.5,1
		c-0.2,0.3-0.2,0.7-0.5,1v0c-0.1,0-0.2,0-0.3-0.1c-0.3-1,0.3-2,0.3-2.9c-0.1-1.3,1.5-1.1,1.8-2.1c-0.9-0.6-1.2-1.5-0.8-2.2
		c0.2-0.3,0.5-0.7,0.7-0.2c0.3,0.7,0.8,1,1.4,1.3C211.8,319.2,211.8,319.3,211.7,319.3z"/>
	<path class="st12" d="M144.2,262.2c1.5,2.2,2.7,4.6,3.9,7c-0.3,0.2-0.6-0.7-1-0.1c-0.2,0.3-0.5-0.2-0.4-0.5c0.4-1.1-0.1-1.9-1-2.4
		c-0.9-0.6-0.3-1.7-1-2.4C144.3,263.4,143.8,262.9,144.2,262.2z"/>
	<path class="st12" d="M148.1,269.2c1.3,2,2.6,4,3.8,6c0.4,0.6,0.7,1.2,1,1.7c-0.5-0.2-1.2-0.2-1.1-1.1c0-0.3-0.5-0.3-0.8-0.3
		c-0.2-1.1-0.7-2-1.3-2.9c-0.5-0.7-0.8-1.5-1.4-2C147.8,270.3,148.1,269.7,148.1,269.2z"/>
	<path class="st12" d="M211.7,319.3c0-0.1,0-0.2,0-0.2c0.2-0.4,0.6-0.5,1-0.7c1.3-1,2.6-1.9,3.8-2.9c0.3-0.1,0.5-0.4,0.9-0.5
		c0,0,0.1,0.1,0.1,0.1c-0.6,0.8-0.8,2.1-2.3,2.1c0.2,0.5,0.7,1,0.2,1.5c0-0.3-0.2-1-0.4-0.8c-0.3,0.4-1-0.5-1.2,0.6
		C213.7,319.1,212.5,319.4,211.7,319.3z"/>
	<path class="st12" d="M143.7,118.9c-0.3,0.5-0.6,1-0.9,1.5c-0.2-0.2,0.4-0.7-0.6-0.8c-0.9-0.1-0.3-1.4-0.4-2.2
		c-0.1-0.4-0.1-0.9,0.5-0.9c0.5,0,0.8,0.4,0.4,0.9c-0.4,0.4-0.5,0.8,0,1.3c0.3-0.8,0.8-1.4,1.6-1.7c0,0,0.1,0,0.1,0
		C144.6,117.9,144.2,118.4,143.7,118.9z"/>
	<path class="st12" d="M171.2,73.7c-0.3-0.4-1-0.2-1.3-0.7c1.6,0,2.4-1.4,3.6-2.2c0.1,0,0.1-0.2,0.1-0.2c-0.6-1.8,0.8-1.1,1.5-1.2
		c0,0,0.1,0.1,0.1,0.1c-0.5,1.5-1.8,2.3-2.6,3.4c-0.3,0.4-0.5,0.9-1.2,0.9C171.3,73.7,171.2,73.7,171.2,73.7z"/>
	<path class="st3" d="M264.2,149.8c0.5,0.4,1.1,0.8,1.6,1.2c0.7,1.7,1.1,3.5,1.5,5.3c0,0.5-0.2,0.8-0.9,1.2c0.8-0.9-0.2-1.3-0.1-1.9
		c0.6-0.7,0.1-1.4-0.2-2c-0.4-1-0.2-2.3-1.7-2.6C264,150.9,264.3,150.2,264.2,149.8z"/>
	<path class="st12" d="M167.4,296.2c1.9,1.8,3.6,3.8,5.3,5.8c-0.5-0.2-1.6,0.6-1.2-0.8c0,0-0.2-0.1-0.3-0.2
		c-1.1-1.1-2.2-2.3-3.4-3.4C167.5,297.1,167.2,296.8,167.4,296.2z"/>
	<path class="st12" d="M259.9,258.9c0.3,0.8-0.8,1.4-0.4,2.1c0.7,1.1,0,2-0.3,3c-0.6-0.2,0.1-1.9-1.2-1.1c0,0-0.1-0.1-0.1-0.1
		c0.2-1.5,0.8-2.9,1.9-4C259.8,258.9,259.8,258.9,259.9,258.9z"/>
	<path class="st12" d="M245.8,287.6c1.1-1.6,1-3.5,2.3-4.8C248.6,284.3,247.3,287.4,245.8,287.6z"/>
	<path class="st12" d="M207.3,355.7c-0.5-1.2-0.1-2.5-0.2-3.7c-0.1-0.8,0.3-1.7-0.2-2.5c0-0.2,0-0.3,0-0.5c0.3-1.4,0.1-2.9,0.1-4.3
		c0.1-1.9-0.1-3.9,0.1-5.8c0.4,0.4,0.2,0.9,0.2,1.4C207.3,345.4,207.3,350.5,207.3,355.7z"/>
	<path class="st12" d="M221.3,311.6c1.1-1.4,2.5-2.5,3.9-3.6c0,0.8,0.3,1.8-1.1,1.8c-0.2,0-0.4,0.2-0.4,0.4
		C223.5,311.7,222.2,311.4,221.3,311.6z"/>
	<path class="st12" d="M199.4,357.9c0.2,0.2,0.5,0.5,0.7,0.7c-1.1,0-1.5-0.6-1.5-1.7c0.1-2.9,0-5.8,0-8.7c0.1,0,0.1,0,0.2-0.1
		c0.1,0.1,0.2,0.2,0.3,0.3c0.2,1.2,0,2.5,0.1,3.7c-0.1,0.6,0.1,1.2-0.1,1.8C199,355.3,199,356.6,199.4,357.9z"/>
	<path class="st12" d="M218.4,314c0.9-0.9,1.8-1.8,2.9-2.4c0.1,0.9-0.1,1.6-1.2,1.5c0.2,0.3,0.3,0.6,0.5,0.9
		c0.3,0.3,0.1,0.5-0.1,0.7c-0.3,0.3-0.4,0.2-0.7,0C219.4,314.3,219,314,218.4,314z"/>
	<path class="st13" d="M207.1,338.9c0,3,0,5.9,0,8.9c0,0.4,0.2,0.9-0.2,1.2c0-2.8,0-5.6,0-8.4c-0.1-2.2,0.2-4.3,0.3-6.5
		c0-0.2,0.1-0.4,0.2-0.5c0,1,0,2.1,0,3.1c-0.3,0.6,0.1,1.3-0.2,1.9C207.1,338.7,207.1,338.8,207.1,338.9z"/>
	<path class="st12" d="M274.9,195.9c0-2.5,0-4.9,0-7.4c0.1,0,0.1,0,0.2,0c0,2.5,0,4.9,0,7.4C275.1,195.9,275,195.9,274.9,195.9z"/>
	<path class="st12" d="M129.8,219.1c0.7,2.4,1,4.8,1.4,7.2c-0.7-0.2-1-1-0.9-1.5C130.5,222.9,129.3,221.1,129.8,219.1z"/>
	<path class="st12" d="M243.9,286.5c0.1-0.7,0.7-1.2,1.1-1.9c0.3-1,0.8-1.9,1.9-2.4c0,0,0,0,0,0c-0.2,1.9-1.1,3.2-2.5,4.3
		C244.3,286.7,244.1,286.6,243.9,286.5z"/>
	<path class="st12" d="M137.5,247.1c0.5,0.7,0.8,1.5,1,2.4c-0.2,0.1-0.4,0.2-0.6,0.3c-0.4,0.2-0.9,0.3-1.2-0.1
		c-0.3-0.4-0.3-1.2,0-1.4C137.1,248,137.1,247.5,137.5,247.1z"/>
	<path class="st12" d="M179.8,308.9c0.1,0.1,0.3,0.3,0.4,0.4c0.9,0.6,1.8,1.3,2.3,2.3c-0.6,0-1.1,0.1-1.4-0.7
		c-0.4-1-1.1-0.9-2.3,0.1c0.2-0.9-0.3-1.7,0.5-2.3C179.6,308.6,179.7,308.6,179.8,308.9z"/>
	<path class="st12" d="M257.9,264.9c-0.4,0.3-0.5,0.8-0.7,1.2c-0.2,0.6-0.6,0.8-1.2,0.7c0,0,0,0,0,0c0.1-1.6,0.8-2.8,1.9-3.9
		c0,0,0.1,0.1,0.1,0.1C258.5,263.7,258.5,264.3,257.9,264.9z"/>
	<path class="st12" d="M131.1,161.3c-0.6,1.2-0.3,2.7-0.9,3.9c-0.2-2.1,0.3-4.1,0.9-6.1c0.1-0.4,0-0.8-0.1-1.2
		c-0.4-0.9,0.2-0.6,0.6-0.6c0,0,0.1,0.1,0.1,0.1C131.7,158.9,131.4,160.1,131.1,161.3z"/>
	<path class="st12" d="M197.2,332.8c0,0.2,0,0.3,0,0.5c0.1,0.5,0.5,0.9,0.5,1.4c0,0.9,0.3,1.8,0.3,2.7c0,0.1,0.1,0.2,0.1,0.4
		c0.1,0.5,0.1,1-0.1,1.4c0,0-0.1,0.1-0.1,0.1c-0.6-0.7-0.8-1.5-0.7-2.4c0.1-1.9-0.8-3.7-0.5-5.6
		C197.6,331.6,197.1,332.3,197.2,332.8z"/>
	<path class="st12" d="M155.2,95.8c-0.3,0.9-0.8,1.7-1.4,2.4c0-0.7,0.1-1.4-0.8-1.8c-0.3-0.1-0.2-0.6,0.1-0.6c1,0,0.8-0.7,1-1.3
		C154.1,95.4,154.7,95.6,155.2,95.8z"/>
	<path class="st12" d="M133.4,241.4c1.5,0.5,0.9,1.6,1.1,2.5c0.3,1.2-1.1,1.2-1.3,2.1C133,244.4,135.3,243.2,133.4,241.4z"/>
	<path class="st12" d="M269.1,230.7c0.3,1.6-0.6,3.2-0.5,4.8c0,0.5-0.4,0.8-0.9,1c0,0-0.1-0.1-0.1-0.1c-0.2-0.4-0.1-0.8,0-1.3
		c0.3-1.2,0.7-2.4,0.9-3.6C268.5,231.2,268.5,230.8,269.1,230.7L269.1,230.7z"/>
	<path class="st12" d="M140.3,126.7c-0.4,1.3-0.7,2.7-1.4,3.9c0-0.7-0.1-1.3-0.3-1.9l0,0c0.7-0.6-0.8-1.1,0-1.8
		c0.2-0.1,0.3,0.1,0.4,0.3c0.4,0.6,0.7,0.8,0.9-0.1C139.9,126.8,140.1,126.7,140.3,126.7z"/>
	<path class="st12" d="M179.1,65c0.8-1.6,1.9-2.9,3.7-3.6c0.1,0.3,0,0.6-0.2,0.8c-0.8,1-1.8,1.8-2.7,2.6
		C179.7,65.1,179.5,65.3,179.1,65L179.1,65z"/>
	<path class="st12" d="M189.5,317.7c1.4,0.8,2.7,1.8,3.9,2.8c0.1,0.1,0.1,0.1,0.1,0.2c0,0-0.1,0-0.1,0.1c-0.6-0.2-1-0.7-1.8-0.7
		c-0.5,0-0.2-1-0.9-1.1c-0.1,0.2,0.2,1.1-0.5,0.3C189.8,318.9,189.4,318.4,189.5,317.7z"/>
	<path class="st1" d="M178.4,307.8c-0.7-1.1-1.8-1.8-2.6-2.8c-0.3-0.3-0.7-0.5-0.8-1c0.7,0,1.1,0.4,1.4,0.9c0.2,0.3,0.6,0.8,0.8,0.8
		c1.4,0.2,1.1,1.5,1.5,2.3C178.6,307.9,178.5,307.9,178.4,307.8z"/>
	<path class="st12" d="M154.8,279.8c0.8,0.9,1.5,1.8,1.9,2.9c-0.2,0.2-0.5-0.7-0.7,0c0,0.1-0.2,0.2-0.2,0.2c-0.2-1-2-1.5-1-3
		C154.8,279.9,154.8,279.9,154.8,279.8z"/>
	<path class="st12" d="M168.8,76.6c-0.1-0.6,0.6-1.3,0-1.9c0.9,0,1.5-0.9,2.4-1c0,0,0.1,0.1,0.1,0.1c-0.3,1.4-1.1,2.3-2.3,2.9
		C168.8,76.6,168.8,76.6,168.8,76.6z"/>
	<path class="st12" d="M152.9,277.9c0.5,0.6,0.2,1.6,0.9,2.2c0.1,0.1,0,0.3-0.1,0.4c-0.2,0.2-0.3,0-0.5-0.1
		c-0.3-0.2-0.4-0.6-0.9-0.6c0-0.3,0-0.6-0.2-0.9C151.5,278,152.1,277.9,152.9,277.9L152.9,277.9z"/>
	<path class="st12" d="M138.4,249.5c0.7,1.4,1.4,2.8,1.9,4.3c-0.5,0-0.8,0-1-0.7C139.1,251.9,138,250.9,138.4,249.5z"/>
	<path class="st12" d="M193.7,323c-1.2,0.2-2.4-0.6-2.3-1.6c0-0.2,0-0.5,0.3-0.6c0.2-0.1,0.5,0,0.5,0.1
		C192,322.2,193.4,322.2,193.7,323z"/>
	<path class="st12" d="M125.5,206.1c0.4,0.9,0.4,4.2,0,5.2C125.5,209.5,125.5,207.8,125.5,206.1z"/>
	<path class="st12" d="M274,205.2c0-1.7,0-3.4,0-5.2c0.1,0,0.2,0,0.2,0c0,1.7,0,3.4,0,5.1C274.1,205.2,274,205.2,274,205.2z"/>
	<path class="st12" d="M182.8,311.8c0.5,0.4,1.1,0.9,1.6,1.3c0.3,0.2,0.7,0.4,0.8,0.8c0,0-0.1,0.1-0.1,0.1c-0.3,0-0.4,0.3-0.7,0.4
		c-0.1,0-0.3,0-0.5,0C184.2,313.3,182.4,313,182.8,311.8z"/>
	<path class="st12" d="M161.1,288.5c0.1,0,0.2,0.1,0.4,0.1c0.1,0.2,0.2,0.4,0.4,0.7c0.8,0.5,1.5,1.1,1.7,2.1c0,0-0.1,0.1-0.1,0.1
		c-0.6,0.2-1-0.2-1.3-0.6c-0.3-0.5-0.3-1.2-1.1-1.3C160.7,289.5,161.2,288.9,161.1,288.5z"/>
	<path class="st12" d="M257.9,264.9c0.6,0.1,1.4,0.2,1.3,0.7c0,0.7-0.3,1.4-0.4,2c-0.1,0.2-0.4,0.2-0.6,0.1
		c-0.2-0.1-0.3-0.5-0.1-0.6C258.8,266.3,258.4,265.6,257.9,264.9z"/>
	<path class="st12" d="M165.4,293.9c0.8,0.6,1.5,1.4,2,2.3c-0.7,0-1.6,0.4-1.5-0.9c0-0.5-0.6-0.3-0.9-0.5
		C165.1,294.5,165.2,294.2,165.4,293.9z"/>
	<path class="st12" d="M205.9,360.5c1.9-0.1,1.4-1.5,1.4-2.6c0.5,0.6,1.2,1.2,0.7,2C207.6,360.6,206.9,361.2,205.9,360.5z"/>
	<path class="st12" d="M141.8,122.8c-0.3,1.3-0.9,2.6-1.5,3.8c0-0.6-0.1-1.3,0-1.9c0.1-0.4-0.1-0.9,0.6-1.1c0.5-0.1,0.1-0.6,0-0.9v0
		C141.3,122.8,141.6,122.8,141.8,122.8z"/>
	<path class="st12" d="M130,159c-0.2-1.3-1.2-2.5-0.4-4C129.3,156.4,130.6,157.6,130,159z"/>
	<path class="st14" d="M198.2,342.5c0-0.6,0-1.3,0-1.9c0.1,0,0.1,0,0.2,0c0.3,0.1,0.3,0.5,0.4,0.7c0.3,0.4-0.3,1.2,0.7,1.2
		c0.1,0.8,0.2,1.6-0.5,2.2c-0.1,0-0.3,0-0.4,0C198,343.9,198.6,343.1,198.2,342.5z"/>
	<path class="st12" d="M132.6,153.4c0,0.1,0,0.3-0.1,0.4c-0.2,0.7-0.1,1.6-0.5,2.3c-0.1,0-0.1,0.1,0,0.2c-0.2,0.4,0.1,0.9-0.3,1.3
		l0,0c0,0.2-0.1,0.2-0.2,0c0,0,0,0,0,0c0-0.8-0.2-1.7,0-2.3c0.2-0.7,0.1-1.7,1-2.2C132.7,153.1,132.8,153.2,132.6,153.4z"/>
	<path class="st12" d="M159.6,286.6c0.6,0.5,1.2,1.1,1.5,1.9c-0.5,0.1-0.8,0.6-1.4,0.5C159.6,288.2,159.9,287.4,159.6,286.6z"/>
	<path class="st12" d="M189.4,319.2c-1.2,0.4-1.7-0.4-2.3-1.3C188.2,317.9,189.1,318,189.4,319.2z"/>
	<path class="st12" d="M274.7,178.2c0,1.2,0,2.3,0,3.7c-1.1-1.4-0.2-2.6-0.4-3.7C274.5,178.1,274.6,178.1,274.7,178.2z"/>
	<path class="st12" d="M140.7,116.7c0.4,0.8-0.1,1.9,0.6,2.7c0.1,0.1,0,0.5-0.3,0.5c-0.4,0.1-0.6-0.2-0.6-0.6c0-0.9,0-1.7,0-2.6
		C140.4,116.7,140.6,116.7,140.7,116.7z"/>
	<path class="st15" d="M197.2,332.8c-0.5-0.4,0-1.1-0.5-1.5c0-0.2,0-0.3,0-0.5c-0.4-0.4-0.5-0.9-0.2-1.4c0.2,0,0.5,0.1,0.5,0.1
		C196.8,330.7,198.2,331.7,197.2,332.8z"/>
	<path class="st12" d="M138.9,130.5c-0.4,1.5-0.8,2.9-1.4,4.4C137.4,133.3,137.7,131.8,138.9,130.5z"/>
	<path class="st12" d="M125.8,184.7c0,1.2,0,2.3,0,3.5c-0.1,0-0.2,0-0.2,0c0-1.2,0-2.3,0-3.5C125.6,184.7,125.7,184.7,125.8,184.7z"
		/>
	<path class="st12" d="M136.5,244.7c0.5,0.7,0.8,1.5,1,2.4c-0.6-0.7-1.3-1.1-2.4-1.1C135.7,245.6,136.8,245.8,136.5,244.7z"/>
	<path class="st16" d="M182.4,62.1c0.1-0.2,0.3-0.4,0.4-0.6c0.1-0.1,0.3-0.2,0.4-0.3c0.8-0.3,1.1-1.2,1.9-1.4c0,0.1,0,0.2,0,0.3
		c-0.2,1.2-1.4,1.6-2,2.6C182.9,63,182.6,62.5,182.4,62.1z"/>
	<path class="st12" d="M164,77.8c0.7-0.3,1.4-0.2,1.5-1c0-0.2,0.4-0.3,0.6-0.2c0.3,0.1,0.3,0.5,0.2,0.7
		C165.8,78.1,165.1,78.2,164,77.8z"/>
	<path class="st12" d="M129.4,164.2c-0.3-1.2,0.2-2.3-0.5-3.2c0,0,0-0.3,0.1-0.3c0.2-0.1,0.4,0,0.5,0.2
		C130,162,129.7,163,129.4,164.2z"/>
	<path class="st12" d="M186.9,315.5c0.9,0.5,1.6,1.2,2.2,1.9C187.7,317.5,187.2,316.5,186.9,315.5z"/>
	<path class="st12" d="M158.2,284.6c0.6,0.5,1.1,1.2,1.4,2C158.3,286.5,158.1,286.2,158.2,284.6z"/>
	<path class="st12" d="M207.8,330.9c0-1.3,0-2.6,0.5-3.8c0,1,0,2,0,2.9C208.3,330.4,208.4,330.8,207.8,330.9z"/>
	<path class="st1" d="M182.6,311.6c-0.8-0.8-1.5-1.6-2.3-2.3c1.4,0.2,1.9,1.3,2.5,2.3L182.6,311.6L182.6,311.6z"/>
	<path class="st12" d="M198.2,342.5c0.6,0.5-0.1,1.4,0.5,1.9c0.4,0.6,0.5,1.3,0,1.9c-0.6-0.1-0.5-0.5-0.5-0.9
		C198.2,344.4,198.2,343.4,198.2,342.5z"/>
	<path class="st12" d="M273,213c0.4,0.6,0.4,1.2,0.4,1.8c0,0.2-0.1,0.3-0.2,0.4c-0.1,0-0.3-0.1-0.3-0.1
		C273.1,214.3,272.4,213.5,273,213C272.6,213.4,272.6,213.4,273,213z"/>
	<path class="st12" d="M272.9,183.8c0-0.3-0.1-0.8,0.5-0.7c0.4,0.1,0.5,0.5,0.5,0.9c0,0.4-0.3,0.5-0.6,0.5
		C272.6,184.5,272.9,184.1,272.9,183.8z"/>
	<path class="st12" d="M165.1,293.3c-1.3,0-1.5-0.3-1.7-1.9c0,0,0,0,0,0C164.4,291.7,164.9,292.4,165.1,293.3L165.1,293.3z"/>
	<path class="st12" d="M175.2,306.2c0.4,0.5,0.7,1,1.2,1.3c-0.3,0.5-0.7,0.3-1.1,0.3C175.4,307.3,174.7,306.8,175.2,306.2z"/>
	<path class="st12" d="M126.9,209.5c0.3,0.7,0.7,1.1,0.5,1.7c-0.1,0.3-0.5,0.2-0.8,0.1c-0.2,0-0.3-0.2-0.1-0.4
		C126.9,210.7,126.8,210.2,126.9,209.5z"/>
	<path class="st12" d="M264.8,249.8c0.7-0.1,0.6-0.9,1.1-1.2C266.3,249.9,266.2,250.1,264.8,249.8z"/>
	<path class="st12" d="M245.9,287.6c0.2,1.1-0.6,1-1.3,1c-0.6,0-0.7-0.3-0.4-0.7C244.9,288.3,245.4,287.8,245.9,287.6z"/>
	<path class="st12" d="M209.7,323.2c0.1-1.1,0.7-1.9,1.4-2.7C211.3,321.8,210.2,322.3,209.7,323.2z"/>
	<path class="st12" d="M268.1,238.3c0.4-0.5,0.7-1,1.2-0.7c0.2,0.1,0.2,0.4,0.1,0.5C269.1,238.6,268.7,238.4,268.1,238.3z"/>
	<path class="st12" d="M195.3,325.6c-1-0.4-0.5-1.5-0.9-2.2c-0.1-0.2,0-0.5,0-0.7c0.4-0.1,0.4,0.2,0.6,0.4c0.1,0.1,0.1,0.2,0.1,0.3
		c0.2,0.7,0.4,1.4,0.3,2.1C195.3,325.5,195.3,325.6,195.3,325.6z"/>
	<path class="st12" d="M142.8,120.4c-0.2,0.9-0.5,1.7-1,2.4C141.8,121.9,141.6,120.9,142.8,120.4z"/>
	<path class="st12" d="M124.9,203.3c0.6,0.1,0.9-0.6,1.4-0.3c0.2,0.1,0.1,0.5-0.1,0.6C125.8,204,125.4,204,124.9,203.3z"/>
	<path class="st12" d="M185.6,314.1c0.3,0.5,1,0.8,1.3,1.4c-0.8-0.2-1.7-0.2-1.7-1.4c0,0,0,0,0,0
		C185.3,313.9,185.5,313.9,185.6,314.1z"/>
	<path class="st12" d="M133.8,140.8c0,0.5,0.9,0.9,0.3,1.5c-0.1,0.1-0.3,0.2-0.4,0.1C133.5,141.8,133.6,141.3,133.8,140.8z"/>
	<path class="st12" d="M126.3,177.9c-0.3,0.1-0.4-0.2-0.4-0.4c0-0.3,0-0.6,0.5-0.6c0.3,0,0.4,0.1,0.5,0.4
		C126.8,177.6,126.6,177.8,126.3,177.9z"/>
	<path class="st12" d="M273.2,178.6c-0.4-0.3-0.3-0.6-0.3-0.9c0-0.3-0.5-0.8,0.1-0.8c0.5,0,0.3,0.5,0.3,0.9
		C273.4,178,273.4,178.3,273.2,178.6z"/>
	<path class="st12" d="M167.8,77.1c0.3-0.2,0.6-0.3,0.9-0.5c0,0,0.1,0.1,0.1,0.1c0,1-0.5,1.6-1.5,1.9c0,0,0,0,0,0
		C167.4,78,167.4,77.5,167.8,77.1C167.8,77.1,167.8,77.1,167.8,77.1z"/>
	<path class="st12" d="M217.4,314.7c0.3-0.3,0.5-0.6,1-0.7c-0.1,0.5,0.4,0.8,0.4,1.4c-0.5-0.3-0.9-0.6-1.4-0.4c0,0,0,0,0,0
		C217.3,314.9,217.3,314.8,217.4,314.7z"/>
	<path class="st12" d="M274.6,213c-0.4-0.6-0.3-1.2-0.1-2C275,211.7,274.8,212.4,274.6,213z"/>
	<path class="st12" d="M272.9,207.4c0.9,1.1,0.3,1.8-0.1,2.4C272.9,209.1,272.9,208.3,272.9,207.4z"/>
	<path class="st12" d="M140.5,260.6c-0.3-0.6-0.1-1.2-0.2-1.7C141.1,259.3,141.1,259.3,140.5,260.6z"/>
	<path class="st3" d="M264.9,147.9c0,0.3,0.1,0.6-0.3,0.8c0.4-0.8-1-1.4-0.2-2.3C264.8,146.9,264.9,147.4,264.9,147.9z"/>
	<path class="st12" d="M181.1,61.5c-0.6,0.1-0.8,0.8-1.4,0.6c-0.2-0.1-0.1-0.3,0-0.4C179.9,61.3,180.3,61,181.1,61.5z"/>
	<path class="st12" d="M234.3,298.8c0.5,1.3-0.3,1.3-1.2,1.2C233.2,299.4,233.7,299,234.3,298.8z"/>
	<path class="st12" d="M129.7,224.1c-0.4-0.2-0.4-0.4-0.4-0.6c0.1-0.4-0.6-0.5-0.3-0.9c0.1-0.1,0.2-0.2,0.3-0.1
		c0.4,0.2,0.4,0.6,0.4,1C129.7,223.6,129.7,223.8,129.7,224.1z"/>
	<path class="st12" d="M204,359.8c0.7,0,1.5-0.2,1.9,0.7C205.2,360.3,204.4,360.6,204,359.8z"/>
	<path class="st12" d="M243.1,291.4c-0.3,0-0.5-0.1-0.5-0.4c0-0.3,0.1-0.5,0.5-0.5c0.3,0,0.4,0.1,0.5,0.4
		C243.5,291.2,243.4,291.4,243.1,291.4z"/>
	<path class="st12" d="M214.1,319.3c0.3-0.5,0.7-0.7,1.2-0.6c0.1,0,0.2,0.3,0.1,0.4C215.1,319.6,214.5,319.2,214.1,319.3z"/>
	<path class="st9" d="M198.7,346.3c0-0.6,0-1.3,0-1.9c0.1,0,0.2,0,0.2,0c0.2,0.2,0.3,0.4,0.3,0.6c0,1.1,0.4,2.2-0.3,3.3
		c-0.1,0-0.2,0-0.2,0C198.7,347.6,198.7,347,198.7,346.3z"/>
	<path class="st12" d="M167.8,74.2c0-0.3,0.1-0.5,0.4-0.5c0.4,0,0.6,0.2,0.5,0.6c0,0.1,0.2,0.4-0.2,0.4
		C168.2,74.6,167.9,74.7,167.8,74.2z"/>
	<path class="st12" d="M137,127.5c-0.1,0.7,0.1,1.3-0.3,1.9C136.5,128.8,136.2,128.2,137,127.5z"/>
	<path class="st12" d="M131.1,155.4c-0.1-0.1-0.2-0.1-0.2-0.1c-0.3-0.5-0.4-1.1,0-1.4c0.4-0.4,0.5,0.1,0.4,0.5
		c-0.1,0.2-0.1,0.5-0.1,0.7C131.2,155.1,131.1,155.2,131.1,155.4z"/>
	<path class="st12" d="M194.3,322.5c-0.5-0.4-1.1-0.9-1-1.7c0,0,0,0,0,0c0.6,0,0.8,0.5,1.1,0.9c0.1,0.2,0.1,0.3,0.1,0.5
		C194.5,322.3,194.4,322.4,194.3,322.5z"/>
	<path class="st12" d="M167.8,77.1c-0.6-0.5-0.6-1.1-0.3-2.1C167.7,75.8,168,76.4,167.8,77.1L167.8,77.1z"/>
	<path class="st12" d="M262.6,257.4c0,0.3-0.2,0.3-0.4,0.3c-0.3,0-0.6,0-0.6-0.4c0-0.3,0.2-0.4,0.4-0.5
		C262.3,256.8,262.4,257.2,262.6,257.4z"/>
	<path class="st12" d="M161.8,291.3c-1.2,0.2-1.4-0.1-1.1-1C161.2,290.5,161.1,291.1,161.8,291.3z"/>
	<path class="st17" d="M260.8,135.4c-0.4-0.8-0.8-1.6-0.9-2.5C260.4,133.7,260.9,134.4,260.8,135.4z"/>
	<path class="st1" d="M132.6,153.4c0-0.2,0-0.3-0.1-0.5c0-0.1,0-0.3,0.1-0.4c0.1-0.3,0.3-0.6,0.4-0.9c0,0.5,0.1,1.1,0.1,1.6
		C133.2,153.8,132.8,153.5,132.6,153.4z"/>
	<path class="st12" d="M181,311.1c-0.4,0.4-0.8,0.6-1.4,0.5C180,311.2,180.1,310.5,181,311.1z"/>
	<path class="st18" d="M234.3,298.8c-0.4,0.4-0.8,0.8-1.2,1.2c-0.1,0-0.2,0-0.2,0c0.3-0.7,0.9-1.2,1.5-1.7c0,0.1,0,0.2,0.1,0.2
		C234.3,298.7,234.3,298.8,234.3,298.8z"/>
	<path class="st12" d="M267.6,245.7c0,0.4-0.2,0.5-0.6,0.4c-0.2,0-0.3-0.2-0.2-0.3c0.1-0.2,0.4-0.4,0.6-0.5
		C267.5,245.3,267.5,245.5,267.6,245.7z"/>
	<path class="st12" d="M252,277.8c-0.4-0.4-0.3-0.7-0.1-1.2C252.4,276.9,252.1,277.4,252,277.8z"/>
	<path class="st0" d="M228.3,79.8c0,0.2,0.1,0.3,0.1,0.5c-0.1,0.2-0.3,0.1-0.3,0c0-0.3-1.1-0.5-0.2-1
		C228,79.4,228.1,79.6,228.3,79.8z"/>
	<path class="st12" d="M143.3,263.5c-0.1-0.6-0.2-1-0.3-1.5c0.1,0,0.2,0,0.3-0.1C143.4,262.4,143.9,262.7,143.3,263.5z"/>
	<path class="st12" d="M267.6,236.5c-0.3,0.6,0.4,1.5-0.5,1.9c0,0,0,0,0,0C266.7,237.6,266.7,236.9,267.6,236.5L267.6,236.5z"/>
	<path class="st12" d="M153.8,278.4c0.4,0.4,0.8,0.9,1,1.4C154,279.7,153.7,279.2,153.8,278.4z"/>
	<path class="st12" d="M143.6,115.4c-0.2,0.1-0.3,0.4-0.6,0.5c-0.1,0.1-0.3-0.1-0.3-0.3c0-0.3,0.1-0.5,0.5-0.5
		C143.4,115.1,143.6,115.1,143.6,115.4z"/>
	<path class="st12" d="M232.4,303.4c0,0.3-0.2,0.5-0.5,0.5c-0.2,0-0.4-0.1-0.3-0.3c0.1-0.2,0.3-0.4,0.6-0.5
		C232.3,303,232.4,303.3,232.4,303.4z"/>
	<path class="st12" d="M190.7,321.7c0.3,0.6,0.3,1,0,1.5C190.4,322.7,190.4,322.3,190.7,321.7z"/>
	<path class="st12" d="M152.9,277c0.4,0.4,0.7,0.9,1,1.4c-0.3-0.2-0.6-0.3-1-0.5c0,0,0,0,0,0C152.9,277.6,152.9,277.3,152.9,277z"/>
	<path class="st12" d="M208.5,325.1c0.1,0,0.2,0,0.2,0c-0.2,0.6,0.5,1.5-0.5,1.9c0-0.2,0-0.5,0-0.7c0-0.1,0-0.1,0-0.2
		c0-0.3,0-0.6,0.1-0.9C208.5,325.2,208.5,325.2,208.5,325.1z"/>
	<path class="st12" d="M149.8,100.2c0.2,0.6,0.2,0.9,0,1.4C149.3,101.1,149.4,100.8,149.8,100.2z"/>
	<path class="st12" d="M160.1,86.5c-0.4-0.3-0.6-0.6-0.4-1.2C160.3,85.6,160,86.1,160.1,86.5z"/>
	<path class="st12" d="M157.2,283.3c0.5,0.4,0.8,0.8,1,1.4C157.5,284.5,157.2,284,157.2,283.3z"/>
	<path class="st12" d="M137.5,134.9c0,0.5-0.2,1.1-0.5,1.5c0.1-0.5-0.3-1,0-1.5C137.1,134.9,137.3,134.9,137.5,134.9z"/>
	<path class="st12" d="M172.9,303.7c-0.6,0.3-0.9,0.3-1.2,0.1c-0.1-0.1-0.1-0.3,0.1-0.4C172.2,303.2,172.4,303.5,172.9,303.7z"/>
	<path class="st12" d="M196.2,328c0,0.3,0,0.6,0,1c-0.6-0.5-0.4-1.2-0.5-1.9c0.1,0,0.1,0,0.2-0.1C196.3,327.3,196.3,327.6,196.2,328
		z"/>
	<path class="st12" d="M138.6,128.6c-0.2,0-0.3,0.6-0.6,0.3c-0.2-0.2-0.1-0.5,0.1-0.6C138.4,128,138.6,128.3,138.6,128.6
		L138.6,128.6z"/>
	<path class="st12" d="M160,290.3c-0.3,0-0.3-0.1-0.4-0.3c0-0.2,0-0.4,0.2-0.5c0.2,0,0.4,0,0.3,0.2
		C160.2,289.9,160.1,290.1,160,290.3z"/>
	<path class="st12" d="M152.6,98c-0.4-0.4-0.3-0.7-0.1-1.2C152.9,97.2,152.9,97.5,152.6,98z"/>
	<path class="st12" d="M156.2,90.6c0.2,0,0.4,0.1,0.4,0.3c0,0.2-0.1,0.3-0.3,0.3c-0.2-0.1-0.5-0.1-0.5-0.4
		C155.9,90.6,156.1,90.6,156.2,90.6z"/>
	<path class="st1" d="M179.8,308.9c-0.2,0-0.3-0.1-0.5-0.1c-0.2-0.2-0.5-0.5-0.7-0.7C179.4,307.8,179.6,308.4,179.8,308.9z"/>
	<path class="st12" d="M146.2,268.7c0.1,0.3,0,0.4-0.2,0.5c-0.2,0-0.4-0.1-0.4-0.3c0-0.2-0.1-0.5,0.2-0.4
		C146,268.4,146.1,268.7,146.2,268.7z"/>
	<path class="st12" d="M250.7,280.4c0,0.2-0.1,0.4-0.3,0.3c-0.2,0-0.3-0.2-0.2-0.4c0.1-0.2,0.1-0.4,0.4-0.4
		C250.7,280,250.7,280.2,250.7,280.4z"/>
	<path class="st12" d="M195.8,327.1c-0.8-0.3-0.3-1-0.5-1.4c0,0,0,0,0,0C196.1,325.9,196.1,326.4,195.8,327.1L195.8,327.1z"/>
	<path class="st12" d="M244.2,289.1c0.2,0,0.2,0.2,0.2,0.3c0,0.2,0,0.4-0.3,0.4c-0.2,0-0.3-0.1-0.3-0.3
		C243.9,289.4,244,289.2,244.2,289.1z"/>
	<path class="st12" d="M140.4,257c0.5,0.4,0.5,0.7,0.3,1c0,0-0.2,0.1-0.2,0C140.2,257.8,140.4,257.5,140.4,257z"/>
	<path class="st12" d="M171.7,71.3c0.1,0.2,0,0.4-0.2,0.4c-0.3,0.1-0.3-0.1-0.3-0.3c0-0.2,0-0.3,0.2-0.4
		C171.7,70.9,171.6,71.2,171.7,71.3z"/>
	<path class="st12" d="M154.7,282.7c-0.6,0-0.8-0.3-0.8-0.8C154.3,282,154.5,282.3,154.7,282.7z"/>
	<path class="st12" d="M141.1,122.8c-0.3,0-0.4,0.5-0.7,0.2c-0.2-0.2-0.1-0.6,0.2-0.7C140.9,122.2,140.9,122.6,141.1,122.8
		L141.1,122.8z"/>
	<path class="st12" d="M129.7,230.3c0,0.1,0,0.4-0.3,0.3c-0.1,0-0.2-0.2-0.2-0.4c0-0.1,0-0.4,0.3-0.3
		C129.7,229.9,129.7,230.1,129.7,230.3z"/>
	<path class="st12" d="M152.1,280.7c-0.2-0.4-0.3-0.6,0.1-0.8c0.1,0,0.1,0,0.2-0.1C152.3,280.1,152.5,280.5,152.1,280.7z"/>
	<path class="st12" d="M248.3,288.1c0,0.1,0,0.4-0.3,0.3c-0.2,0-0.2-0.2-0.2-0.4c0-0.1,0-0.4,0.3-0.3
		C248.3,287.7,248.3,287.9,248.3,288.1z"/>
	<path class="st12" d="M138.4,253.4c0,0.1,0,0.4-0.3,0.3c-0.2,0-0.2-0.2-0.2-0.4c0-0.1,0-0.4,0.3-0.3
		C138.4,253.1,138.4,253.2,138.4,253.4z"/>
	<path class="st12" d="M136.5,253.3c0-0.1,0-0.4,0.3-0.3c0.2,0,0.2,0.2,0.2,0.4c0,0.1,0,0.4-0.3,0.3
		C136.5,253.7,136.5,253.5,136.5,253.3z"/>
	<path class="st12" d="M244.2,290.6c0.2,0,0.2,0.2,0.2,0.3c0,0.2,0,0.3-0.2,0.3c-0.2,0-0.2-0.2-0.2-0.3
		C244,290.8,244,290.6,244.2,290.6z"/>
	<path class="st12" d="M244.3,292.1c0,0.2-0.2,0.2-0.3,0.3c-0.2,0-0.3,0-0.4-0.2c0-0.2,0.2-0.2,0.3-0.3
		C244.1,291.9,244.2,291.9,244.3,292.1z"/>
	<path class="st12" d="M164,295.1c0.3-0.4,0.6-0.2,0.9-0.3c0,0.1,0,0.2-0.1,0.2C164.6,295.3,164.4,295.3,164,295.1z"/>
	<path class="st12" d="M136.5,134.5c0-0.2,0.1-0.3,0.3-0.3c0.2,0,0.4,0.1,0.3,0.4c0,0.1,0,0.3-0.2,0.3
		C136.6,134.8,136.5,134.7,136.5,134.5z"/>
	<path class="st12" d="M169.1,299.8c0,0.2-0.2,0.2-0.3,0.3c-0.2,0-0.3,0-0.4-0.2c0-0.2,0.2-0.2,0.3-0.3
		C168.9,299.6,169,299.6,169.1,299.8z"/>
	<path class="st12" d="M137.6,129.7c0.2,0,0.2,0.2,0.3,0.3c0,0.2,0,0.3-0.2,0.4c-0.2,0-0.2-0.2-0.3-0.3
		C137.4,129.9,137.5,129.8,137.6,129.7z"/>
	<path class="st12" d="M137.2,126.8c0.2,0.4,0.3,0.6-0.1,0.8c-0.1,0-0.1,0-0.2,0.1C137,127.4,136.8,127,137.2,126.8z"/>
	<path class="st12" d="M140.9,121.1c0.5,0.1,0.4,0.5,0.6,0.8C141.1,121.8,140.8,121.6,140.9,121.1z"/>
	<path class="st12" d="M145.5,111.6c-0.4,0.2-0.6,0.3-0.8-0.1c0-0.1,0-0.1-0.1-0.2C144.9,111.3,145.3,111.1,145.5,111.6z"/>
	<path class="st12" d="M137.9,251.9c0,0.1,0,0.4-0.3,0.3c-0.2,0-0.2-0.2-0.2-0.4c0-0.1,0-0.4,0.3-0.3
		C137.9,251.6,137.9,251.8,137.9,251.9z"/>
	<path class="st12" d="M227.6,307.3c0.1,0.1,0.3,0.1,0.3,0.2c0.1,0.2-0.1,0.2-0.3,0.3c-0.2,0-0.3,0-0.4-0.2
		C227.2,307.4,227.4,307.4,227.6,307.3z"/>
	<path class="st12" d="M144.3,110.3c0.5,0.3,0.3,0.7,0.4,0.9c-0.1,0-0.2,0-0.2-0.1C144.1,111,144.2,110.7,144.3,110.3z"/>
	<path class="st12" d="M225.2,310.6c0,0.2,0,0.3-0.2,0.4c-0.2,0-0.2-0.2-0.3-0.3c0-0.2,0-0.3,0.2-0.4
		C225.1,310.3,225.1,310.5,225.2,310.6z"/>
	<path class="st12" d="M157.4,88.7c0.4,0.3,0.2,0.6,0.3,0.9c-0.1,0-0.2,0-0.2-0.1C157.1,89.3,157.2,89.1,157.4,88.7z"/>
	<path class="st12" d="M156.2,88.7c0,0.1,0,0.4-0.3,0.3c-0.1,0-0.2-0.2-0.2-0.4c0-0.1,0-0.4,0.3-0.3
		C156.2,88.3,156.2,88.5,156.2,88.7z"/>
	<path class="st12" d="M184.2,315.5c-0.2,0-0.3,0-0.4-0.2c0-0.2,0.2-0.2,0.3-0.3c0.2,0,0.3,0,0.4,0.2
		C184.6,315.5,184.4,315.4,184.2,315.5z"/>
	<path class="st12" d="M216.5,317.9c0,0.2,0,0.3-0.2,0.3c-0.2,0-0.2-0.2-0.2-0.3c0-0.2,0-0.3,0.2-0.3
		C216.5,317.6,216.5,317.7,216.5,317.9z"/>
	<path class="st12" d="M172.4,70.2c-0.2,0-0.2-0.2-0.2-0.3c0-0.2,0-0.3,0.2-0.3c0.2,0,0.2,0.2,0.2,0.3
		C172.6,70,172.6,70.2,172.4,70.2z"/>
	<path class="st12" d="M260.1,258.9c-0.1,0-0.1,0-0.2,0c0,0-0.1-0.1-0.1-0.1c-0.3-0.6-0.3-1,0.5-1.2c0,0,0.1,0.1,0.1,0.1
		C260.4,258.1,260.3,258.5,260.1,258.9z"/>
	<path class="st12" d="M196.5,329.5c0.1,0.5,0.2,1,0.2,1.4c-0.9-0.3-0.3-1-0.5-1.4C196.3,329.5,196.4,329.5,196.5,329.5z"/>
	<path class="st12" d="M207.1,338.6c0.1-0.6-0.2-1.3,0.2-1.9C207.2,337.3,207.6,338,207.1,338.6z"/>
	<path class="st12" d="M133.1,242.8c0,0.2,0,0.3-0.2,0.3c-0.2,0-0.2-0.2-0.2-0.3c0-0.2,0-0.3,0.2-0.3
		C133.1,242.4,133.1,242.6,133.1,242.8z"/>
	<path class="st12" d="M144.5,269.1c-0.2,0-0.2-0.2-0.3-0.3c0-0.2,0-0.3,0.2-0.4c0.2-0.1,0.2,0.2,0.3,0.3
		C144.7,268.9,144.6,269,144.5,269.1z"/>
	<path class="st12" d="M151,275.4c-0.1,0.5,0.4,0.8-0.1,1.3C150.6,276.2,150.6,275.9,151,275.4z"/>
	<path class="st12" d="M259.6,268.4c0.2,0,0.2,0.2,0.2,0.3c0,0.2,0,0.3-0.2,0.3c-0.2,0-0.2-0.2-0.2-0.3
		C259.4,268.6,259.4,268.5,259.6,268.4z"/>
	<path class="st12" d="M202,358.8c0.2,0.2,0.3,0.3,0.5,0.5c-0.4-0.1-1,0.3-1.2-0.5C201.5,358.8,201.8,358.8,202,358.8z"/>
	<path class="st12" d="M242.2,290.9c0.1,0.3,0.2,0.6-0.1,0.9C241.7,291.5,242.1,291.2,242.2,290.9z"/>
	<path class="st12" d="M137,136.6c0,0.5-0.2,0.9-0.5,1.3C136.5,137.3,136.4,136.8,137,136.6z"/>
	<path class="st12" d="M175,69.3c-0.1-0.1-0.3-0.2-0.5-0.4c0.4,0,0.7-0.1,1-0.1c0,0,0,0,0,0C175.7,69.4,175.5,69.5,175,69.3
		C175.1,69.4,175,69.3,175,69.3z"/>
	<path class="st12" d="M209.3,324.2c0-0.4-0.2-0.9,0.5-1C209.8,323.6,209.7,324,209.3,324.2z"/>
	<path class="st12" d="M132.8,237.9c0.3-0.1,0.4,0,0.4,0.1c0,0.2-0.1,0.3-0.2,0.3c-0.2,0-0.4,0-0.3-0.2
		C132.7,238,132.9,237.9,132.8,237.9z"/>
	<path class="st19" d="M232.2,84.3c-0.4-0.2-0.7-0.5-0.8-0.9C231.8,83.5,232.1,83.8,232.2,84.3z"/>
	<path class="st12" d="M139.1,253.3c-0.1,0.1-0.2,0.3-0.3,0.3c-0.2,0-0.1-0.2-0.1-0.3c0-0.2,0.1-0.3,0.3-0.3
		C139,253,139,253.2,139.1,253.3z"/>
	<path class="st12" d="M208.8,325.1c0-0.4,0.2-0.7,0.5-1C209.2,324.5,209.4,325,208.8,325.1z"/>
	<path class="st12" d="M137.1,133.2c-0.2-0.2-0.3-0.4-0.1-0.7C137.3,132.7,137.2,133,137.1,133.2z"/>
	<path class="st12" d="M230.9,305.5c-0.1,0.1-0.2,0.2-0.3,0.2c-0.1,0-0.2-0.1-0.1-0.2c0.1-0.1,0.2-0.2,0.4-0.3
		C230.8,305.4,230.8,305.4,230.9,305.5z"/>
	<path class="st12" d="M265.4,246.8c0-0.2,0-0.6,0.1-0.6c0.3,0,0.1,0.2,0.2,0.4c0,0.1,0,0.2-0.1,0.3
		C265.5,246.8,265.5,246.8,265.4,246.8z"/>
	<path class="st12" d="M260.5,259.2c-0.1,0.1-0.1,0.2-0.2,0.2c-0.2,0-0.2-0.2-0.2-0.3c0-0.1-0.1-0.3,0.1-0.2
		C260.4,258.9,260.5,259,260.5,259.2z"/>
	<path class="st12" d="M269,234.3c0-0.2,0-0.6,0.1-0.6c0.3,0,0.1,0.2,0.2,0.4c0,0.1,0,0.2-0.1,0.3
		C269.1,234.3,269.1,234.3,269,234.3z"/>
	<path class="st12" d="M149.9,276.9c-0.2,0-0.3-0.1-0.2-0.2c0.1-0.1,0.2-0.1,0.3-0.1c0.1,0,0.1,0.1,0.1,0.2
		C150,276.9,149.9,276.9,149.9,276.9z"/>
	<path class="st12" d="M198.2,340.5c-0.4-0.3-0.2-0.8-0.2-1.2c0,0,0,0,0,0C198.7,339.6,198.5,340.1,198.2,340.5L198.2,340.5z"/>
	<path class="st12" d="M144.4,265.9c-0.1-0.2-0.1-0.3-0.1-0.4c0-0.1,0.2-0.1,0.3-0.2c0,0.1,0.1,0.2,0.1,0.2
		C144.6,265.6,144.5,265.7,144.4,265.9z"/>
	<path class="st12" d="M171.6,302.8c0,0.1-0.1,0.2-0.2,0.2c-0.1,0.1-0.2-0.1-0.2-0.2c0-0.1,0.1-0.2,0.1-0.3
		C171.5,302.5,171.6,302.6,171.6,302.8z"/>
	<path class="st12" d="M271.4,224.4c-0.1,0.1-0.1,0.3-0.2,0.3c-0.1,0.1-0.2,0-0.2-0.1c0-0.1,0.1-0.2,0.1-0.3
		C271.2,224.3,271.3,224.4,271.4,224.4z"/>
	<path class="st20" d="M194.3,322.5c0-0.1,0-0.2,0-0.2c0.7,0.1,0.8,0.4,0.5,1c-0.2-0.2-0.3-0.3-0.5-0.5
		C194.3,322.6,194.3,322.6,194.3,322.5z"/>
	<path class="st12" d="M133.1,144.7c0.1,0.2,0.1,0.3,0.1,0.3c0,0.1-0.1,0.1-0.1,0.2c-0.2,0.1-0.2-0.1-0.2-0.2
		C132.9,145,133,144.9,133.1,144.7z"/>
	<path class="st12" d="M164,82.9c0,0.3-0.2,0.6-0.5,0.6C163.5,83.2,163.5,82.8,164,82.9z"/>
	<path class="st21" d="M175.1,69.4c0.3,0,0.4-0.2,0.5-0.5c1.4-1.1,2.5-2.4,3.6-3.8c1.3-0.8,2.1-2,3.3-3c0.2,0,0.4,1.1,0.8-0.1
		c0.2-0.8,1.3-1.4,1.9-2c0.7-0.3,1.4-0.9,2.3-0.6c-0.3,0.5-1,0.3-0.9,1c0,0.1-0.2,0.4-0.3,0c-0.1-0.6-0.4-0.3-0.6-0.1
		c-0.2,0.2-0.5,0.4-0.3,0.9c0.6,1.6-0.3,3.2-2.2,3.5c1,0.3,1.3,0.7,1.3,1.6c0,0.6,0.5,0.9,1.1,0.8c0.8,0,1,0.4,1,1.1
		c0,1.2,0,2.3,0,3.5c0,0.6,0.2,1,0.9,0.9c1-0.2,1.2,0.5,1.3,1.3c0.1,1.1-0.1,2.1-0.4,3.2c-0.2,0.9,0.1,1.5,1.1,1.5
		c0.8,0,1,0.4,1,1.1c0,1.2,0,2.3,0,3.5c0,0.7,0.2,1,0.9,0.9c1-0.2,1.2,0.5,1.3,1.3c0.1,1-0.1,2-0.3,3c-0.3,1.3-0.1,1.6,1.2,1.8
		c0.6,0.1,0.8,0.3,0.9,0.9c0.1,1.1,0.3,2.2,0.2,3.3c-0.1,0.6,0,1.1,0.8,1.1c0.8,0,1,0.6,1.1,1.3c0.1,1.1-0.1,2.2-0.4,3.3
		c-0.2,0.9,0.1,1.5,1.1,1.5c0.7,0,1,0.3,1,1c0,1,0.3,1.9,0.2,2.9c-0.1,0.8-0.2,1.6,1,1.8c0.5,0.1,0.5,0.6,0.4,1
		c-0.3,2.1,1.2,3.9,0.8,5.9c-0.1,0.5,0.4,0.7,0.8,0.6c0.6,0,0.6-0.4,0.6-0.8c0-1.6,0-3.3,0-4.9c0.1,0,0.2,0,0.2,0
		c0,6.4,0,12.8,0,19.3c0.2,0.4,0.1,0.9,0.1,1.3c0,12.6,0,25.2,0,37.9c0,0.4-0.1,0.9,0.1,1.3c0,1.9,0,3.9,0,5.8c0,5.7,0,11.4,0,17.2
		c-0.4-0.4-0.2-0.8-0.2-1.1c0.2-6.3-0.4-12.6-0.2-18.9c0-0.7-0.1-1.2-1-1.1c-0.8,0.1-1-0.3-1-1.1c0-1.1,0-2.2,0-3.4
		c0-0.8-0.3-1.4-1.2-1.3c-0.7,0-0.8-0.3-0.8-0.9c0-1.2,0-2.5,0-3.7c0-0.8-0.2-1.2-1.1-1.2c-0.7,0.1-0.9-0.3-0.8-1c0-1.2,0-2.3,0-3.5
		c0-0.8-0.3-1.3-1.2-1.3c-0.7,0-0.8-0.3-0.8-0.9c0-1.3,0-2.6,0-3.9c0-0.7-0.2-1.1-1-1c-0.9,0.1-1-0.4-1-1.1c0-1.2,0-2.3,0-3.5
		c0-0.7-0.3-1.2-1-1.2c-0.8,0-0.9-0.4-0.9-1c0-1.2,0-2.5,0-3.7c0-0.7-0.3-1.1-1-1c-0.9,0.1-1-0.4-1-1.1c0-1.1,0-2.2,0-3.4
		c0-0.8-0.3-1.3-1.2-1.3c-0.7,0-0.8-0.4-0.8-0.9c0-1.2,0-2.5,0-3.7c0-0.7-0.2-1.2-1-1.1c-0.9,0.1-1-0.4-1-1.1c0-1.1,0-2.2,0-3.2
		c0-0.8-0.2-1.5-1.2-1.4c-0.7,0-0.8-0.4-0.8-0.9c0-1.2,0-2.5,0-3.7c0-0.7-0.2-1.2-1-1.1c-0.8,0.1-1-0.3-0.9-1c0-1.1,0-2.2,0-3.4
		c0-0.8-0.2-1.4-1.2-1.4c-0.7,0-0.8-0.4-0.8-0.9c0-1.2,0-2.4,0-3.6c0-0.8-0.2-1.3-1.1-1.2c-0.6,0.1-0.8-0.3-0.8-0.9
		c0-1.2,0-2.3,0-3.5c0-0.8-0.2-1.4-1.2-1.4c-0.7,0-0.7-0.4-0.7-0.9c0-1.2,0-2.4,0-3.6c0-0.8-0.2-1.3-1.1-1.2
		c-0.7,0.1-0.8-0.3-0.8-0.9c0-1.2,0-2.3,0-3.5c0-0.8-0.2-1.4-1.2-1.4c-0.7,0-0.7-0.4-0.7-0.9c0-1.2,0-2.5-0.1-3.9
		c-0.5,1.3-1.1,1.1-1.8,0.3c-0.2-0.2-0.4-0.2-0.6,0c-0.5,0.4-1,1.1-1.7,0.2c-0.1-0.1-0.4,0.6-0.8,0.2c0.2-0.6,0.9-0.9,1.1-1.6
		c0.6-0.5,1.1-1.2,1.5-1.9c1-0.8,1.7-1.8,2.4-2.9C172.7,72.4,173.9,70.9,175.1,69.4z"/>
	<path class="st2" d="M202.5,169.1c-0.4-0.4-0.2-0.9-0.2-1.4c0-13,0-26.1,0-39.1c0.4,0.4,0.2,0.8,0.2,1.2
		C202.5,142.9,202.5,156,202.5,169.1z"/>
	<path class="st3" d="M264.4,155.9c0.2-1.5-1-2.9-0.6-4.4c1.5,0.7,1.6,0.9,1,2.4C264.5,154.5,264.9,155.3,264.4,155.9z"/>
	<path class="st3" d="M266,154.1c0.8,1,0,2.1,0.1,3.1c0,0.3-0.3,0.3-0.6,0.3c-0.4-0.1-0.5-0.6-0.3-0.8C266,156,265.7,155,266,154.1z
		"/>
	<path class="st3" d="M260.7,138.8c0.2,1,0.2,1.7-0.8,2.2C259.8,140.1,259.6,139.3,260.7,138.8z"/>
	<path class="st3" d="M261.6,144.3c-0.2-0.6-0.4-1.1,0-1.7c0,0,0.3,0,0.3,0C262.1,143.3,261.7,143.8,261.6,144.3z"/>
	<path class="st3" d="M260.2,143.6c-0.5-0.6-0.3-1-0.2-1.5C260.5,142.6,260.3,143,260.2,143.6z"/>
	<path class="st3" d="M264.2,149.8c-0.4-0.3-0.6-0.6-0.4-1C264.2,149.1,264.2,149.4,264.2,149.8z"/>
	<path class="st22" d="M143.7,118.9c0.2-0.6,0.4-1.3,0.6-1.9c1.5-3.1,2.9-6.1,4.5-9.1c0.9-1.8,1.8-3.6,2.9-5.3
		c0.6-0.8,1.3-1.5,2.2-1.9c0.4,0.7,0.2,1.4,0.2,2c0.2-0.6,0.5-1.4-0.2-2c-0.1-0.2-0.3-0.2-0.4,0c-0.1,0.2-0.2,0.6-0.6,0.4
		c-0.3-0.2-0.1-0.5,0-0.7c0.1-0.2,0.3-0.5,0.4-0.7c0.3,0.2,0.5-0.4,1-0.1c0.2,0.2,0.3-0.1,0.2-0.3c-0.2-0.3-0.3-0.5,0-0.8
		c0.6,1,0.8,2.1,0.9,3.3c0.2,2.3,0.6,4.5,0.4,6.9c0,0.6,0.5,0.8,1,0.7c0.8-0.1,1,0.3,0.9,1c0,1.2,0,2.5,0,3.7c0,0.8,0.2,1.2,1,1.1
		c0.8-0.1,1,0.3,1,1c0,1.2,0,2.5,0,3.7c0,0.7,0.1,1.2,1,1.1c0.9-0.1,1,0.4,1,1.1c0,1.2,0,2.5,0,3.7c0,0.7,0.2,1.1,1,1
		c0.8-0.1,1,0.3,1,1.1c0,1.2,0,2.5,0,3.7c0,0.7,0.2,1.1,0.9,1c0.8-0.1,1,0.3,1,1c0,1.2,0,2.5,0,3.7c0,0.7,0.1,1.1,0.9,1
		c0.9-0.1,1,0.4,1,1.1c0,1.2,0,2.3,0,3.5c0,0.7,0.2,1.2,1,1.1c0.9-0.1,1,0.4,1,1.1c0,1.2,0,2.4,0,3.6c0,0.7,0.1,1.2,1,1.1
		c0.9-0.1,1,0.4,1,1.1c0,1.2,0,2.4,0,3.6c0,0.7,0.2,1.2,1,1.1c0.8-0.1,0.9,0.4,0.9,1c0,1.2,0,2.5,0,3.7c0,0.8,0.2,1.1,1,1
		c0.8-0.1,0.9,0.3,0.9,1c0,1.2,0,2.4,0,3.6c0,0.8,0.2,1.3,1.1,1.2c0.7-0.1,0.9,0.3,0.9,0.9c0,1.3,0,2.6,0,3.9c0,0.7,0.2,1.1,0.9,1
		c0.8-0.1,1,0.3,1,1.1c0,1.2,0,2.4,0,3.6c0,0.7,0.2,1.2,1,1.1c0.8-0.1,1,0.3,0.9,1c0,1.2,0,2.5,0,3.7c0,0.7,0.2,1.2,1,1.1
		c0.8-0.1,1,0.3,1,1c0,1.2,0,2.4,0,3.6c0,0.8,0.2,1.3,1.1,1.2c0.7-0.1,0.9,0.3,0.9,0.9c0,0.4-0.1,0.8,0.4,1.1c1,0.5,0.9,1.4,1.1,2.3
		c0.6,2.1,0.3,4.3,0.4,6.4c0,0.7,0.3,1,1,0.9c0.9-0.1,1,0.4,1,1.1c0,1.2,0,2.5,0,3.7c0,0.7,0.2,1.1,1,1c0.8-0.1,1,0.3,1,1.1
		c0,1.2,0,2.4,0,3.6c0,0.7,0.2,1.2,1,1.1c0.8-0.1,0.9,0.3,0.9,1c0,1.2,0,2.5,0,3.7c0,0.8,0.2,1.2,1,1c0.8-0.1,1,0.3,0.9,1
		c0,1.2,0,2.4,0,3.6c0,0.8,0.2,1.3,1.1,1.2c0.7-0.1,0.9,0.3,0.9,0.9c0,1.3,0,2.6,0,3.9c0,0.7,0.1,1.1,0.9,1c0.8-0.1,1.1,0.3,1,1
		c-0.1,1.2,0,2.4,0,3.6c0,0.7,0.2,1.2,1,1.1c0.9-0.1,1,0.4,1,1.1c0,1.1,0.1,2.3,0,3.4c-0.1,1.1,0.3,1.5,1.3,1.3c0.2,0,0.4,0,0.6,0
		c-0.2,2.4,0.3,4.7,0.2,7.1c0,0.2,0,0.5,0.2,0.6c0.4,0.4,0.4,1,0.4,1.5c-0.1,4.8-0.3,9.6-0.6,14.4c-0.2,3.3-0.5,6.6-0.7,9.9
		c-0.1,2.3,0.1,4.6,0.1,7c0,0.6,0,1.1-0.2,1.7c-0.7,0.7-0.6-0.1-0.7-0.4c-0.1-0.9,0.1-1.8-0.3-2.6c-0.3-0.2-0.7-0.3-1-0.6
		c-0.6-1,0-2.1,0.1-3.1c-0.3,1.1-0.6,2.1,0,3.2c0.7,0.5,1.1,1.2,1.1,2.1c0,1.1,0.1,2.2-0.1,3.3c-0.1,0.4,0,0.9-0.6,1.1
		c-0.4-1.3,0.2-2.8-1-4.3c0,1.3,0,2.3,0,3.4c-0.1,0-0.2,0-0.3,0c-0.5-1.8-1.1-3.6,0.1-5.6c-2.1,0.9-3.2,0.3-2.9-1.5
		c0.1-0.8,0.1-1.6-0.1-2.4c-0.2-0.7-0.1-1.5-1.2-1.5c-0.3,0-0.4-0.4-0.4-0.8c0-1.4-0.4-2.9-0.2-4.3c0.1-0.8-0.3-1.2-1-1.1
		c-0.9,0.1-1.2-0.4-1.1-1.2c0-0.9,0-1.8,0-2.6c0-0.7,0.1-1.4-0.9-1.5c-0.4,0-0.5-0.5-0.5-0.8c0-1.4-0.4-2.7-0.2-4.1
		c0.1-0.9-0.2-1.4-1.2-1.3c-0.7,0.1-1-0.3-1-1c0-1.1,0-2.2,0-3.2c0-0.4,0-0.9-0.5-1c-1-0.1-0.9-0.8-1-1.5c-0.1-1.3-0.3-2.6-0.2-3.9
		c0-0.7-0.3-1-1-0.9c-1,0.1-1.3-0.4-1.2-1.3c0.1-1-0.1-2,0.2-3c0.2-0.6,0.2-1.3-0.8-1.3c-0.8,0-1.1-0.6-1.1-1.4c0-1.2,0-2.3,0-3.5
		c0-0.7-0.2-1.2-1-1.1c-1,0.1-1.2-0.5-1.2-1.3c0-1.6,0-3.2,0-4.8c0-0.5-0.1-1-0.6-1.2c-0.9-0.3-1.2-1-1.1-1.9c0-0.4,0-0.9,0-1.3
		c0-0.7-0.2-1.1-1-1c-1,0.1-1.3-0.4-1.2-1.3c0-0.7,0-1.4,0-2.2c0-0.8,0.3-1.9-1.1-2c-0.2,0-0.3-0.3-0.3-0.6
		c-0.3-1.8-0.7-3.6-0.5-5.4c0.1-0.8,0.1-1.6-1.1-1.6c-0.6,0-0.8-0.6-0.8-1.2c0-1.2,0-2.3,0-3.5c0-0.5,0-0.9-0.6-1.1
		c-1-0.4-1.2-1.1-1.1-2.1c0-0.4,0-0.7,0-1.1c0.1-0.8-0.3-1.2-1.1-1.1c-0.8,0.1-1.1-0.3-1.1-1.1c0-0.9,0-1.8,0-2.6
		c0-0.8,0.2-1.6-1-1.7c-0.3,0-0.4-0.4-0.4-0.8c0-1.4-0.4-2.8-0.2-4.2c0.1-0.8-0.2-1.3-1.1-1.2c-0.8,0.1-1.1-0.4-1-1.1
		c0-0.8,0-1.7,0-2.5c0-0.8,0.2-1.7-1-1.8c-0.3,0-0.4-0.4-0.4-0.8c0-1.4-0.4-2.9-0.2-4.3c0.1-0.8-0.3-1.2-1-1.1
		c-0.9,0.1-1.2-0.4-1.1-1.2c0-1.6,0-3.2,0-4.8c0-0.6-0.2-1.1-0.8-1.3c-0.8-0.3-0.9-0.9-0.9-1.6c0-0.9,0.1-1.7-0.1-2.6
		c-0.2-0.8-0.3-1.4-1.3-1.5c-0.6,0-0.7-0.6-0.7-1.2c0-1.1,0-2.2,0-3.2c0-0.6,0-1.1-0.9-1.3c-0.7-0.1-1.1-0.7-1.1-1.5
		c0-1.1,0-2.2,0-3.2c0-0.6-0.2-0.9-0.8-0.9c-0.9,0-1.1-0.6-1.1-1.4c0-1.1,0-2.2,0-3.2c0-0.6-0.1-1.1-0.8-1.2
		c-0.7-0.1-1.1-0.7-1.1-1.5c0-1,0-2.1,0-3.1c0-0.6-0.1-1.1-0.9-1.1c-0.8,0-1.1-0.6-1-1.3c0-1.1,0-2.2,0-3.4c0-0.6-0.1-1-0.8-1.1
		c-0.8-0.2-1.2-0.7-1.1-1.6c0-1,0-2.1,0-3.1c0-0.6-0.2-1-0.9-1c-0.8,0-1.1-0.5-1.1-1.3c0-0.6,0-1.1,0-1.7c0-0.3-0.1-0.8-0.4-0.8
		c-1.2-0.1-1-1-1-1.8c0-0.4,0-0.8,0-1.2c-0.3,0-0.4,0.7-0.8,0.2c-0.2-0.2-0.2-0.5,0.1-0.7C144.5,121,144.3,120,143.7,118.9z"/>
	<path class="st23" d="M194.8,323.2c0-0.4,0-0.8-0.5-1c0-0.2,0-0.3,0-0.5c-0.1-0.2-0.1-0.4,0-0.5c1.2-1.7,1.4-3.7,1.9-5.6
		c0.7-3.2,1.3-6.5,2-9.8c0.3-1.4,0.6-2.8,0.7-4.3c0-1.1,0.5-2.1,0.6-3.2c0-0.4,0.1-0.9,0.6-0.9c0.4,0,0.3,0.6,0.4,0.9
		c0,0.2-0.1,0.4,0.1,0.6c0.3-1,0.7-1.9,0.7-2.9c0-0.4,0-1,0.7-1c0.3,0.2,0.1,0.6,0.3,0.9c0.3,1.8,0.5,3.6,0.8,5.4c0,0.1,0,0.1,0,0.2
		c0,1.6-0.3,3.1-0.3,4.6c0,0.4,0.1,0.9-0.3,1.1c-0.6,0.2-0.5-0.6-0.9-0.7c-0.7,2.7-1.6,5.2-2.9,7.7c-0.4,0.8-0.5,2-0.6,3
		c-0.1,0.8-0.2,1.5-1.6,1.2c1.3,1.1,1.2,1.9,0.5,3c-0.4,0.6-0.3,1.5-0.4,2.3c-0.1,0.6-0.2,1.1-0.9,0.9c-0.7-0.1-0.5-0.8-0.4-1.2
		c0.1-0.9,0.3-1.7,0.6-2.6C195.3,321.7,195.6,322.7,194.8,323.2L194.8,323.2z"/>
	<path class="st24" d="M202,295.3c-0.4,0-0.5,0.3-0.5,0.7c0.1,1.5-0.6,2.7-1.2,4.2c-0.5-1-0.1-1.8-0.4-2.6c-0.1,0.3-0.2,0.4-0.2,0.6
		c-0.1,1.4-0.7,2.7-0.8,4.2c-0.1,1.1-0.1,2.4-0.8,3.5c0.4-3.7,0.9-7.3,1.3-11c0.3-2.5,0.7-5,0.7-7.5c0.3-1.5,0.5-3.1,0.5-4.6
		c-0.1-0.5-0.3-0.9,0-1.4c0.1-0.1,0.1-0.3,0.2-0.3c0.4-0.1,0.2,0.2,0.2,0.3c0.2,1.1-0.1,2.2,0.2,3.3c0.5,0.5,0.4,1.1,0.3,1.7
		c-0.1,0.4-0.2,0.8,0,1.3c0,0.3,0,0.6,0,0.9c0.3,1-0.1,2,0.2,2.9c0,0.1,0,0.3,0,0.4c0.2,0.4,0,0.9,0.2,1.3c0,0.4,0,0.8,0.1,1.1
		C202.2,294.6,202.2,295,202,295.3z"/>
	<path class="st25" d="M185.6,314.1c-0.1,0-0.3,0-0.4-0.1c-0.3-0.3-0.5-0.6-0.8-0.9C185.1,313.1,185.4,313.6,185.6,314.1z"/>
	<path class="st20" d="M194.3,321.3c0,0.2,0,0.4,0,0.5c-0.3-0.3-0.5-0.8-1-1c0-0.1,0-0.2,0-0.3C193.8,320.6,194.1,320.9,194.3,321.3
		z"/>
	<path class="st26" d="M201.5,287.6c-0.3-1-0.2-2-0.2-2.9c0-2.8,0.3-5.5-0.2-8.3c-0.1-0.8,0.2-1.6,0.2-2.4c0.2-2.7,0.3-5.4,0.5-8.1
		c0.4-5.3,0.7-10.7,0.7-16v0c0.3-1.7,0-3.5,0.1-5.2c0-0.8-0.1-1.7,0.1-2.5c0.3-3.5,0.1-7.1,0.3-10.7c0.4-7.2,0.1-14.4,0.2-21.6
		c-0.3-2.3,0-4.5-0.1-6.8c0-0.5,0.1-1-0.1-1.4c0-1.3,0-2.6,0-3.9c0.7,0.2,0.4,0.7,0.5,1.2c0.4,5.1,0.2,10.2,0.3,15.4
		c0,0.2,0,0.4,0.2,0.6c0-0.8,0.1-1.5,0-2.3c-0.1-1,0.2-1.4,1.3-1.4c1.7,0.1,3.5,0,5.2,0c0.8,0,1.3-0.2,1.2-1.1
		c-0.1-0.9,0.5-0.8,1.1-0.8c3.6,0,7.2,0,10.8,0c1,0,1.7,0,1.6-1.3c-0.1-0.8,0.6-0.6,1-0.6c3,0,6.1,0,9.1,0c0.9,0,1.5-0.2,1.4-1.2
		c-0.1-0.8,0.6-0.7,1.1-0.7c3,0,6,0,9,0c1,0,1.6-0.1,1.5-1.3c-0.1-0.8,0.5-0.6,1-0.6c3,0,6.1,0,9.1,0c0.9,0,1.5-0.1,1.4-1.2
		c-0.1-0.8,0.6-0.7,1.1-0.7c3,0,5.9,0,8.9,0c1.7,0,1.7,0,2.1-1.6c0,0.6,0.1,1.3,0,1.9c-0.1,0.6-0.2,1.6-0.1,1.9
		c0.5,1.3-0.2,2.6,0.1,3.9c0.2,0.6-0.4,1.1,0,1.7c0,3-0.5,6-0.9,9c-0.1,0.5-0.1,1-0.2,1.5c-0.6,3.5-1.3,7.1-1.9,10.6
		c-0.5,1.9-0.9,3.9-1.4,5.8c-0.3,0.6-0.5,1.2-0.5,1.9c-1.3,4-2.6,8-3.9,12c-1,2.4-1.9,4.8-2.9,7.2c-0.4,0.3-0.4,0.8-0.5,1.2
		c-0.8,1.3-1.4,2.7-1.9,4.1c-0.7,1.2-1.4,2.5-1.9,3.9c-1.3,2-2.3,4.1-3.4,6.3c-1.4,2.3-2.9,4.6-4.3,6.9c-0.5,0.8-1,1.5-1.5,2.3
		c-0.6,0.8-1.2,1.6-1.9,2.4c-0.6,0.4-1.5,0-2,0.7c0,0-0.2,0-0.3-0.1c-1-1-2.3-0.8-3.5-0.9c-5.5-0.1-11.1,0-16.6-0.1
		c-1.1,0-1.6,0.4-1.6,1.6c0,2.5,0.3,2.3-2.3,2.3c-5.1,0-10.1,0-15.2,0c-1.1,0-2,0-2-1.5C201.6,287.1,201.5,287.4,201.5,287.6z"/>
	<path class="st3" d="M203,201.8c0.4,0.4,0.2,0.8,0.2,1.2c0,2.3,0,4.6,0,6.9c-0.4-0.4-0.2-0.8-0.2-1.2
		C203,206.5,203,204.1,203,201.8z"/>
	<path class="st22" d="M202.8,242.3c0,2.2,0,4.3,0,6.5c0,0.4,0.2,0.9-0.2,1.2c0-2.2,0-4.3,0-6.5
		C202.5,243.1,202.4,242.6,202.8,242.3z"/>
	<path class="st22" d="M202.1,242.3c0-0.5,0-1.1,0-1.6C202.2,241.2,202.4,241.8,202.1,242.3z"/>
	<path class="st0" d="M203.4,169.1c0,1.9,0,3.7,0,5.6c-0.1,0-0.2,0-0.4,0C203,172.8,202.8,170.9,203.4,169.1z"/>
	<path class="st7" d="M165.2,293.3c-0.6-0.6-1.2-1.3-1.7-1.9c-0.5-0.7-1.1-1.5-1.6-2.2c0.2,0,0.2-0.6,0.5-0.1
		c0.4,0.8,1.2,0.7,1.9,0.8c1.6,0.2,1.7,0.3,1.7,1.8c0,1.5,0,1.5,1.4,2.1c-0.4,0.5-0.8,0.9-1.2,0
		C165.9,293.5,165.6,293.3,165.2,293.3z"/>
	<path class="st7" d="M167.3,289.6c0,0.5,0,0.8-0.5,0.8c-0.4,0-1.5-1.1-1.4-1.4c0-0.5,0.4-0.5,0.7-0.4
		C166.9,288.5,167.2,289,167.3,289.6z"/>
	<path class="st1" d="M131.4,161.4c1-0.4,0.4-1.7,1.3-2.3c-0.6,1.2,0.4,2.8-1.3,3.5c-0.2-0.3-0.1-0.7-0.1-1.1
		C131.3,161.5,131.4,161.4,131.4,161.4z"/>
	<path class="st7" d="M129.8,177.8c0-0.9,0-2.5,0-4.1C130.5,175.3,129.5,176.9,129.8,177.8z"/>
	<path class="st7" d="M129.8,180.6c-0.2-0.1-0.7,0.2-0.7-0.3c0.1-0.5,0.5-0.9,1-1c0.4-0.1,0.5,0.3,0.5,0.7
		C130.7,180.6,130.4,180.7,129.8,180.6z"/>
	<path class="st1" d="M131.6,157.5c0.1,0,0.1-0.1,0.2,0c0.1,1.3-0.5,2.6-0.4,3.9l0,0c-0.1,0.1-0.1,0.1-0.2,0l0-0.1
		C131.1,160,131.6,158.8,131.6,157.5z"/>
	<path class="st1" d="M181.8,308.3c0.1,0,0.2,0,0.4,0c0.3,0,0.6,0.1,0.6,0.4c0,0.1,0,0.3-0.1,0.3c-0.4,0.2-0.5-0.2-0.7-0.3
		C181.9,308.6,181.8,308.4,181.8,308.3L181.8,308.3z"/>
	<path class="st7" d="M130,170.8c-0.1-0.5-0.3-1.1,0.2-1.3c0.5-0.2,0.5,0.3,0.2,0.5C130.2,170.2,130.3,170.6,130,170.8z"/>
	<path class="st1" d="M132.1,156.1c0-0.8,0.2-1.5,0.5-2.3C132.6,154.6,132.8,155.4,132.1,156.1z"/>
	<path class="st1" d="M175,304c-0.7-0.3-1.1-0.9-1.5-1.5C174.2,302.8,174.7,303.3,175,304z"/>
	<path class="st1" d="M133.8,151c0.4,0.5,0.2,1,0.1,1.4C133.9,152,133.4,151.6,133.8,151z"/>
	<path class="st1" d="M181.8,308.3c-0.4,0-0.8,0.1-1.1-0.4C181.2,307.8,181.6,307.6,181.8,308.3L181.8,308.3z"/>
	<path class="st1" d="M133.1,151.5c0-0.6,0.1-1.2,0.5-1.7C133.6,150.4,133.5,151,133.1,151.5z"/>
	<path class="st7" d="M129.9,172.6c-0.2-0.4-0.2-0.7,0-1.1C129.9,171.9,129.9,172.3,129.9,172.6z"/>
	<path class="st1" d="M174.8,302.2c0.2,0,0.3,0,0.2,0.2c-0.1,0.2-0.2,0.3-0.3,0.4c-0.1-0.1-0.2-0.2-0.2-0.2
		C174.4,302.3,174.6,302.3,174.8,302.2z"/>
	<path class="st7" d="M130.4,176.3c0,0.4,0,0.8,0,1.5C130.2,177.1,130.2,176.7,130.4,176.3z"/>
	<path class="st7" d="M162.5,288.5c0.2,0.1,0.5,0.2,0.6,0.5C162.6,289.3,162.6,288.8,162.5,288.5L162.5,288.5z"/>
	<path class="st7" d="M131.2,161.4c0.1,0,0.1,0,0.2,0c0,0.4,0,0.8,0,1.2C130.9,162.3,131.3,161.8,131.2,161.4z"/>
	<path class="st1" d="M131.8,157.5c0-0.4,0-0.9,0.3-1.3C132.1,156.7,132.3,157.2,131.8,157.5z"/>
	<path class="st7" d="M129.4,176.7c-0.2-0.4-0.2-0.6-0.1-0.9C129.6,176,129.5,176.3,129.4,176.7z"/>
	<path class="st7" d="M130.6,174.3c0.2,0.3,0.1,0.5,0,0.8C130.4,174.8,130.4,174.6,130.6,174.3z"/>
	<path class="st7" d="M130.4,168.6c-0.2-0.2-0.2-0.5-0.1-0.7C130.6,168.1,130.4,168.3,130.4,168.6z"/>
	<path class="st0" d="M212.9,84.8c-1.3,0-2.6,0-3.9,0c-1.2,0-0.9-0.8-1-1.5c-0.1-0.8,0.4-1,1-0.9c2.5,0.4,5,0.2,7.6,0.2
		c0.8,0,1.3,0.3,1.3,1.1c0,0.8-0.5,1.1-1.3,1.1C215.4,84.8,214.1,84.8,212.9,84.8z"/>
	<path class="st0" d="M237,92c-0.3,0.3-0.5,0.6-1,0.1c-0.6-0.6-1.5-1-1.8-1.9c-0.3-0.6-0.9-1-0.9,0.8c-0.4-1-0.6-1.6,0-1.8
		c0.7-0.3,1.7,0.2,1.8,0.6C235.2,91.1,236.2,91.4,237,92C237,92,237,92,237,92z"/>
	<path class="st0" d="M228.7,87c0.6,0.3,1.1,0,1.2,0.6c0.1,0.3-0.1,0.5-0.4,0.5C228.9,88.2,229,87.6,228.7,87z"/>
	<path class="st0" d="M233.5,91.7c0.1-0.2,0.2-0.2,0.4-0.2c0.1,0,0.4,0,0.3,0.3c0,0.2-0.2,0.2-0.4,0.2C233.7,92,233.5,92,233.5,91.7
		z"/>
	<path class="st0" d="M229.2,83.8c-0.2-0.7-0.2-1.1,0-1.6C229.3,82.8,229.3,83.2,229.2,83.8z"/>
	<path class="st0" d="M229.8,83.2c0,0.1,0.1,0.2,0.1,0.3c0,0.1-0.1,0.2-0.2,0.2c-0.1,0-0.1-0.1-0.1-0.2
		C229.6,83.3,229.6,83.2,229.8,83.2z"/>
	<path class="st14" d="M198.9,348.2c0-1.1,0-2.2,0-3.4c0.6-0.8,0.8-1.7,0.7-2.7c-0.1-1.6,0.6-2.8,1.6-3.9c0.8-0.8,0.8-1.8,0.9-2.8
		c0.2-1.2,0-2.5,1.2-3.3c0.4-2.1,1.8-3.9,2.2-6c0.1-0.5,0-1,0-1.4c0-0.7,0.2-1.3,0.6-2c0.6-0.9,1.1-2,0.7-3.2
		c-0.1-0.5-0.5-0.9,0-1.3c0.5-0.4,0.9,0,1.4,0.3c-0.1-0.7-0.3-1.2-0.4-1.7c0-0.2-0.1-0.5,0.1-0.7c0.2-0.2,0.5,0,0.6,0.1
		c0.3,0.2,0.7,0.4,1.1,0.5c1,0.4,1.6,1.6,2.8,1.5c-0.2,0.4-0.5,0.7-1,0.7c0,0-0.1-0.1-0.1-0.1c-1.1,0.2-1.3-0.6-1.5-1.6
		c-0.4,0.8-0.4,1.4,0,2c0.4,0.5,0.6,0,1,0c-0.5,0.8-0.6,1.7-1.8,1.8c-0.3,0-0.4,0.3-0.4,0.5c0.1,1.1-0.4,2.2-0.5,3.3c0,0,0,0,0,0
		c-0.3,0.4,0,0.8-0.2,1.2c0,0,0,0,0,0c-0.7,0.5-1,1.1-1,2c0.1,2.2-0.8,4.2-1.6,6.2c-0.3,0.7-0.5,1.6-0.6,2.2
		c-0.3,1.8-1.5,3.3-1.7,5.1c-0.1,0.7-0.8,1.1-1,1.9c-0.3,1-0.3,2-0.3,3c0,0.6,0.2,1.2-0.7,1.4c-0.3,0-0.3,0.4-0.3,0.6
		c0,0.6,0.1,1.2-0.8,1.4c-0.1,0-0.2,0.3-0.2,0.5c0,1.2-0.9,2.1-1,3.2c0-0.6,0-1.3,0-1.9C198.8,350.8,199.3,349.5,198.9,348.2z"/>
	<path class="st27" d="M209.8,316.9c-0.7,0.4-1.2-0.1-1.7-0.5c0.2,0.7,0.4,1.4,0.6,2.1c0.1,0.3,0.2,0.7-0.3,0.8
		c-0.3,0.1-0.6,0-0.6-0.4c-0.1-0.5-0.4-0.7-0.8-0.4c-0.4,0.3-0.3,0.6,0.1,0.9c0.8,0.5,0.1,1.2,0,1.7c-0.1,0.5-0.4,1-0.4,1.6
		c0,0.2-0.1,0.5-0.2,0.5c-1.2,0.1-0.8,1-0.7,1.6c0.2,1.3,0,2.8-0.6,3.7c-1,1.3-0.7,3.1-1.6,3.9c-1.8,1.6-0.7,3.8-1.6,5.5
		c-0.1,0.2,0,0.5-0.2,0.6c-1.7,0.9-1.9,2.3-1.9,4c0,0.7,0.1,1.9-1,2.3c0-0.2,0-0.3,0-0.5c0.5-0.6,0.1-1.3,0.5-1.8
		c-0.2-0.4-0.9,0.7-0.7-0.4c0.1-0.6-0.1-1.2-0.5-1.7c-0.1-0.4,0.1-0.9-0.2-1.2c0-0.6,0-1.1,0-1.7c0.2-0.1,0.4,0.1,0.5-0.2
		c0.4-1.7,1.6-3.3,1.4-5.2c-0.1-0.7,0.1-1.3,0.7-1.8c0.7-0.5,0.8-1.5,1.1-2.2c0.6-1.4,1.1-2.9,1.4-4.4c0.4-1.5,1.2-2.8,1.5-4.3
		c0.4-1.9,1.4-3.6,1.2-5.6c0-0.6,0.3-0.8,1-0.5c0.8,0.4,0.9,1.3,1.6,1.8C208.8,315.8,209.3,316.4,209.8,316.9z"/>
	<path class="st15" d="M208.3,315.3c-0.1,0-0.3,0.1-0.3,0.1c-0.3-0.9-1.1-1.3-1.9-1.8c-0.2,0.7,0.1,1.3,0,2
		c-0.5,2.5-1.4,4.9-2.2,7.2c-0.7,1.9-1,4-2,5.8c-0.4,0.8,0,2.3-1.6,2.5c-0.3,0-0.2,0.5-0.2,0.8c0.3,1.8-0.6,3.3-1.1,4.9
		c-0.2,0.6-0.3,1.2-0.5,1.8c-0.5-0.1-0.2-0.7-0.6-0.8c0,0,0,0,0,0c-0.2-0.3-0.1-0.7-0.1-1c0-0.7,0.4-1.4-0.4-1.9
		c-0.1-0.5-0.3-0.9-0.2-1.4c0.2,0,0.4,0.6,0.5,0c0.1-0.8,0.5-1.6,0.4-2.3c-0.1-1.2,0.2-2.5,0.7-3.3c0.5-0.8,0.3-2.2,1.7-2.5
		c0.3-0.1,0.3-0.3,0.4-0.5c0.5-1.8,1.2-3.6,1.6-5.5c0.2-0.9,0.7-1.8,0.6-2.8c0-0.2,0-0.5,0.1-0.6c1.6-0.8,1.4-2.4,1.6-3.8
		c0.1-0.6,0.6-1,0.5-1.7c0.6,0,0.3,0.8,0.7,0.9l0,0c0.3,0.7,0.3,1.5,1,1.9C207.4,313.8,207.9,314.4,208.3,315.3z"/>
	<path class="st23" d="M203.5,305.9c0-0.1,0-0.2,0-0.2c-0.2-0.3-0.1-0.6-0.1-0.9c0-0.2-0.2,0,0,0c0,0,0,0,0,0.1c0,0.2,0,0.5-0.2,0.5
		c-0.3,0.1-0.4-0.2-0.4-0.4c-0.2-1.1,0.1-2.2,0.2-3.3c0,0,0.1-0.1,0.1-0.1c0.5,1.9,1,3.9,1.4,5.8c-0.1,0-0.2,0-0.3,0
		c-0.1-0.1-0.1-0.1-0.1-0.2c0-0.1,0-0.1,0.1-0.1c-0.1-0.2-0.2-0.5-0.2-0.7C203.7,306.2,204,305.7,203.5,305.9z"/>
	<path class="st26" d="M203.4,298.9c-0.8-1.7-0.4-3,0.2-4.4C203.6,295.9,203.5,297.2,203.4,298.9z"/>
	<path class="st26" d="M240.7,286.6c-0.2-0.6-0.4-1,0.1-1.4c0.2-0.1,0.5-0.1,0.6,0.2C241.7,286,241.2,286.2,240.7,286.6z"/>
	<path class="st20" d="M205.9,311.1c-0.7,0-0.3-0.8-0.7-0.9c-0.3-0.5-0.2-1-0.2-1.5C205.4,309.5,205.8,310.3,205.9,311.1z"/>
	<path class="st26" d="M237.7,289c0-0.3,0.1-0.4,0.4-0.5c0.4,0,0.5,0.2,0.5,0.5c0,0.3-0.2,0.4-0.5,0.4
		C237.9,289.4,237.7,289.3,237.7,289z"/>
	<path class="st10" d="M206.9,313.1c-1.1-0.2-1-1.1-1-1.9C206.3,311.7,206.7,312.3,206.9,313.1z"/>
	<path class="st26" d="M203.4,292.4c-0.2,0.5-0.4,0.8-0.6,1.1C202.6,293,202.3,292.4,203.4,292.4z"/>
	<path class="st26" d="M201.8,291.5c-0.3-1-0.2-2-0.2-2.9C202.1,289.5,201.7,290.5,201.8,291.5z"/>
	<path class="st26" d="M233.3,292.9c0,0.2,0,0.3-0.2,0.3c-0.2,0-0.2-0.2-0.2-0.3c0-0.2,0-0.3,0.2-0.3
		C233.3,292.5,233.3,292.7,233.3,292.9z"/>
	<path class="st26" d="M202,295.3c0-0.3,0-0.6,0-0.9c0.4,0.5,0.1,1.2,0.2,1.7C202.2,295.8,202.1,295.5,202,295.3z"/>
	<path class="st20" d="M205,308.7c-0.4-0.4-0.5-0.9-0.5-1.5C204.8,307.7,205,308.2,205,308.7z"/>
	<path class="st28" d="M217.4,314.7c0,0.1,0,0.2,0,0.3c-0.3,0.1-0.5,0.5-1,0.5C216.7,315.1,217,314.8,217.4,314.7z"/>
	<path class="st26" d="M202,293.2c-0.2-0.4-0.2-0.8-0.2-1.3C202.2,292.3,202,292.7,202,293.2z"/>
	<path class="st29" d="M135,239.7c-0.3-0.4-0.5-0.8-0.4-1.3C134.9,238.8,135.1,239.2,135,239.7z"/>
	<path class="st21" d="M186.6,64.6c0,0.4-0.3,0.4-0.6,0.4c-0.2,0-0.3-0.2-0.2-0.3c0.1-0.3,0.3-0.5,0.6-0.5
		C186.6,64.2,186.6,64.4,186.6,64.6z"/>
	<path class="st20" d="M203,301.6c0.2,1.2-0.3,2.4,0.1,3.5c0.4-0.2,0-0.6,0.4-1.1c0,0.6,0,1.1,0,1.6c-0.9,0.5-0.6,1.4-0.4,1.9
		c0.4,0.7,0.3,1.5,0.4,2.2c0,0.3,0,0.6,0.1,0.8c0.2,0.4,0.7,0.8-0.1,1.1c-0.7,0.2-1.1-0.1-1.1-0.8c0-0.1-0.1-0.1-0.2-0.3
		c-0.4,0.4-0.1,0.9-0.1,1.3c0.1,0.7,0.4,1.6-0.8,1.8c-0.3,0-0.3,0.3-0.4,0.5c-0.4,1.2-0.5,2.5-1.3,3.5c-0.3,0.4-0.3,1.1-0.4,1.7
		c-0.4,1.8-1.5,3.3-1.5,5.2c0,1-0.6,1.9-0.7,3c0,0.6-0.6,0.4-0.9,0.5c-0.2-0.3-0.3-0.6-0.5-1c0-0.5-0.1-1-0.5-1.4
		c-0.2-0.8-0.3-1.6-0.5-2.4c0.3-1,0.7-2,1-3c0.3,0,0.4,0.2,0.3,0.4c-0.5,1-0.3,2.2-0.8,3.2c-0.1,0.1-0.2,0.6,0.3,0.6
		c0.3,0,0.8,0.1,0.6-0.4c-0.3-0.7,0.4-1.4,0.1-2.1c-0.2-0.4,0.3-0.6,0.5-0.9c0.5-0.7,0.9-1.3-0.2-1.8c-0.5-0.2-0.4-0.7-0.3-1
		c0.2-0.5,0.4,0,0.6,0.1c0.4,0.1,0.8,0,0.7-0.5c-0.3-1.1,0.7-2.1,0.3-3.2c-0.1-0.2,0.1-0.5,0.3-0.6c0.9-1,1.1-2.3,1.6-3.5
		c0.6-1.4,1.1-2.7,1.3-4.2c0-0.2,0.3-0.4,0.5-0.4c0.2,0,0.3,0.2,0.3,0.4c0,0.3-0.1,0.6,0.2,0.9c0.5-0.4,0.4-1.1,0.3-1.5
		C202.3,304.3,202.6,302.9,203,301.6z"/>
	<path class="st15" d="M197.9,330.6c-0.2-0.4-0.2-0.9-0.1-1.5C198.1,329.7,197.8,330.2,197.9,330.6z"/>
	<path class="st20" d="M203.5,305.9c0.6-0.3,0.5,0.2,0.5,0.5C203.6,306.3,203.5,306.2,203.5,305.9z"/>
	<path class="st20" d="M204.2,307.1c0,0.1,0,0.2,0,0.2c0,0.2,0,0.5,0,0.7C204,307.7,203.8,307.4,204.2,307.1z"/>
	<path class="st2" d="M153.8,100.7c-0.6,0.8-1.4,1.3-2.2,1.9c0.3-0.8,0.7-1.6,1.2-2.2c0,0.2,0,0.4,0.1,0.6c0.5-0.1,0.4-0.7,0.9-0.7
		C153.8,100.2,153.8,100.5,153.8,100.7z"/>
	<path class="st9" d="M198.9,348.2c0.5,1.3,0.1,2.6,0.2,3.9C198.6,350.8,199,349.5,198.9,348.2z"/>
	<path class="st27" d="M197.5,334.8c0.9,0.1,0.8,0.8,0.7,1.4c0,0.5-0.1,1-0.2,1.5C197.6,336.7,197.5,335.7,197.5,334.8z"/>
	<path class="st9" d="M208.3,326.3c0.1-0.4-0.2-0.9,0.2-1.2C208.5,325.5,208.7,326,208.3,326.3z"/>
	<path class="st1" d="M198.9,279.3c0.2-0.6,0.3-1.1,0.2-1.7c0-0.3,0.1-0.6,0.5-0.5c0.4,0,0.5,0.3,0.5,0.6c-0.2,1-0.7,2-0.5,3.1
		c0,0.2-0.2,0.1-0.2,0.1c-0.2,0-0.5-0.1-0.4-0.3C199.1,280.1,199.1,279.7,198.9,279.3z"/>
	<path class="st2" d="M153.9,100.6c0.7,0.6,0.8,2.2,0.3,2.7c-0.2,0.2-0.4,0.2-0.5,0.1c-0.1,0-0.1-0.2-0.1-0.3
		C154.2,102.4,153.5,101.5,153.9,100.6z"/>
	<path class="st1" d="M200.6,281.4c0,0.5,0,0.9,0,1.4c-0.1-0.8-0.9-1.1-1-1.9C200.1,280.8,200.5,280.7,200.6,281.4z"/>
	<path class="st20" d="M198.1,313.1c-0.1,0.6-0.5,1-0.5,1.6c0,0.2,0.1,0.7-0.2,0.6c-0.2-0.1-0.4-0.3-0.7-0.1c0-0.3,0-0.6,0.3-0.7
		C197.7,314.3,197.3,313.4,198.1,313.1z"/>
	<path class="st23" d="M199.8,295.5c0,0.5,0,0.9,0,1.4c0,0-0.1,0-0.1,0c0-0.4,0-0.9,0-1.3C199.7,295.6,199.8,295.5,199.8,295.5z"/>
	<path class="st15" d="M206.6,315.6c0.2,0,0.2,0.2,0.3,0.3c0,0.2,0,0.3-0.2,0.4c-0.2,0-0.2-0.2-0.3-0.3
		C206.4,315.9,206.4,315.7,206.6,315.6z"/>
</g>
</svg>
