<?xml version="1.0" encoding="utf-8"?>
<!-- Generator: Adobe Illustrator 24.1.1, SVG Export Plug-In . SVG Version: 6.00 Build 0)  -->
<svg version="1.1" id="GraphQL_Logo" xmlns="http://www.w3.org/2000/svg" xmlns:xlink="http://www.w3.org/1999/xlink" x="0px"
	 y="0px" viewBox="0 0 400 400" style="enable-background:new 0 0 400 400;" xml:space="preserve">
<style type="text/css">
	.st0{fill:#6CC9F1;}
	.st1{fill:#007EFE;}
	.st2{fill:#007FFE;}
</style>
<g>
	<path class="st1" d="M262.9,148.4c0,21.6-0.1,43.3,0.1,64.9c0,4.8-1.8,7.9-6,10.2c-14.6,8.2-29,16.6-43.5,25
		c-6.9,4-6.9,11.3-0.1,15.2c7.9,4.5,15.9,9,23.8,13.6c3.3,1.9,6.4,2,9.7,0.1c17.7-10.2,35.5-20.4,53.3-30.5c3.2-1.8,4.7-4.5,4.7-8.2
		c0-14.9,0.1-29.7,0-44.6c0-4.6,1.7-7.7,5.8-9.9c7.8-4.2,15.4-8.8,23.2-13.2c6.7-3.8,13.1-0.1,13.1,7.6c0,27.9,0,55.8,0,83.8
		c0,3.9-1.5,6.7-4.9,8.6c-31.7,18.2-63.4,36.3-95,54.5c-3.3,1.9-6.4,1.9-9.7,0c-24.8-14.2-49.5-28.3-74.3-42.5
		c-3.3-1.9-4.9-4.6-4.9-8.4c0-13.6,0-27.3,0-40.9c0-1.7,1-2.2,2.2-2.9c19.4-11.1,38.7-22.3,58.2-33.3c1.8-1,2.4-2.1,2.4-4.2
		c0-13,0.1-26,0.1-38.9c0-6.3-4.4-10.1-10-9c-1.2,0.3-2.3,0.9-3.3,1.5c-14.5,8.3-29,16.6-43.4,25.1c-4.1,2.4-7.7,2.5-11.9,0.1
		c-14.5-8.6-29.2-16.9-43.9-25.3c-2.5-1.5-5.1-2.1-7.9-1.1c-3.4,1.3-5.3,4.3-5.3,8.5c0,15.7,0,31.3,0,47c0,9.3,0,18.6,0,27.9
		c0,7.5-6.3,11.2-12.8,7.5c-8.2-4.6-16.4-9.4-24.6-14.1c-3.1-1.8-4.7-4.4-4.7-8c0.1-44,0.1-88,0.2-132c0-5.3,2.2-8.3,6.4-9.4
		c2.5-0.6,4.6,0.2,6.7,1.4C86.7,86.4,107,98,127.3,109.7c8.4,4.8,16.9,9.5,25.2,14.5c3.9,2.3,7.3,2.2,11.2,0
		c28.5-16.5,57.1-32.8,85.7-49.3c2-1.2,4.1-2.1,6.5-1.8c4.1,0.6,6.9,3.8,7,8.2c0.1,5.1,0,10.1,0,15.2
		C262.9,113.8,262.9,131.1,262.9,148.4z"/>
	<path class="st2" d="M306.2,111.3c0-4.8,0.1-9.6,0-14.4c-0.1-3.5,1.4-6.1,4.4-7.9c7.8-4.7,15.6-9.4,23.5-14.1
		c6.2-3.7,12.8,0,12.9,7.2c0,9.6,0,19.3,0,28.9c0,3.4-1.4,5.9-4.3,7.7c-7.9,4.7-15.8,9.5-23.7,14.2c-6.2,3.6-12.6,0-12.7-7.1
		C306.1,120.9,306.2,116.1,306.2,111.3z"/>
</g>
</svg>
