<?xml version="1.0" encoding="utf-8"?>
<!-- Generator: Adobe Illustrator 24.1.1, SVG Export Plug-In . SVG Version: 6.00 Build 0)  -->
<svg version="1.1" id="GraphQL_Logo" xmlns="http://www.w3.org/2000/svg" xmlns:xlink="http://www.w3.org/1999/xlink" x="0px"
	 y="0px" viewBox="0 0 400 400" style="enable-background:new 0 0 400 400;" xml:space="preserve">
<style type="text/css">
	.st0{fill:#00618A;}
	.st1{fill:#E48E00;}
	.st2{fill:#E48E01;}
	.st3{fill:#01628B;}
	.st4{fill:#227296;}
	.st5{fill:#FFFFFF;}
	.st6{fill:#FFFFFE;}
	.st7{fill:#E48F03;}
	.st8{fill:#FEFEFC;}
</style>
<g>
	<path class="st0" d="M74.6,243.9c0.6-1.2,1-2.2,1.4-3.2c4.8-10.8,9.6-21.5,14.4-32.3c0.4-0.8,0.7-1.6,1.2-2.4
		c1.7-2.7,4.2-4.2,7.4-4.5c2.9-0.3,5.8,0.2,8.5,1.2c2.6,0.9,4,2.9,4.1,5.6c0,0.7,0.1,1.4,0.1,2.1c0,13.2,0,26.3,0,39.5
		c0,0.3,0,0.6,0,0.8c0.1,0.6-0.1,0.9-0.9,0.9c-3,0-6,0-9,0c-0.6,0-0.9-0.2-0.8-0.8c0-0.4,0-0.7,0-1.1c0-12.7,0-25.4,0-38.1
		c0-0.5,0.1-1-0.1-1.6c-0.5,0.5-0.6,1-0.8,1.4C95.2,223,90,234.5,84.9,245.9c-0.3,0.8-0.7,1.5-1.1,2.3c-1.2,2.1-3,3.4-5.4,3.9
		c-2.4,0.5-4.7,0.5-7.1-0.1c-2.3-0.5-4-1.8-5.2-3.8c-0.5-0.8-0.8-1.6-1.2-2.4c-5.1-11.4-10.3-22.9-15.4-34.3
		c-0.2-0.4-0.3-0.9-0.9-1.5c0,0.7,0,1.2,0,1.7c0,12.7,0,25.4,0,38.1c0,0.3,0,0.6,0,0.8c0,1.1,0,1.1-1.1,1.1c-2.8,0-5.6,0-8.4,0
		c-1.1,0-1.1,0-1.1-1.2c0-6.5,0-12.9,0-19.4c0-7,0-14,0-21.1c0-1,0-2.1,0.3-3.1c0.4-1.7,1.3-3,2.9-3.8c3.4-1.6,7-2.2,10.7-1.5
		c3.5,0.6,5.8,2.8,7.2,6c2.2,5.2,4.5,10.4,6.7,15.6c2.8,6.4,5.5,12.8,8.3,19.2C74.2,242.9,74.4,243.3,74.6,243.9z"/>
	<path class="st1" d="M281,249.6c3.5,3.1,6.8,6.1,10.1,9.1c-0.3,0.5-0.6,0.3-0.9,0.3c-3.4,0-6.7,0-10.1,0c-0.8,0-1.3-0.3-1.9-0.8
		c-2.3-2.1-4.6-4.1-6.9-6.2c-0.6-0.5-1.1-0.7-1.9-0.6c-6.3,0.7-12.7,0.5-19.1,0.5c-3,0-5.9-0.7-8.7-1.8c-5.2-2.1-7.4-5.4-7.5-11
		c0-3.8,0-7.6,0-11.4c0-4.3,0-8.5,0-12.8c0-1.1,0.1-2.2,0.3-3.3c0.6-2.6,2.2-4.6,4.4-6.1c2.6-1.7,5.6-2.4,8.6-2.8
		c1.4-0.2,2.9-0.3,4.3-0.3c6.2,0,12.5,0,18.7,0c3.1,0,6.1,0.6,9.1,1.6c1.2,0.4,2.3,1,3.4,1.7c2.7,1.9,4.2,4.4,4.3,7.7
		c0.1,2.2,0,4.4,0,6.6c0,6.2,0,12.4,0,18.7c0,0.9,0,1.9-0.1,2.8c-0.3,3.2-1.7,5.6-4.5,7.1C282.1,249,281.6,249.2,281,249.6z"/>
	<path class="st0" d="M291.3,193c-2.6-2.7-5.7-4.8-8.4-7.4c-2.9-2.8-5.5-5.9-7.1-9.7c-0.5-1.2-1.2-2.3-2-3.4
		c-0.2,1.2-0.5,2.3-0.7,3.5c-0.2,1.3-0.4,2.6-0.6,3.9c-0.1,0.7-0.3,1.4-0.5,2c-1.1,2.7-4,3.8-6.6,2.5c-1.4-0.7-2.4-1.8-3.3-3
		c-2.3-3-3.7-6.5-4.4-10.2c-1.3-6.3-1.1-12.6,0.7-18.7c0.3-1.2,0.6-2.4,0.8-3.5c0.2-0.8,0.3-1.6,0.8-2.3c0.5-0.8,0.2-1.4-0.3-1.9
		c-3.5-3.5-5.3-8-6.9-12.5c-1-2.6-2-5.2-2.6-8c-0.3-1.4-1.1-2.7-1.9-3.9c-1.5-2.2-3.1-4.2-4.7-6.3c-1.2-1.5-2.2-3-2.9-4.8
		c-0.9-2.2-1-4.5,0.2-6.6c1.1-2.1,2.9-3.1,5.2-3.3c2.5-0.2,4.8,0.4,7.1,1.3c3.5,1.4,6.9,3,9.7,5.6c0.8,0.7,1.7,1.1,2.8,1.1
		c4.1,0,8.1,0.8,12,2.2c1,0.3,1.9,0.7,2.8,1.2c7.6,4.4,14.7,9.4,20.8,15.7c4.5,4.7,8.4,10,11.7,15.6c0.9,1.5,1.5,3,2.1,4.6
		c2,5.3,4.4,10.4,6.9,15.5c1,2.1,2.1,4.3,3.2,6.4c0.4,0.8,0.8,1.6,1.3,2.3c0.4,0.8,1.1,1.3,1.9,1.5c7,2.5,13.3,6.2,19,10.9
		c1,0.8,2,1.7,3.1,2.5c2.2,1.6,3.8,3.8,5.5,6c0.6,0.7,0.4,1-0.4,1.3c-2.4,0.8-4.9,1.4-7.4,1.6c-2,0.1-4,0.6-5.9,1.2
		c-1.1,0.3-2.2,0.6-3.5,0.7c0.2,0.9,0.7,1.5,1.2,2.1c1,1.1,2.2,1.9,3.5,2.6c3.2,1.8,6.2,3.8,8.9,6.3c1.2,1.2,2.4,2.4,3.5,3.7
		c0.6,0.8,1.3,1.6,2.1,2.3c1.2,1,1.8,2.3,2.4,3.8c-0.6-0.1-0.9-0.4-1.2-0.7c-3.5-3.1-7.2-5.8-11.6-7.6c-3.7-1.5-6.9-3.7-10-6.1
		c-2.5-2-4.3-4.6-5.6-7.6c-0.2-0.4-0.1-0.7,0.2-1c0.4-0.4,0.8-0.5,1.3-0.7c5.3-2.1,10.8-3,16.5-2.8c0.3,0,0.6,0,0.9,0
		c0.1-0.7-0.3-1-0.6-1.4c-0.6-0.6-1.3-1.1-2-1.5c-2.4-1.4-4.7-3-6.8-4.7c-3.5-2.7-7.5-4.3-11.7-5.6c-1.3-0.4-2.6-0.8-3.9-1.3
		c-1.5-0.5-2.6-1.4-3.4-2.8c-0.9-1.5-1.8-3-2.6-4.7c-2.6-5.5-5.1-11-7.7-16.5c-0.2-0.4-0.4-0.9-0.5-1.3c-2-6.1-5.5-11.4-9.5-16.5
		c-6.7-8.6-14.9-15.4-24.8-20.1c-2.1-1-4.3-1.9-6.6-2.3c-1.4-0.2-2.9-0.3-4.3-0.3c-1.2-0.1-2.4-0.4-3.6-0.3c-0.8,0-1.3-0.4-1.9-0.9
		c-3-2.8-6.7-4.4-10.4-6c-1-0.4-2.1-0.8-3.2-1c-2.5-0.4-3.9,1.3-3.1,3.7c0.5,1.6,1.5,3,2.5,4.4c1.2,1.6,2.4,3.2,3.7,4.8
		c2,2.7,3.5,5.6,4.5,8.8c0.8,2.6,1.7,5.2,2.5,7.7c0.6,1.8,1.5,3.5,2.4,5.2c0.8,1.4,1.7,2.7,2.9,3.8c1.6,1.4,2.1,3.1,1.5,5.2
		c-0.4,1.5-0.9,2.9-1.5,4.4c-1.8,4.6-2.1,9.4-1.8,14.2c0.3,3.7,1.1,7.2,2.7,10.6c0.4,0.8,0.7,1.5,1.2,2.2c0.5,0.6,1,1.2,1.8,1.5
		c0.9,0.4,1.1,0.3,1.3-0.7c0.4-2.5,0.6-5.1,1-7.6c0.5-2.8,1.6-5.3,3.5-7.4c0.6-0.6,1-1.3,1.6-1.9c0.6,0.2,0.7,0.6,0.8,1
		c1.5,4.9,3.9,9.4,6.4,13.9c2.5,4.5,5.3,8.7,8.4,12.8c0,0.1,0.1,0.3,0.3,0.3l0,0c0.1,0.1,0.2,0.2,0.3,0.3l0,0
		c0.1,0.1,0.2,0.2,0.3,0.3l0,0c0.1,0.1,0.2,0.2,0.3,0.3l0,0c0.1,0.1,0.2,0.2,0.3,0.3l0,0c0.1,0.1,0.2,0.2,0.2,0.3l0,0
		c0.1,0.1,0.2,0.1,0.2,0.2l0,0c0.1,0.1,0.2,0.1,0.2,0.2l0,0c0.1,0.1,0.2,0.1,0.2,0.2l0,0C291.7,192.9,291.6,193.1,291.3,193z"/>
	<path class="st0" d="M171.7,237.1c0,5.9-0.1,11.7,0,17.6c0.1,4.2-1.8,7.1-5.4,9.2c-2.9,1.6-6,2.3-9.2,2.7c-1.6,0.2-3.2,0.2-4.8,0.2
		c-9.8,0-19.6,0-29.4,0c-0.3,0-0.6,0-0.8,0c-1,0-1.1,0-1.1-1.1c0-1.6,0-3.3,0-4.9c0-1.3,0-1.2,1.3-1.2c8.6,0,17.1,0,25.7,0
		c2.1,0,4.1,0,6.2,0c1.5,0,3-0.3,4.4-0.9c1.6-0.7,2.4-2,2.4-3.8c0-0.9,0-1.8,0-2.7c0-0.5-0.2-0.8-0.8-0.7c-0.3,0-0.7,0-1,0
		c-6.8,0-13.7,0-20.5,0c-3.3,0-6.5-0.4-9.7-1.5c-1.8-0.6-3.5-1.5-5-2.7c-2.1-1.7-3.2-3.9-3.2-6.7c0.1-7.3,0-14.6,0.1-21.9
		c0-1.2,0-1.2,1.1-1.2c2.8,0,5.6,0,8.4,0c1.1,0,1.1,0,1.1,1.2c0,5.9,0,11.9,0,17.8c0,1.5,0,2.9,0,4.4c0,1.5,0.7,2.6,2,3.3
		c1,0.5,2.1,0.8,3.2,0.8c2.2,0,4.4,0.1,6.6,0.1c5.4,0,10.8,0,16.2,0c0.3,0,0.6,0,0.8,0c0.5,0,0.7-0.2,0.7-0.7c0-0.3,0-0.7,0-1
		c0-8.1,0-16.2,0-24.3c0-0.3,0-0.7,0-1c-0.1-0.7,0.4-0.7,0.9-0.7c2.1,0,4.2,0,6.3,0c0.9,0,1.9,0,2.8,0c0.5,0,0.7,0.2,0.7,0.7
		c0,0.3,0,0.7,0,1C171.7,225,171.7,231.1,171.7,237.1C171.7,237.1,171.7,237.1,171.7,237.1z"/>
	<path class="st1" d="M210.4,202.4c5.3,0,10.7,0,16,0c1.5,0,1.4-0.1,1.4,1.5c0,1.6,0,3.2,0,4.8c0,0.6-0.2,0.9-0.8,0.8
		c-0.3,0-0.7,0-1,0c-9.3,0-18.5,0-27.8,0c-1.6,0-3.2,0.1-4.7,0.5c-1.8,0.5-2.7,1.5-2.8,3.4c-0.1,1.5,0,3.1,0,4.6
		c0,3.4,1.6,5.1,4.9,5.4c0.9,0.1,1.9,0.1,2.8,0.1c3.9,0,7.9,0,11.8,0c3.5,0,7,0.5,10.3,1.9c1.7,0.7,3.4,1.7,4.7,3
		c1.4,1.4,2.2,3,2.1,5c-0.1,2.4,0,4.8,0,7.2c0,2.7-1,4.8-3,6.5c-2.3,2-5.1,3.1-8,3.8c-1.9,0.5-3.9,0.6-5.8,0.6c-9.7,0-19.5,0-29.2,0
		c-0.2,0-0.5,0-0.7,0c-0.5,0-0.7-0.2-0.7-0.7c0-1.9,0-3.8,0-5.8c0-0.5,0.2-0.7,0.7-0.7c0.4,0,0.7,0,1.1,0c9,0,18,0,27,0
		c1.5,0,3-0.1,4.4-0.5c0.9-0.3,1.6-0.7,2.3-1.3c0.8-0.8,1.3-1.7,1.3-2.9c0-1.6-0.1-3.2,0-4.8c0.2-2.3-1.4-3.7-3-4.2
		c-1.7-0.6-3.5-0.7-5.3-0.7c-3.1,0-6.3,0-9.4,0c-3.4,0-6.8-0.3-10.1-1.3c-2.1-0.7-4-1.5-5.7-2.9c-2-1.7-3.2-3.7-3.1-6.4
		c0.1-2.1,0-4.2,0-6.3c0.1-3.6,1.7-6.2,4.8-8c3.1-1.8,6.5-2.6,10.1-2.7C200.1,202.4,205.2,202.5,210.4,202.4
		C210.4,202.5,210.4,202.4,210.4,202.4z"/>
	<path class="st1" d="M304.7,221.4c0,5.5,0,11,0,16.6c0,0.2,0,0.5,0,0.7c0,3.5,1.4,5.1,4.9,5.6c1.4,0.2,2.8,0.3,4.2,0.3
		c8.6,0,17.1,0,25.7,0c0.3,0,0.6,0,0.8,0c1,0,1.1,0,1.1,1.1c0,1.6,0,3.3,0,4.9c0,1,0,1.1-1.1,1.1c-4.2,0-8.3,0-12.5,0
		c-4.7,0-9.4,0-14,0c-3.7,0-7.3-0.4-10.8-1.4c-1.7-0.5-3.3-1.3-4.8-2.3c-3-2.2-4.2-5.2-4.2-8.8c0-6.3,0-12.5,0-18.8
		c0-5.4,0-10.9,0-16.3c0-0.3,0-0.7,0-1c0-0.5,0.2-0.7,0.7-0.6c0.5,0,0.9,0,1.4,0c2.5,0,5,0,7.4,0c1.1,0,1.1,0,1.1,1.2
		C304.7,209.5,304.7,215.5,304.7,221.4z"/>
	<path class="st2" d="M346.4,244.3c0-4.4,3.5-7.8,7.8-7.8c4.4,0,8,3.6,7.9,7.9c-0.1,4.5-3.5,7.8-8,7.8
		C349.7,252.2,346.4,248.8,346.4,244.3z"/>
	<path class="st3" d="M264.1,120c2.9-1.1,4.1-0.3,5.6,1.7c1.3,1.9,0.9,3.9-1,5.5c-0.8-1.2-1.2-2.6-2-3.8
		C265.9,122.2,264.7,121.4,264.1,120z"/>
	<path class="st4" d="M291.3,193c0.1-0.1,0.2-0.2,0.3-0.3c0.7,0.5,1.3,1.1,2,1.6C292.6,194.2,291.9,193.7,291.3,193z"/>
	<path class="st4" d="M289.4,190.4c-0.2,0-0.3-0.2-0.3-0.3C289.3,190.1,289.4,190.2,289.4,190.4z"/>
	<path class="st4" d="M289.7,190.7c-0.2,0-0.2-0.1-0.3-0.3C289.6,190.4,289.7,190.5,289.7,190.7z"/>
	<path class="st4" d="M290,190.9c-0.2,0-0.2-0.1-0.3-0.3C289.9,190.7,290,190.8,290,190.9z"/>
	<path class="st4" d="M290.2,191.2c-0.1,0-0.2-0.1-0.3-0.3C290.1,191,290.2,191.1,290.2,191.2z"/>
	<path class="st4" d="M290.5,191.5c-0.1,0-0.2-0.1-0.3-0.3C290.4,191.3,290.5,191.4,290.5,191.5z"/>
	<path class="st4" d="M290.8,191.8c-0.1,0-0.2-0.1-0.2-0.3C290.7,191.6,290.8,191.6,290.8,191.8z"/>
	<path class="st4" d="M291.1,192.1c-0.1-0.1-0.2-0.2-0.2-0.2C291,191.8,291,191.9,291.1,192.1z"/>
	<path class="st4" d="M291.3,192.4c-0.1-0.1-0.2-0.2-0.2-0.2C291.2,192.1,291.3,192.2,291.3,192.4z"/>
	<path class="st4" d="M291.6,192.6c-0.1-0.1-0.2-0.2-0.2-0.2C291.5,192.4,291.6,192.5,291.6,192.6z"/>
	<path class="st5" d="M254.6,236.9c2.8,2.6,5.6,5.1,8.4,7.6c-0.3,0.4-0.7,0.3-1,0.3c-3.4-0.1-6.8,0.2-10.2-0.2
		c-0.5-0.1-1-0.2-1.5-0.3c-3-0.8-4.5-2.8-4.5-5.8c0-1.6,0-3.3,0-4.9c0-5.8,0-11.5,0-17.3c0-4.1,1.8-6.1,5.9-6.5
		c0.8-0.1,1.6-0.1,2.4-0.1c5.1,0,10.2,0,15.3,0c1.5,0,2.9,0.1,4.3,0.6c2.2,0.8,3.8,2.5,3.8,5.3c-0.1,7.8,0,15.6,0,23.5
		c0,1.8-0.6,3.2-2,4.3c-0.5,0.4-0.9,0.4-1.4,0c-2.1-1.9-4.2-3.8-6.2-5.7c-0.6-0.5-1.2-0.8-2-0.8c-3.3,0-6.6,0-10,0
		C255.4,236.7,255,236.6,254.6,236.9z"/>
	<path class="st6" d="M360.3,244.4c0,3.5-2.6,6.2-6.1,6.2c-3.5,0-6.1-2.7-6.1-6.3c0-3.5,2.7-6.2,6.2-6.1
		C357.7,238.2,360.3,240.9,360.3,244.4z"/>
	<path class="st7" d="M355.6,245c0.8,1.2,1.5,2.4,2.3,3.6c-1.5,0.3-1.5,0.3-2.2-0.7c-0.5-0.8-0.9-1.5-1.4-2.3
		c-0.2-0.4-0.5-0.7-1-0.7c-0.5,0-0.8,0.1-0.8,0.7c0,0.8,0,1.7,0,2.5c0,0.6-0.3,0.7-0.8,0.7c-0.5,0-0.8-0.2-0.8-0.7c0-2.5,0-5,0-7.6
		c0-0.4,0.2-0.7,0.7-0.7c1.3,0,2.5,0,3.8,0.1c1.6,0.2,2.3,0.9,2.5,2.2c0.1,1.4-0.4,2.1-1.9,2.7C356,244.9,355.9,244.9,355.6,245z"/>
	<path class="st8" d="M354.1,243.7c-0.4,0-0.6,0-0.8,0c-0.4,0-0.6-0.1-0.6-0.5c-0.3-1.8,0-2.1,1.8-2c0.4,0,0.7,0,1.1,0.1
		c0.5,0.1,0.8,0.5,0.8,1c0,0.6-0.2,1-0.7,1.2C355,243.8,354.5,243.7,354.1,243.7z"/>
</g>
</svg>
