<?xml version="1.0" encoding="utf-8"?>
<!-- Generator: Adobe Illustrator 24.1.1, SVG Export Plug-In . SVG Version: 6.00 Build 0)  -->
<svg version="1.1" id="GraphQL_Logo" xmlns="http://www.w3.org/2000/svg" xmlns:xlink="http://www.w3.org/1999/xlink" x="0px"
	 y="0px" viewBox="0 0 400 400" style="enable-background:new 0 0 400 400;" xml:space="preserve">
<style type="text/css">
	.st0{fill:#FFFFFF;}
</style>
<g>
	<path class="st0" d="M360.8,360.8c-107.3,0-214.5,0-321.7,0c0-107.3,0-214.5,0-321.7c107.3,0,214.5,0,321.7,0
		C360.8,146.4,360.8,253.7,360.8,360.8z M198.5,349.2c24,0,48,0.1,72,0c44.6-0.3,77-32.7,77.2-77.4c0.2-47.3,0.1-94.6,0-141.9
		c-0.1-45-32.6-77.6-77.5-77.7c-47.3-0.2-94.6-0.2-141.9,0C83.3,52.4,50.9,85,50.8,130c-0.1,47.1-0.1,94.1,0,141.2
		c0.1,45.5,32.4,77.9,77.9,78.1C152,349.3,175.3,349.2,198.5,349.2z"/>
	<path d="M198.5,349.2c-23.3,0-46.6,0.1-69.9,0c-45.5-0.2-77.8-32.6-77.9-78.1c-0.1-47.1-0.1-94.1,0-141.2
		c0.1-44.9,32.6-77.6,77.5-77.7c47.3-0.2,94.6-0.2,141.9,0c45,0.1,77.4,32.7,77.5,77.7c0.1,47.3,0.1,94.6,0,141.9
		c-0.1,44.6-32.6,77.1-77.2,77.4C246.6,349.4,222.6,349.2,198.5,349.2z M214.6,135.6c0,3.6,0,6.5,0,9.4c-0.2,26.7-0.1,53.3-0.6,80
		c-0.2,12-6.1,21.4-16.5,27.4c-22.3,12.7-59.5,3.4-58.7-33.2c0.6-25.2,0.1-50.4,0.1-75.7c0-2.6-0.2-5.1-0.4-7.8c-4.2,0-7.7,0-11.5,0
		c-0.1,2.1-0.2,3.8-0.2,5.4c0,26.9-0.2,53.8,0,80.8c0.2,27.9,20.8,47.2,50,47.2c29.2,0,49.4-19.3,49.5-47.4c0.1-26.2,0-52.4,0-78.6
		c0-2.4-0.2-4.7-0.4-7.4C222.1,135.6,218.8,135.6,214.6,135.6z M272.8,266.1c0-43.8,0-87.1,0-130.5c-4,0-7.5,0-11.2,0
		c0,43.7,0,86.9,0,130.5C265.4,266.1,268.8,266.1,272.8,266.1z"/>
	<path class="st0" d="M214.6,135.6c4.3,0,7.5,0,11.3,0c0.1,2.7,0.4,5.1,0.4,7.4c0,26.2,0.1,52.4,0,78.6
		c-0.1,28.1-20.3,47.4-49.5,47.4c-29.2,0-49.8-19.3-50-47.2c-0.2-26.9,0-53.8,0-80.8c0-1.7,0.1-3.3,0.2-5.4c3.9,0,7.3,0,11.5,0
		c0.1,2.6,0.4,5.2,0.4,7.8c0,25.2,0.5,50.5-0.1,75.7c-0.8,36.7,36.4,45.9,58.7,33.2c10.5-6,16.3-15.4,16.5-27.4
		c0.5-26.7,0.4-53.3,0.6-80C214.6,142.1,214.6,139.2,214.6,135.6z"/>
	<path class="st0" d="M272.8,266.1c-4.1,0-7.4,0-11.2,0c0-43.6,0-86.8,0-130.5c3.7,0,7.2,0,11.2,0
		C272.8,179,272.8,222.3,272.8,266.1z"/>
</g>
</svg>
