<?xml version="1.0" encoding="utf-8"?>
<!-- Generator: Adobe Illustrator 24.1.1, SVG Export Plug-In . SVG Version: 6.00 Build 0)  -->
<svg version="1.1" id="GraphQL_Logo" xmlns="http://www.w3.org/2000/svg" xmlns:xlink="http://www.w3.org/1999/xlink" x="0px"
	 y="0px" viewBox="0 0 400 400" style="enable-background:new 0 0 400 400;" xml:space="preserve">
<style type="text/css">
	.st0{fill:#E83B00;}
</style>
<path class="st0" d="M67.1,103.5c12.4-4.6,24.8-9.2,37.2-13.8c33.3-12.3,66.7-24.7,100-37c11.5-4.3,23-8.5,34.5-12.8
	c0.4-0.2,0.8-0.2,1.2,0c16.5,5.3,32.9,10.5,49.4,15.8c14.3,4.6,28.5,9.1,42.8,13.7c0.7,0.2,0.9,0.5,0.9,1.2c0,86.8,0,173.6,0,260.4
	c0,0.8-0.2,1-0.9,1.2c-30.6,9.2-61.2,18.4-91.8,27.7c-0.7,0.2-1.2,0.1-1.9-0.1c-38-13.7-75.9-27.3-113.9-41
	c-18.6-6.7-37.2-13.4-55.7-20.1c-0.2-0.1-0.3-0.1-0.5-0.2c0-0.3,0.3-0.3,0.6-0.4c2,0.1,4,0.4,6,0.7c8.2,1,16.3,2,24.5,2.9
	c7.7,0.9,15.5,1.9,23.2,2.8c11.4,1.4,22.8,2.7,34.3,4.1c7,0.8,13.9,1.7,20.9,2.5c10.7,1.3,21.4,2.6,32.1,3.9
	c7.7,0.9,15.4,1.8,23,2.8c1.8,0.2,3.7,0.5,5.5,0.7c0.7,0.1,0.8,0,0.9-0.7c0-0.2,0-0.4,0-0.6c0-74.3,0-148.7,0-223
	c0-1.7,0-1.7-1.6-1.3c-9.9,2.3-19.7,4.6-29.6,6.9c-8.3,1.9-16.7,3.9-25,5.8c-9,2.1-18,4.2-27.1,6.3c-7.5,1.7-14.9,3.5-22.4,5.2
	c-1.7,0.4-3.5,0.8-5.2,1.2c-0.7,0.2-1,0.5-0.9,1.2c0,0.3,0,0.6,0,0.9c0,49.9,0,99.8,0,149.7c0,1.5-0.4,2.2-1.8,2.8
	c-6.4,2.7-12.8,5.6-19.3,8.4c-10.5,4.6-21,9.2-31.5,13.8c-2.1,0.9-4.2,1.9-6.4,2.8c-1.2,0.5-1.3,0.5-1.3-0.8c0-64.2,0-128.5,0-192.7
	C67,104.2,67,103.8,67.1,103.5z"/>
</svg>
