<?xml version="1.0" encoding="utf-8"?>
<!-- Generator: Adobe Illustrator 24.1.1, SVG Export Plug-In . SVG Version: 6.00 Build 0)  -->
<svg version="1.1" id="GraphQL_Logo" xmlns="http://www.w3.org/2000/svg" xmlns:xlink="http://www.w3.org/1999/xlink" x="0px"
	 y="0px" viewBox="0 0 400 400" style="enable-background:new 0 0 400 400;" xml:space="preserve">
<style type="text/css">
	.st0{fill:#001E36;}
	.st1{fill:#FEFEFE;}
	.st2{fill:#31A7FE;}
</style>
<g>
	<path class="st0" d="M354.2,98.2c0,67.8,0,135.7,0,203.5c-0.6,4.7-1,9.5-3,14c-7.1,16.8-19.3,27.8-36.8,33
		c-3.9,1.2-7.9,1.3-11.9,1.3c-68.2,0.1-136.5,0.2-204.7,0c-20.1-0.1-34.7-10.2-45-27c-4.9-8.1-6.8-16.9-6.8-26.4
		c0.1-64.8,0.2-129.6-0.1-194.3c-0.1-24.2,17.8-45.7,40.4-51.6c2.6-0.7,5.4-0.4,8.1-1c70.2,0,140.5,0,210.7,0
		c3.5,0.6,7.1,0.4,10.6,1.6c19.5,6.4,31.9,19.6,37.5,39.2C353.9,93,353.7,95.7,354.2,98.2z"/>
	<path class="st1" d="M94.4,49.7c-3.1,0.8-6.1,1.5-9.2,2.3c-22.5,6.5-38.9,27.6-38.9,51c-0.1,64.5-0.2,129.1,0,193.6
		c0.1,26.9,21.4,50,48.1,52.8c2.3,0.2,4.6,0.4,7,0.4c65.8,0,131.7,0,197.5,0c26.6,0,48.1-17.3,54.1-43.1c0.4-1.7,0.2-3.5,1.2-5
		c0,15.6,0,31.3,0,46.9c0,1.4-0.3,1.7-1.7,1.7c-101.7,0-203.4,0-305,0c-1.4,0-1.7-0.3-1.7-1.7c0-99.1,0-198.2,0-297.3
		c0-1.4,0.3-1.7,1.7-1.7C63.1,49.7,78.8,49.7,94.4,49.7z"/>
	<path class="st1" d="M354.2,98.2c-0.6-2.8-1.2-5.7-1.9-8.5c-5.8-21.5-24.2-37.3-46.4-39.7c-0.3,0-0.6-0.1-0.7-0.4
		c15.8,0,31.6,0,47.4,0c1.4,0,1.7,0.3,1.7,1.7C354.2,67,354.2,82.6,354.2,98.2z"/>
	<path class="st2" d="M115.6,194.2c0-21.5,0-43-0.1-64.4c0-2.5,0.8-3.1,3.2-3.1c14.7-0.1,29.5-1.1,44.2-0.5
		c12.8,0.5,24.9,3.7,35,12.2c8.7,7.4,13.1,17,14.4,28.2c0.8,7,0.3,13.9-1.8,20.7c-4.7,15.3-15.4,24.3-30.3,28.8
		c-10.7,3.2-21.6,3.3-32.6,2.9c-4.1-0.1-4.1-0.1-4.1,3.9c0,11.9,0,23.9,0,35.8c0,2.9-0.2,3.2-3.2,3.2c-7.3,0-14.6-0.1-21.9,0
		c-2.3,0-2.9-0.8-2.9-2.9C115.6,237.4,115.6,215.8,115.6,194.2z"/>
	<path class="st2" d="M226.3,245.2c0-3.3,0-6.6,0-9.9c0-2.7,0.5-3,2.7-1.8c10.1,5.5,20.9,7.9,32.4,7.6c2.7-0.1,5.4-0.4,8-1.6
		c4.2-1.9,5-6.4,1.8-9.6c-2.1-2.2-4.9-3.4-7.6-4.5c-6.6-2.9-13.5-5.1-19.7-8.8c-6.9-4.1-12.8-9.2-15.6-16.9
		c-5-13.8,1.2-29.3,14.5-36.5c5.4-2.9,11.1-4.6,17.2-5c10.9-0.8,21.8-0.4,32.3,3c2.5,0.8,3.5,2,3.4,4.7c-0.2,6,0,12-0.1,18
		c0,3.2-1,3.8-4,2.4c-9.3-4.4-19.1-5.8-29.2-5.3c-1.8,0.1-3.5,0.4-5.2,1.1c-4.1,1.6-5.2,6.1-2.3,9.4c1.4,1.6,3.2,2.6,5.1,3.6
		c6,3.2,12.7,5,18.7,8.1c2.6,1.3,5.1,2.7,7.6,4.1c20.6,11.4,18.1,39.5,0.7,50.3c-6.1,3.8-12.8,5.8-19.9,6.5
		c-12.1,1.2-24,0.3-35.6-3.7c-0.5-0.2-1.1-0.4-1.6-0.6c-3.7-1.5-3.7-1.6-3.7-5.7C226.3,251.1,226.3,248.1,226.3,245.2z"/>
	<path class="st0" d="M143.5,173c0-6.5,0-13,0-19.5c0-0.9-0.3-2.1,1.2-2.1c9-0.1,18.1-1.2,26.9,2c8,3,12.5,9.1,12.9,17.6
		c0.6,12.9-5.7,20.2-19.6,22.9c-6.4,1.3-12.9,1-19.4,0.9c-1.7,0-2.1-0.8-2.1-2.4C143.6,186,143.5,179.5,143.5,173z"/>
</g>
</svg>
