<?xml version="1.0" encoding="utf-8"?>
<!-- Generator: Adobe Illustrator 24.1.1, SVG Export Plug-In . SVG Version: 6.00 Build 0)  -->
<svg version="1.1" id="GraphQL_Logo" xmlns="http://www.w3.org/2000/svg" xmlns:xlink="http://www.w3.org/1999/xlink" x="0px"
	 y="0px" viewBox="0 0 400 400" style="enable-background:new 0 0 400 400;" xml:space="preserve">
<style type="text/css">
	.st0{fill:#6CC9F1;}
	.st1{fill:#007AFE;}
	.st2{fill:#0070FE;}
	.st3{fill:#FEFEFE;}
	.st4{fill:#0071FE;}
	.st5{fill:#CFDFFE;}
	.st6{fill:#006FFE;}
	.st7{fill:#0072FE;}
	.st8{fill:#0075FE;}
	.st9{fill:#017AFE;}
	.st10{fill:#006DFE;}
</style>
<g>
	<path class="st1" d="M224.2,97.7c39.1,2.8,76.7,11,111.1,30.4c13.5,7.6,25.5,17,35.3,29.2c19.4,24.2,20,54.6,1,79.2
		c-16.9,21.9-39.8,35.2-65.4,43.9C229.9,306.1,154,305.6,79,275c-19.5-8-36.7-19.6-50.3-36.1c-21.2-25.8-20.8-58.7,1.2-84
		c11-12.7,24.2-22.3,39-29.9c33.5-17.2,69.4-24.9,106.7-27.3C191.8,98.7,208,98.6,224.2,97.7z"/>
	<path class="st2" d="M224.2,97.7c-16.2,2.3-32.4,2.4-48.6-0.1C191.8,96.7,208,96.7,224.2,97.7z"/>
	<path class="st3" d="M100.8,221.2c-3.5,4.2-2.6,9.5-3.7,14.4c-0.8,3.3-0.5,7-3.7,9.4c-6.3,1.4-12.5,2.6-18.6-0.7
		c5.2-28.5,10.4-57.1,15.6-85.6c13.9-2.8,28-0.5,42-1.2c2.2-0.1,4.7-0.9,6.5,1.2c9.3,2.7,16.7,7.8,20.6,17.1
		c2,5.2,1.6,10.4,0.3,15.6c-4.3,16.5-15,26.1-31.6,29.3C119.1,222.7,109.9,221.7,100.8,221.2z"/>
	<path class="st3" d="M323.3,189.3c-4,17.7-14.9,28.3-32.9,31.4c-6.9,2.1-14,0.7-21,0.8c-3.7,0-5.8,1.2-7,4.5
		c-3.1,5.9-1.2,13.1-5.2,18.7c-6.3,1.9-12.6,2.5-18.9-0.3c2.3-21.7,7.7-42.9,11.2-64.4c1.1-6.8,2.8-13.4,4.2-20.1
		c3.9-2.7,8.3-1.8,12.5-1.6c12.2,0.5,24.5-1.8,36.6,1.5c10.9,1.1,16.4,8.5,20.3,17.6C325,181.4,324.7,185.4,323.3,189.3z"/>
	<path class="st3" d="M210.5,220.5c2.6-11.8,5.1-23.6,7.9-35.3c1.3-5.6-1.3-8.6-6.1-10c-6.2-1.8-12.6-0.9-18.9-0.7
		c-3.4,0.1-3.3,3.4-3.8,5.9c-2.9,13.5-5.8,27-8.7,40.5c-6.9,1.4-13.9,2.1-20.7-0.3c6.3-29.6,12.6-59.1,19-88.7
		c0.4-1.6,1.2-3.1,1.9-4.7c6.3-1.3,12.6-1.8,18.9,0.3c-1.6,9.2-3.2,18.3-4.9,27.5c1.6,3.6,4.8,2.4,7.6,2.6
		c6.5,0.6,13.2-1.3,19.6,1.1c17.8,5.7,20.7,10.8,16.5,29.4c-2.5,11-4.9,22-7.4,32.9C224.3,222,217.3,222.8,210.5,220.5z"/>
	<path class="st4" d="M138.9,158.7c-16.2,0-32.4,0-48.5,0c1.4-2.6,3.8-2.1,6.1-2.1c12.1,0,24.2,0,36.3,0
		C135.1,156.5,137.5,156.1,138.9,158.7z"/>
	<path class="st5" d="M302.9,159.8c-16.4,0.1-32.7,0.1-49.1,0.2c-0.2-0.6-0.2-1.1,0.1-1.7c15.7-1.5,31.3-1.3,47-0.1
		C301.5,158.7,302.2,159.3,302.9,159.8z"/>
	<path class="st4" d="M300.8,158.2c-15.7,0-31.3,0-47,0.1c4.9-3.5,10.5-1.8,15.7-1.6C280,157.1,290.6,154.4,300.8,158.2z"/>
	<path class="st4" d="M222.1,158.5c-7.5,0-14.9,0-22.4-0.1c-2.3,0-5.8,1-4.7-3.6c8.8,3.6,18,0.7,26.9,1.8c0.2,0,0.5,0.3,0.5,0.5
		C222.4,157.6,222.2,158.1,222.1,158.5z"/>
	<path class="st6" d="M262.4,226.1c-0.7-4.2,1.1-5.4,5.1-5.3c7.6,0.2,15.3,0,22.9,0c-5.7,3.9-12.1,1.3-18.2,1.7
		C268.5,222.7,265,222.9,262.4,226.1z"/>
	<path class="st2" d="M100.8,221.2c9.1-0.2,18.3-0.4,27.4-0.6c0.9,3.3-1.8,2-2.9,1.9C117.1,222,108.8,224.1,100.8,221.2z"/>
	<path class="st7" d="M199.8,127.4c-6.3-0.1-12.6-0.2-18.9-0.3C187.3,124,193.6,123.9,199.8,127.4z"/>
	<path class="st4" d="M160,220.4c6.9,0.1,13.8,0.2,20.7,0.3C173.8,223.6,166.9,224.1,160,220.4z"/>
	<path class="st4" d="M210.5,220.5c6.9,0.1,13.8,0.2,20.8,0.4C224.3,223.5,217.3,224.1,210.5,220.5z"/>
	<path class="st8" d="M74.8,244.3c6.2,0.2,12.4,0.5,18.6,0.7C87,248.2,80.8,248.6,74.8,244.3z"/>
	<path class="st8" d="M238.4,244.5c6.3,0.1,12.6,0.2,18.9,0.3C250.9,248.2,244.6,248.7,238.4,244.5z"/>
	<path class="st2" d="M159.8,191.3c-0.1-5.2-0.2-10.4-0.3-15.6C163.1,180.9,162.6,186.1,159.8,191.3z"/>
	<path class="st4" d="M323.3,189.3c0-4-0.1-7.9-0.1-11.9c3.6,3.6,1.7,7.9,1.6,12c0,0.1-0.5,0.3-0.7,0.3
		C323.8,189.7,323.6,189.5,323.3,189.3z"/>
	<path class="st9" d="M102.9,203.5c1.5-8.2,3.1-16.4,4.6-24.6c0.4-1.9,0-4.4,2.9-4.5c8.1-0.1,16.3-1.3,24,2.1
		c4.4,1.9,5.1,5.9,4.9,10.2c-0.4,7.1-2.6,13.1-9.4,16.4c-2.5,1.2-5.6,1.3-8.4,1.9C115.4,203.2,109,205.6,102.9,203.5z"/>
	<path class="st10" d="M102.9,203.5c6.2,0.7,12.6-1.5,18.6,1.4C115.3,204.6,108.9,207.1,102.9,203.5z"/>
	<path class="st9" d="M266.4,201.8c0.8-4.5,1.5-9,2.5-13.5c1.1-4.8-0.5-12.5,4.6-13.5c7.9-1.6,16.7-2,24.5,2
		c4.1,2.1,5.1,6.1,4.5,10.4c-0.9,6.8-3.1,13.1-10,16c-2.8,1.2-5.9,2.5-9.2,1.8C278,202.4,271.2,207.4,266.4,201.8z"/>
	<path class="st10" d="M266.4,201.8c5.1,3.8,11.8-0.5,17,3.1c-4.6,0.1-9.3,0.2-13.9,0.3C267.1,205.3,265.5,204.7,266.4,201.8z"/>
</g>
</svg>
