<?xml version="1.0" encoding="utf-8"?>
<!-- Generator: Adobe Illustrator 24.1.1, SVG Export Plug-In . SVG Version: 6.00 Build 0)  -->
<svg version="1.1" id="GraphQL_Logo" xmlns="http://www.w3.org/2000/svg" xmlns:xlink="http://www.w3.org/1999/xlink" x="0px"
	 y="0px" viewBox="0 0 400 400" style="enable-background:new 0 0 400 400;" xml:space="preserve">
<style type="text/css">
	.st0{fill:#FEFEFE;}
	.st1{fill:#336790;}
</style>
<g>
	<path d="M344.4,237.3c-0.3,0.5-0.4,1.1-0.6,1.7c-1.3,3.8-3.6,6.8-6.5,9.4c-7.9,7.2-17,12.1-27.4,14.5c-6.6,1.5-13.3,2.3-20.1,2.3
		c-1.5,0-3,0-4.4-0.2c-0.6-0.1-0.9,0.1-0.9,0.7c-0.2,2.1-0.4,4.1-0.5,6.2c-0.3,8.4-0.9,16.9-2.2,25.2c-1.3,8.1-3.2,16.1-6.7,23.6
		c-4.4,9.5-10.9,16.9-20.4,21.6c-5,2.5-10.4,4-15.8,5.2c-4.3,1-8.6,1.6-13,1.4c-6.8-0.2-13-2.1-18.5-6.2c-4.5-3.4-7.9-7.8-10.1-13
		c-3.2-7.4-5.6-15-6.6-23.1c-1-8.2-1.4-16.5-1.7-24.8c-0.1-2.9-0.2-5.8-0.3-8.8c-0.6,0.2-1.1,0.4-1.6,0.6
		c-6.8,2.7-13.8,3.6-21.1,3.2c-5.5-0.3-10.9-1.2-16.1-3.1c-4.3-1.6-8.3-3.8-11.3-7.3c-0.3-0.4-0.5-0.1-0.7,0.1
		c-2.2,1.8-4.6,3.3-7.2,4.4c-7.7,3.2-15.2,2.6-22.5-1.4c-5-2.8-8.9-6.7-12.4-11.2c-4.9-6.3-8.7-13.3-12.1-20.6
		c-5.2-11.3-9.3-23-13-34.9c-4.5-14.8-8.2-29.8-11.2-45c-1.3-6.4-2.4-12.9-3.2-19.4c-0.6-4.8-0.7-9.6-0.6-14.5
		c0.1-5.2,0.5-10.4,1.4-15.6c1.8-10.5,5.2-20.4,11.5-29.2c6.3-8.8,14.6-15.1,24.6-19.1c6.4-2.6,13.1-4,20-4.7
		c7.5-0.7,15.1-0.6,22.6,0.3c11.4,1.3,22.5,3.9,33.3,7.5c0.4,0.1,0.8,0.1,1.1-0.1c6.9-4,14.4-6.6,22.3-7.9
		c7.8-1.3,15.6-1.2,23.4-0.6c4.1,0.3,8.2,0.8,12.2,1.5c0.3,0.1,0.7,0,1-0.1c7.2-2.1,14.5-3.5,21.9-4.3c7.7-0.8,15.4-1,23.1-0.3
		c12.1,1.1,23.6,4.2,34.4,9.8c10.8,5.6,20,13.3,27.5,22.9c3.3,4.1,5.1,8.9,6.1,14.1c1.3,6.6,1.4,13.3,1,19.9
		c-1.1,15.7-4.8,30.9-9.6,45.9c-6.5,20.1-15.2,39.2-25.8,57.4c-0.1,0.2-0.2,0.4-0.3,0.6c0,0,0,0,0,0.1c1.7,0,3.5-0.2,5.2-0.4
		c3.9-0.4,7.6-1.3,11.5-1.9c4-0.7,8-0.7,11.9,0.9c4.4,1.9,7.2,5.2,8.4,9.8c0,0.1,0,0.2,0.1,0.2C344.4,233,344.4,235.1,344.4,237.3z"
		/>
	<path class="st0" d="M195.3,258.4c-4,3.6-8.4,6.2-13.3,7.8c-5.8,1.9-11.7,2.4-17.7,1.8c-4.1-0.4-8.1-1.1-12-2.5
		c-2.6-1-5.2-2.3-7.2-4.3c-3.8-3.9-3.1-9,1.6-11.8c2.7-1.6,5.6-2.4,8.6-3.1c3.6-0.8,7.2-1.5,10.8-2.7c2.6-0.9,4.8-2.4,6.5-4.6
		c1.3-1.6,2.6-3.2,3.9-4.8c0.2-0.2,0.4-0.4,0.3-0.7c-0.1-0.2-0.4-0.1-0.6-0.1c-5.4-0.3-10.5-1.6-15.2-4.1c-0.6-0.3-0.8-0.2-1.2,0.2
		c-7.8,8.3-15.3,16.9-22.6,25.6c-2.4,2.8-5.1,5.4-8.4,7.1c-6,3.1-11.8,2.7-17.5-0.8c-4-2.4-7.1-5.8-9.8-9.5
		c-4.7-6.3-8.2-13.2-11.4-20.3c-5.4-12.2-9.6-24.8-13.3-37.5c-3.6-12.5-6.6-25.1-9.1-37.8c-1.3-6.4-2.4-12.9-3.2-19.4
		c-0.5-4.2-0.5-8.5-0.5-12.7c0.1-6.9,0.8-13.7,2.5-20.5C68,96.1,71,89.2,75.6,83c5.7-7.7,13.2-13,22.2-16.2c5.2-1.9,10.5-3,16-3.5
		c8.4-0.8,16.7-0.4,25,0.7c10.8,1.5,21.2,4.2,31.4,7.9c0.4,0.2,0.7,0.1,1.1-0.1c7-4.7,14.7-7.4,23-8.7c7-1.1,13.9-1,20.9-0.3
		c4,0.4,7.9,1.1,11.8,2c0.4,0.1,0.7,0.1,1.1,0c4.9-1.7,9.9-2.9,15-3.8c4.7-0.8,9.4-1.4,14.2-1.7c5.5-0.3,10.9-0.2,16.4,0.3
		c7.3,0.7,14.4,2.2,21.2,4.7c13.8,5,25.1,13.3,34.2,24.8c2.4,3.1,3.7,6.7,4.5,10.5c1.2,6.1,1.3,12.2,0.8,18.3
		c-1.2,15.8-5,31-10.1,46c-7.5,22.4-17.7,43.5-30.5,63.2c-0.4,0.6-0.2,0.8,0.3,1.1c2.1,1.1,4.3,1.6,6.6,1.9c6,0.7,11.9,0,17.7-0.9
		c2.9-0.5,5.8-1.2,8.7-1.5c1.4-0.1,2.8-0.1,4.1,0.3c4.1,1.1,5.9,5,4.1,9c-1,2.1-2.5,3.8-4.2,5.4c-6.5,5.9-14,10-22.6,12.1
		c-7.4,1.8-14.9,2.6-22.4,2.2c-2.4-0.1-4.9-0.5-7.2-1.2c-0.5-0.2-0.6,0-0.6,0.5c-0.6,5.6-1.3,11.2-1.9,16.8
		c-0.7,5.5-1.4,11-2.1,16.4c-0.6,4.9-1.3,9.8-2.1,14.7c-0.8,5.4-2,10.7-4.2,15.8c-3.4,7.8-9,13.3-16.7,16.7
		c-6.3,2.8-12.8,4.5-19.7,5.1c-6.1,0.5-12-0.3-17.5-3.3c-4.9-2.7-8.5-6.6-11.3-11.4c-3.3-5.6-5.1-11.7-5.8-18.2
		c-1.7-16.2-1.9-32.6-1.8-48.9C195.3,259.1,195.3,258.8,195.3,258.4z"/>
	<path class="st1" d="M185.6,226.9c0.8-3.4,2.1-6.7,3.3-9.9c1.7-5,4.1-9.7,6.1-14.5c2.6-6.5,4.2-13.2,4.8-20.1
		c0.5-6.4,0.3-12.8-0.4-19.2c-0.6-5.5-1.5-11-2.8-16.4c-1.2-5.2-3.7-9.6-8.1-12.8c-3.1-2.3-6.5-3.4-10.3-3.9
		c-5.7-0.7-11.3,0.2-16.7,1.8c-4.3,1.3-8.5,3-12.5,5.2c-0.3,0.1-0.5,0.3-0.9,0.5c0.1-1.5,0.3-2.8,0.4-4.2c0.8-6.9,2.1-13.8,4.2-20.5
		c2.5-8,5.9-15.6,11-22.4c6.9-9.3,16-15.5,27.3-18.3c5.2-1.3,10.4-1.7,15.7-1.6c7,0.1,13.9,1,20.7,2.9c11.7,3.2,22.1,8.9,31.2,16.9
		c10.9,9.6,19.1,21.2,24.8,34.6c0.5,1.2,1,2.4,1.4,3.8c-1.2-0.1-2.3-0.2-3.4-0.2c-5.1-0.3-10.1-0.2-15,1.1c-4.4,1.1-8.3,3-11.4,6.4
		c-3.2,3.5-4.8,7.6-5.2,12.2c-0.7,6.3,0.5,12.4,2.3,18.4c2.5,8.4,6.1,16.3,10,24c2.9,5.7,6.2,11.3,9.2,16.9c1.3,2.6,2.4,5.3,3.9,7.8
		c2.1,3.5,4.6,6.7,7.1,9.8c0.3,0.4,0.9,0.9,0.8,1.3c-0.1,0.4-0.9,0.4-1.4,0.6c-6.2,2.1-9.5,6.6-10.5,13c-0.3,1.6-0.4,3.2-0.3,4.8
		c0.1,2.8-0.3,5.6-0.6,8.3c-0.4,4.1-0.9,8.2-1.4,12.3c-0.5,4.5-1.1,9-1.7,13.5c-0.6,4.6-1.2,9.2-1.8,13.8
		c-0.9,6.3-1.6,12.6-3.3,18.7c-1.3,4.6-3.3,8.8-6.8,12.1c-3,2.9-6.6,4.7-10.5,6.1c-5.4,1.8-10.8,3.2-16.6,3.2
		c-7.6,0-13.5-3.3-17.5-9.8c-2.8-4.5-4.5-9.3-5.1-14.6c-0.9-7.6-1.3-15.3-1.6-22.9c-0.4-11.9-0.4-23.8-0.2-35.7
		c0-2.1,0.2-4.3,0.2-6.4c-0.2-5.1-2.2-9.5-6.1-12.9c-2.8-2.5-6.2-3.8-10-3.8C187.1,226.7,186.4,226.8,185.6,226.9z"/>
	<path class="st1" d="M72.1,126.6c0-8.2,0.7-16.2,3-23.9c1.8-6,4.4-11.6,8.5-16.4c5.1-6.1,11.5-10,19-12.3c5-1.6,10.2-2.4,15.5-2.7
		c12.3-0.6,24.2,1.3,36,4.3c2.8,0.7,5.6,1.6,8.4,2.4c0.5,0.2,0.6,0.3,0.2,0.7c-7.5,7.6-12.6,16.6-16.3,26.6
		c-2.8,7.5-4.6,15.2-5.7,23.1c-0.8,5.8-1.3,11.6-1.3,17.4c0,3.1,0.3,6.2,0.4,9.2c0.2,5,0.3,10.1,0.2,15.1c-0.1,3.8-0.4,7.6-0.8,11.3
		c-0.2,2.3-0.6,4.5-0.8,6.8c-0.5,8,0.9,15.6,4.5,22.8c2.4,4.9,5.7,9.1,9.8,12.7c0.3,0.3,0.5,0.4,0.1,0.8c-7.8,8.4-15.4,17-22.7,25.8
		c-1.4,1.6-3,3.1-4.8,4.2c-3,1.8-6,1.9-9.1,0.2c-2.8-1.6-5-3.8-7-6.3c-4.2-5.2-7.4-11.1-10.3-17.2c-5.5-11.8-9.7-24.1-13.4-36.5
		c-4.4-14.8-7.9-29.7-10.8-44.9c-0.9-5.1-1.8-10.1-2.3-15.2C72.1,131.9,72.1,129.1,72.1,126.6z"/>
	<path class="st1" d="M288.5,219.7c-1.5-1.5-1.5-1.5-0.5-3.3c3.4-6.1,5.1-12.6,5.5-19.5c0.4-5.4-0.1-10.8-0.7-16.1
		c-0.6-5.3-1.4-10.5-1.4-15.9c0-3.3,0.3-6.6,0.7-9.9c0.7-4.9,1.6-9.8,1.9-14.8c0.1-1,0.1-2,0.1-3c0-1.3,0-2.5,0.1-3.8
		c0.2-2.1-0.5-4.1-1.1-6c-2.5-7.7-6.1-14.9-10.5-21.7c-6.2-9.7-13.7-18.1-22.8-25.2c-5.4-4.2-11.2-7.7-17.4-10.5
		c-0.2-0.1-0.4-0.2-0.8-0.4c1.1-0.2,2.1-0.4,3-0.6c1-0.2,1.9-0.3,2.9-0.5c6.5-1,13-1.4,19.5-1.2c11.9,0.4,23.2,2.9,33.8,8.4
		c8.6,4.5,15.8,10.7,21.8,18.4c1.6,2,2.3,4.4,2.8,6.9c1,5.2,1.1,10.5,0.7,15.7c-1.4,17.9-6.2,35-12.3,51.7
		c-6.5,17.7-14.8,34.6-24.9,50.6C288.8,219.3,288.7,219.5,288.5,219.7z"/>
	<path class="st1" d="M191.9,177.9c0.3,6.6-2.1,16.7-6.7,26.3c-3.1,6.6-5.6,13.3-7.6,20.3c-0.2,0.6-0.5,0.5-0.9,0.5
		c-5.4-0.2-10.4-1.7-14.8-4.7c-8.2-5.4-12.9-13.1-14.7-22.7c-0.8-4.4-0.6-8.8,0-13.2c0.8-6.2,1.2-12.4,1.2-18.7
		c0-5.8-0.2-11.5-0.6-17.3c0-0.6,0.1-0.9,0.6-1.3c4.1-3,8.6-5.1,13.4-6.7c4.5-1.5,9-2.5,13.8-2.4c7,0.3,11.3,3.7,12.9,10.5
		C190.4,156.9,191.6,165.3,191.9,177.9z"/>
	<path class="st1" d="M281.8,210.3c-0.4-0.9-0.9-1.5-1.2-2.3c-1.9-4.5-4.4-8.6-6.7-12.8c-4.4-8.1-8.7-16.2-11.9-24.8
		c-1.8-4.9-3.3-9.8-3.9-15c-0.3-2.8-0.4-5.6,0.3-8.3c1-4.4,3.8-7.3,8-8.8c3.1-1.1,6.4-1.5,9.7-1.6c3-0.1,6,0.2,9,0.4
		c0.6,0.1,0.8,0.2,0.8,0.9c-0.1,3.7-0.7,7.4-1.3,11.1c-0.9,5.5-1.6,11-1.5,16.6c0.1,4.1,0.6,8.2,1.1,12.3c0.6,5.3,1.3,10.6,1.2,15.9
		c-0.1,5.3-1,10.5-3.2,15.4C282.1,209.6,282,209.9,281.8,210.3z"/>
	<path class="st1" d="M151.9,256c1.9-0.9,3.9-1.3,5.8-1.7c4.1-0.9,8.2-1.7,12.1-3.2c3.6-1.4,6.5-3.6,8.9-6.6
		c1.7-2.1,3.4-4.3,5.2-6.4c0.8-0.9,1.5-1.7,2.4-2.4c1-0.7,2-0.8,3.1-0.5c3.9,1.2,6.6,5.6,5.9,9.5c-0.1,0.7-0.4,1.3-0.8,1.8
		c-4.7,6.5-10.7,10.9-18.6,12.6c-4.8,1-9.5,0.9-14.3,0.2c-2.8-0.5-5.5-1-8-2.2C153.1,256.8,152.5,256.5,151.9,256z"/>
	<path class="st1" d="M325.3,236.1c-1.8,1.7-3.7,3-5.6,4.2c-5.7,3.8-12,5.8-18.8,6.9c-4.4,0.7-8.7,1-13.1,0.9
		c-2.5-0.1-5-0.3-7.4-1.2c-0.3-0.1-0.5-0.2-0.7-0.3c-0.5-0.2-0.6-0.4-0.7-1c0-2.1,0.1-4.3,0.7-6.3c0.7-2.1,2-3.5,4.1-4.2
		c1.2-0.4,2.4-0.8,3.6-1.1c0.3-0.1,0.5,0,0.7,0.1c3.4,2.6,7.4,3.6,11.5,4c6.9,0.8,13.7,0,20.4-1.1
		C321.9,236.8,323.5,236.5,325.3,236.1z"/>
	<path class="st0" d="M175.2,142.7c2.6,0.1,5,0.5,7.2,1.6c0.6,0.3,1.2,0.7,1.6,1.2c0.9,1,1.1,2.2,0.4,3.4c-1.7,2.6-4.1,3.9-7.2,3.8
		c-3.4-0.2-5.7-2.1-7.4-5c-0.5-0.9-0.5-1.9-0.3-3c0-0.3,0.3-0.3,0.5-0.4C171.5,142.8,173.4,142.8,175.2,142.7z"/>
	<path class="st0" d="M272.7,140.6c1.3,0,2.5,0.1,3.6,0.6c1.8,0.7,2.3,1.9,1.4,3.5c-2.6,4.9-8.7,6.6-12.8,1.9
		c-1.3-1.5-1.1-2.8,0.5-3.9c1.7-1.2,3.6-1.6,5.5-1.9C271.6,140.6,272.2,140.6,272.7,140.6z"/>
</g>
</svg>
