<?xml version="1.0" encoding="utf-8"?>
<!-- Generator: Adobe Illustrator 24.1.1, SVG Export Plug-In . SVG Version: 6.00 Build 0)  -->
<svg version="1.1" id="GraphQL_Logo" xmlns="http://www.w3.org/2000/svg" xmlns:xlink="http://www.w3.org/1999/xlink" x="0px"
	 y="0px" viewBox="0 0 400 400" style="enable-background:new 0 0 400 400;" xml:space="preserve">
<style type="text/css">
	.st0{fill:#00005B;}
	.st1{fill:#FFFFFF;}
	.st2{fill:#AAAAC8;}
	.st3{fill:#4F4C8B;}
	.st4{fill:#BEC2D7;}
	.st5{fill:#49498A;}
	.st6{fill:#595491;}
	.st7{fill:#60659C;}
	.st8{fill:#B6B3CE;}
	.st9{fill:#3C3F83;}
	.st10{fill:#C8C8DB;}
	.st11{fill:#A0A4C5;}
	.st12{fill:#B0B0CC;}
	.st13{fill:#D6DAE7;}
	.st14{fill:#DDDDE9;}
	.st15{fill:#B8B4CF;}
	.st16{fill:#E5E5EE;}
	.st17{fill:#DDDAE7;}
	.st18{fill:#6C72A4;}
	.st19{fill:#959BBE;}
	.st20{fill:#8181AD;}
	.st21{fill:#8984AF;}
	.st22{fill:#8B87B1;}
	.st23{fill:#9999FF;}
</style>
<g>
	<path class="st0" d="M347,107.1c0,61.9,0,123.7,0,185.6c-0.3,0.3-0.1,0.8-0.1,1.1c0,0.2,0,0.4,0,0.6c0,0.3,0,0.5,0,0.8
		c0,0.3,0,0.6,0,0.8c0.1,5.5-1.4,10.6-3.6,15.5c-4.9,11.3-12.7,19.8-23.5,25.6c-5.6,3-11.4,5-17.7,5.7c-1.2,0.1-2.3,0-3.5,0.2
		c-0.3,0-0.6,0-0.9,0c-0.4,0-0.8,0-1.3,0c-64.1,0-128.2,0-192.4,0c-0.4,0-0.8,0-1.3,0c-0.3,0-0.6,0-0.9,0c-4.7-0.1-9.3-1-13.8-2.6
		c-12.2-4.4-21.6-12.1-28.2-23.3c-3.1-5.3-5.2-11-6.2-17.1c-0.2-1-0.3-2-0.3-3c0-0.7,0.1-1.4-0.1-2.1c0-0.2,0-0.4,0-0.6
		c-0.1-0.5,0.1-1-0.1-1.4c0-62,0-123.9,0-185.9c0.3-1,0.3-2,0.3-3c0-0.4,0-0.7,0-1.1c0.2-5.1,1.6-9.9,3.6-14.5
		c2.7-6.4,6.5-12.2,11.5-17c7.3-7.1,15.9-11.7,25.9-13.9c1.9-0.4,3.8-0.4,5.7-0.6c0.3,0,0.6,0,0.8,0c0.3,0,0.6,0,0.8,0
		c0.2,0,0.4,0,0.6,0c0.5-0.1,1,0.1,1.4-0.1c64.3,0,128.7,0,193,0c0.4,0.3,0.9,0.1,1.4,0.1c0.2,0,0.4,0,0.6,0c0.3,0,0.6,0,0.8,0
		c0.3,0,0.6,0,0.8,0c5.6,0.1,10.9,1.7,16,3.9c6.2,2.7,11.6,6.5,16.3,11.3c7,7.2,11.6,15.8,13.7,25.6c0.4,1.9,0.5,3.9,0.5,5.8
		c0,0.2,0,0.4,0,0.6c0,0.3,0,0.6,0,0.8c0,0.2,0,0.4,0,0.6C346.9,106.1,346.7,106.6,347,107.1z"/>
	<path class="st1" d="M53.6,297.1c1.1,8.9,4.2,17.1,9.5,24.3c8.5,11.5,19.8,18.5,33.9,20.9c1.6,0.3,3.1,0.4,4.7,0.6
		c0.2,0.1,0.2,0.2,0,0.3c-16.2,0-32.4,0-48.7,0c0-15.7,0-31.5,0-47.2C53.8,296.1,53.2,296.9,53.6,297.1z"/>
	<path class="st1" d="M100,57c-6.3,0.7-12.3,2.3-18,5.2c-15.2,7.9-24.6,20.3-27.9,37.2c-0.2,1.1-0.4,2.3-0.5,3.4
		c-0.2,0.3-0.1,0.6-0.1,0.9c0,0.1,0,0.2-0.1,0.3c-0.1,0.1-0.2,0-0.3-0.1c0-15.7,0-31.4,0-47.2c15.7,0,31.3,0,47,0
		c0.1,0.1,0.1,0.1,0.1,0.2C100.1,57,100,57,100,57z"/>
	<path class="st1" d="M298.6,343c2.3-0.4,4.7-0.6,7-1c19.3-4,34.7-18.6,39.7-37.7c0.7-2.7,1.3-5.4,1.4-8.2c0.1-0.2,0.1-0.2,0.2,0
		c0,15.7,0,31.5,0,47.2c-16.1,0-32.3,0-48.4,0C298.4,343.2,298.4,343.1,298.6,343z"/>
	<path class="st1" d="M346.7,103.7c-1.2-12.9-6.7-23.9-16.1-32.8c-8.1-7.6-17.7-12.2-28.7-13.7c-0.6-0.1-1.1-0.2-1.7-0.3
		c-0.1-0.1-0.1-0.1-0.1-0.2c0-0.1,0.1-0.1,0.1-0.1c15.6,0,31.1,0,46.7,0c0,15.7,0,31.3,0,47C346.9,103.8,346.8,103.8,346.7,103.7z"
		/>
	<path class="st2" d="M103.6,343c0.8,0,1.7,0,2.5,0c62.7,0,125.3,0,188,0c0.8,0,1.7,0,2.5,0c0.1,0.1,0.1,0.1,0.1,0.2
		c0,0.1-0.1,0.1-0.1,0.1c-64.3,0-128.7,0-193,0C103.6,343.2,103.5,343.2,103.6,343C103.6,343,103.6,343,103.6,343z"/>
	<path class="st3" d="M53.6,103.9c0.1,1.1,0,2.1-0.5,3.1c0-0.5,0-0.9,0-1.4c0.2-0.2,0.1-0.5,0.1-0.7c0.1-0.3-0.1-0.7,0.2-0.9l0,0
		C53.4,103.9,53.5,103.8,53.6,103.9z"/>
	<path class="st4" d="M53.6,297.1c-0.4-0.3-0.1-0.9-0.5-1.1c0-0.4,0-0.7,0-1.1c0.1-0.2,0.2-0.2,0.3,0
		C53.6,295.6,53.6,296.4,53.6,297.1z"/>
	<path class="st5" d="M103.7,56.7c-0.4,0.4-0.9,0.3-1.4,0.3c-0.1-0.1-0.1-0.1-0.1-0.2c0-0.1,0.1-0.1,0.1-0.1
		C102.7,56.7,103.2,56.7,103.7,56.7z"/>
	<path class="st5" d="M298,57c-0.5,0-1,0.1-1.4-0.3c0.5,0,0.9,0,1.4,0C298.1,56.8,298.2,56.8,298,57C298.1,57,298.1,57,298,57z"/>
	<path class="st6" d="M347,107.1c-0.4-0.4-0.3-0.9-0.2-1.4c0.1-0.1,0.2-0.1,0.2,0C347,106.1,347,106.6,347,107.1z"/>
	<path class="st7" d="M53,292.9c0.4,0.4,0.3,0.9,0.3,1.4c-0.1,0.2-0.2,0.2-0.3,0C53,293.9,53,293.4,53,292.9z"/>
	<path class="st8" d="M53.3,104c0,0.4,0,0.7-0.1,1.1c0,0.2-0.1,0.2-0.2,0c0-0.4,0-0.7,0-1.1C53.1,104,53.2,104,53.3,104z"/>
	<path class="st9" d="M346.7,293.8c0-0.4-0.1-0.8,0.3-1.1c0,0.4,0,0.7,0,1.1C346.9,293.9,346.8,293.9,346.7,293.8z"/>
	<path class="st10" d="M103.6,343c0,0.1,0,0.2,0,0.2c-0.4,0-0.7,0-1.1,0c-0.1-0.1-0.1-0.1-0.1-0.2c0-0.1,0.1-0.1,0.1-0.1
		C102.9,342.9,103.3,343,103.6,343z"/>
	<path class="st10" d="M296.6,343.3c0-0.1,0-0.2,0-0.2c0.4-0.1,0.7-0.1,1.1,0c0.1,0.1,0.1,0.1,0.1,0.2c0,0.1-0.1,0.1-0.1,0.1
		C297.4,343.3,297,343.3,296.6,343.3z"/>
	<path class="st11" d="M346.7,295.2c0-0.3,0-0.6,0-0.8c0.1-0.2,0.1-0.2,0.2,0c0,0.3,0,0.6,0,0.8
		C346.9,295.3,346.8,295.3,346.7,295.2z"/>
	<path class="st12" d="M299.4,57c-0.3,0-0.6,0-0.8,0c-0.1,0-0.2-0.1-0.1-0.1c0-0.1,0.1-0.1,0.1-0.1c0.3,0,0.6,0,0.8,0
		C299.5,56.8,299.6,56.8,299.4,57C299.5,56.9,299.5,57,299.4,57z"/>
	<path class="st13" d="M346.7,295.2c0.1,0,0.2,0,0.2,0c0,0.3,0,0.6,0,0.8l-0.1,0l-0.1,0C346.7,295.8,346.7,295.5,346.7,295.2z"/>
	<path class="st14" d="M299.4,57c0-0.1,0-0.2,0-0.2c0.3,0,0.6,0,0.8,0c0,0.1,0,0.2,0,0.2C300,57,299.7,57,299.4,57z"/>
	<path class="st15" d="M346.7,105.1c0-0.3,0-0.6,0-0.8c0.1-0.1,0.2-0.1,0.2,0c0,0.3,0,0.6,0,0.8
		C346.9,105.2,346.8,105.2,346.7,105.1z"/>
	<path class="st16" d="M102.5,343c0,0.1,0,0.2,0,0.3c-0.3,0-0.6,0-0.8,0c0-0.1,0-0.2,0-0.3C102,342.9,102.3,342.9,102.5,343z"/>
	<path class="st16" d="M297.7,343.3c0-0.1,0-0.2,0-0.3c0.3-0.1,0.6-0.1,0.8,0c0,0.1,0,0.2,0,0.3C298.3,343.3,298,343.3,297.7,343.3z
		"/>
	<path class="st14" d="M100,57c0-0.1,0-0.2,0-0.2c0.3,0,0.6,0,0.8,0c0.1,0.1,0.1,0.1,0.1,0.2c0,0-0.1,0.1-0.1,0.1
		C100.6,57,100.3,57,100,57z"/>
	<path class="st12" d="M100.8,57c0-0.1,0-0.2,0-0.2c0.3,0,0.6,0,0.8,0c0.1,0.1,0.1,0.1,0.1,0.2c0,0-0.1,0.1-0.1,0.1
		C101.4,57,101.1,57,100.8,57z"/>
	<path class="st17" d="M347,104.3c-0.1,0-0.2,0-0.2,0c0-0.2,0-0.4,0-0.6c0.1,0,0.2,0,0.2,0C347,103.9,347,104.1,347,104.3z"/>
	<path class="st18" d="M347,294.3c-0.1,0-0.2,0-0.2,0c0-0.2,0-0.4,0-0.6c0.1,0,0.2,0,0.3,0C347,294,347,294.2,347,294.3z"/>
	<path class="st19" d="M53,294.3c0.1,0,0.2,0,0.3,0c0,0.2,0,0.4,0,0.6c-0.1,0-0.2,0-0.3,0C53,294.7,53,294.5,53,294.3z"/>
	<path class="st20" d="M298.6,56.7c0,0.1,0,0.2,0,0.2c-0.2,0-0.4,0-0.6,0c0-0.1,0-0.2,0-0.3C298.2,56.7,298.4,56.7,298.6,56.7z"/>
	<path class="st20" d="M101.7,57c0-0.1,0-0.2,0-0.2c0.2,0,0.4,0,0.6,0c0,0.1,0,0.2,0,0.3C102,57,101.9,57,101.7,57z"/>
	<path class="st21" d="M53,105.1c0.1,0,0.1,0,0.2,0c0,0.2,0,0.5-0.2,0.6C53,105.5,53,105.3,53,105.1z"/>
	<path class="st22" d="M346.7,105.1c0.1,0,0.2,0,0.2,0c0,0.2,0,0.4,0,0.6c-0.1,0-0.2,0-0.2,0C346.7,105.5,346.7,105.3,346.7,105.1z"
		/>
	<path class="st23" d="M123,194.3c0-20.5,0-41.1,0-61.6c0-2.6,0.1-2.6,2.6-2.7c9.2-0.2,18.4-0.4,27.5-0.6c4.8-0.1,9.5-0.2,14.3,0
		c8.6,0.3,16.9,1.9,24.7,5.6c9.5,4.6,16.6,11.6,20.4,21.6c2.7,6.9,3.4,14.1,2.8,21.4c-0.4,4.6-1.2,9-3,13.3
		c-3.9,9.5-10.7,16.3-19.7,20.8c-4.9,2.5-10.2,3.8-15.6,4.7c-7.7,1.3-15.4,1.3-23.1,1c-1.2,0-2.4-0.1-3.6-0.1
		c-0.5,0-0.8,0.2-0.8,0.7c0,0.4,0,0.7,0,1.1c0,12.2,0,24.4,0,36.6c0,0.4,0,0.7,0,1.1c-0.1,0.8-0.5,1.3-1.3,1.4c-0.3,0-0.7,0-1,0
		c-7.3,0-14.6,0-21.9,0c-0.3,0-0.6,0-0.8,0c-0.9-0.1-1.3-0.4-1.4-1.4c-0.1-0.5,0-0.9,0-1.4C123,235.5,123,214.9,123,194.3z"/>
	<path class="st23" d="M258.9,174.1c2-2.2,3.8-4,5.9-5.7c5.7-4.5,11.9-7.7,19.1-9c2.1-0.4,4.3-0.5,6.4-0.5c1.4,0,1.9,0.5,1.9,1.8
		c0,1.1,0,2.1,0,3.2c0,6.5,0,12.9,0,19.4c0,0.3,0,0.7,0,1c0,1.1-0.4,1.5-1.5,1.6c-0.6,0-1.2,0-1.8,0c-7.5,0-14.8,1.4-21.7,4.4
		c-2,0.9-3.8,2.1-5.5,3.5c-0.8,0.7-1.1,1.4-1.1,2.5c0,19.7,0,39.4,0,59.1c0,0.5,0,1,0,1.5c0,1.7-0.4,2.1-2.1,2.1
		c-4.2,0-8.4,0-12.6,0c-3.5,0-7,0-10.5,0c-0.4,0-0.8,0-1.1,0c-0.8-0.1-1.3-0.7-1.4-1.5c0-0.5,0-0.9,0-1.4c0-23.4,0-46.8,0-70.1
		c0-6.7-0.2-13.4-0.5-20.1c-0.1-1.1-0.2-2.2-0.3-3.3c-0.1-1.3,0.2-1.6,1.5-1.6c6.9,0,13.7,0,20.6,0c1.8,0,2.7,0.5,3.2,2.3
		c0.7,2.4,1.1,4.8,1.3,7.3C258.7,171.6,258.7,172.7,258.9,174.1z"/>
	<path class="st8" d="M53.6,103.9c-0.1,0-0.1,0.1-0.2,0c-0.1-0.4-0.1-0.8,0.2-1.1C53.6,103.2,53.6,103.6,53.6,103.9z"/>
	<path class="st0" d="M149.7,174.3c0-6.2,0-12.4,0-18.6c0-0.3,0-0.6,0-0.8c0-1.1,0-1.2,1.1-1.2c1.7-0.1,3.4-0.1,5.2-0.1
		c4.8-0.1,9.6-0.4,14.4,0.4c2.9,0.5,5.6,1.2,8.3,2.5c5.8,2.8,9,7.5,10,13.9c0.4,2.7,0.2,5.5-0.2,8.2c-0.7,4.7-3.1,8.4-7,11.2
		c-1.8,1.3-3.7,2.3-5.8,3c-4.8,1.6-9.7,2.4-14.8,2.4c-3.2,0-6.4,0.1-9.6-0.1c-1.6-0.1-1.6-0.2-1.6-1.7
		C149.7,187,149.7,180.6,149.7,174.3z"/>
</g>
</svg>
