<?xml version="1.0" encoding="utf-8"?>
<!-- Generator: Adobe Illustrator 24.1.1, SVG Export Plug-In . SVG Version: 6.00 Build 0)  -->
<svg version="1.1" id="GraphQL_Logo" xmlns="http://www.w3.org/2000/svg" xmlns:xlink="http://www.w3.org/1999/xlink" x="0px"
	 y="0px" viewBox="0 0 400 400" style="enable-background:new 0 0 400 400;" xml:space="preserve">
<style type="text/css">
	.st0{fill:#0C344B;}
	.st1{fill:#FEFEFE;}
</style>
<g>
	<path class="st0" d="M359.9,200.5c0,51.8,0,103.6,0.1,155.4c0,3.4-0.7,4.1-4.1,4.1c-103.9-0.1-207.9-0.1-311.8,0
		c-3.4,0-4.1-0.7-4.1-4.1C40.1,252,40.1,148,40,44.1c0-3.4,0.7-4.1,4.1-4.1C148,40.1,252,40.1,355.9,40c3.4,0,4.1,0.7,4.1,4.1
		C359.9,96.2,359.9,148.4,359.9,200.5z"/>
	<path class="st1" d="M266.2,245.2c-0.1,5-2.5,8.1-6.7,9.4c-28.2,8.4-56.3,16.7-84.5,25c-4.3,1.3-8-0.1-10.5-3.8
		c-9.8-15-19.6-30.1-29.2-45.2c-2.2-3.4-1.8-7,0.3-10.4c19.6-31.7,39.1-63.3,58.7-95c2-3.2,4.7-5.2,8.6-5c4.6,0.2,6.8,3.4,8.6,7.2
		c16.4,35,33,70,49.4,105C262.8,236.7,265.6,240.7,266.2,245.2z"/>
	<path class="st0" d="M177.4,265c3-14.7,5.8-28.5,8.7-42.3c5.3-25.3,10.6-50.7,15.9-76c0.2-1,0.5-1.9,0.7-2.9
		c0.3-1.6,0.3-3.5,2.5-3.7c2.2-0.2,2.6,1.7,3.3,3.1c10.1,21.5,20.2,42.9,30.4,64.4c5,10.7,10,21.3,15.1,32c2.5,5.3,2,6.5-3.6,8.2
		c-22.4,6.7-44.9,13.3-67.3,19.9C179.9,268.5,177.4,268.4,177.4,265z"/>
</g>
</svg>
