<?xml version="1.0" encoding="utf-8"?>
<!-- Generator: Adobe Illustrator 24.1.1, SVG Export Plug-In . SVG Version: 6.00 Build 0)  -->
<svg version="1.1" id="GraphQL_Logo" xmlns="http://www.w3.org/2000/svg" xmlns:xlink="http://www.w3.org/1999/xlink" x="0px"
	 y="0px" viewBox="0 0 400 400" style="enable-background:new 0 0 400 400;" xml:space="preserve">
<style type="text/css">
	.st0{fill:#FFFFFF;}
</style>
<g>
	<path d="M24.6,211.7c0.8-3.8,1.4-7.6,2.4-11.3c6.6-24.1,22.6-39.4,45.5-48.1c3.7-1.4,7.5-2.6,11.4-3.5c2.5-0.6,3.7-1.7,4.4-4.3
		c10.5-35.6,33.4-59.4,68.7-71.1c16.5-5.4,33.5-6.4,50.7-3.8c1,0.1,2,0.4,3.1,0.7c-0.2,2.3-0.3,4.5-0.7,6.6c-0.1,0.7-0.9,1.4-1.5,2
		c-3.5,3.1-6.9,6.2-10.5,9c-1.1,0.9-2.7,1.4-4.1,1.4c-16.8-0.5-32.7,2.9-47.3,11.3c-23.2,13.3-36,33.8-40.7,59.8
		c-1,5.5-1,5.3-6.5,6.6c-6.8,1.6-13.6,2.9-20.1,5.3c-35.5,13-39.8,47.1-28.5,70.9c6.5,13.9,16.8,23.6,31.8,27.9
		c0.5,0.2,1.1,0.3,1.6,0.5c0.1,0,0.2,0.1,0.4,0.3c0,6.8,0,13.7,0,21.4c-5.1-1.6-10-2.6-14.6-4.5c-26.4-11.2-40.3-31.9-44.9-59.6
		c-0.2-1-0.4-2-0.7-2.9C24.6,221.3,24.6,216.5,24.6,211.7z"/>
	<path d="M105.4,343.1c0.3-1.2,0.4-2.5,0.8-3.6c8.9-23.6,17.8-47.3,26.6-70.9c0.9-2.5,2-3.5,4.8-3.4c6.7,0.3,13.5,0.2,20.2,0
		c2,0,2.8,0.7,3.5,2.4c9,24.2,18.1,48.4,27.1,72.6c0.3,0.9,0.3,2,0.4,3c-8,0-16,0-24,0c-1.5-4.3-3.1-8.6-4.7-13.1
		c-8.4,0-16.7-0.1-25,0.1c-0.9,0-2.1,1.1-2.5,2c-1.3,3.6-2.3,7.3-3.5,11C121.3,343.1,113.3,343.1,105.4,343.1z M155.3,312.9
		c-2.8-9.1-5.4-17.8-8.1-26.5c-0.2,0-0.4,0.1-0.7,0.1c-2.6,8.7-5.3,17.4-8,26.3C144.3,312.9,149.6,312.9,155.3,312.9z"/>
	<path d="M195.7,343.1c-0.2-0.9-0.6-1.7-0.6-2.6c0-24.6,0-49.2,0-73.8c0-0.3,0.1-0.7,0.3-1.5c1,0,2.1,0,3.2,0
		c12,0,23.9-0.1,35.9,0.1c3.4,0,6.8,0.4,10.1,1.2c9.7,2.3,15.5,9.2,16.1,19.1c0.2,3.1,0.2,6.2-0.3,9.2c-1.9,11.1-9.7,17.9-21.5,18.9
		c-5.2,0.5-10.5,0.4-15.7,0.5c-1.2,0-2.5,0-4.2,0c0,9.9,0,19.4,0,29C211.2,343.1,203.5,343.1,195.7,343.1z M219.2,298.8
		c4.6-0.5,9-0.7,13.2-1.7c3.6-0.9,5.3-4,5.1-7.9c-0.1-3.7-2.2-6.9-5.8-7.5c-4.1-0.7-8.2-0.7-12.5-1.1
		C219.2,287,219.2,292.5,219.2,298.8z"/>
	<path d="M271,343.1c-0.1-1-0.4-2-0.4-3c0-24,0-48.1,0-72.1c0-0.8,0.1-1.6,0.2-2.5c7.8,0,15.6,0,23.7,0c0.1,1,0.2,2.1,0.2,3.2
		c0,23.7,0,47.4,0,71.1c0,1.1-0.3,2.2-0.4,3.4C286.5,343.1,278.8,343.1,271,343.1z"/>
	<path class="st0" d="M129.3,343.1c1.1-3.7,2.1-7.4,3.5-11c0.3-0.9,1.6-2,2.5-2c8.3-0.1,16.6-0.1,25-0.1c1.6,4.4,3.1,8.7,4.7,13.1
		C153,343.1,141.2,343.1,129.3,343.1z"/>
	<path d="M302.4,81.3c2.4-1.8,4.5-3.5,6.8-5.1c3.2-2.3,6.3-1.9,8.7,1.1c2.4,3,4.8,6.1,7,9.3c2.2,3.1,1.8,6-1.1,8.4
		c-2.4,2.1-6.1,3.6-7.1,6.1c-0.9,2.4,1.2,5.8,1.7,8.8c0.3,2.3,1.2,3.1,3.6,3.4c10.9,1.2,11.3,1.8,9.9,12.9c-0.3,2.1-0.5,4.3-0.8,6.4
		c-0.6,3.4-3.1,5.4-6.6,5.1c-3.3-0.2-7-1.8-9.6-0.6c-2.4,1.1-3.5,5.1-5.2,7.8c-0.4,0.6-0.8,1.1-1.4,1.9c1.6,2.1,3.2,4.3,4.8,6.5
		c2.7,3.7,2.3,6.6-1.3,9.4c-2.9,2.2-5.8,4.5-8.7,6.6c-3.2,2.3-6.8,2.1-8.6-1.3c-3.5-6.3-7.8-7.9-14.6-5.3c-2.3,0.9-3.4,1.4-3.7,4
		c-1.5,10.9-2.3,11.4-13.4,9.6c-1.9-0.3-3.8-0.5-5.8-0.8c-3.8-0.7-5.5-2.9-5.2-6.8c0.2-3.2,1.8-6.8,0.6-9.3c-1.1-2.3-4.9-3.4-7.5-5
		c-0.8-0.5-1.5-1.1-2.3-1.7c-2.2,1.7-4.4,3.4-6.6,5c-3.4,2.4-6.5,2.1-9-1c-2.4-3-4.8-6.1-7-9.3c-2.1-3-1.9-6.5,1.3-8.4
		c6.2-3.5,8.1-7.7,5.4-14.5c-1-2.6-1.6-3.6-4.3-3.9c-7.9-0.8-11.6-0.9-9.6-11.9c0.5-2.6,0.7-5.2,1.2-7.8c0.7-3.2,3.4-5.5,6.5-4.5
		c6.9,2.1,11.7,0.5,14.2-6.5c0.3-0.9,1.2-1.6,1.9-2.6c-1.7-2.3-3.5-4.5-5.1-6.8c-2.3-3.2-1.9-6.2,1.2-8.7c3-2.4,6.1-4.8,9.3-7
		c3.1-2.2,6-1.8,8.5,1.1c2,2.4,3.6,6.1,6.1,7.1c2.4,0.9,5.8-1.1,8.8-1.8c0.9-0.2,1.8-0.3,2.8-0.5c0.4-2.9,0.8-5.7,1.3-8.5
		c0.6-3.7,2.9-5.6,6.7-5.2c4,0.4,7.9,0.9,11.9,1.6c3.6,0.6,5.9,3.4,4.9,6.9c-1.9,6.6-0.6,11.3,6.3,13.8
		C300.4,79.5,301.3,80.5,302.4,81.3z M296.5,117.5c0.2-13.4-10.2-24.2-23.7-24.4c-13.1-0.2-24,10.4-24.3,23.5
		c-0.3,13.2,10.5,24.3,23.8,24.5C285.3,141.4,296.3,130.7,296.5,117.5z"/>
	<path d="M312.6,290.8c0-7.3-0.1-14.1,0.1-20.9c0-0.8,1.5-1.7,2.5-2.2c6.6-3.9,13.8-7.1,19.9-11.8c12.2-9.3,17.1-22.7,18.6-37.5
		c1.3-12.6,0-25-4.6-36.9c-2.8-7.2-7-13.5-12.3-19.1c-3.1-3.2-2.5-5.2,0.9-7.7c3.9-2.8,7.4-6.2,11.7-10c3.8,4.9,8.9,9.9,12.2,15.8
		c16.8,29.3,18.4,59.7,4.1,90.3c-8.6,18.2-24.5,29-42.7,36.3C319.7,288.3,316.4,289.4,312.6,290.8z"/>
	<path d="M141.3,227.3c8.1,4.7,9.5,13.5,14.5,20.7c-5.6,0-10.4,0.1-15.1-0.1c-0.9,0-2.1-1.1-2.6-2c-2.5-4.3-4.9-8.8-7.2-13.2
		c-1.4-2.5-3.4-3.9-6.8-3.6c0,6.2,0,12.3,0,18.7c-5,0-9.6,0-14.5,0c0-15.5,0-31,0-46.8c4.1,0,8,0,12,0c5.8,0.1,11.6,0,17.4,0.4
		c7.7,0.5,11.7,4.1,12.7,10.9c0.9,6.5-2.3,11.8-8.9,14.4C142.3,226.9,141.9,227,141.3,227.3z M124,220.4c3.5-0.3,6.7-0.5,9.8-0.9
		c2.4-0.4,3.7-2.3,3.1-4.5c-0.4-1.5-2-3.5-3.4-3.9c-3-0.7-6.2-0.5-9.5-0.7C124,213.9,124,216.8,124,220.4z"/>
	<path d="M195.2,218.5c0,3.5,0,6.4,0,9.7c-7.4,0-14.7,0-22.1,0c0,3.1,0,5.9,0,9.2c8.2,0,16.3,0,24.6,0c0,3.7,0,7,0,10.4
		c-13.1,0-26,0-39.2,0c0-15.4,0-30.9,0-46.6c12.8,0,25.5,0,38.4,0c0,3.1,0,6.2,0,9.7c-7.8,0-15.6,0-23.7,0c0,2.6,0,4.9,0,7.5
		C180.5,218.5,187.7,218.5,195.2,218.5z"/>
	<path d="M242.4,214.3c-4.6,0.3-8.9,0.6-13.1,0.8c-2.4-5.1-5.1-7-9.1-5.9c-1.3,0.4-2.9,1.9-3.2,3.2c-0.2,0.8,1.5,2.7,2.7,3.1
		c4.5,1.5,9.3,2.4,13.8,3.9c5.1,1.7,9.1,4.7,10.2,10.4c1.6,8.2-3.3,16.3-12,17.8c-6,1-12.5,0.8-18.6-0.1c-7-1.1-11.1-7.2-11.4-15
		c2.2-0.1,4.4-0.2,6.7-0.4c2.1-0.1,4.3-0.3,6.6-0.5c0.9,3.9,2.4,7.2,6.7,7.8c1.5,0.2,3.4,0.3,4.6-0.4c1.5-0.9,3.2-2.6,3.3-4.1
		c0.1-1.3-1.4-3.4-2.8-4.1c-2.5-1.3-5.4-1.7-8.1-2.6c-3.1-1.1-6.4-2-9.2-3.6c-8.5-4.9-8.9-16.5-0.3-21.2c8.7-4.8,18-4.6,26.9-0.1
		C240.4,205.4,241.9,209.5,242.4,214.3z"/>
	<path d="M246.5,201.2c14.4,0,28.8,0,43.5,0c0,3.6,0,7.2,0,11.3c-4.6,0-9.3,0-14.4,0c0,12,0,23.5,0,35.3c-5,0-9.6,0-14.6,0
		c0-11.5,0-23.1,0-35c-5,0-9.6,0-14.5,0C246.5,208.8,246.5,205.1,246.5,201.2z"/>
	<path class="st0" d="M155.3,312.9c-5.8,0-11.1,0-16.8,0c2.7-9,5.4-17.7,8-26.3c0.2,0,0.4-0.1,0.7-0.1
		C149.9,295.2,152.6,303.9,155.3,312.9z"/>
	<path class="st0" d="M219.2,298.8c0-6.4,0-11.9,0-18.1c4.3,0.3,8.5,0.4,12.5,1.1c3.6,0.6,5.6,3.8,5.8,7.5c0.1,3.8-1.5,7-5.1,7.9
		C228.2,298.2,223.8,298.3,219.2,298.8z"/>
	<path class="st0" d="M296.5,117.5c-0.2,13.2-11.1,23.8-24.2,23.6c-13.3-0.2-24.1-11.3-23.8-24.5c0.3-13.2,11.2-23.8,24.3-23.5
		C286.3,93.3,296.7,104.1,296.5,117.5z"/>
	<path class="st0" d="M124,220.4c0-3.6,0-6.5,0-10c3.3,0.2,6.5,0,9.5,0.7c1.4,0.3,2.9,2.3,3.4,3.9c0.6,2.2-0.7,4.1-3.1,4.5
		C130.7,219.9,127.5,220.1,124,220.4z"/>
</g>
</svg>
