<?xml version="1.0" encoding="utf-8"?>
<!-- Generator: Adobe Illustrator 24.1.1, SVG Export Plug-In . SVG Version: 6.00 Build 0)  -->
<svg version="1.1" id="GraphQL_Logo" xmlns="http://www.w3.org/2000/svg" xmlns:xlink="http://www.w3.org/1999/xlink" x="0px"
	 y="0px" viewBox="0 0 400 400" style="enable-background:new 0 0 400 400;" xml:space="preserve">
<style type="text/css">
	.st0{fill:#306997;}
	.st1{fill:#306998;}
	.st2{fill:#FDFEFE;}
	.st3{fill:#FEFEFE;}
</style>
<g>
	<path class="st0" d="M256.3,222.1c6.8,7.8,20.7,6,26-3c0.6-1,1.1-2.2,1.6-3.2c1.9-3.8,4.9-5.1,8.2-3.6c3.3,1.5,4.4,4.7,3,8.5
		c-4.2,11.6-16.5,19.3-29.3,18.4c-13-0.9-24-10.7-26.5-23.6c-2.6-13.8,5.4-27.9,18.4-32.6c13.6-4.8,28.7,0.7,35.5,12.9
		c3.1,5.6,2.1,8.5-3.7,11.1C278.6,212,267.6,217,256.3,222.1z"/>
	<path class="st0" d="M186.2,199.8c0-10.5,0-21.1,0-31.6c0-3.3,0.9-6.1,4.3-7.2c4.2-1.5,8,1.4,8,6.1c0.1,10.4,0.2,20.8-0.1,31.2
		c-0.1,3.2,1.2,3.6,3.8,3.3c6.7-0.6,12.7-5.5,14.4-12.1c0.3-1,0.4-2.1,0.7-3.2c0.9-3.4,3.8-5.5,6.9-5c3.3,0.5,5.7,3.6,5.2,7.1
		c-0.8,6.5-2.9,12.5-7.9,17c-1.4,1.2-1.3,1.7,0.1,2.9c6.9,6.2,10.4,14.1,10.2,23.5c-0.1,4.6-2.3,7.4-6.1,7.5
		c-3.7,0.1-6.3-2.8-6.3-7.3c0-4-0.8-7.7-3.1-11c-3.9-5.4-9.4-7.2-15.9-7.1c-2,0-2,1.1-2,2.6c0,5.1,0,10.2,0,15.2
		c0,4.8-2.1,7.4-5.9,7.5c-3.8,0.1-6.4-2.8-6.4-7.6C186.2,221.1,186.2,210.4,186.2,199.8z"/>
	<path class="st0" d="M70.5,210.2c0-16.1,13-29,29.1-29c16,0,29,13.1,29,29.1c0,16-13,29-29.1,29C83.3,239.4,70.5,226.4,70.5,210.2z
		"/>
	<path class="st0" d="M41.3,239.3c-3.4,0-5.9,0.1-8.4,0c-3.4-0.2-6-2.9-6-6.1c0-3.2,2.5-6,5.9-6.1c4.2-0.2,8.5,0,12.7-0.1
		c3.9,0,6-1.5,6.2-4.6c0.3-3.6-2-4.8-4.9-5.6c-2.8-0.8-5.6-1.5-8.4-2.5c-9.6-3.4-13.8-13.1-9.6-22.3c3.1-6.8,8.5-10.7,16.2-10.8
		c2.9,0,5.8-0.1,8.7,0c4.1,0.1,6.5,2.5,6.6,6.2c0.1,3.6-2.4,6-6.6,6.1c-2.4,0.1-4.8,0-7.3,0c-4.5,0-6.8,1.4-7.2,4.5
		c-0.4,3,1.3,5,5.7,6.3c2.4,0.8,4.9,1.4,7.3,2.1c6.7,2,10.8,6.3,11.4,13.4c0.6,7.3-2.3,12.9-8.4,16.9
		C50.7,239.9,45.6,239.4,41.3,239.3z"/>
	<path class="st0" d="M349.8,239.3c-2.5,0-5.1,0.1-7.6,0c-3.4-0.2-6-2.8-6.1-6c-0.1-3.3,2.6-6.1,6.2-6.3c4.4-0.1,8.7-0.1,13.1,0
		c3.2,0,5.1-1.5,5.6-4.5c0.5-3.1-1.5-4.7-4.1-5.5c-3-0.9-6-1.7-9.1-2.6c-13.1-3.8-13.4-19.2-7.4-26.3c3.7-4.4,8.3-6.9,14.2-6.9
		c2.9,0,5.8-0.1,8.7,0c3.8,0.1,6.3,2.5,6.4,6c0.1,3.5-2.3,6-6.1,6.2c-2.9,0.2-5.8,0.1-8.7,0c-3.2,0-5.6,1.1-6.1,4.4
		c-0.5,3.3,1.5,5.1,4.5,6c3,0.9,6.1,1.7,9,2.7c8,2.8,11.9,9.3,10.7,17.5c-1.2,8-8.2,14.8-15.8,15.1
		C354.7,239.4,352.2,239.3,349.8,239.3z"/>
	<path class="st1" d="M305,195.4c0-9.1,0-18.2,0-27.2c0-3.4,0.8-6.4,4.6-7.3c4.2-1,7.5,1.4,7.7,5.8c0.2,4,0.2,8,0,12
		c-0.1,2.1,0.6,2.8,2.7,2.6c1.7-0.1,3.4-0.1,5.1,0c3.4,0.2,5.7,2.5,5.9,5.7c0.2,3.4-1.6,5.7-5.1,6.4c-0.9,0.2-1.9,0.1-2.9,0.1
		c-5.6,0-5.6,0-5.6,5.8c0,7.1,0,14.3,0,21.4c0,5.4,0.7,6.1,6,6.2c1.3,0,2.6,0,3.9,0.6c2.8,1.3,4,3.4,3.6,6.4c-0.4,3-2.3,4.9-5.2,5.2
		c-11.5,1.4-20.9-4.8-20.7-17.3c0.1-4.5,0-9,0-13.4C305,204.1,305,199.8,305,195.4z"/>
	<path class="st0" d="M135.7,210.2c-0.1-18.6,17.5-32.6,35.5-28.3c2.5,0.6,5.1,1.4,6,4.1c0.8,2.3,0.7,4.6-1,6.5
		c-1.7,1.8-3.7,2.4-6.2,1.9c-9.2-1.7-15.8,0.8-19.6,7.3c-3.5,6.1-3.4,12.4,0.6,18.1c4.1,5.9,10,8.1,17.1,6.7
		c0.6-0.1,1.2-0.3,1.8-0.4c4.1-0.5,6.9,1.1,7.6,4.5c0.8,3.9-1,6.6-5.2,7.7C153.8,243.4,135.8,229.5,135.7,210.2z"/>
	<path class="st2" d="M251.8,210.2c-0.6-6,3.3-12.3,9.3-14.9c6.6-2.9,13.8-1.8,18.1,3c-8.4,3.8-16.7,7.5-25,11.3
		C253.4,209.9,252.7,210.5,251.8,210.2z"/>
	<path class="st3" d="M82.8,210.4c0-9.4,7.5-16.8,16.8-16.7c9.1,0.1,16.5,7.6,16.5,16.7c0.1,9.2-7.6,16.8-16.9,16.7
		C90.1,227,82.8,219.7,82.8,210.4z"/>
</g>
</svg>
