<?xml version="1.0" encoding="utf-8"?>
<!-- Generator: Adobe Illustrator 24.1.1, SVG Export Plug-In . SVG Version: 6.00 Build 0)  -->
<svg version="1.1" id="GraphQL_Logo" xmlns="http://www.w3.org/2000/svg" xmlns:xlink="http://www.w3.org/1999/xlink" x="0px"
	 y="0px" viewBox="0 0 400 400" style="enable-background:new 0 0 400 400;" xml:space="preserve">
<style type="text/css">
	.st0{fill:#38BCF7;}
	.st1{fill:#6CC9F1;}
</style>
<g>
	<path class="st0" d="M120.1,166.8c2-8.9,5.1-17.4,9.4-25.4c2.1-3.8,4.4-7.5,7.2-10.9c7.1-8.8,15.8-15.7,26.3-20.2
		c13.4-5.7,27.4-7.4,41.8-6.9c16.3,0.6,31.5,4.6,45.3,13.6c8.3,5.4,15.3,12.1,22.2,19.1c5.8,5.8,11.4,11.8,18.1,16.7
		c7.1,5.2,15,7.8,23.7,8.5c14.4,1,26.4-4.4,36.8-13.9c3.6-3.3,6.8-7,9.9-10.8c-0.4,3.2-1.4,6.2-2.4,9.1
		c-3.5,10.2-8.2,19.9-15.2,28.3c-7,8.5-15.6,15-25.7,19.3c-14.1,5.9-28.8,7.4-43.9,6.5c-11-0.6-21.6-2.9-31.7-7.4
		c-9.5-4.2-17.7-10.3-25.3-17.3c-7.1-6.5-13.5-13.7-20.6-20.1c-7.8-7.1-16.7-11.7-27.4-12.8c-12.5-1.2-23.6,2.2-33.6,9.7
		c-5.3,4-9.8,8.7-13.9,13.9C120.7,166.1,120.4,166.5,120.1,166.8z"/>
	<path class="st0" d="M116,252.2c-3.4-2.9-6.8-5.6-10.7-7.9c-5.9-3.4-12.3-5-19-5.5c-14.6-1.1-26.6,4.3-37.1,14
		c-3.4,3.1-6.5,6.5-9.2,10.2c-0.1,0.2-0.3,0.3-0.8,0.7c0.5-3.4,1.6-6.4,2.6-9.4c2.9-8.7,6.8-17,12.2-24.4
		c7.5-10.3,16.9-18.2,28.7-23.1c14.1-5.9,28.8-7.4,43.9-6.5c11,0.6,21.6,2.9,31.7,7.4c9.5,4.2,17.8,10.2,25.3,17.3
		c6.5,6.2,12.7,12.6,19.2,18.8c5.1,4.8,10.7,9.1,17.4,11.4c17.3,5.9,32.9,2.8,47.1-8.6c4.5-3.6,8.3-7.9,11.9-12.4
		c0.3-0.3,0.6-0.7,1.2-1.3c-1.2,4.9-2.6,9.3-4.3,13.7c-3.2,8.3-7.3,16.1-12.8,23c-7,8.9-15.7,15.7-26.2,20.2
		c-14.6,6.3-29.9,7.7-45.6,6.7c-20.7-1.3-38.7-9-54-23c-6.4-5.9-12.3-12.2-18.6-18.2c-0.5-0.5-1.1-1-1.6-1.6
		C117,253.1,116.6,252.6,116,252.2z"/>
</g>
</svg>
