<?xml version="1.0" encoding="utf-8"?>
<!-- Generator: Adobe Illustrator 24.1.1, SVG Export Plug-In . SVG Version: 6.00 Build 0)  -->
<svg version="1.1" id="GraphQL_Logo" xmlns="http://www.w3.org/2000/svg" xmlns:xlink="http://www.w3.org/1999/xlink" x="0px"
	 y="0px" viewBox="0 0 400 400" style="enable-background:new 0 0 400 400;" xml:space="preserve">
<style type="text/css">
	.st0{fill:#21759B;}
	.st1{fill:#FFFFFF;}
	.st2{fill:#AFCDDB;}
	.st3{fill:#BDD6E1;}
	.st4{fill:#E7F1F4;}
	.st5{fill:#D3E4EB;}
	.st6{fill:#E5EFF3;}
	.st7{fill:#428AAA;}
	.st8{fill:#C8DCE6;}
	.st9{fill:#4F91B0;}
	.st10{fill:#BCD4E0;}
	.st11{fill:#639DB8;}
	.st12{fill:#C8DEE7;}
	.st13{fill:#3882A5;}
	.st14{fill:#6CA5BE;}
	.st15{fill:#488EAD;}
	.st16{fill:#E5EDF2;}
	.st17{fill:#E3EDF2;}
	.st18{fill:#C1D8E3;}
	.st19{fill:#75A9C1;}
	.st20{fill:#6BA3BD;}
	.st21{fill:#93BCCE;}
	.st22{fill:#9EC4D5;}
	.st23{fill:#E9F2F6;}
	.st24{fill:#8BB5C9;}
	.st25{fill:#9FC3D3;}
	.st26{fill:#6C9DB8;}
</style>
<path class="st0" d="M202.1,340.3c-1.4,0-2.7,0-4.1,0c-0.6-0.3-1.3-0.1-1.9-0.1c-0.4,0-0.7,0-1.1,0c-0.3,0-0.6,0-0.9,0
	c-0.4,0-0.7,0-1.1,0c-0.4,0-0.7,0-1.1,0c-14.1-0.1-27.5-3.3-40.7-8.1c-10.5-3.8-20.3-9-29.6-15.2c-5.1-3.4-9.9-7.2-14.5-11.2
	c-3.9-3.5-7.7-7.1-11.2-11c-6.9-7.6-12.9-15.8-18-24.7c-4.5-7.9-8.3-16.1-11.2-24.8c-2.9-8.4-4.9-17-6.1-25.8
	c-0.6-4.2-0.6-8.5-0.7-12.7c-0.1-4.4-0.1-8.9,0-13.3c-0.1-11.2,2-22.2,5.1-32.9c2.2-7.7,5.1-15.1,8.6-22.3
	c4.6-9.3,10.1-17.9,16.6-26c4.4-5.6,9.3-10.7,14.6-15.6c7.7-7.2,16.1-13.3,25.3-18.6c9-5.2,18.5-9.3,28.4-12.4
	c8.1-2.5,16.3-4.4,24.7-5.2c3.9-0.4,7.9-0.4,11.9-0.5c0.7,0,1.4,0,2.1,0c2.2,0,4.4,0,6.5,0c0.6,0,1.3,0,1.9,0
	c11.9-0.1,23.5,1.8,34.9,5.3c8.1,2.5,16,5.6,23.6,9.5c9.5,4.9,18.5,10.8,26.7,17.8c3.6,3.1,7.1,6.2,10.3,9.6
	c8.4,8.8,15.7,18.4,21.7,29c4.6,8.2,8.5,16.9,11.4,25.9c2.5,7.8,4.5,15.8,5.4,24c0.4,3.5,0.5,7.1,0.5,10.7c0,0.4,0,0.7,0,1.1
	c0,0.5,0,1,0,1.5c0,0.3,0,0.6,0,0.9c0,0.4,0,0.9,0,1.3c0.1,0.5-0.1,1,0.1,1.5c0,1.7,0,3.5,0,5.2c-0.3,0.5-0.1,1-0.1,1.4
	c0,0.4,0,0.9,0,1.3c0,0.3,0,0.6,0,0.9c0,0.4,0,0.9,0,1.3c0,0.3,0,0.6,0,0.9c0.1,10.4-1.7,20.6-4.6,30.6c-2.6,9-6,17.6-10.4,25.8
	c-4.7,8.9-10.2,17.2-16.7,25c-3.8,4.6-7.9,8.9-12.3,13c-7.8,7.2-16.2,13.5-25.4,18.9c-15.2,8.8-31.6,14.6-49,17.3
	c-3.5,0.6-7.1,0.7-10.7,0.8c-1,0-2.1,0.2-3.1,0.1c-0.6,0-1.2,0-1.8,0c-0.4,0-0.7,0-1.1,0c-0.4,0-0.7,0-1.1,0
	C203.3,340.2,202.7,340,202.1,340.3z"/>
<path class="st1" d="M194.9,60c-7.2,0.4-14.4,1.1-21.6,2.5c-15.4,3-29.9,8.4-43.4,16.3c-21.4,12.5-38.4,29.5-50.9,50.8
	c-7.9,13.5-13.3,27.9-16.4,43.2c-1.3,6.6-2.1,13.3-2.5,20.1c-0.2,0.8,0,1.6-0.1,2.4c0,0.3,0.1,0.7-0.4,0.6c0-45.4,0-90.8,0-136.3
	c45.1,0,90.1,0,135.2,0C195.1,59.8,195.1,59.9,194.9,60z"/>
<path class="st1" d="M60.3,207c1.3,24.5,8.4,47.2,21.6,68c13.9,21.8,32.4,38.5,55.4,50.3c11.6,5.9,23.8,10,36.6,12.5
	c5.2,1,10.4,1.7,15.7,2.1c0.8,0.1,1.5,0.2,2.3,0.2c0.2,0.1,0.2,0.2,0,0.3c-44,0-88.1,0-132.2,0c0-44.9,0-89.8,0-134.6
	c0.1-0.1,0.2-0.1,0.3,0C60.3,206.1,60,206.6,60.3,207z"/>
<path class="st1" d="M340,191.4c-2.7-38.5-18.5-70.6-47.1-96.3C274.5,78.6,253,68,228.8,62.8c-7.2-1.5-14.6-2.4-21.9-2.8
	c-0.3,0-0.6,0-1-0.1c-0.2-0.1-0.2-0.2,0-0.2c44.8,0,89.5,0,134.4,0c0,43.9,0,87.8,0,131.6C340.2,191.6,340.1,191.6,340,191.4z"/>
<path class="st1" d="M208.1,340c4.2-0.4,8.4-0.7,12.6-1.3c12.1-1.8,23.8-5.1,35-10c20.6-9,38.1-22.1,52.4-39.4
	c14.3-17.3,24-36.9,28.9-58.8c1.4-6.4,2.4-12.8,2.9-19.3c0.1-0.9,0.1-1.7,0.1-2.6c0.1-0.2,0.1-0.2,0.2,0c0,43.9,0,87.8,0,131.6
	c-44.1,0-88.1,0-132.2,0C207.9,340.2,207.9,340.1,208.1,340z"/>
<path class="st2" d="M60.3,207c-0.2-0.4-0.2-0.9-0.3-1.4c-0.3-0.8,0.1-1.7-0.2-2.5c0-2.4,0-4.7,0-7.1c0.4-1,0.1-2.1,0.5-3
	C60.2,197.7,60.1,202.3,60.3,207z"/>
<path class="st3" d="M204,60c-2.3,0-4.6,0-6.9,0c-0.2-0.1-0.2-0.2,0-0.2c2.3,0,4.6,0,6.8,0C204.2,59.8,204.2,59.9,204,60z"/>
<path class="st4" d="M59.7,203.1c0.3,0.8,0.2,1.6,0.2,2.5c-0.1,0-0.2,0-0.2,0C59.7,204.8,59.7,204,59.7,203.1z"/>
<path class="st5" d="M197.1,59.7c0,0.1,0,0.2,0,0.2c-0.7,0.1-1.5,0.1-2.2,0c0-0.1,0-0.2,0-0.2C195.7,59.7,196.4,59.7,197.1,59.7z"/>
<path class="st6" d="M204,60c0-0.1,0-0.2,0-0.2c0.6,0,1.3,0,1.9,0c0,0.1,0,0.2,0,0.2C205.3,60.1,204.6,60,204,60z"/>
<path class="st7" d="M202.1,340.3c0.6-0.4,1.3-0.3,1.9-0.2c0.2,0.1,0.2,0.2,0,0.2C203.3,340.3,202.7,340.3,202.1,340.3z"/>
<path class="st8" d="M208.1,340c0,0.1,0,0.2,0,0.3c-0.6,0-1.3,0-1.9,0c-0.2-0.1-0.2-0.2,0-0.2C206.8,340,207.4,339.9,208.1,340z"/>
<path class="st9" d="M196,340c0.7,0,1.3-0.1,1.9,0.2c-0.6,0-1.3,0-1.9,0C195.8,340.2,195.8,340.1,196,340z"/>
<path class="st10" d="M340,194.1c0-0.5,0-1.1,0-1.6c0.1-0.2,0.2-0.2,0.2,0c0,0.5,0,1.1,0,1.6C340.2,194.3,340.1,194.3,340,194.1z"/>
<path class="st11" d="M340,196.3c0-0.5,0-0.9,0-1.4c0.1-0.2,0.2-0.2,0.2,0c0,0.5,0,0.9,0,1.4C340.1,196.5,340.1,196.5,340,196.3z"/>
<path class="st12" d="M340,207.8c0-0.5,0-0.9,0-1.4c0.1-0.2,0.1-0.2,0.2,0c0,0.5,0,0.9,0,1.4C340.2,208,340.1,208,340,207.8z"/>
<path class="st13" d="M340,196.3c0.1,0,0.2,0,0.2,0c0,0.5,0,0.9,0,1.4C339.9,197.2,340,196.8,340,196.3z"/>
<path class="st14" d="M340,205.6c0-0.5,0-0.9,0-1.4c0.1-0.2,0.1-0.2,0.2,0c0,0.5,0,0.9,0,1.4C340.2,205.8,340.1,205.8,340,205.6z"/>
<path class="st15" d="M340.3,204.2c-0.1,0-0.2,0-0.2,0c0-0.5-0.1-1,0.2-1.4C340.3,203.3,340.3,203.8,340.3,204.2z"/>
<path class="st16" d="M340.3,192.5l-0.1,0l-0.1,0c0-0.4,0-0.7,0-1.1c0.1,0,0.2,0,0.2,0C340.3,191.7,340.3,192.1,340.3,192.5z"/>
<path class="st17" d="M191.9,340.3c0-0.1,0-0.2,0-0.3c0.4-0.1,0.7,0,1.1,0c0.2,0.1,0.2,0.2,0,0.2
	C192.7,340.3,192.3,340.3,191.9,340.3z"/>
<path class="st18" d="M193,340.3c0-0.1,0-0.2,0-0.2c0.4,0,0.7,0,1.1,0c0.2,0.1,0.2,0.1,0,0.2C193.8,340.3,193.4,340.3,193,340.3z"/>
<path class="st19" d="M196,340c0,0.1,0,0.2,0,0.2c-0.4,0-0.7,0-1.1,0c-0.2-0.1-0.2-0.1,0-0.2C195.3,340,195.6,340,196,340z"/>
<path class="st20" d="M204,340.3c0-0.1,0-0.2,0-0.2c0.4,0,0.7,0,1.1,0c0.2,0.1,0.2,0.2,0,0.2C204.7,340.3,204.3,340.3,204,340.3z"/>
<path class="st21" d="M205.1,340.3c0-0.1,0-0.2,0-0.2c0.4,0,0.7,0,1.1,0c0,0.1,0,0.2,0,0.2C205.8,340.3,205.4,340.3,205.1,340.3z"/>
<path class="st22" d="M340,205.6c0.1,0,0.2,0,0.2,0c0,0.3,0,0.5,0,0.8l-0.1,0c0,0-0.1,0-0.1,0C340,206.2,340,205.9,340,205.6z"/>
<path class="st23" d="M340,207.8c0.1,0,0.2,0,0.2,0c0,0.3,0,0.5,0,0.8l-0.1,0l-0.1,0C340,208.4,340,208.1,340,207.8z"/>
<path class="st24" d="M340.3,194.9c-0.1,0-0.2,0-0.2,0c0-0.3,0-0.5,0-0.8c0.1,0,0.1,0,0.2,0C340.3,194.4,340.3,194.7,340.3,194.9z"
	/>
<path class="st25" d="M194.9,340c0,0.1,0,0.2,0,0.2c-0.3,0-0.5,0-0.8,0c0-0.1,0-0.2,0-0.2C194.4,340,194.6,340,194.9,340z"/>
<path class="st1" d="M66.5,200c-0.1-73,59.4-133.6,133.8-133.6c73.7,0,133.7,60.1,133.6,133.8c-0.1,73.6-60.1,133.5-133.7,133.5
	C126.4,333.7,66.4,273.5,66.5,200z"/>
<path class="st0" d="M170.2,273.4c-14.5-43.2-29-86.4-43.6-129.7c0.8-0.1,1.4-0.2,2-0.2c3.7-0.2,7.4-0.6,11-0.9
	c0.4,0,0.8-0.1,1.2-0.2c3.8-0.8,5.3-5.4,2.7-8.3c-1.1-1.2-2.4-1.6-3.9-1.5c-6.1,0.5-12.2,0.8-18.3,1.1c-6.7,0.3-13.3,0.5-20,0.3
	c-0.4,0-0.8,0-1.2-0.1c0.9-3.1,12.3-16.5,19.7-23.2c7.6-6.9,16-12.7,25.1-17.4c9.1-4.7,18.7-8.3,28.7-10.5
	c41.4-9.3,81.5,4.1,107.6,28.5c-0.9,0-1.6,0-2.3,0c-8.7,0.7-14.4,5.4-17.7,13.2c-2.3,5.5-1.9,11.1-0.2,16.6c1.5,4.6,3.8,8.9,6.3,13
	c2.5,4.2,5.2,8.3,7.3,12.7c2.9,5.8,5,11.8,6,18.2c1,6.6,0.8,13.1-0.5,19.6c-1.6,7.9-4.1,15.5-6.4,23.2c-4.4,14.5-8.7,29-13.1,43.4
	c-0.1,0.4-0.2,0.9-0.6,1.4c-14.4-42.9-28.8-85.8-43.3-128.7c0.5-0.4,1-0.3,1.5-0.3c3.7-0.2,7.5-0.6,11.2-0.9c0.5-0.1,1-0.1,1.5-0.2
	c4.1-0.7,4.9-5.1,3.2-7.7c-1-1.6-2.6-2.3-4.4-2.1c-6,0.4-12.1,0.8-18.2,1.1c-9,0.5-18,0.5-27.1,0c-5.3-0.3-10.6-0.6-15.8-0.9
	c-0.9-0.1-1.7-0.2-2.6-0.2c-2-0.1-3.6,0.6-4.6,2.4c-1,1.9-1,3.8,0.1,5.6c0.7,1.1,1.7,1.7,2.9,1.8c2.4,0.3,4.8,0.6,7.2,0.8
	c1.6,0.2,3.3,0.3,4.9,0.4c0.9,0,1.3,0.4,1.6,1.3c3.6,9.9,7.2,19.9,10.9,29.8c2.3,6.4,4.6,12.8,7,19.1c0.3,0.9,0.3,1.6,0,2.5
	c-8.5,25.3-16.9,50.6-25.4,76c-0.1,0.4-0.3,0.8-0.4,1.2C170.4,273.4,170.3,273.4,170.2,273.4z"/>
<path class="st0" d="M202.5,211c12.5,34.1,24.9,68.2,37.4,102.5c-0.1,0.2-0.5,0.2-0.8,0.3c-7.6,2.6-15.4,4.4-23.4,5.5
	c-8,1-16,1.3-24,0.7c-8.2-0.6-16.3-2-24.2-4.3c0,0-0.1,0-0.1,0c-1.1-0.3-1.1-0.3-0.7-1.4c1-2.8,1.9-5.7,2.9-8.5
	c10.7-31.2,21.5-62.4,32.2-93.5c0.1-0.4,0.3-0.8,0.5-1.2C202.3,211,202.4,211,202.5,211z"/>
<path class="st0" d="M147.7,308.1c-61.6-29.9-82.5-102.4-57.2-156.8C109.6,203.6,128.6,255.7,147.7,308.1z"/>
<path class="st0" d="M306.3,143.5c4.9,9.2,8.5,18.8,10.9,28.9c2.7,11.3,3.7,22.9,3,34.5c-1.6,26.4-10.9,49.8-27.8,70.2
	c-8.4,10.2-18.3,18.6-29.6,25.5c-0.6,0.3-1.1,0.8-1.8,1c-0.2-0.5,0.1-0.9,0.2-1.3c12-34.6,23.9-69.2,35.9-103.8
	c1.8-5.1,3.7-10.1,5.2-15.3c2.6-9.1,4.1-18.4,4.1-27.9c0-3.6-0.2-7.1-0.5-10.7C306,144.2,305.6,143.7,306.3,143.5z"/>
<path class="st26" d="M306.3,143.5c-0.3,0.3-0.1,0.8-0.3,1.1c-0.3-0.5-0.2-1.1-0.3-1.7C306.2,143,306.2,143.3,306.3,143.5z"/>
</svg>
