<?xml version="1.0" encoding="utf-8"?>
<!-- Generator: Adobe Illustrator 24.1.1, SVG Export Plug-In . SVG Version: 6.00 Build 0)  -->
<svg version="1.1" id="GraphQL_Logo" xmlns="http://www.w3.org/2000/svg" xmlns:xlink="http://www.w3.org/1999/xlink" x="0px"
	 y="0px" viewBox="0 0 400 400" style="enable-background:new 0 0 400 400;" xml:space="preserve">
<style type="text/css">
	.st0{fill:#FED33B;}
	.st1{fill:#306997;}
	.st2{fill:#306998;}
	.st3{fill:#4888BA;}
	.st4{fill:#4C8CBF;}
	.st5{fill:#FED642;}
	.st6{fill:#5395C9;}
	.st7{fill:#FED848;}
	.st8{fill:#5092C5;}
	.st9{fill:#4E8FC2;}
	.st10{fill:#FED847;}
	.st11{fill:#FEDF5B;}
	.st12{fill:#FEE05E;}
	.st13{fill:#FED94C;}
	.st14{fill:#FEDA4D;}
	.st15{fill:#FEDD55;}
	.st16{fill:#5699CD;}
	.st17{fill:#FEE263;}
	.st18{fill:#FEDB51;}
	.st19{fill:#4583B5;}
	.st20{fill:#FEE367;}
	.st21{fill:#FEDE59;}
	.st22{fill:#417FB0;}
	.st23{fill:#346E9D;}
	.st24{fill:#FEE05F;}
	.st25{fill:#3E7BAC;}
	.st26{fill:#3E7BAB;}
	.st27{fill:#4584B6;}
	.st28{fill:#3771A1;}
	.st29{fill:#3772A1;}
	.st30{fill:#417EAF;}
	.st31{fill:#4381B3;}
	.st32{fill:#3B77A8;}
	.st33{fill:#FEE56D;}
	.st34{fill:#346E9E;}
	.st35{fill:#326C9B;}
	.st36{fill:#3975A5;}
	.st37{fill:#3974A5;}
	.st38{fill:#589DD1;}
	.st39{fill:#FEE264;}
	.st40{fill:#FEFEFE;}
	.st41{fill:#FDFEFE;}
</style>
<g>
	<path class="st0" d="M170,206.4c4.2,3.5,7.8,7.7,11.8,11.4c3.9,3.7,10.2,2,11.5-3.2c0.6-2.4-0.1-4.5-1.9-6.3
		c-2.8-2.8-5.6-5.6-8.3-8.5c-0.6-1.4,0.7-1.7,1.4-2.2c4-2.3,8.1-4.4,12.2-6.5c4-2.1,7.9-4.5,12.1-6.2c0.6,0.6,1.3,1.1,1.9,1.7
		c2,2.3,4.4,3.6,7.5,3.2c1.7,0,3,0.9,4.4,1.6c7.7,3.5,15.8,5.2,24.2,6c0.8,0.1,1.6-0.1,2.2,0.7c-5.3,10.6-13.8,17-25.3,19.4
		c-1.3,0.3-1.7,0.8-2,2.1c-3.1,15.5-15.4,26.6-31.3,28.4c-7.5,0.9-14.7,0.1-21.4-3.6c-1.6-0.9-3-2-4.3-3.2
		c-7-6.7-13.8-13.5-20.6-20.5c-0.6-1.2,0.3-1.6,1.1-2c7.7-4.1,15.4-8.3,23.1-12.3C168.8,206.2,169.4,205.9,170,206.4z"/>
	<path class="st1" d="M248.8,198.3c-10.8-0.5-21.2-3-30.7-8.2c3-1.4,5.5-3.2,5.4-7c0-2.2-1.1-3.8-2.6-5.3
		c-3.4-3.4-6.8-6.8-10.2-10.2c-0.3-0.7,0.3-1.1,0.7-1.4c7.4-5.3,14.7-10.8,22.4-15.8c5.6,5.5,11.8,10.5,15.1,17.9
		C253.3,178.3,253.4,188.3,248.8,198.3z"/>
	<path class="st0" d="M29.9,286.9c0-2.7,0-5.5,0-8.2c0-2.4,1.7-4.2,3.8-4.1c2,0.1,3.6,1.8,3.6,4.1c0,5.1,0,10.3,0,15.4
		c0,4.7,2.9,7.9,7.1,7.8c4.2,0,7.1-3.2,7.1-7.9c0-4.8,0-9.5,0-14.3c0-3.4,1.2-5.1,3.6-5.1c2.4,0,3.7,1.9,3.7,5.2c0,5,0,10,0,14.9
		c0,3.4,2.1,6,5.2,6.9c3,0.8,6.1-0.4,7.9-3.2c1.1-1.7,1.1-3.6,1.2-5.4c0-4.8,0-9.7,0-14.5c0-2.4,1.3-3.9,3.4-4
		c2-0.1,3.8,1.4,3.8,3.6c0,6.3,0.6,12.7-0.3,19c-0.8,5.6-4.2,9.5-9.6,11.2c-5.3,1.8-10.3,1.1-14.5-2.9c-0.8-0.7-1-0.8-1.8-0.1
		c-4.6,4.4-10.1,5-15.7,2.6c-5.7-2.4-8.6-7-8.7-13.3C29.8,292.1,29.9,289.5,29.9,286.9z"/>
	<path class="st0" d="M132.3,277.3c4.8-3,9.7-3.5,14.8-2.1c6.8,1.9,11.9,8,12.5,14.8c0.7,7.1-3.1,14.2-9.2,17.3
		c-6.6,3.3-14.3,2.2-19.8-2.7c-3.7-3.3-5.6-7.5-5.6-12.4c-0.1-8.5,0-17,0-25.6c0-2.9,1.3-4.3,3.7-4.3c2.4,0,3.7,1.4,3.7,4.3
		C132.3,270.1,132.3,273.6,132.3,277.3z"/>
	<path class="st1" d="M270.3,126.7c3.7,3.6,7.6,7.1,11,11c5.3,5.8,4.5,15-1.4,20.2c-3,2.6-5.7,5.5-8.5,8.3c-0.6,0.6-1,1.1-1.9,0.3
		c-7.6-7.6-15.1-15.2-22.7-22.8c-0.2-1,0.6-1.4,1.2-1.9c6.8-5,13.7-9.7,20.5-14.6C269,126.8,269.6,126.4,270.3,126.7z"/>
	<path class="st0" d="M96,299c4.2,4.7,12.5,3.4,15.6-2.2c0.3-0.6,0.5-1.2,0.8-1.8c1-2,2.7-2.8,4.6-2c1.9,0.7,2.9,2.7,2.1,4.8
		c-2.1,5.6-6.1,9.4-11.8,10.9c-11.2,2.9-21.7-5.3-21.9-16.8c-0.1-6.5,4.2-13.3,10.3-15.8c6.8-2.8,13.1-1.7,18.8,3.1
		c1.5,1.3,2.7,2.8,3.6,4.5c1.5,2.9,0.9,4.8-2.1,6.1c-6.5,3-13,5.9-19.5,8.9C96.4,298.7,96.3,298.8,96,299z"/>
	<path class="st1" d="M300.5,298.9c4.1,4.7,12.3,3.6,15.5-1.8c0.4-0.6,0.6-1.3,1-1.9c1.1-2.3,2.9-3.1,4.9-2.1c2,0.9,2.6,2.8,1.8,5.1
		c-2.5,6.9-9.8,11.5-17.5,11c-7.8-0.6-14.3-6.4-15.8-14.1c-1.6-8.2,3.2-16.7,11-19.4c8.1-2.9,17.1,0.4,21.2,7.7
		c1.9,3.4,1.3,5.1-2.2,6.7C313.7,292.9,307.2,295.9,300.5,298.9z"/>
	<path class="st1" d="M258.6,285.6c0-6.3,0-12.6,0-18.8c0-1.9,0.5-3.6,2.6-4.3c2.5-0.9,4.8,0.8,4.8,3.6c0,6.2,0.1,12.4,0,18.6
		c0,1.9,0.7,2.1,2.3,2c4-0.4,7.6-3.3,8.6-7.2c0.2-0.6,0.3-1.3,0.4-1.9c0.5-2,2.3-3.3,4.1-3c2,0.3,3.4,2.1,3.1,4.3
		c-0.5,3.9-1.7,7.5-4.7,10.2c-0.8,0.7-0.8,1,0,1.7c4.1,3.7,6.2,8.4,6.1,14c0,2.7-1.4,4.4-3.6,4.5c-2.2,0-3.8-1.7-3.7-4.3
		c0-2.4-0.5-4.6-1.9-6.5c-2.3-3.2-5.6-4.3-9.5-4.2c-1.2,0-1.2,0.7-1.2,1.5c0,3,0,6.1,0,9.1c0,2.9-1.3,4.4-3.5,4.5
		c-2.3,0-3.8-1.7-3.8-4.5C258.6,298.3,258.6,291.9,258.6,285.6z"/>
	<path class="st1" d="M189.6,291.8c0-9.6,7.7-17.3,17.3-17.3c9.6,0,17.3,7.8,17.3,17.4c0,9.6-7.8,17.3-17.4,17.3
		C197.2,309.2,189.6,301.5,189.6,291.8z"/>
	<path class="st1" d="M172.2,309.2c-2,0-3.5,0.1-5,0c-2-0.1-3.6-1.7-3.6-3.6c0-1.9,1.5-3.6,3.5-3.7c2.5-0.1,5.1,0,7.6,0
		c2.3,0,3.6-0.9,3.7-2.7c0.2-2.1-1.2-2.9-2.9-3.4c-1.7-0.5-3.4-0.9-5-1.5c-5.7-2-8.2-7.8-5.7-13.3c1.9-4.1,5.1-6.4,9.7-6.4
		c1.7,0,3.5,0,5.2,0c2.4,0.1,3.9,1.5,3.9,3.7c0,2.2-1.4,3.6-3.9,3.7c-1.4,0.1-2.9,0-4.3,0c-2.7,0-4,0.9-4.3,2.7
		c-0.3,1.8,0.8,3,3.4,3.8c1.4,0.5,2.9,0.9,4.4,1.3c4,1.2,6.4,3.8,6.8,8c0.3,4.3-1.4,7.7-5,10.1C177.8,309.5,174.7,309.2,172.2,309.2
		z"/>
	<path class="st1" d="M356.2,309.2c-1.5,0-3,0.1-4.6,0c-2-0.1-3.6-1.7-3.6-3.6c0-2,1.6-3.7,3.7-3.7c2.6-0.1,5.2-0.1,7.8,0
		c1.9,0,3.1-0.9,3.4-2.7c0.3-1.8-0.9-2.8-2.5-3.3c-1.8-0.6-3.6-1-5.4-1.6c-7.8-2.2-8-11.5-4.4-15.7c2.2-2.6,5-4.1,8.5-4.1
		c1.7,0,3.5,0,5.2,0c2.3,0.1,3.7,1.5,3.8,3.6c0.1,2.1-1.4,3.6-3.7,3.7c-1.7,0.1-3.5,0-5.2,0c-1.9,0-3.4,0.7-3.7,2.6
		c-0.3,2,0.9,3.1,2.7,3.6c1.8,0.5,3.6,1,5.4,1.6c4.8,1.7,7.1,5.5,6.4,10.4c-0.7,4.8-4.9,8.8-9.4,9
		C359.1,309.2,357.7,309.2,356.2,309.2z"/>
	<path class="st2" d="M329.5,283c0-5.4,0-10.8,0-16.3c0-2,0.5-3.8,2.7-4.4c2.5-0.6,4.5,0.8,4.6,3.4c0.1,2.4,0.1,4.8,0,7.1
		c0,1.2,0.4,1.7,1.6,1.6c1-0.1,2-0.1,3,0c2,0.1,3.4,1.5,3.5,3.4c0.1,2-1,3.4-3,3.8c-0.6,0.1-1.2,0.1-1.7,0.1c-3.4,0-3.4,0-3.4,3.5
		c0,4.3,0,8.5,0,12.8c0,3.2,0.4,3.6,3.6,3.7c0.8,0,1.6,0,2.3,0.4c1.7,0.8,2.4,2,2.2,3.8c-0.2,1.8-1.4,2.9-3.1,3.1
		c-6.9,0.8-12.5-2.9-12.4-10.3c0-2.7,0-5.3,0-8C329.5,288.2,329.5,285.6,329.5,283z"/>
	<path class="st1" d="M228.5,291.8c-0.1-11.1,10.5-19.5,21.2-16.9c1.5,0.4,3,0.8,3.6,2.5c0.5,1.3,0.4,2.7-0.6,3.9
		c-1,1.1-2.2,1.4-3.7,1.2c-5.5-1-9.5,0.5-11.7,4.4c-2.1,3.6-2,7.4,0.3,10.8c2.5,3.5,6,4.8,10.2,4c0.4-0.1,0.7-0.2,1.1-0.2
		c2.4-0.3,4.1,0.7,4.5,2.7c0.5,2.3-0.6,3.9-3.1,4.6C239.3,311.6,228.6,303.3,228.5,291.8z"/>
	<path class="st3" d="M240.9,98c1.7,1.1,3.3,2.3,4.5,4c-1.5,2.1-3.9,3.1-6,4.6c-4.9,3.5-9.8,7.1-14.8,10.5c-1,0.7-2,1.4-2.6,2.6
		c-5.6-1.4-9.3,1.3-9.6,7c-1.2-0.5-2.1,0.1-3.1,0.8c-6.5,4.6-13,9.3-19.5,13.8c-0.6,0.4-1.2,1-2.1,1.1c-1-1.6-1.8-3.4-2.1-5.3
		c1.9-2.2,4.5-3.6,6.8-5.3c15.5-11,31-21.9,46.4-33C239.5,98.4,240,97.7,240.9,98z"/>
	<path class="st4" d="M240.9,98c-16.2,11.5-32.4,23-48.6,34.5c-2.2,1.6-4.3,3.4-6.7,4.6c-0.6-1.1-0.8-2.2-0.9-3.4
		c-0.6-1.5,0.5-2.3,1.4-3c4.6-3.4,9.3-6.7,13.9-10c11.4-8.1,22.9-16.2,34.3-24.3c0.8-0.6,1.6-1.6,2.8-1
		C238.7,96,239.9,96.9,240.9,98z"/>
	<path class="st5" d="M208.7,185.1c-0.2,0.7-0.8,0.9-1.4,1.2c-7.5,4-15,7.9-22.5,11.9c-0.7,0.4-1.7,0.6-1.7,1.7
		c-2.1-2-4.2-3.9-6.1-6.1c-0.6-1.3,0.5-1.6,1.3-2c4.3-2.3,8.6-4.7,13-6.9c3.1-1.6,6-3.4,9.2-4.8c0.8-0.4,1.7-1,2.7-0.5
		C205,181.4,206.9,183.2,208.7,185.1z"/>
	<path class="st5" d="M170,206.4c-2.5,0.8-4.8,2.2-7.2,3.4c-5.7,3-11.4,6.1-17.1,9.2c-0.7,0.4-1.7,0.6-1.7,1.7
		c-2.1-1.9-4.2-3.9-6.1-6.1c-0.6-1.3,0.5-1.7,1.3-2.1c4.3-2.3,8.6-4.7,13-6.9c3.1-1.6,6.2-3.5,9.4-4.9c0.8-0.3,1.5-1,2.4-0.4
		C166.1,202.3,168.3,204.2,170,206.4z"/>
	<path class="st6" d="M223.5,91.1c1.8,0,3.5,0.1,5.1,0.9c0,1-0.7,1.5-1.4,2c-13.6,9.6-27.1,19.3-40.8,28.8c-1,0.7-1.2,2.1-2.4,2.5
		c-0.1-2.8,0.2-5.6,1.2-8.2c2.3-2.2,5.1-3.8,7.6-5.6c9.2-6.6,18.6-13,27.7-19.8C221.4,91,222.4,90.7,223.5,91.1z"/>
	<path class="st7" d="M203.2,179.5c-4.6,1.6-8.7,4.4-13,6.6c-3.9,1.9-7.6,4-11.4,6.1c-0.7,0.4-1.7,0.6-1.7,1.7
		c-2-1.7-3.9-3.6-5.6-5.6c-0.1-1.3,1-1.6,1.9-2.1c7.4-3.9,14.7-7.8,22.1-11.7c0.7-0.4,1.4-0.8,2.2-0.5
		C199.4,175.7,201.3,177.6,203.2,179.5z"/>
	<path class="st8" d="M184,125.4c0.2-2.6,2.6-3.2,4.2-4.4c9.3-6.7,18.7-13.3,28.1-20c3.6-2.6,7.3-5.1,10.9-7.7
		c0.5-0.4,0.9-0.9,1.4-1.3c1.4,0.6,3,0.4,4.3,1.3c0.1,1.4-1,2-1.9,2.6c-14.5,10.2-28.9,20.5-43.4,30.8c-1.5,1.1-2.6,2.3-3.3,4
		C183.7,128.9,184,127.1,184,125.4z"/>
	<path class="st9" d="M184.3,130.7c-0.2-1.8,0.6-2.8,2.1-3.8c13.8-9.7,27.5-19.5,41.2-29.3c1.9-1.3,4.1-2.2,5.4-4.3
		c1.5,0.6,3.1,1.1,4.3,2.2c-3,1.2-5.3,3.4-7.9,5.2c-9.5,6.6-18.9,13.4-28.3,20.1c-5,3.6-10.1,7.2-15.1,10.8
		c-0.8,0.5-1.2,1.2-1.2,2.2C184.2,132.7,184.4,131.7,184.3,130.7z"/>
	<path class="st10" d="M164,200.4c-4.6,1.6-8.6,4.4-12.9,6.5c-3.9,1.9-7.6,4.1-11.4,6.1c-0.7,0.4-1.7,0.6-1.7,1.7
		c-1.9-1.6-3.6-3.3-5.2-5.2c-0.6-1.3,0.5-1.6,1.2-2.1c2.9-1.9,6.1-3.3,9.1-4.9c4.7-2.6,9.5-4.9,14.1-7.6c0.4-0.2,0.8-0.4,1.2-0.2
		C160.4,196.5,162.3,198.3,164,200.4z"/>
	<path class="st11" d="M118.8,195.6c-1.9-1.7-3.2-3.9-3.6-6.5c0.3-0.8,1-1,1.6-1.3c7.2-3.8,14.4-7.5,21.5-11.5
		c0.4-0.2,0.8-0.4,1.2-0.2c1.9,1.6,3.6,3.3,5.2,5.2c-0.7,1-1.8,1.4-2.8,2C134.3,187.3,126.5,191.4,118.8,195.6z"/>
	<path class="st12" d="M176.2,152.7c1.7,1.5,3.4,2.9,4.7,4.8c-0.6,0.9-1.6,1.2-2.5,1.7c-7.8,4.3-15.8,8.3-23.6,12.6
		c-1.7-1.5-3.3-3-4.8-4.8c-0.6-1.1,0.4-1.4,1-1.7c7.7-4.2,15.5-8.2,23.2-12.4C174.9,152.5,175.5,152.2,176.2,152.7z"/>
	<path class="st13" d="M158.4,194.7c-3.1,2.3-6.8,3.8-10.1,5.7c-4.7,2.6-9.5,5.1-14.2,7.6c-0.7,0.3-1.3,0.7-1.3,1.5
		c-1.7-1.4-3.3-3-4.8-4.8c-0.6-1.4,0.6-1.7,1.4-2.2c3.8-2.1,7.6-4.1,11.4-6.1c3.6-1.9,7.2-3.9,10.9-5.7c0.8-0.4,1.5-0.9,2.4-0.3
		C155.6,191.7,157,193.1,158.4,194.7z"/>
	<path class="st14" d="M197.5,173.9c-7.9,4.2-15.9,8.4-23.8,12.6c-0.9,0.5-1.8,0.9-2.4,1.8c-1.8-1.4-3.3-3-4.8-4.8
		c-0.1-1.2,0.9-1.4,1.6-1.8c7.5-4.2,15.2-8,22.7-12.2c0.6-0.3,1.2-0.6,1.8-0.4C194.3,170.7,195.9,172.3,197.5,173.9z"/>
	<path class="st15" d="M118.8,195.6c0.8-1.9,2.8-2.1,4.3-2.9c6.9-3.9,13.9-7.5,20.9-11.2c0.2-0.1,0.6-0.1,0.8-0.2
		c1.7,1.5,3.4,2.9,4.7,4.8c-1.4,1.5-3.4,2.2-5.1,3.1c-5.7,3-11.4,6.2-17.2,9.1c-1.3,0.6-2.3,1.7-3.7,2.2
		C121.9,198.9,120.3,197.4,118.8,195.6z"/>
	<path class="st16" d="M223.5,91.1c-0.8,0.1-1.5,0.1-2.2,0.6c-8.8,6.8-18,12.9-27,19.3c-3,2.1-5.7,4.6-9.1,6.1
		c0.5-3.2,1.8-6,3.5-8.7c7.7-5.2,15.3-10.7,22.9-16.1c0.3-0.2,0.7-0.5,0.9-0.9C216.2,90.8,219.8,90.3,223.5,91.1z"/>
	<path class="st17" d="M176.2,152.7c-2.2,1.1-4.5,2.2-6.7,3.4c-6,3.2-11.9,6.4-17.9,9.6c-0.6,0.3-1.4,0.4-1.5,1.4
		c-1.8-1.3-3.1-3.1-3.9-5.2c-0.1-1.2,1-1.5,1.7-1.9c5.6-3.1,11.2-5.9,16.8-9c1.6-0.9,3.2-1.6,4.7-2.6c0.6-0.4,1.2-0.9,2-0.4
		C173.1,149.4,174.7,150.9,176.2,152.7z"/>
	<path class="st18" d="M123.6,200.4c0.4-0.8,1-1.4,1.8-1.8c7.7-4.1,15.4-8.1,23.1-12.2c0.3-0.2,0.7-0.2,1-0.3
		c1.7,1.2,3.1,2.7,4.4,4.3c-2.6,0.8-4.9,2.2-7.3,3.5c-5.7,2.9-11.3,6-16.9,9c-0.8,0.4-1.9,0.6-1.9,1.8
		C126.3,203.4,124.9,202,123.6,200.4z"/>
	<path class="st19" d="M222.1,119.7c-0.7-0.9,0-1.3,0.7-1.8c6.8-4.8,13.5-9.6,20.3-14.4c0.7-0.5,1.3-1.4,2.3-1.5
		c1.6,1.3,3.1,2.7,4.4,4.3c-6.9,5.1-13.9,9.9-20.9,14.9c-0.9,0.6-1.7,1.4-2.6,2C224.9,122.1,223.8,120.5,222.1,119.7z"/>
	<path class="st20" d="M171.4,147.9c-5.1,2.7-10.3,5.5-15.4,8.2c-2.9,1.5-5.7,3.1-8.5,4.6c-0.5,0.3-1.1,0.5-1.3,1.1
		c-1.3-2.2-1.5-4.5-1.2-6.9c0.3-0.7,0.8-1.1,1.5-1.5c6-3.1,11.9-6.2,17.8-9.4c0.6-0.4,1.2-0.8,2-0.4
		C168.4,144.5,169.9,146.2,171.4,147.9z"/>
	<path class="st15" d="M184.9,161.3c1.5,1.4,2.9,2.9,4.4,4.3c-3.2,2-6.6,3.4-9.9,5.2c-5.1,2.8-10.2,5.4-15.3,8.2
		c-0.4,0.2-0.9,0.5-1.4,0.5c-1.4-1.2-2.8-2.4-3.9-3.9c-0.2-1.2,0.8-1.6,1.6-2c7.5-3.9,14.9-7.9,22.3-11.8
		C183.3,161.5,184,161,184.9,161.3z"/>
	<path class="st21" d="M184.9,161.3c-8.2,4.3-16.4,8.6-24.6,12.9c-0.7,0.3-1.2,0.7-1.6,1.4c-1.3-1.3-2.6-2.6-3.9-3.9
		c0.6-1.3,2-1.7,3.1-2.3c7.3-4,14.7-7.9,22.1-11.8c0.2-0.1,0.6-0.2,0.8-0.2C182.4,158.5,183.7,159.9,184.9,161.3z"/>
	<path class="st22" d="M226.4,123.2c0.6-2.2,2.8-2.7,4.4-3.9c5.7-4.2,11.5-8.3,17.3-12.4c0.6-0.4,1.1-0.7,1.8-0.6
		c1.4,1.2,2.8,2.5,3.9,3.9c-4.1,3.4-8.6,6.2-12.9,9.4c-3.5,2.5-7,5-10.5,7.6C228.9,126,227.6,124.7,226.4,123.2z"/>
	<path class="st23" d="M233.9,150.4c-2.1,2.5-5.1,3.9-7.6,5.9c-5.1,3.9-10.6,7.2-15.5,11.3c-1.4-1.1-2.7-2.5-3.9-3.9
		c-0.3-1.1,0.6-1.5,1.3-2c6.5-4.6,13-9.2,19.4-13.8c0.9-0.6,1.7-1.4,2.9-0.9C231.7,148,232.9,149.1,233.9,150.4z"/>
	<path class="st18" d="M162.7,179.6c1.4-1.6,3.5-2.2,5.3-3.2c6.1-3.4,12.4-6.7,18.6-10c0.8-0.4,1.7-0.7,2.7-0.7
		c1.2,1.1,2.3,2.3,3.5,3.4c-8.4,4.5-16.8,9-25.2,13.5c-0.4,0.2-0.6,0.6-0.9,0.8C165.1,182.3,163.8,181,162.7,179.6z"/>
	<path class="st24" d="M139.7,176.1c-7.9,4.7-16.1,9-24.4,13c-0.7-2.3-0.6-4.7,0.2-7c2.4-1.7,5.2-2.8,7.8-4.2
		c3.5-1.9,7-3.7,10.4-5.7C135.9,173.1,138.2,174,139.7,176.1z"/>
	<path class="st25" d="M230.4,127.1c0.3-1.5,1.8-2,2.8-2.7c6.2-4.5,12.4-8.9,18.7-13.3c0.6-0.4,1.2-0.8,1.9-0.9c1.2,0.9,2.2,1.9,3,3
		c-0.1,0.5-0.5,0.9-0.9,1.2c-7.3,5.2-14.6,10.4-22,15.6c-0.2,0.1-0.4,0.2-0.6,0.2C232.4,129.2,231.4,128.1,230.4,127.1z"/>
	<path class="st26" d="M198.3,155.2c-1.1-0.9-2.1-1.9-3-3c-0.2-1.2,0.8-1.6,1.5-2.1c6.6-4.8,13.3-9.4,19.9-14.1
		c0.6-0.5,1.2-1.1,2.1-0.6c1.1,0.9,2.2,1.9,3,3c-0.1,0.5-0.5,0.9-0.9,1.2c-7.1,5-14.1,10.1-21.3,15.1
		C199.2,154.9,198.8,155.1,198.3,155.2z"/>
	<path class="st27" d="M187.8,142.4c2.2-2.2,4.9-3.7,7.4-5.5c5-3.6,10.1-7.2,15.1-10.8c1-0.7,1.7-0.8,2.2,0.5c0.3,1,0.6,2,1,3.1
		c-7.1,5.1-14.3,10.1-21.4,15.2c-0.6,0.5-1.3,1-2.1,1C188.9,144.9,188.3,143.7,187.8,142.4z"/>
	<path class="st28" d="M230.5,147c-2.5,0.6-4.2,2.5-6.2,3.8c-5.3,3.6-10.5,7.5-15.8,11.2c-0.7,0.5-1.3,0.8-1.7,1.6c-1-1-2-2-3-3
		c-0.3-1.1,0.6-1.5,1.3-2c6.5-4.6,13-9.2,19.4-13.8c0.9-0.6,1.7-1.4,2.9-0.9C228.6,144.9,229.6,145.9,230.5,147z"/>
	<path class="st29" d="M241.6,138.4c-1-1-2-2-3-3.1c-0.2-1,0.6-1.4,1.2-1.8c6.6-4.7,13.3-9.4,19.9-14.1c0.7-0.5,1.3-1.2,2.3-0.9
		c1.2,0.9,2.2,1.9,3,3c-2.5,2.6-5.7,4.4-8.6,6.5C251.6,131.5,246.7,135.1,241.6,138.4z"/>
	<path class="st30" d="M218.7,135.3c-3.6,1.9-6.7,4.6-10.1,6.9c-3.9,2.6-7.7,5.5-11.6,8.2c-0.7,0.5-1.4,1-1.9,1.8
		c-1.1-0.7-1.9-1.8-2.7-2.9c-0.3-1,0.5-1.5,1.1-1.9c6.8-5,13.8-9.9,20.7-14.8c0.4-0.2,0.7-0.5,1.2-0.3
		C216.8,133.1,217.8,134.1,218.7,135.3z"/>
	<path class="st31" d="M215.6,132.3c-7.1,5-14.1,10.1-21.2,15.1c-0.7,0.5-1.4,1-1.8,1.8c-1.1-0.9-2-2-2.7-3.4
		c5-3.6,10.1-7.3,15.1-10.9c1.9-1.4,3.8-2.8,5.8-4.1c0.8-0.5,1.5-1.4,2.7-1.2C214.2,130.6,214.9,131.5,215.6,132.3z"/>
	<path class="st32" d="M198.3,155.2c2.4-2.4,5.5-4.1,8.3-6.1c5-3.7,10.2-7.2,15.3-10.7c0.9,0.8,1.7,1.7,2.6,2.5
		c0.3,0.8-0.4,1.2-0.9,1.5c-7.3,5.2-14.5,10.4-21.9,15.5c-0.1,0.1-0.3,0.1-0.4,0.2C200.2,157.1,199.2,156.1,198.3,155.2z"/>
	<path class="st33" d="M166.2,143.6c-5.4,2.9-10.9,5.8-16.3,8.7c-1.6,0.9-3.3,1.7-4.9,2.6C146,144.5,158,138.2,166.2,143.6z"/>
	<path class="st34" d="M241.6,138.4c2-2.6,5-4,7.6-5.9c5-3.6,10.1-7.1,15-10.8c0.2-0.2,0.5-0.2,0.8-0.2c1,0.7,1.9,1.6,2.6,2.6
		c-0.3,1-1.2,1.4-2,1.9c-6.7,4.8-13.5,9.5-20.1,14.3c-0.4,0.3-0.8,0.6-1.3,0.7C243.4,140.1,242.5,139.3,241.6,138.4z"/>
	<path class="st32" d="M233.4,130.2c2-2.3,4.7-3.7,7.1-5.5c5.4-3.9,10.9-7.7,16.3-11.5c1,0.7,1.9,1.6,2.6,2.6c-0.1,0.6-0.6,1-1,1.3
		c-7.1,5-14.2,10.2-21.4,15.2c-0.3,0.2-0.6,0.4-1,0.4C235,132,234.2,131.1,233.4,130.2z"/>
	<path class="st35" d="M244.2,141c1.4-2,3.6-3,5.5-4.4c5.6-4.1,11.3-8.1,17-12.1c0.3-0.2,0.6-0.3,1-0.5c1,0.7,1.9,1.6,2.6,2.6
		c-5.1,3.6-10.2,7.1-15.3,10.7c-2.8,2-5.8,3.6-8.2,6.2C246,142.7,245.1,141.9,244.2,141z"/>
	<path class="st36" d="M236,132.8c0.9-1.6,2.6-2.2,4-3.2c6.4-4.7,13-9.2,19.5-13.7c1,0.7,1.9,1.6,2.6,2.6
		c-7.5,5.3-15,10.5-22.4,15.8c-0.4,0.3-0.7,0.7-1,1.1C237.6,134.6,236.7,133.8,236,132.8z"/>
	<path class="st37" d="M201.2,158.1c1-1.8,2.9-2.5,4.4-3.6c5.9-4.3,12-8.5,18-12.8c0.3-0.2,0.4-0.5,0.7-0.8c1.2,0.9,2.2,1.9,3.1,3.1
		c-2.5,0.6-4.2,2.5-6.2,3.8c-5.3,3.6-10.5,7.5-15.8,11.2c-0.7,0.5-1.3,0.8-1.7,1.6C202.9,159.8,202.1,158.9,201.2,158.1z"/>
	<path class="st38" d="M212.5,91.5c-0.3,2.2-2.5,2.6-3.9,3.7c-5.6,4.2-11.3,8.1-17,12.1c-0.9,0.6-1.7,1.3-2.9,1.2
		C194.2,99.4,201.9,93.4,212.5,91.5z"/>
	<path class="st39" d="M133.6,172.2c-1.1,2.2-3.6,2.6-5.4,3.7c-3.6,2.2-7.5,4-11.3,5.9c-0.4,0.2-1,0.2-1.4,0.4
		C117.8,174.3,126.3,169.6,133.6,172.2z"/>
	<path class="st40" d="M152.2,291.9c0,5.5-4.3,9.9-9.9,9.9c-5.5,0-10-4.3-10-9.8c-0.1-5.5,4.6-10.2,10-10.1
		C147.8,282,152.2,286.5,152.2,291.9z"/>
	<path class="st41" d="M275.9,146.9c0.1,2.9-2.5,5.6-5.4,5.7c-2.9,0.1-5.6-2.5-5.7-5.4c-0.1-2.9,2.5-5.6,5.4-5.7
		C273.2,141.4,275.8,144,275.9,146.9z"/>
	<path class="st40" d="M109.5,284.7c-5.5,2.5-10.9,4.9-16.3,7.3c-0.2-4.2,2.1-7.8,5.8-9.2C102.7,281.3,107.6,281.9,109.5,284.7z"/>
	<path class="st41" d="M297.8,291.8c-0.3-3.6,2-7.3,5.5-8.9c3.9-1.7,8.3-1.1,10.8,1.8c-5,2.3-10,4.5-14.9,6.7
		C298.7,291.6,298.3,292,297.8,291.8z"/>
	<path class="st40" d="M196.9,291.9c0-5.6,4.5-10,10-10c5.4,0.1,9.8,4.5,9.9,10c0,5.5-4.5,10-10.1,9.9
		C201.3,301.8,196.9,297.4,196.9,291.9z"/>
</g>
</svg>
