<?xml version="1.0" encoding="utf-8"?>
<!-- Generator: Adobe Illustrator 24.1.1, SVG Export Plug-In . SVG Version: 6.00 Build 0)  -->
<svg version="1.1" id="GraphQL_Logo" xmlns="http://www.w3.org/2000/svg" xmlns:xlink="http://www.w3.org/1999/xlink" x="0px"
	 y="0px" viewBox="0 0 400 400" style="enable-background:new 0 0 400 400;" xml:space="preserve">
<style type="text/css">
	.st0{fill:#470137;}
	.st1{fill:#C1AABC;}
	.st2{fill:#C2AABC;}
	.st3{fill:#DFD3DC;}
	.st4{fill:#E2D4DE;}
	.st5{fill:#DCD0DA;}
	.st6{fill:#885A7D;}
	.st7{fill:#77436B;}
	.st8{fill:#9B6E8D;}
	.st9{fill:#916F8E;}
	.st10{fill:#CCB9C8;}
	.st11{fill:#C1A9BB;}
	.st12{fill:#DCCFD9;}
	.st13{fill:#E3D3DD;}
	.st14{fill:#C5A9BB;}
	.st15{fill:#BCA9BC;}
	.st16{fill:#DCD4DD;}
	.st17{fill:#E7DEE5;}
	.st18{fill:#AD8DA5;}
	.st19{fill:#9D7895;}
	.st20{fill:#FF61F6;}
</style>
<g>
	<path class="st0" d="M294.3,339.8c-62.8,0-125.6,0-188.3,0c-0.4-0.3-0.9-0.1-1.3-0.1c-0.2,0-0.4,0-0.6,0c-0.3,0-0.5,0-0.8,0
		c-0.2,0-0.4,0-0.6,0c-5.3-0.1-10.2-1.5-15-3.6c-11-4.7-19.4-12.4-25.1-22.9c-2.5-4.7-4.3-9.6-5.2-14.8c-0.3-1.9-0.4-3.8-0.4-5.7
		c-0.2-61.8-0.2-123.6,0-185.4c0-7.6,2.4-14.6,6-21.1c5-9,12.1-15.9,21.2-20.6c6.5-3.4,13.3-5.5,20.8-5.3c0.5,0,1,0,1.5,0
		c62.7,0,125.4,0,188,0c0.5,0,1,0,1.4,0c9.8-0.1,18.4,3.2,26.4,8.7c9.1,6.2,15.4,14.7,19.1,25c1.3,3.5,2.1,7,2.1,10.8
		c0,0.2,0,0.4,0,0.6c0,0.2,0,0.4,0,0.6c0,0.3-0.1,0.6,0.1,0.9c0,62.1,0,124.2,0,186.3c-0.2,0.3-0.1,0.6-0.1,0.9c0,0.2,0,0.4,0,0.6
		c0,0.2,0,0.4,0,0.6c0.1,5.6-1.7,10.7-4.1,15.5c-7.3,15.1-19.3,24.4-35.5,28.3c-1.9,0.5-3.9,0.3-5.8,0.6c-0.3,0-0.6,0-0.8,0
		c-0.3,0-0.5,0-0.8,0c-0.2,0-0.4,0-0.6,0C295.2,339.7,294.7,339.5,294.3,339.8z"/>
	<path class="st1" d="M294.6,60.4c-0.9,0-1.8,0-2.7,0c-61.7,0-123.3,0-185,0c-0.3,0-0.6,0-1,0c-0.1-0.1-0.1-0.1-0.1-0.2
		c0,0,0.1-0.1,0.1-0.1c62.9,0,125.7,0,188.6,0C294.7,60.2,294.7,60.3,294.6,60.4C294.6,60.4,294.6,60.4,294.6,60.4z"/>
	<path class="st2" d="M57.1,293.2c-0.3-0.3-0.2-0.7-0.3-1.1c-0.2-0.4,0.1-1-0.2-1.4c0-60.5,0-120.9,0-181.4c0.3-0.4,0-1,0.2-1.4
		c0.1-0.4,0-0.8,0.3-1.1c0.1,1.6-0.2,3.2-0.2,4.8c0,58.9,0,117.9,0,176.8C56.9,290,57.2,291.6,57.1,293.2z"/>
	<path class="st3" d="M106,60.2c0,0.1,0,0.2,0,0.2c-0.5,0-0.9,0-1.4,0c0-0.1,0-0.2,0-0.2C105.1,60.2,105.5,60.2,106,60.2z"/>
	<path class="st3" d="M294.6,60.4c0-0.1,0-0.2,0-0.2c0.5,0,0.9,0,1.4,0c0,0.1,0,0.2,0,0.2C295.5,60.4,295,60.4,294.6,60.4z"/>
	<path class="st4" d="M56.8,107.9c0,0.5,0.1,1-0.2,1.4c0-0.5,0-0.9,0-1.4C56.6,107.9,56.7,107.9,56.8,107.9z"/>
	<path class="st5" d="M56.6,290.7c0.3,0.4,0.2,0.9,0.2,1.4c-0.1,0-0.2,0-0.2,0C56.6,291.6,56.6,291.2,56.6,290.7z"/>
	<path class="st6" d="M104.6,339.6c0.5,0,1-0.1,1.4,0.2c-0.5,0-0.9,0-1.4,0C104.5,339.8,104.5,339.7,104.6,339.6
		C104.5,339.6,104.6,339.6,104.6,339.6z"/>
	<path class="st7" d="M294.3,339.8c0.4-0.4,0.9-0.3,1.4-0.2c0.1,0.1,0.1,0.1,0.1,0.2c0,0-0.1,0.1-0.1,0.1
		C295.2,339.8,294.8,339.8,294.3,339.8z"/>
	<path class="st8" d="M343.4,106.8c-0.3-0.2-0.3-0.5-0.2-0.8c0.1-0.1,0.2-0.1,0.2,0C343.4,106.3,343.4,106.6,343.4,106.8z"/>
	<path class="st9" d="M343.2,294c-0.1-0.3,0-0.6,0.2-0.8c0,0.3,0,0.5,0,0.8C343.4,294.1,343.3,294.1,343.2,294z"/>
	<path class="st10" d="M103.2,339.6c0.3,0,0.5,0,0.8,0c0.2,0.1,0.2,0.1,0,0.2c-0.3,0-0.5,0-0.8,0
		C103.1,339.7,103.1,339.6,103.2,339.6z"/>
	<path class="st11" d="M296.2,339.6c0.3,0,0.5,0,0.8,0c0.1,0.1,0.1,0.1,0.1,0.2c0,0.1-0.1,0.1-0.1,0.1c-0.3,0-0.5,0-0.8,0
		C296,339.7,296,339.6,296.2,339.6z"/>
	<path class="st12" d="M297,339.8c0-0.1,0-0.2,0-0.2c0.3-0.1,0.5-0.1,0.8,0c0,0.1,0,0.2,0,0.3C297.6,339.8,297.3,339.8,297,339.8z"
		/>
	<path class="st13" d="M343.2,104.9c0.1,0,0.2,0,0.2,0c0,0.2,0,0.4,0,0.5c-0.1,0.2-0.2,0.1-0.2,0
		C343.2,105.3,343.2,105.1,343.2,104.9z"/>
	<path class="st14" d="M343.2,105.5c0.1,0,0.2,0,0.2,0c0,0.2,0,0.4,0,0.5c-0.1,0-0.2,0-0.2,0C343.2,105.8,343.2,105.6,343.2,105.5z"
		/>
	<path class="st15" d="M343.2,294c0.1,0,0.2,0,0.2,0c0,0.2,0,0.4,0,0.5c-0.1,0.1-0.1,0.1-0.2,0C343.2,294.4,343.2,294.2,343.2,294z"
		/>
	<path class="st16" d="M343.2,294.5c0.1,0,0.2,0,0.2,0c0,0.2,0,0.4,0,0.5l-0.1,0l-0.1,0C343.2,294.9,343.2,294.7,343.2,294.5z"/>
	<path class="st17" d="M103.2,339.6c0,0.1,0,0.2,0,0.3c-0.2,0-0.4,0-0.5,0c0-0.1,0-0.2,0-0.3C102.9,339.5,103.1,339.5,103.2,339.6z"
		/>
	<path class="st18" d="M104.1,339.8c0-0.1,0-0.2,0-0.2c0.2,0,0.4,0,0.5,0c0,0.1,0,0.2,0,0.2C104.4,339.8,104.2,339.8,104.1,339.8z"
		/>
	<path class="st19" d="M296.2,339.6c0,0.1,0,0.2,0,0.2c-0.2,0-0.4,0-0.5,0c0-0.1,0-0.2,0-0.2C295.9,339.6,296,339.6,296.2,339.6z"/>
	<path class="st20" d="M301.2,183.4c0,17.2,0,34.4,0,51.6c0,4.5,0.3,8.9,0.6,13.3c0,0.5,0.1,1,0.1,1.5c0.1,1.7-0.2,2.1-1.8,2.8
		c-3.3,1.4-6.7,2.6-10.2,3.5c-10.5,2.9-21.2,4.1-32,3.5c-9.4-0.6-18.3-3-26.2-8.3c-9.3-6.2-15.2-15-17.7-25.9
		c-1.5-6.4-2-12.9-1.3-19.4c1.8-17.3,10.4-30.2,25.5-38.8c5.8-3.3,12-5.1,18.6-6.1c4.1-0.6,8.1-0.9,12.2-0.8c1.5,0,3.1,0.2,4.6,0.3
		c0.9,0,0.9,0,0.9-0.9c0-3.5,0-6.9,0-10.4c0-8.5,0-17,0-25.5c0-2.1,0.1-2.2,2.2-2.2c7.5,0,14.9,0,22.4,0c0.3,0,0.5,0,0.8,0
		c0.8,0.1,1.1,0.3,1.1,1.1c0,0.4,0,0.8,0,1.2C301.2,143.7,301.2,163.5,301.2,183.4z"/>
	<path class="st20" d="M155.2,178.9c0.3-0.2,0.4-0.4,0.5-0.6c5.4-11.2,11.4-22.1,17.3-33.1c2.2-4,4.2-8,6.3-12.1
		c0.4-0.8,1-1.1,1.9-1.1c2.7,0,5.5,0,8.2,0c5.5,0,11.1,0,16.6,0c0.2,0,0.5,0,0.7,0c1.3,0.1,1.6,0.6,0.9,1.8
		c-2.9,4.8-5.8,9.6-8.7,14.3c-8.7,14.4-17.4,28.7-26.2,43.1c-1.1,1.8-1.1,1.2,0,3.1c12.2,20.1,24.5,40.1,36.7,60.2
		c0.3,0.5,0.7,1,0.8,1.7c0,0.5,0,0.9-0.7,0.9c-0.4,0-0.8,0-1.2,0c-8.9,0-17.7,0-26.6,0c-0.4,0-0.8,0-1.2,0c-1.6,0-2.7-0.7-3.4-2.2
		c-7.3-14.8-15.3-29.2-23.4-43.6c-0.2-0.3-0.3-0.7-0.6-0.9c-0.4,0.1-0.5,0.5-0.6,0.7c-7.6,14.9-15.6,29.6-23.6,44.3
		c-0.8,1.5-1.8,2-3.4,1.9c-4.2-0.1-8.4,0-12.6,0c-4.4,0-8.8,0-13.2,0c-1.2,0-1.4-0.4-0.9-1.5c0.2-0.5,0.5-0.9,0.8-1.3
		c11.8-19.4,23.6-38.7,35.4-58.1c0.1-0.2,0.2-0.3,0.3-0.5c0.7-0.8,0.7-1.5,0.1-2.4c-1.2-1.9-2.3-3.8-3.4-5.7
		c-10.6-17.9-21.2-35.8-31.8-53.8c-0.3-0.5-0.9-1-0.5-1.7c0.4-0.7,1.2-0.5,1.9-0.5c8.6,0,17.2,0,25.8,0c0.4,0,0.8,0,1.2,0
		c1.2,0.1,2,0.7,2.5,1.8c1.3,2.7,2.5,5.4,3.9,8.1c3.9,7.8,8.3,15.3,12.7,22.9c2.4,4.2,4.7,8.5,6.8,12.9
		C154.7,178.1,154.8,178.6,155.2,178.9z"/>
	<path class="st0" d="M274.6,209.7c0,8.3,0,16.5,0,24.8c0,1.4,0,1.4-1.3,1.7c-0.4,0.1-0.7,0.2-1.1,0.2c-3.7,0.1-7.4,0.6-11.2,0
		c-4-0.6-7.9-1.7-11.3-4c-3.8-2.6-6.3-6.2-7.8-10.4c-2.6-6.9-2.8-14-1-21.2c1.4-5.7,4.9-10,9.7-13.2c5.7-4,12.1-5.5,19-5
		c1.5,0.1,2.9,0.3,4.3,0.6c0.6,0.1,0.8,0.4,0.7,0.9c0,0.3,0,0.6,0,1C274.6,193.2,274.6,201.5,274.6,209.7z"/>
</g>
</svg>
